<svg width="449" height="436" viewBox="0 0 449 436" fill="none" xmlns="http://www.w3.org/2000/svg">
<g clip-path="url(#clip0)">
<path d="M120.943 264.045C120.943 264.045 122.297 207.056 96.0764 191.804C69.857 176.551 20.0032 167.015 18.1339 85.1857C17.0392 37.2797 15.8555 16.3331 15.0628 7.20052C14.7532 3.63788 17.9165 0.76146 21.427 1.4235C46.2588 6.10618 126.93 25.3825 143.844 80.503C163.893 145.849 120.943 264.045 120.943 264.045Z" fill="#91B3FA"/>
<path opacity="0.6" d="M40.6314 24.1916C67.8896 48.5285 99.4103 91.6007 116.211 134.671C118.367 141.769 124.675 156.865 127.414 183.687C129.86 206.056 128.645 229.693 125.678 245.34C125.491 246.329 124.538 246.979 123.549 246.791C121.85 246.469 122.075 244.639 122.092 244.696C125.48 217.963 124.074 184.689 116.311 154.667C106.392 117.803 84.269 82.0615 61.388 51.748L59.0325 48.7628C41.3048 25.9721 37.5724 25.8028 39.2302 24.2142C39.6198 23.8409 40.2328 23.8379 40.6314 24.1916Z" fill="white"/>
<path d="M163.08 373.613C166.626 375.355 129.495 328.611 117.864 255.198C112.383 220.604 112.312 177.26 92.6263 160.558C76.2424 146.656 20.4924 155.432 2.24977 158.768C-0.030181 159.185 -0.79721 162.068 0.976922 163.559C9.72528 170.914 28.439 188.262 33.3144 205.744C39.7406 228.789 61.6266 243.446 81.219 247.412C100.811 251.378 111.711 255.228 121.255 286.595C130.803 317.961 153.001 368.665 163.08 373.613Z" fill="#7D97F4"/>
<path opacity="0.6" d="M27.906 168.504C51.1795 169.48 76.1623 180.107 88.8394 200.043L90.0368 201.946C92.7999 206.406 108.464 238.117 117.162 264.402C117.271 264.73 117.093 265.084 116.765 265.192C116.209 265.377 115.93 264.765 115.983 264.819C109.922 249.97 101.218 231.142 94.2841 217.064C86.8494 201.701 81.6463 191.297 64.6871 181.332C45.8118 170.599 27.7791 169.495 27.832 169.506C27.5572 169.477 27.3563 169.232 27.385 168.956C27.4137 168.688 27.6447 168.493 27.906 168.504Z" fill="white"/>
<path d="M79.5294 72.8413C79.5294 58.8114 90.8914 47.4373 104.906 47.4373H320.716C332.622 47.4373 342.439 56.7769 343.044 68.6816L358.974 381.9C359.448 391.215 352.123 399.072 342.807 399.241L95.4634 403.741C86.7105 403.9 79.5294 396.841 79.5294 388.077V72.8413Z" fill="url(#paint0_linear)"/>
<path d="M131.613 398.418H131.606L103.929 398.059C94.6752 397.938 87.1453 390.304 87.1453 381.04V339.208C87.1453 338.882 87.4096 338.617 87.7357 338.617C88.0618 338.617 88.3261 338.882 88.3261 339.208V381.04C88.3261 389.66 95.332 396.764 103.943 396.876L131.619 397.234C131.946 397.239 132.207 397.506 132.202 397.833C132.199 398.158 131.936 398.418 131.613 398.418Z" fill="#BDD0FB"/>
<path d="M87.7372 326.841C87.4111 326.841 87.1469 326.577 87.1469 326.25V319.476C87.1469 319.149 87.4111 318.885 87.7372 318.885C88.0634 318.885 88.3276 319.149 88.3276 319.476V326.25C88.3276 326.577 88.0634 326.841 87.7372 326.841Z" fill="#BDD0FB"/>
<path d="M97.2088 52.2588C97.1816 47.7696 101.125 44.2962 105.569 44.8993C135.039 48.9002 236.382 61.2735 320.171 54.8345C323.993 54.5412 327.308 57.4388 327.512 61.2705L344.215 375.885C344.444 380.199 341.153 383.889 336.845 384.143C301.605 386.23 156.477 394.301 104.711 388.874C101.56 388.543 99.1701 385.888 99.1505 382.717L97.2088 52.2588Z" fill="#7D97F4"/>
<path opacity="0.6" d="M100.68 60.143C100.654 55.8231 104.45 52.4796 108.726 53.06C137.087 56.9099 234.613 68.8176 315.247 62.6219C318.924 62.3392 322.116 65.128 322.312 68.8146L338.386 371.582C338.607 375.734 335.441 379.283 331.294 379.529C297.382 381.538 157.718 389.304 107.902 384.082C104.87 383.765 102.569 381.209 102.551 378.157L100.68 60.143Z" fill="white"/>
<path d="M226.196 4.73233C218.401 -0.697041 211.623 -0.589723 206.852 0.820522C202.499 2.10682 199.678 6.31337 200.092 10.8373L202.15 33.3212L226.636 35.4962C226.634 35.4962 241.484 15.3779 226.196 4.73233ZM215.428 22.8705C212.056 22.8705 209.322 20.1347 209.322 16.758C209.322 13.3812 212.055 10.6454 215.428 10.6454C218.799 10.6454 221.534 13.3812 221.534 16.758C221.534 20.1347 218.799 22.8705 215.428 22.8705Z" fill="url(#paint1_linear)"/>
<path d="M204.594 23.8622C204.292 23.8622 204.034 23.6324 204.007 23.3241L203.679 19.7433C203.649 19.4183 203.889 19.1311 204.214 19.1009C204.546 19.0691 204.827 19.311 204.855 19.636L205.183 23.2167C205.213 23.5417 204.973 23.8289 204.649 23.8591C204.63 23.8622 204.612 23.8622 204.594 23.8622ZM203.953 16.8457C203.651 16.8457 203.392 16.6159 203.365 16.3076L203.116 13.5899C202.722 9.28055 205.431 5.26747 209.557 4.04768C212.48 3.1846 215.491 3.06066 218.506 3.68038C218.827 3.74537 219.032 4.05826 218.967 4.3787C218.902 4.69763 218.591 4.9032 218.269 4.83971C215.444 4.2608 212.627 4.37568 209.892 5.18283C206.305 6.2424 203.951 9.734 204.294 13.4826L204.543 16.2003C204.573 16.5253 204.333 16.8124 204.008 16.8427C203.989 16.8457 203.971 16.8457 203.953 16.8457Z" fill="#BDD0FB"/>
<path d="M168.73 47.8512V36.5466C168.73 32.6438 171.961 29.5195 175.856 29.6525L253.711 32.3234C257.166 32.4413 259.965 35.1726 260.172 38.6264L260.823 49.4882L168.73 47.8512Z" fill="url(#paint2_linear)"/>
<path d="M197.759 33.9122H194.412C194.085 33.9122 193.821 33.6477 193.821 33.3212C193.821 32.9947 194.085 32.7302 194.412 32.7302H197.759C198.085 32.7302 198.349 32.9947 198.349 33.3212C198.351 33.6477 198.087 33.9122 197.759 33.9122Z" fill="#BDD0FB"/>
<path d="M172.944 44.3009C172.618 44.3009 172.353 44.0364 172.353 43.7099V39.1361C172.353 35.6022 175.225 32.7288 178.754 32.7288H191.063C191.389 32.7288 191.653 32.9933 191.653 33.3198C191.653 33.6463 191.389 33.9108 191.063 33.9108H178.754C175.876 33.9108 173.534 36.2551 173.534 39.1361V43.7099C173.534 44.0364 173.27 44.3009 172.944 44.3009Z" fill="#BDD0FB"/>
<path d="M137.007 50.7053C137.194 46.7904 140.419 43.713 144.334 43.713L280.479 43.71C285.374 43.71 289.559 47.2363 290.394 52.0656L290.509 52.7322C291.424 58.021 287.356 62.8593 281.993 62.8593H142.318C139.11 62.8593 136.552 60.1734 136.706 56.9644L137.007 50.7053Z" fill="url(#paint3_linear)"/>
<path d="M443.373 273.885L211.99 165.423L195.914 199.451L426.984 310.287C431.891 312.641 437.769 311.124 440.946 306.702C444.211 302.16 447.611 294.897 448.858 283.647C449.313 279.556 447.096 275.63 443.373 273.885Z" fill="url(#paint4_linear)"/>
<path d="M138.74 149.149L171.446 156.415C170.972 160.972 168.911 166.728 163.209 173.008L137.328 152.084C135.954 150.973 137.017 148.766 138.74 149.149Z" fill="url(#paint5_linear)"/>
<path d="M211.99 165.423C211.375 187.662 195.914 199.45 195.914 199.45L163.209 173.009C168.911 166.729 170.972 160.973 171.446 156.416L211.99 165.423Z" fill="url(#paint6_linear)"/>
<path d="M439.358 284.408C439.648 284.437 439.938 284.283 440.067 284.002C440.232 283.648 440.08 283.226 439.725 283.061L218.303 179.808C217.948 179.643 217.527 179.796 217.364 180.151C217.197 180.505 217.351 180.927 217.706 181.092L439.128 284.345C439.202 284.379 439.281 284.401 439.358 284.408Z" fill="#7D97F4"/>
<path d="M434.07 297.855C434.36 297.883 434.65 297.729 434.78 297.448C434.946 297.094 434.792 296.673 434.437 296.508L213.015 193.253C212.66 193.089 212.24 193.241 212.076 193.596C211.91 193.95 212.064 194.372 212.419 194.537L433.841 297.791C433.915 297.828 433.993 297.849 434.07 297.855Z" fill="#7D97F4"/>
<path d="M334.055 318.39L350.99 322.628L346.756 354.414C346.756 354.414 353.106 360.772 355.223 369.248C357.34 377.725 359.292 413.315 359.292 413.315L363.31 415.747L363.799 417.777L352.108 433.513L354.047 420.989C354.355 419.001 353.822 414.969 353.99 414.884C347.639 397.931 334.055 350.176 334.055 350.176V318.39Z" fill="url(#paint7_linear)"/>
<path d="M329.107 417.996C329.289 417.993 329.47 418.008 329.655 417.996C328.836 407.777 325.096 362.797 321.355 345.939C317.121 326.867 327.705 288.724 327.705 288.724L346.757 307.796L336.173 343.82C343.426 354.712 334.989 418.495 335.172 418.466L335.16 418.608L337.921 422.41L337.586 424.47L320.715 434.437L327.354 423.645C328.406 421.932 328.987 419.99 329.107 417.996Z" fill="url(#paint8_linear)"/>
<path d="M350.535 204.139C350.535 204.139 387.629 245.99 350.535 267.449L346.756 264.71C346.756 264.71 365.172 247.057 346.756 225.447L350.535 204.139Z" fill="url(#paint9_linear)"/>
<path d="M319.602 436H324.986C325.995 436 326.944 435.537 327.559 434.738C329.238 432.555 332.715 428.294 334.378 428.184C336.617 428.034 336.33 436 336.33 436H337.585L339.175 426.101C339.575 423.61 338.337 421.143 336.103 419.976C336.103 419.976 335.592 423.764 332.818 425.44C330.044 427.116 321.528 433.117 321.528 433.117C321.528 433.117 320.485 432.969 319.341 433.176C317.639 433.481 317.876 436 319.602 436Z" fill="url(#paint10_linear)"/>
<path d="M351.69 435.386L356.653 433.296C357.582 432.904 358.279 432.109 358.536 431.133C359.238 428.469 360.793 423.193 362.282 422.444C364.287 421.438 367.109 428.891 367.109 428.891L368.266 428.404L365.897 418.663C365.3 416.211 363.205 414.418 360.694 414.21C360.694 414.21 361.689 417.901 359.782 420.522C357.873 423.143 352.348 431.981 352.348 431.981C352.348 431.981 351.329 432.248 350.354 432.883C348.904 433.826 350.099 436.056 351.69 435.386Z" fill="url(#paint11_linear)"/>
<path d="M322.853 256.475C322.853 256.475 323.475 260.295 322.563 270.796C321.651 281.296 317.29 305.95 318.178 329.539C318.178 329.539 330.573 332.431 352.107 331.061C352.107 331.061 361.195 294.232 358.981 280.232C356.768 266.231 344.758 256.187 344.758 256.187L322.853 256.475Z" fill="url(#paint12_linear)"/>
<path d="M332.012 186.306L330.496 204.139H344.89L341.311 176.918L332.012 186.306Z" fill="url(#paint13_linear)"/>
<path d="M349.154 201.673C344.186 201.398 333.081 200.891 325.213 201.32C321.071 201.546 317.6 204.522 316.753 208.586L314.833 217.793C314.119 221.223 314.225 224.772 315.146 228.151L322.854 256.476C322.854 256.476 329.709 260.601 344.76 256.187C344.76 256.187 357.977 224.634 352.566 204.451C352.145 202.882 350.772 201.762 349.154 201.673Z" fill="url(#paint14_linear)"/>
<path d="M317.129 206.936C315.009 212.527 313.094 218.388 311.036 223.88C309.99 226.628 308.93 229.321 307.794 231.796C307.221 233.027 306.589 234.16 306.011 235.186C305.431 236.202 304.779 237.047 304.439 237.437C304.373 237.494 304.596 237.538 304.67 237.542C304.716 237.548 303.237 237.786 302.783 237.861L301.012 237.851C298.472 237.719 295.596 237.272 292.71 236.711C286.891 235.624 280.841 234.099 274.628 232.946L274.58 232.937C273.391 232.716 272.248 233.502 272.028 234.692C271.883 235.476 272.177 236.242 272.734 236.737C275.239 238.944 277.894 240.757 280.649 242.523C282.035 243.371 283.446 244.204 284.88 245.002C286.342 245.748 287.808 246.5 289.331 247.195C292.398 248.533 295.564 249.764 299.214 250.555C300.172 250.715 301.119 250.884 302.105 251.016C303.212 251.054 304.216 251.152 305.425 251.082C306.067 251.019 306.712 250.94 307.355 250.847C307.698 250.786 307.95 250.78 308.365 250.665C308.806 250.532 309.245 250.384 309.679 250.221C310.585 249.896 311.17 249.501 311.906 249.092C312.517 248.688 313.074 248.267 313.615 247.834C315.61 246.134 316.848 244.445 317.939 242.825C319.028 241.206 319.892 239.583 320.666 237.993C322.22 234.817 323.434 231.67 324.418 228.502C326.413 222.152 327.766 215.911 328.335 209.283C328.608 206.107 326.259 203.313 323.087 203.039C320.461 202.812 318.096 204.386 317.204 206.735L317.129 206.936Z" fill="url(#paint15_linear)"/>
<path d="M276.585 235.793L274.016 229.69L260.498 226.318C260.498 226.318 259.417 228.664 265.094 229.69C265.094 229.69 263.067 231.934 264.148 234.572C265.229 237.211 276.719 239.855 276.585 235.793Z" fill="url(#paint16_linear)"/>
<path d="M325.918 165.71C325.404 166.014 321.355 180.31 324.747 186.305C328.14 192.3 338.503 185.585 341.311 176.917C344.118 168.25 339.606 157.628 325.918 165.71Z" fill="url(#paint17_linear)"/>
<path d="M352.773 176.918C355.096 188.318 362.798 185.198 368.252 190.27C377.093 198.489 389.738 190.016 402.033 197.806C410.908 203.429 415.184 217.815 410.927 229.431C405.027 245.52 384.867 252.136 374.42 247.236C364.435 242.553 365.858 228.528 352.422 223.106C346.72 220.805 343.904 222.3 340.488 218.889C334.509 212.918 336.122 201.331 336.744 196.867C338.092 187.181 341.337 185.428 339.786 181.172C336.771 172.892 322.705 174.601 321.533 168.756C320.465 163.434 330.66 153.345 340.254 154.935C355.098 157.394 351.738 171.84 352.773 176.918Z" fill="url(#paint18_linear)"/>
<path d="M406.493 226.706C406.67 226.706 406.829 226.587 406.871 226.409C408.772 218.511 407.91 212.033 404.307 207.156C398.329 199.062 386.711 198.261 386.594 198.255C386.412 198.225 386.197 198.405 386.184 198.619C386.17 198.834 386.333 199.018 386.548 199.03C386.661 199.038 397.928 199.819 403.687 207.623C407.143 212.306 407.961 218.565 406.116 226.227C406.066 226.436 406.194 226.646 406.403 226.697C406.432 226.703 406.463 226.706 406.493 226.706Z" fill="#91B3FA"/>
<path d="M368.441 233.937C368.458 233.937 368.474 233.934 368.491 233.931C368.593 233.904 368.657 233.798 368.63 233.694C366.779 226.584 363.529 221.646 358.975 219.016C355.663 217.102 352.56 216.925 349.822 216.768C347.183 216.615 344.905 216.484 343.07 214.851C339.279 211.476 339.498 203.359 343.722 190.728C343.757 190.626 343.701 190.516 343.6 190.481C343.497 190.447 343.389 190.502 343.354 190.604C339.075 203.397 338.892 211.652 342.812 215.14C344.748 216.863 347.089 216.999 349.801 217.155C352.495 217.311 355.548 217.486 358.782 219.353C363.242 221.928 366.43 226.786 368.254 233.792C368.276 233.88 368.355 233.937 368.441 233.937Z" fill="#91B3FA"/>
<path d="M347.275 174.089C347.296 174.089 347.316 174.086 347.337 174.078C347.438 174.044 347.494 173.933 347.459 173.832C345.987 169.449 341.747 170.1 337.255 170.792C334.412 171.231 331.473 171.681 328.98 170.942C327.12 170.39 326.014 169.535 325.694 168.398C325.149 166.465 327.059 164.308 327.079 164.285C327.151 164.205 327.144 164.083 327.064 164.012C326.985 163.939 326.861 163.947 326.789 164.027C326.704 164.121 324.716 166.362 325.318 168.504C325.676 169.777 326.87 170.723 328.867 171.315C331.445 172.08 334.427 171.622 337.313 171.178C341.821 170.485 345.721 169.884 347.089 173.957C347.118 174.039 347.194 174.089 347.275 174.089Z" fill="#91B3FA"/>
</g>
<defs>
<linearGradient id="paint0_linear" x1="258.385" y1="70.5805" x2="188.993" y2="347.852" gradientUnits="userSpaceOnUse">
<stop stop-color="#4F52FF"/>
<stop offset="1" stop-color="#4042E2"/>
</linearGradient>
<linearGradient id="paint1_linear" x1="203.698" y1="98.4304" x2="229.627" y2="-70.6879" gradientUnits="userSpaceOnUse">
<stop stop-color="#09005D"/>
<stop offset="1" stop-color="#1A0F91"/>
</linearGradient>
<linearGradient id="paint2_linear" x1="218.649" y1="4.87949" x2="204.159" y2="146.577" gradientUnits="userSpaceOnUse">
<stop stop-color="#09005D"/>
<stop offset="1" stop-color="#1A0F91"/>
</linearGradient>
<linearGradient id="paint3_linear" x1="248.653" y1="-11.234" x2="179.999" y2="114.693" gradientUnits="userSpaceOnUse">
<stop stop-color="#4F52FF"/>
<stop offset="1" stop-color="#4042E2"/>
</linearGradient>
<linearGradient id="paint4_linear" x1="332.106" y1="234.168" x2="219.137" y2="287.622" gradientUnits="userSpaceOnUse">
<stop stop-color="#09005D"/>
<stop offset="1" stop-color="#1A0F91"/>
</linearGradient>
<linearGradient id="paint5_linear" x1="191.335" y1="193.256" x2="149.352" y2="149.042" gradientUnits="userSpaceOnUse">
<stop stop-color="#09005D"/>
<stop offset="1" stop-color="#1A0F91"/>
</linearGradient>
<linearGradient id="paint6_linear" x1="156.95" y1="130.922" x2="309.828" y2="321.521" gradientUnits="userSpaceOnUse">
<stop stop-color="#FE7062"/>
<stop offset="1" stop-color="#FF928E"/>
</linearGradient>
<linearGradient id="paint7_linear" x1="306.924" y1="435.484" x2="367.637" y2="338.269" gradientUnits="userSpaceOnUse">
<stop stop-color="#FEBBBA"/>
<stop offset="1" stop-color="#FF928E"/>
</linearGradient>
<linearGradient id="paint8_linear" x1="333.615" y1="312.986" x2="332.721" y2="437.033" gradientUnits="userSpaceOnUse">
<stop stop-color="#FEBBBA"/>
<stop offset="1" stop-color="#FF928E"/>
</linearGradient>
<linearGradient id="paint9_linear" x1="367.021" y1="235.793" x2="346.756" y2="235.793" gradientUnits="userSpaceOnUse">
<stop stop-color="#FEBBBA"/>
<stop offset="1" stop-color="#FF928E"/>
</linearGradient>
<linearGradient id="paint10_linear" x1="350.514" y1="396.733" x2="332.752" y2="426.759" gradientUnits="userSpaceOnUse">
<stop stop-color="#09005D"/>
<stop offset="1" stop-color="#1A0F91"/>
</linearGradient>
<linearGradient id="paint11_linear" x1="364.971" y1="387.192" x2="360.253" y2="421.766" gradientUnits="userSpaceOnUse">
<stop stop-color="#09005D"/>
<stop offset="1" stop-color="#1A0F91"/>
</linearGradient>
<linearGradient id="paint12_linear" x1="383.183" y1="195.728" x2="333.166" y2="302.794" gradientUnits="userSpaceOnUse">
<stop stop-color="#09005D"/>
<stop offset="1" stop-color="#1A0F91"/>
</linearGradient>
<linearGradient id="paint13_linear" x1="344.889" y1="190.528" x2="330.496" y2="190.528" gradientUnits="userSpaceOnUse">
<stop stop-color="#FEBBBA"/>
<stop offset="1" stop-color="#FF928E"/>
</linearGradient>
<linearGradient id="paint14_linear" x1="318.958" y1="206.139" x2="395.276" y2="303.943" gradientUnits="userSpaceOnUse">
<stop stop-color="#FE7062"/>
<stop offset="1" stop-color="#FF928E"/>
</linearGradient>
<linearGradient id="paint15_linear" x1="260.443" y1="198.743" x2="384.991" y2="270.018" gradientUnits="userSpaceOnUse">
<stop stop-color="#FEBBBA"/>
<stop offset="1" stop-color="#FF928E"/>
</linearGradient>
<linearGradient id="paint16_linear" x1="248.075" y1="220.356" x2="372.623" y2="291.631" gradientUnits="userSpaceOnUse">
<stop stop-color="#FEBBBA"/>
<stop offset="1" stop-color="#FF928E"/>
</linearGradient>
<linearGradient id="paint17_linear" x1="348.109" y1="148.572" x2="299.003" y2="227.058" gradientUnits="userSpaceOnUse">
<stop stop-color="#FEBBBA"/>
<stop offset="1" stop-color="#FF928E"/>
</linearGradient>
<linearGradient id="paint18_linear" x1="361.028" y1="157.814" x2="381.277" y2="275.613" gradientUnits="userSpaceOnUse">
<stop stop-color="#09005D"/>
<stop offset="1" stop-color="#1A0F91"/>
</linearGradient>
<clipPath id="clip0">
<rect width="448.919" height="436" fill="white"/>
</clipPath>
</defs>
</svg>
