<svg width="459" height="281" viewBox="0 0 459 281" fill="none" xmlns="http://www.w3.org/2000/svg">
<g clip-path="url(#clip0)">
<path d="M446.014 154.687C438.056 146.605 428.645 138.72 426.191 127.746C421.944 108.755 440.104 92.562 446.049 74.0143C450.158 61.1903 448.038 46.5884 440.441 35.3975C432.844 24.2066 419.922 16.6569 406.271 15.4293C382.781 13.3161 359.791 28.8365 336.653 24.3426C318.125 20.7431 303.483 4.86537 284.675 3.16427C262.544 1.16284 244.18 19.077 223.046 25.8223C197.767 33.8893 170.359 25.4584 145.505 16.2053C120.651 6.95448 94.4999 -3.36832 68.303 1.05981C39.1402 5.98775 14.6914 30.9058 10.79 59.6689C6.9237 88.1756 39.3417 111.057 11.7473 145.285C3.12309 155.983 -2.61179 170.874 1.19978 183.988C4.90401 196.728 20.6672 204.787 20.7811 218.034C20.871 228.492 10.8163 236.814 10.0058 247.242C9.3114 256.192 15.8765 264.468 23.9443 268.709C32.0121 272.951 41.3746 273.988 50.4763 274.95L50.4741 274.953C49.9593 275.494 49.817 276.259 50.1083 276.93C50.3974 277.601 51.07 278.061 51.8476 278.125C96.3597 281.764 141.128 280.891 185.793 280.017C258.371 278.594 330.948 277.173 403.526 275.751C410.985 275.604 418.625 275.424 425.576 272.765C432.527 270.106 438.759 264.413 439.819 257.17C441.622 244.846 428.483 234.15 429.699 221.758C431.249 205.933 453.974 199.828 458.298 184.505C461.35 173.676 453.972 162.77 446.014 154.687Z" fill="url(#paint0_linear)"/>
</g>
<g clip-path="url(#clip1)">
<path d="M229.06 160.989L222.886 216.445H294.51L285.181 160.989H229.06Z" fill="url(#paint1_linear)"/>
<path d="M104.429 20.3925V151.088C104.429 161.839 112.982 170.631 123.713 170.909C171.373 172.139 338.06 175.124 383.428 174.455C391.225 174.34 397.542 168.09 397.768 160.282C398.643 129.92 400.064 56.9095 394.805 23.0135C393.697 15.8758 387.683 10.5376 380.474 10.3069C340.541 9.0251 163.841 4.96252 118.495 5.98182C110.674 6.15761 104.429 12.5567 104.429 20.3925Z" fill="url(#paint2_linear)"/>
<path d="M112.617 19.7565V143.926C112.617 150.203 117.648 155.317 123.913 155.411L376.9 158.543C383.113 158.635 388.205 153.629 388.228 147.406L388.651 24.3465C388.668 19.8969 385.128 16.2506 380.687 16.1419L121.676 10.9001C116.708 10.7793 112.617 14.7796 112.617 19.7565Z" fill="url(#paint3_linear)"/>
<path d="M390.133 163.687C390.131 163.687 390.129 163.687 390.126 163.687L112.609 158.95C112.385 158.947 112.206 158.761 112.209 158.537C112.213 158.312 112.396 158.135 112.623 158.136L390.139 162.873C390.364 162.876 390.543 163.062 390.539 163.286C390.537 163.509 390.355 163.687 390.133 163.687Z" fill="#7D97F4"/>
<path d="M309.938 227.792H205.112C202.263 227.792 200.126 225.762 200.675 223.581L202.021 218.252C202.425 216.649 204.185 215.474 206.275 215.408L307.332 212.25C309.516 212.181 311.45 213.342 311.926 215.007L314.351 223.494C314.98 225.7 312.831 227.792 309.938 227.792Z" fill="url(#paint4_linear)"/>
<path d="M112.617 19.7565V143.926C112.617 150.203 117.648 155.317 123.913 155.411L376.9 158.543C383.113 158.635 388.205 153.629 388.228 147.406L388.651 24.3465C388.668 19.8969 385.128 16.2506 380.687 16.1419L121.676 10.9001C116.708 10.7793 112.617 14.7796 112.617 19.7565Z" fill="#91B3FA"/>
<path d="M388.603 38.7389L388.653 24.3184C388.67 19.8688 385.129 16.2359 380.688 16.1273L121.743 10.8928C116.775 10.7719 112.749 14.7784 112.749 19.7553V38.7389H388.603Z" fill="url(#paint5_linear)"/>
<path d="M132.162 28.4719C132.539 26.8756 131.552 25.2759 129.958 24.8989C128.364 24.522 126.767 25.5105 126.391 27.1069C126.014 28.7032 127.001 30.3029 128.595 30.6798C130.189 31.0568 131.786 30.0683 132.162 28.4719Z" fill="#91B3FA"/>
<path d="M142.437 28.4731C142.814 26.8768 141.827 25.2771 140.233 24.9002C138.639 24.5232 137.042 25.5118 136.666 27.1081C136.29 28.7044 137.277 30.3041 138.87 30.681C140.464 31.058 142.061 30.0695 142.437 28.4731Z" fill="#91B3FA"/>
<path d="M152.436 28.2604C152.698 26.6412 151.601 25.1156 149.984 24.8528C148.368 24.5901 146.844 25.6896 146.582 27.3088C146.32 28.9279 147.418 30.4535 149.034 30.7163C150.651 30.9791 152.174 29.8795 152.436 28.2604Z" fill="#91B3FA"/>
<path d="M373.234 151.752L130.053 148.241C126.357 148.187 123.389 145.171 123.389 141.468V117.09C123.389 113.645 126.198 110.863 129.638 110.902L373.39 113.678C376.188 113.71 378.441 115.991 378.441 118.795V146.612C378.439 149.48 376.097 151.793 373.234 151.752Z" fill="#BDD0FB"/>
<path d="M285.685 107.855L130.232 105.615C126.436 105.56 123.388 102.463 123.388 98.6608V50.4591C123.388 47.7369 125.591 45.5298 128.309 45.5298H284.65C287.77 45.5298 290.3 48.064 290.3 51.1891V103.298C290.3 105.841 288.222 107.892 285.685 107.855Z" fill="#BDD0FB"/>
<path d="M373.306 107.923H299.247C296.632 107.923 294.511 105.798 294.511 103.179V51.4393C294.511 48.1751 297.152 45.5298 300.411 45.5298H374.881C376.846 45.5298 378.441 47.1265 378.441 49.0955V102.78C378.439 105.62 376.141 107.923 373.306 107.923Z" fill="#BDD0FB"/>
<path d="M75.3848 223.451C75.3848 225.425 76.9996 227.041 78.9716 227.041H272.957C274.93 227.041 276.544 225.426 276.544 223.451L278.158 111.792C278.158 109.818 275.836 105.963 271.579 106.254L81.9965 101.34C79.5212 101.276 77.1276 102.23 75.3738 103.981C73.6212 105.731 72.6621 108.124 72.7206 110.601L75.3848 223.451Z" fill="url(#paint6_linear)"/>
<path d="M78.9265 220.008C78.9265 221.878 80.4536 223.407 82.3207 223.407H268.281C270.148 223.407 271.675 221.878 271.675 220.008L273.199 118.643C273.019 112.543 267.68 110.351 264.443 110.48L82.7436 105.597C81.0045 105.551 79.3226 106.222 78.0916 107.453C76.8595 108.683 76.1818 110.368 76.2257 112.11L78.9265 220.008Z" fill="#91B3FA"/>
<path d="M60.3368 236.31H287.66C288.039 236.31 288.349 236 288.349 235.621V227.19C288.349 226.811 288.039 226.501 287.66 226.501H60.3368C59.9578 226.501 59.6482 226.811 59.6482 227.19V235.621C59.6482 236 59.9578 236.31 60.3368 236.31Z" fill="url(#paint7_linear)"/>
<path d="M273.046 128.864L273.197 118.708C273.018 112.608 267.679 110.382 264.442 110.512L82.7424 105.614C81.0032 105.568 79.3213 106.231 78.0904 107.461C76.8582 108.692 76.1818 110.437 76.2245 112.179L76.6413 128.865H273.046V128.864Z" fill="url(#paint8_linear)"/>
<path d="M269.665 171.852C269.665 171.852 269.661 171.852 269.658 171.852C269.384 171.849 269.163 171.622 269.168 171.347L269.289 163.126C269.292 162.854 269.514 162.636 269.786 162.636C269.789 162.636 269.791 162.636 269.791 162.636C270.069 162.639 270.288 162.866 270.283 163.141L270.163 171.361C270.158 171.634 269.936 171.852 269.665 171.852Z" fill="white"/>
<path d="M269.96 151.708C269.958 151.708 269.955 151.708 269.953 151.708C269.679 151.704 269.458 151.477 269.463 151.202L269.925 119.717C269.916 117.847 269.35 116.354 268.241 115.29C266.17 113.302 262.883 113.404 262.744 113.411L204.669 111.851C204.395 111.844 204.178 111.615 204.185 111.339C204.193 111.065 204.403 110.83 204.696 110.855L262.737 112.415C263.098 112.393 266.598 112.333 268.929 114.569C270.241 115.828 270.911 117.561 270.921 119.722L270.459 151.217C270.453 151.489 270.231 151.708 269.96 151.708Z" fill="#BDD0FB"/>
<path d="M190.9 180.505H89.0495C86.5169 180.505 84.4633 178.448 84.4633 175.911V138.41C84.4633 135.874 86.5169 133.817 89.0495 133.817H190.9C193.432 133.817 195.486 135.874 195.486 138.41V175.911C195.486 178.448 193.432 180.505 190.9 180.505Z" fill="#BDD0FB"/>
<path d="M264.379 180.505H204.562C202.747 180.505 201.276 179.031 201.276 177.214V137.108C201.276 135.29 202.747 133.817 204.562 133.817H264.379C266.193 133.817 267.664 135.29 267.664 137.108V177.214C267.664 179.031 266.193 180.505 264.379 180.505Z" fill="#BDD0FB"/>
<path d="M263.625 218.987H88.5022C86.2719 218.987 84.4633 217.175 84.4633 214.941V191.341C84.4633 189.107 86.2719 187.296 88.5022 187.296H263.627C265.857 187.296 267.665 189.107 267.665 191.341V214.941C267.664 217.175 265.856 218.987 263.625 218.987Z" fill="#BDD0FB"/>
<path d="M88.2025 117.285C88.409 116.01 87.5449 114.81 86.2726 114.603C85.0002 114.396 83.8014 115.261 83.5949 116.536C83.3884 117.81 84.2524 119.011 85.5248 119.218C86.7971 119.425 87.996 118.559 88.2025 117.285Z" fill="#91B3FA"/>
<path d="M95.3238 118.786C96.2352 117.873 96.2352 116.393 95.3238 115.48C94.4123 114.568 92.9346 114.568 92.0231 115.48C91.1117 116.393 91.1117 117.873 92.0231 118.786C92.9346 119.699 94.4123 119.699 95.3238 118.786Z" fill="#91B3FA"/>
<path d="M102.583 119.22C103.495 118.307 103.495 116.827 102.583 115.914C101.672 115.001 100.194 115.001 99.2825 115.914C98.3711 116.827 98.3711 118.307 99.2825 119.22C100.194 120.133 101.672 120.133 102.583 119.22Z" fill="#91B3FA"/>
<path d="M148.385 257.795C148.435 257.776 174.997 211.182 178.587 206.797C179.191 206.06 180.125 205.684 181.07 205.797L188.485 206.682L197.196 225.556L182.685 217.091C184.121 227.038 165.48 241.82 159.086 247.214C158.438 247.761 158.384 248.742 158.971 249.356L161.523 252.032C157.333 256.286 152.497 259.018 147.04 260.282L148.385 257.795Z" fill="url(#paint9_linear)"/>
<path d="M160.046 250.588C160.046 250.588 161.675 251.115 162.226 252.568C162.489 253.264 162.205 254.051 161.602 254.483C158.92 256.409 150.071 262.622 145.989 263.839C145.653 263.939 145.335 263.635 145.411 263.295C145.62 262.345 146.298 260.448 148.482 257.67L148.286 258.066C148.038 258.568 148.584 259.092 149.071 258.816C151.802 257.273 157.364 253.894 160.046 250.588Z" fill="url(#paint10_linear)"/>
<path d="M158.731 269.231C158.776 269.203 162.761 259.585 162.805 259.557C166.459 237.272 175.374 218.189 178.004 213.167C178.446 212.322 179.286 211.765 180.234 211.683L187.674 211.047L200.017 227.765L184.097 222.417C187.513 231.867 172.243 250.122 167.072 256.7C166.547 257.368 166.693 258.338 167.391 258.822L170.432 260.925C167.188 265.941 163.005 269.596 157.915 271.94L158.731 269.231Z" fill="url(#paint11_linear)"/>
<path d="M168.695 259.808C168.695 259.808 170.397 259.994 171.23 261.306C171.629 261.934 171.509 262.762 171.006 263.309C168.768 265.739 161.359 273.617 157.607 275.636C157.3 275.802 156.926 275.569 156.93 275.22C156.944 274.247 157.224 272.252 158.801 269.089L158.689 269.518C158.548 270.06 159.189 270.461 159.609 270.093C161.972 268.027 166.737 263.59 168.695 259.808Z" fill="url(#paint12_linear)"/>
<path d="M222.5 207.526C222.5 207.526 229.23 217.553 229.782 222.125C230.334 226.7 227.921 228.28 220.876 228.864C199.914 230.6 189.58 224.307 189.58 224.307C188.145 215.149 187.125 212.82 175.15 207.841C175.15 207.841 190.298 209.045 193.346 207.86C196.395 206.675 222.5 207.526 222.5 207.526Z" fill="url(#paint13_linear)"/>
<path d="M195.661 151.351C195.661 151.351 200.349 145.796 205.332 152.612C206.235 153.846 209.701 152.828 210.973 155.413C211.628 156.747 213.046 157.505 214.506 157.235C218.143 156.564 224.086 156.506 227.021 162.215C229.261 166.571 227.532 169.121 225.293 170.574C223.649 171.642 223.061 173.809 224.056 175.501C225.01 177.123 225.189 179.321 222.726 181.965C217.207 187.89 206.28 178.205 206.28 178.205L197.605 157.672L195.661 151.351Z" fill="url(#paint14_linear)"/>
<path d="M204.297 206.199C204.297 206.199 196.46 198.724 192.602 193.773C190.517 191.097 189.863 187.574 190.827 184.32C192.588 178.376 195.719 172.22 196.004 171.261C196.441 169.793 205.229 169.854 205.229 169.854C205.229 169.854 222.522 181.096 229.315 200.137L221.684 202.516C221.684 202.516 217.169 194.929 212.708 190.105C212.708 190.105 220.428 200.318 220.699 204.501L204.297 206.199Z" fill="url(#paint15_linear)"/>
<path d="M189.365 209.148L195.254 202.731L202.055 204.565C202.055 204.565 209.984 205.796 214.522 204.565C219.06 203.335 219.06 203.335 219.06 203.335L229.315 200.137L230.926 204.696C231.336 205.853 230.924 207.139 229.924 207.85C229.037 208.481 227.997 209.176 227.334 209.467C225.984 210.059 196.224 209.653 196.224 209.653L189.365 209.148Z" fill="url(#paint16_linear)"/>
<path d="M199.19 159.27L205.096 170.271C204.706 172.673 198.668 172.741 197.734 171.307C197.639 171.16 197.586 170.992 197.549 170.822L194.016 163.472C193.865 162.755 195.826 160.339 196.472 159.995L198.819 158.744C199.723 158.262 195.951 158.223 199.19 159.27Z" fill="url(#paint17_linear)"/>
<path d="M187.236 156.688C187.236 156.688 186.569 160.405 189.486 165.131C192.402 169.856 195.307 169.643 196.783 167.958C198.259 166.272 200.026 163.466 199.221 158.753C198.417 154.039 188.244 151.949 187.236 156.688Z" fill="url(#paint18_linear)"/>
<path d="M195.691 159.265C195.691 159.265 190.968 153.052 187.342 158.468L187.403 160.339C187.403 160.339 182.688 160.119 183.2 155.767C183.71 151.413 187.56 148.441 192.896 149.928C198.232 151.415 201.351 153.109 201.953 156.819C202.555 160.53 199.53 159.923 199.53 159.923C199.53 159.923 198.374 157.362 196.979 157.188C195.583 157.013 196.088 159.038 196.088 159.038L195.691 159.265Z" fill="url(#paint19_linear)"/>
<path d="M196.774 159.099C196.774 159.099 194.328 155.919 196.555 155.26C198.781 154.6 198.698 158.375 198.553 159.78L196.774 159.099Z" fill="url(#paint20_linear)"/>
<path d="M208.859 211.688C208.839 211.689 208.818 211.689 208.797 211.689L181.71 211.66C181.041 211.66 180.499 211.116 180.499 210.444C180.5 209.773 181.045 209.219 181.713 209.231L208.8 209.26C209.469 209.26 210.011 209.805 210.011 210.476C210.01 211.125 209.499 211.657 208.859 211.688Z" fill="url(#paint21_linear)"/>
<path d="M157.36 187.055H179.917C181.581 187.055 183.096 188.017 183.807 189.525L194.235 211.674H166.202C165.129 211.674 164.166 211.017 163.771 210.018L155.685 189.522C155.217 188.338 156.088 187.055 157.36 187.055Z" fill="url(#paint22_linear)"/>
<path d="M173.252 198.412C173.741 199.933 173.38 201.41 172.445 201.711C171.51 202.013 170.358 201.024 169.869 199.502C169.38 197.981 169.741 196.504 170.676 196.202C171.609 195.902 172.763 196.891 173.252 198.412Z" fill="url(#paint23_linear)"/>
<path d="M354.192 53.6636C354.556 52.1145 352.38 51.0854 351.048 52.167C337.521 63.1536 305.02 96.0535 313.12 153.55C323.282 225.686 305.909 252.009 284.282 268.065C284.282 268.065 313.982 260.515 332.668 233.806C378.547 168.227 347.733 81.2045 354.192 53.6636Z" fill="url(#paint24_linear)"/>
<path d="M343.899 76.1946C342.207 84.2258 340.698 92.2801 339.533 100.372C338.319 108.457 337.388 116.57 336.751 124.697C336.15 132.824 335.726 140.96 335.701 149.1C335.636 157.24 335.973 165.371 336.345 173.536C336.664 181.697 337.04 189.917 336.442 198.196C335.856 206.457 334.119 214.79 330.674 222.603C329.812 224.55 328.907 226.491 327.878 228.366C326.889 230.259 325.803 232.115 324.679 233.952C322.408 237.619 319.854 241.162 317.006 244.525C311.29 251.239 304.396 257.195 296.801 262.235C296.002 262.766 294.857 262.635 294.243 261.943C293.641 261.265 293.775 260.296 294.537 259.761L294.541 259.757C296.349 258.486 298.137 257.198 299.852 255.846C300.722 255.182 301.557 254.485 302.406 253.802C303.224 253.093 304.075 252.411 304.867 251.681C308.092 248.806 311.079 245.738 313.789 242.496C319.241 236.039 323.605 228.846 326.912 221.388C328.517 217.642 329.8 213.8 330.736 209.885C331.67 205.97 332.257 201.987 332.581 197.971C333.232 189.936 332.938 181.797 332.686 173.634C332.447 165.469 332.272 157.263 332.486 149.064C332.581 144.964 332.761 140.866 333.026 136.773C333.144 134.726 333.309 132.681 333.47 130.637C333.653 128.593 333.849 126.551 334.063 124.511C334.942 116.35 336.107 108.218 337.569 100.128C339.074 92.0445 340.827 83.9987 342.936 76.0237C342.997 75.7954 343.259 75.6538 343.522 75.7051C343.782 75.7563 343.945 75.9736 343.899 76.1946Z" fill="#7D97F4"/>
<path d="M318.631 249.466C320.419 251.367 323.564 250.82 324.64 248.442C330.575 235.318 344.005 196.693 321.825 152.193C303.094 114.616 296.502 92.4571 294.206 82.1907C293.721 80.0203 290.75 79.7309 289.854 81.7671C279.962 104.222 253.841 180.612 318.631 249.466Z" fill="#7D97F4"/>
<path d="M321.879 248.081C321.943 248.092 322.009 248.098 322.076 248.096C322.637 248.088 323.086 247.624 323.077 247.061C323.068 246.423 321.828 182.632 298.14 129.205C297.913 128.691 297.312 128.459 296.797 128.687C296.283 128.915 296.053 129.518 296.281 130.032C319.795 183.071 321.034 246.458 321.043 247.092C321.049 247.589 321.409 247.996 321.879 248.081Z" fill="#91B3FA"/>
<path d="M239.628 152.98C239.214 172.541 237.872 240.013 238.513 263.923C238.581 266.456 240.314 268.489 242.475 268.572C253.167 268.982 292.362 270.021 309.85 269.161C313.493 268.982 316.389 265.525 316.464 261.255C316.828 240.723 317.63 182.975 315.723 156.522C315.496 153.353 313.372 150.829 310.671 150.511C299.027 149.147 259.663 145.81 244.554 146.959C241.83 147.165 239.695 149.78 239.628 152.98Z" fill="url(#paint25_linear)"/>
<path d="M244.398 158.981C243.823 174.77 242.007 227.294 242.584 246.716C242.668 249.555 244.577 251.85 246.998 252.016C256.962 252.7 290.957 254.206 305.572 252.834C308.204 252.587 310.27 250.093 310.411 247.004C311.152 230.896 313.277 181.989 312.725 162.784C312.638 159.72 310.612 157.219 308.006 156.944C297.226 155.81 261.102 153.111 248.683 153.906C246.353 154.055 244.498 156.247 244.398 158.981Z" fill="#91B3FA"/>
<path opacity="0.5" d="M266.052 150.376C266.052 150.976 266.452 151.471 266.962 151.503C269.487 151.658 276.601 152.096 279.781 152.312C280.408 152.355 280.9 151.694 280.78 150.972L280.76 150.848C280.678 150.355 280.33 149.984 279.903 149.939C277.754 149.708 271.269 149.068 266.973 149.248C266.458 149.27 266.052 149.77 266.052 150.376Z" fill="white"/>
<path d="M312.813 168.76C312.805 166.638 312.776 164.552 312.727 162.804C312.639 159.74 310.613 157.229 308.007 156.954C297.228 155.82 261.104 153.116 248.685 153.911C246.353 154.06 244.499 156.269 244.399 159.003C244.31 161.451 244.246 163.381 244.111 167.201L312.813 168.76Z" fill="url(#paint26_linear)"/>
<path opacity="0.42" d="M277.974 202.411H249.878C248.217 202.411 246.871 201.021 246.871 199.309V174.599C246.871 173.034 248.12 171.775 249.638 171.812L277.993 172.511C279.553 172.549 280.798 173.865 280.798 175.474V199.497C280.799 201.106 279.534 202.411 277.974 202.411Z" fill="white"/>
<path opacity="0.42" d="M308.415 202.411H284.376C283.771 202.411 283.28 201.92 283.28 201.313V173.437C283.28 172.964 283.663 172.581 284.135 172.581H308.472C308.947 172.581 309.332 172.967 309.332 173.443V201.491C309.332 201.998 308.922 202.411 308.415 202.411Z" fill="white"/>
<path opacity="0.42" d="M308.45 226.625H246.837C246.298 226.625 245.861 226.187 245.861 225.647V207.117C245.861 206.678 246.215 206.323 246.653 206.323H308.411C308.919 206.323 309.332 206.736 309.332 207.246V225.742C309.332 226.229 308.937 226.625 308.45 226.625Z" fill="white"/>
<path opacity="0.42" d="M302.753 249.544L248.726 248.79C247.125 248.768 245.839 247.597 245.839 246.162V233.062C245.839 231.798 246.982 230.774 248.392 230.774H305.229C306.577 230.774 307.671 231.752 307.675 232.961L307.711 245.159C307.719 247.606 305.485 249.582 302.753 249.544Z" fill="white"/>
<path opacity="0.74" d="M250.764 164.088C251.737 163.684 252.2 162.567 251.797 161.592C251.393 160.617 250.278 160.154 249.304 160.558C248.331 160.962 247.869 162.079 248.272 163.054C248.675 164.029 249.791 164.492 250.764 164.088Z" fill="white"/>
<path opacity="0.74" d="M257.731 163.858C258.476 163.112 258.476 161.902 257.731 161.156C256.986 160.41 255.779 160.41 255.034 161.156C254.289 161.902 254.289 163.112 255.034 163.858C255.779 164.604 256.986 164.604 257.731 163.858Z" fill="white"/>
<path opacity="0.74" d="M263.053 164.625C264.026 164.221 264.488 163.104 264.085 162.129C263.682 161.154 262.566 160.691 261.593 161.095C260.62 161.499 260.158 162.616 260.561 163.591C260.964 164.566 262.08 165.029 263.053 164.625Z" fill="white"/>
</g>
<defs>
<linearGradient id="paint0_linear" x1="-0.000644046" y1="140.393" x2="459" y2="140.393" gradientUnits="userSpaceOnUse">
<stop stop-color="#DAE3FE"/>
<stop offset="1" stop-color="#E9EFFD"/>
</linearGradient>
<linearGradient id="paint1_linear" x1="260.122" y1="244.676" x2="256.393" y2="170.961" gradientUnits="userSpaceOnUse">
<stop stop-color="#09005D"/>
<stop offset="1" stop-color="#1A0F91"/>
</linearGradient>
<linearGradient id="paint2_linear" x1="104.429" y1="90.1848" x2="398.624" y2="90.1848" gradientUnits="userSpaceOnUse">
<stop stop-color="#09005D"/>
<stop offset="1" stop-color="#1A0F91"/>
</linearGradient>
<linearGradient id="paint3_linear" x1="263.155" y1="-80.9865" x2="240.624" y2="209.322" gradientUnits="userSpaceOnUse">
<stop stop-color="#53D8FF"/>
<stop offset="1" stop-color="#3840F7"/>
</linearGradient>
<linearGradient id="paint4_linear" x1="260.353" y1="216.86" x2="226.065" y2="292.022" gradientUnits="userSpaceOnUse">
<stop stop-color="#09005D"/>
<stop offset="1" stop-color="#1A0F91"/>
</linearGradient>
<linearGradient id="paint5_linear" x1="112.749" y1="24.8147" x2="388.652" y2="24.8147" gradientUnits="userSpaceOnUse">
<stop stop-color="#4F52FF"/>
<stop offset="1" stop-color="#4042E2"/>
</linearGradient>
<linearGradient id="paint6_linear" x1="176.041" y1="101.859" x2="172.64" y2="258.334" gradientUnits="userSpaceOnUse">
<stop stop-color="#09005D"/>
<stop offset="1" stop-color="#1A0F91"/>
</linearGradient>
<linearGradient id="paint7_linear" x1="176.97" y1="105.679" x2="174.485" y2="210.487" gradientUnits="userSpaceOnUse">
<stop stop-color="#09005D"/>
<stop offset="1" stop-color="#1A0F91"/>
</linearGradient>
<linearGradient id="paint8_linear" x1="154.676" y1="366.52" x2="178.906" y2="68.5887" gradientUnits="userSpaceOnUse">
<stop stop-color="#4F52FF"/>
<stop offset="1" stop-color="#4042E2"/>
</linearGradient>
<linearGradient id="paint9_linear" x1="142.017" y1="218.763" x2="183.93" y2="242.647" gradientUnits="userSpaceOnUse">
<stop stop-color="#FEBBBA"/>
<stop offset="1" stop-color="#FF928E"/>
</linearGradient>
<linearGradient id="paint10_linear" x1="147.492" y1="242.703" x2="166.408" y2="288.411" gradientUnits="userSpaceOnUse">
<stop stop-color="#4F52FF"/>
<stop offset="1" stop-color="#4042E2"/>
</linearGradient>
<linearGradient id="paint11_linear" x1="146.069" y1="224.734" x2="2.64821" y2="135.096" gradientUnits="userSpaceOnUse">
<stop stop-color="#FEBBBA"/>
<stop offset="1" stop-color="#FF928E"/>
</linearGradient>
<linearGradient id="paint12_linear" x1="154.808" y1="254.633" x2="182.582" y2="295.546" gradientUnits="userSpaceOnUse">
<stop stop-color="#4F52FF"/>
<stop offset="1" stop-color="#4042E2"/>
</linearGradient>
<linearGradient id="paint13_linear" x1="181.245" y1="188.7" x2="215.75" y2="226.453" gradientUnits="userSpaceOnUse">
<stop stop-color="#E1473D"/>
<stop offset="1" stop-color="#E9605A"/>
</linearGradient>
<linearGradient id="paint14_linear" x1="188.485" y1="137.409" x2="206.727" y2="158.435" gradientUnits="userSpaceOnUse">
<stop stop-color="#09005D"/>
<stop offset="1" stop-color="#1A0F91"/>
</linearGradient>
<linearGradient id="paint15_linear" x1="238.805" y1="135.695" x2="229.747" y2="152.961" gradientUnits="userSpaceOnUse">
<stop stop-color="#FF928E"/>
<stop offset="1" stop-color="#FE7062"/>
</linearGradient>
<linearGradient id="paint16_linear" x1="215.367" y1="204.962" x2="257.085" y2="204.962" gradientUnits="userSpaceOnUse">
<stop stop-color="#FEBBBA"/>
<stop offset="1" stop-color="#FF928E"/>
</linearGradient>
<linearGradient id="paint17_linear" x1="198.388" y1="184.991" x2="199.355" y2="169.94" gradientUnits="userSpaceOnUse">
<stop stop-color="#FEBBBA"/>
<stop offset="1" stop-color="#FF928E"/>
</linearGradient>
<linearGradient id="paint18_linear" x1="199.808" y1="172.256" x2="181.609" y2="137.483" gradientUnits="userSpaceOnUse">
<stop stop-color="#FEBBBA"/>
<stop offset="1" stop-color="#FF928E"/>
</linearGradient>
<linearGradient id="paint19_linear" x1="177.126" y1="152.522" x2="202.549" y2="157.614" gradientUnits="userSpaceOnUse">
<stop stop-color="#09005D"/>
<stop offset="1" stop-color="#1A0F91"/>
</linearGradient>
<linearGradient id="paint20_linear" x1="203.963" y1="170.081" x2="185.764" y2="135.309" gradientUnits="userSpaceOnUse">
<stop stop-color="#FEBBBA"/>
<stop offset="1" stop-color="#FF928E"/>
</linearGradient>
<linearGradient id="paint21_linear" x1="213.454" y1="204.479" x2="191.945" y2="211.522" gradientUnits="userSpaceOnUse">
<stop stop-color="#09005D"/>
<stop offset="1" stop-color="#1A0F91"/>
</linearGradient>
<linearGradient id="paint22_linear" x1="156.812" y1="200.961" x2="353.1" y2="184.473" gradientUnits="userSpaceOnUse">
<stop stop-color="#09005D"/>
<stop offset="1" stop-color="#1A0F91"/>
</linearGradient>
<linearGradient id="paint23_linear" x1="189.801" y1="153.984" x2="166.688" y2="210.786" gradientUnits="userSpaceOnUse">
<stop stop-color="#4F52FF"/>
<stop offset="1" stop-color="#4042E2"/>
</linearGradient>
<linearGradient id="paint24_linear" x1="284.282" y1="159.892" x2="358.399" y2="159.892" gradientUnits="userSpaceOnUse">
<stop stop-color="#4F52FF"/>
<stop offset="1" stop-color="#4042E2"/>
</linearGradient>
<linearGradient id="paint25_linear" x1="238.342" y1="208.107" x2="316.946" y2="208.107" gradientUnits="userSpaceOnUse">
<stop stop-color="#09005D"/>
<stop offset="1" stop-color="#1A0F91"/>
</linearGradient>
<linearGradient id="paint26_linear" x1="271.788" y1="264.927" x2="280.29" y2="139.296" gradientUnits="userSpaceOnUse">
<stop stop-color="#4F52FF"/>
<stop offset="1" stop-color="#4042E2"/>
</linearGradient>
<clipPath id="clip0">
<rect width="459" height="280.783" fill="white"/>
</clipPath>
<clipPath id="clip1">
<rect width="338.976" height="269.872" fill="white" transform="translate(59.6482 5.81946)"/>
</clipPath>
</defs>
</svg>
