<svg width="459" height="322" viewBox="0 0 459 322" fill="none" xmlns="http://www.w3.org/2000/svg">
<path d="M446.011 175.052C438.053 166.97 428.643 159.085 426.189 148.111C421.942 129.12 440.101 112.927 446.046 94.3796C450.156 81.5557 448.035 66.9539 440.439 55.7631C432.842 44.5723 419.92 37.0226 406.268 35.795C382.779 33.6818 359.79 49.2021 336.651 44.7082C318.123 41.1087 303.482 25.2312 284.674 23.5301C262.543 21.5287 244.18 39.4427 223.045 46.1879C197.766 54.2549 170.358 45.824 145.505 36.571C120.651 27.3203 94.5001 16.9976 68.3035 21.4256C39.1409 26.3535 14.6923 51.2714 10.7909 80.0343C6.92465 108.541 39.3424 131.422 11.7482 165.65C3.12407 176.348 -2.61076 191.239 1.20078 204.352C4.90498 217.093 20.6681 225.151 20.782 238.398C20.8718 248.857 10.8172 257.178 10.0067 267.606C9.31234 276.556 15.8774 284.831 23.9451 289.073C32.0129 293.315 41.3752 294.352 50.4769 295.314L50.4747 295.316C49.96 295.858 49.8176 296.623 50.1089 297.294C50.3981 297.965 51.0706 298.425 51.8482 298.488C96.3599 302.127 141.128 301.255 185.793 300.38C258.37 298.958 330.947 297.537 403.524 296.114C410.982 295.967 418.623 295.788 425.574 293.129C432.524 290.47 438.756 284.777 439.816 277.534C441.619 265.21 428.48 254.514 429.696 242.122C431.247 226.297 453.972 220.192 458.296 204.869C461.347 194.04 453.97 183.134 446.011 175.052Z" fill="url(#paint0_linear)"/>
<g clip-path="url(#clip0)">
<path d="M386.593 181.769C383.363 255.229 316.367 311.956 236.952 308.475C157.537 304.994 95.7782 242.623 99.008 169.162C102.238 95.7021 169.234 38.9755 248.649 42.4564C328.064 45.9374 389.823 108.311 386.593 181.769Z" fill="url(#paint1_linear)"/>
<g opacity="0.68">
<path opacity="0.68" d="M279.674 176.11C279.662 187.858 279.232 199.605 278.318 211.321C277.382 223.035 275.946 234.712 273.864 246.287C272.811 252.07 271.592 257.827 270.139 263.528C268.682 269.226 266.999 274.878 264.942 280.403C262.866 285.914 260.457 291.346 257.19 296.313C255.544 298.779 253.675 301.14 251.368 303.087C250.215 304.053 248.947 304.911 247.552 305.541C246.16 306.165 244.638 306.56 243.091 306.587C241.547 306.631 240.001 306.331 238.581 305.76C237.155 305.194 235.857 304.377 234.675 303.44C232.312 301.555 230.402 299.218 228.726 296.771C225.401 291.839 222.958 286.419 220.862 280.918C218.778 275.403 217.08 269.756 215.609 264.06C214.143 258.361 212.909 252.607 211.849 246.826C209.731 235.259 208.287 223.582 207.31 211.873C206.34 200.162 205.851 188.411 205.785 176.661C205.754 170.787 205.922 164.913 206.135 159.042C206.359 153.173 206.687 147.306 207.124 141.447C208.001 129.733 209.308 118.044 211.251 106.452C212.223 100.659 213.359 94.8874 214.722 89.1697C216.09 83.4519 217.678 77.7804 219.647 72.231C221.636 66.6986 223.957 61.2345 227.184 56.2656C228.809 53.7994 230.675 51.4454 233.001 49.5598C234.164 48.6256 235.444 47.8108 236.849 47.262C238.247 46.7034 239.766 46.4229 241.276 46.479C242.786 46.5229 244.276 46.8961 245.649 47.4986C247.025 48.1036 248.288 48.9281 249.448 49.8623C251.767 51.7406 253.687 54.0384 255.39 56.4509C258.773 61.3076 261.326 66.6644 263.537 72.1139C265.731 77.578 267.544 83.1835 269.125 88.8477C270.698 94.5142 272.032 100.244 273.185 106.006C275.472 117.537 277.067 129.197 278.123 140.9C279.146 152.609 279.645 164.36 279.674 176.11ZM277.727 176.11C277.751 164.413 277.309 152.712 276.339 141.054C275.384 129.397 273.938 117.773 271.778 106.279C270.7 100.532 269.445 94.8167 267.95 89.1672C266.449 83.5202 264.715 77.9292 262.607 72.4822C260.481 67.0523 258.016 61.7175 254.745 56.8973C253.1 54.5044 251.246 52.2333 249.021 50.3843C247.909 49.4672 246.702 48.6597 245.395 48.0645C244.09 47.4791 242.686 47.0912 241.256 47.0547C239.83 47.0107 238.403 47.2986 237.084 47.8426C235.76 48.3816 234.54 49.172 233.431 50.0867C231.21 51.9309 229.41 54.2531 227.846 56.6924C224.734 61.6126 222.501 67.0523 220.595 72.5627C218.709 78.0902 217.199 83.7446 215.912 89.4453C214.627 95.1484 213.567 100.903 212.67 106.682C209.115 129.816 207.952 153.268 208.028 176.659C207.991 188.355 208.377 200.057 209.242 211.721C210.114 223.386 211.453 235.02 213.459 246.54C214.463 252.3 215.638 258.03 217.048 263.699C218.458 269.368 220.094 274.981 222.11 280.454C224.135 285.914 226.505 291.283 229.706 296.117C231.316 298.515 233.15 300.786 235.369 302.586C236.478 303.479 237.682 304.253 238.984 304.779C240.282 305.309 241.674 305.604 243.069 305.558C244.464 305.521 245.837 305.153 247.113 304.567C248.39 303.977 249.57 303.167 250.655 302.243C252.827 300.381 254.62 298.079 256.201 295.661C259.345 290.79 261.681 285.406 263.684 279.94C265.673 274.456 267.29 268.836 268.685 263.164C270.077 257.491 271.238 251.758 272.232 245.999C274.226 234.476 275.548 222.84 276.427 211.178C277.319 199.513 277.732 187.811 277.727 176.11Z" fill="white"/>
<path opacity="0.68" d="M339.019 176.11C338.933 191.241 336.984 206.379 332.923 220.971C328.79 235.529 322.557 249.531 314.104 262.101C305.663 274.644 294.909 285.775 282.056 293.846C275.633 297.862 268.695 301.077 261.431 303.257C254.173 305.443 246.595 306.582 239.011 306.589C231.428 306.592 223.847 305.46 216.584 303.279C209.316 301.106 202.372 297.896 195.94 293.885C183.07 285.823 172.296 274.698 163.833 262.155C155.36 249.582 149.113 235.573 144.957 221.008C142.913 213.712 141.393 206.27 140.386 198.764C139.385 191.256 138.884 183.684 138.847 176.107C138.889 168.533 139.397 160.962 140.401 153.453C141.413 145.947 142.94 138.51 144.989 131.216C149.157 116.656 155.414 102.659 163.894 90.1015C172.362 77.5731 183.133 66.4595 195.998 58.4219C202.429 54.4214 209.369 51.2406 216.623 49.0671C223.872 46.8839 231.438 45.7472 239.009 45.7423C246.582 45.7545 254.146 46.901 261.39 49.0891C268.639 51.2674 275.574 54.458 281.997 58.4634C294.845 66.5132 305.597 77.6316 314.043 90.16C322.504 102.715 328.746 116.707 332.892 131.258C336.962 145.843 338.924 160.979 339.019 176.11ZM336.786 176.11C336.769 161.169 334.91 146.213 330.964 131.792C327.001 117.39 321.035 103.484 312.812 90.9772C308.703 84.7301 304.036 78.8416 298.808 73.4872C293.578 68.1427 287.8 63.303 281.479 59.283C275.149 55.2874 268.316 52.0675 261.148 49.8916C253.985 47.7157 246.504 46.5692 239.011 46.5448C231.518 46.5766 224.04 47.7304 216.879 49.9136C209.716 52.0968 202.888 55.3216 196.568 59.3245C190.255 63.3494 184.487 68.1915 179.266 73.5409C174.047 78.8977 169.391 84.7886 165.294 91.0358C157.09 103.542 151.139 117.441 147.198 131.834C145.234 139.037 143.812 146.384 142.849 153.785C141.882 161.186 141.408 168.65 141.391 176.115C141.41 183.581 141.894 191.043 142.864 198.442C143.834 205.84 145.26 213.185 147.23 220.386C151.182 234.773 157.146 248.66 165.355 261.152C169.454 267.392 174.113 273.276 179.329 278.625C184.55 283.965 190.313 288.802 196.626 292.812C202.947 296.803 209.772 300.001 216.921 302.184C224.067 304.372 231.531 305.528 239.014 305.567C246.497 305.536 253.963 304.384 261.111 302.206C268.265 300.03 275.098 296.837 281.423 292.851C287.743 288.846 293.516 284.011 298.747 278.676C303.975 273.329 308.644 267.448 312.753 261.208C320.982 248.714 326.96 234.82 330.932 220.425C334.885 206.004 336.757 191.051 336.786 176.11Z" fill="white"/>
<path opacity="0.68" d="M122.447 124.484L152.446 124.213L182.444 124.059C192.444 123.993 202.443 124.001 212.443 123.981L242.441 123.935L302.439 124.072L332.437 124.24L362.436 124.533C362.49 124.533 362.534 124.579 362.534 124.633C362.534 124.686 362.49 124.73 362.436 124.73L332.437 125.023L302.439 125.191L242.441 125.328L212.443 125.281C202.443 125.262 192.444 125.269 182.444 125.203L152.446 125.05L122.447 124.779C122.366 124.779 122.3 124.713 122.3 124.63C122.303 124.55 122.366 124.486 122.447 124.484Z" fill="white"/>
<path opacity="0.68" d="M157.249 74.3167C164.348 74.1898 171.448 74.1362 178.547 74.0459L199.846 73.8922C206.946 73.8264 214.045 73.8337 221.145 73.8142L242.444 73.7678L263.743 73.819C270.842 73.8508 277.942 73.8337 285.041 73.9044L306.34 74.0727C313.44 74.1728 320.539 74.2313 327.639 74.3655C327.693 74.3655 327.737 74.4118 327.737 74.4655C327.737 74.5191 327.693 74.5606 327.639 74.563C320.539 74.6972 313.44 74.7557 306.34 74.8558L285.041 75.0241C277.942 75.0948 270.842 75.0777 263.743 75.1095L242.444 75.1607L221.145 75.1143C214.045 75.0948 206.946 75.1021 199.846 75.0363L178.547 74.8826C171.448 74.7923 164.348 74.7387 157.249 74.6118C157.168 74.6094 157.102 74.5435 157.104 74.463C157.104 74.3825 157.17 74.3191 157.249 74.3167Z" fill="white"/>
<path opacity="0.68" d="M112.022 174.651L144.628 174.38L177.233 174.227L242.441 174.102L307.65 174.239L340.255 174.407L372.86 174.7C372.914 174.7 372.958 174.744 372.958 174.8C372.958 174.853 372.914 174.897 372.86 174.897L340.255 175.19L307.65 175.358L242.441 175.495L177.233 175.371L144.628 175.217L112.022 174.946C111.942 174.946 111.876 174.88 111.876 174.797C111.878 174.717 111.942 174.653 112.022 174.651Z" fill="white"/>
<path opacity="0.68" d="M122.447 224.818L152.446 224.548L182.444 224.394C192.444 224.328 202.443 224.335 212.443 224.316L242.441 224.269L302.439 224.406L332.437 224.574L362.436 224.867C362.49 224.867 362.534 224.911 362.534 224.967C362.534 225.021 362.49 225.065 362.436 225.065L332.437 225.357L302.439 225.526L242.441 225.662L212.443 225.616C202.443 225.596 192.444 225.604 182.444 225.538L152.446 225.384L122.447 225.113C122.366 225.113 122.3 225.048 122.3 224.965C122.303 224.884 122.366 224.818 122.447 224.818Z" fill="white"/>
<path opacity="0.68" d="M331.922 275.646H161.541C161.258 275.646 161.026 275.417 161.026 275.132C161.026 274.846 161.255 274.617 161.541 274.617H331.924C332.207 274.617 332.44 274.846 332.44 275.132C332.44 275.417 332.207 275.646 331.922 275.646Z" fill="white"/>
</g>
<path d="M332.264 74.8068C332.264 74.8068 328.836 74.9873 328.416 82.0272C328.416 82.0272 336.363 89.1403 347.098 90.8332C347.904 90.96 345.972 85.3398 345.681 84.5787C344.296 80.9563 339.945 78.6243 332.264 74.8068Z" fill="url(#paint2_linear)"/>
<path d="M293.668 66.5277H300.899C300.899 66.5277 323.097 42.0515 337.653 39.5829C337.653 39.5829 347.787 52.4991 337.113 76.6314C336.256 78.5731 333.854 79.4342 332.061 78.2926C331.526 77.9511 331.14 77.4925 330.908 76.9193L331.765 56.3142C331.765 56.3142 312.831 72.848 309.541 76.0387C306.25 79.2293 289.522 77.2852 293.668 66.5277Z" fill="url(#paint3_linear)"/>
<path d="M363.584 117.917C360.555 115.266 355.725 112.29 348.754 111.438L346.397 112.877C346.397 112.877 347.899 115.092 350.645 117.429C353.169 118.893 357.066 120.876 360.298 121.305C363.44 121.725 363.904 119.83 363.584 117.917Z" fill="url(#paint4_linear)"/>
<path d="M345.679 84.5788C343.812 85.1813 342.991 87.8231 338.254 86.0766C333.671 84.3861 330.263 82.2078 328.511 80.9515C328.472 81.293 328.438 81.6467 328.416 82.0273C328.416 82.0273 336.796 89.9844 347.53 91.6773C348.337 91.8041 348.974 91.0016 348.684 90.2405C348.161 88.8745 347.223 86.8011 345.679 84.5788Z" fill="url(#paint5_linear)"/>
<path d="M365.868 120.183C365.27 119.505 364.507 118.727 363.586 117.92C363.906 119.829 363.442 121.725 360.3 121.308C357.068 120.878 353.171 118.895 350.648 117.432C353.812 120.125 358.624 122.984 364.7 122.818C366.047 122.779 366.76 121.193 365.868 120.183Z" fill="url(#paint6_linear)"/>
<path d="M293.932 71.7528L327.798 72.1187C327.798 72.1187 347.137 88.0963 350.645 112.458C350.645 112.458 351.227 114.251 347.731 114.556C347.731 114.556 336.038 106.93 328.413 93.4482C319.064 76.9193 304.024 82.82 304.024 82.82C285.779 89.0306 279.532 79.8099 279.381 77.6292L293.932 71.7528Z" fill="url(#paint7_linear)"/>
<path d="M294.731 44.5128C294.731 44.5128 298.376 62.7565 316.239 69.9721L322.594 69.2232L324.094 71.6113L309.189 72.0845C309.189 72.0845 296.448 67.0449 289.698 53.3164C289.475 52.8651 285.757 45.2031 294.731 44.5128Z" fill="url(#paint8_linear)"/>
<path d="M296.685 71.4551C296.685 71.4551 292.539 60.2025 291.647 49.2695C291.647 49.2695 294.679 46.6667 296.575 45.5446C297.188 45.1812 297.42 44.4128 297.11 43.7688C295.718 40.8855 287.287 29.567 286.656 29.4085C283.224 28.5523 269.149 21.8709 259.237 35.4092C254.984 41.2197 260.083 59.1048 279.383 77.6267L280.023 77.7486C282.188 78.1609 284.428 77.834 286.38 76.8168L296.685 71.4551Z" fill="url(#paint9_linear)"/>
<path d="M280.71 51.7333C280.71 51.7333 292.229 65.352 306.956 67.3425C306.956 67.3425 310.762 63.8787 313.591 65.1154C316.42 66.3521 320.302 71.8114 320.302 71.8114H301.393C301.393 71.8114 283.514 71.182 274.58 60.3563C275.298 56.5705 277.451 54.3068 280.71 51.7333Z" fill="url(#paint10_linear)"/>
<path d="M273.991 19.8561L271.47 28.2498C271.355 28.6352 271.497 29.0499 271.829 29.2768C273.043 30.1061 276.214 31.7576 280.563 30.1525C281.061 29.9695 281.401 29.5061 281.445 28.9767L282.044 21.6661L273.991 19.8561Z" fill="url(#paint11_linear)"/>
<path d="M288.747 13.0601C288.747 13.0601 287.509 21.7611 284.162 24.4346C280.815 27.1106 274.294 25.0957 272.091 18.5363L276.478 7.32275L288.747 13.0601Z" fill="url(#paint12_linear)"/>
<path d="M275.985 14.5798C276.239 14.6628 276.505 14.4993 276.547 14.2359C276.666 13.4333 276.969 11.8429 277.58 10.7598C277.58 10.7598 277.26 9.61823 280.47 11.3428C283.678 13.0674 288.498 15.5995 291.335 14.092C294.1 12.621 296.903 5.22012 289.593 6.59102C289.314 6.64225 289.058 6.42271 289.08 6.13975C289.17 4.92252 289.048 2.12461 286.212 1.22694C283.556 0.385372 282.102 1.58308 281.501 2.30512C281.325 2.51735 280.998 2.51247 280.829 2.29537C280.033 1.25865 277.873 -0.94894 274.692 0.451234C272.073 1.60504 271.665 3.21499 271.709 4.22C271.724 4.54443 271.392 4.76641 271.096 4.6298C270.295 4.26146 269.002 4.06876 267.766 5.61529C266.056 7.75458 268.499 9.60847 269.232 10.0939C269.352 10.1744 269.428 10.3061 269.428 10.45C269.435 11.5624 269.608 16.4118 272.042 19.1487C272.252 19.3853 272.643 19.317 272.765 19.0243L274.639 14.5652C274.727 14.3578 274.956 14.253 275.171 14.3213L275.985 14.5798Z" fill="url(#paint13_linear)"/>
<path d="M276.024 15.4848C276.024 15.4848 274.878 10.8281 273.141 12.3405C271.402 13.8529 273.596 17.1777 275.587 17.8119L276.024 15.4848Z" fill="url(#paint14_linear)"/>
<path d="M319.349 72.8676L327.839 44.5982C328.186 43.4444 329.212 42.6272 330.414 42.5443L341.877 41.7612C343.042 41.6807 343.91 42.8175 343.521 43.9176L334.03 70.9161C333.725 71.7869 332.943 72.4016 332.024 72.4943L320.737 73.7457L319.349 72.8676Z" fill="#7D97F4"/>
<path d="M320.737 73.7458C320.718 73.7458 320.701 73.7458 320.681 73.7434L296.629 72.5286C296.035 72.4993 295.576 71.9919 295.608 71.3992C295.637 70.8064 296.145 70.338 296.739 70.3795L320.791 71.5943C321.385 71.6236 321.844 72.1285 321.812 72.7237C321.785 73.297 321.309 73.7458 320.737 73.7458Z" fill="#7D97F4"/>
<path d="M291.647 49.4842C291.528 49.4842 291.432 49.3866 291.432 49.2671C291.449 44.2518 289.51 37.5974 289.49 37.5291C289.456 37.4144 289.522 37.2949 289.637 37.2632C289.752 37.229 289.871 37.2949 289.903 37.4095C289.923 37.4778 291.879 44.1933 291.862 49.2695C291.862 49.3891 291.767 49.4842 291.647 49.4842Z" fill="url(#paint15_linear)"/>
<path d="M280.71 51.9503C280.646 51.9503 280.583 51.921 280.541 51.8674C280.487 51.8015 275.225 45.1202 273.417 40.5415C273.373 40.4318 273.427 40.3074 273.539 40.2635C273.649 40.2196 273.776 40.2732 273.818 40.3854C275.604 44.9055 280.827 51.5356 280.881 51.6039C280.954 51.6966 280.939 51.8332 280.844 51.9064C280.803 51.9357 280.756 51.9503 280.71 51.9503Z" fill="url(#paint16_linear)"/>
<path d="M273.317 62.1638L273.156 62.0955C265.538 58.839 260.833 49.7574 260.786 49.6671C260.733 49.5623 260.774 49.4305 260.879 49.3769C260.987 49.3232 261.116 49.3647 261.17 49.4696C261.216 49.5598 265.787 58.3755 273.166 61.6272L273.938 60.5368C274.006 60.4392 274.143 60.4173 274.238 60.4856C274.336 60.5539 274.358 60.688 274.289 60.7856L273.317 62.1638Z" fill="url(#paint17_linear)"/>
<path d="M108.018 277.308C105.619 267.277 106.745 257.449 110.493 249.807C113.842 242.977 114.478 235.105 112.118 227.882C111.868 227.123 111.649 226.345 111.458 225.548C108.573 213.485 113.635 201.94 122.767 199.764C131.899 197.585 141.64 205.599 144.525 217.661C145.116 220.127 145.373 222.572 145.331 224.918C145.197 232.409 147.789 239.73 152.839 245.274C157.351 250.229 160.869 256.754 162.667 264.274C165.35 275.49 163.625 286.455 158.756 294.39C156.914 297.391 155.624 300.711 154.984 304.17C153.916 309.917 150.298 314.5 145.172 315.722C139.641 317.042 133.905 314.078 130.384 308.707C128.391 305.667 125.826 303.057 122.901 300.891C115.992 295.778 110.444 287.448 108.018 277.308Z" fill="#91B3FA"/>
<path d="M122.638 213.358C123.351 221.615 124.331 229.843 125.396 238.059C125.662 240.113 125.96 242.164 126.251 244.213L126.688 247.289L127.152 250.363C127.47 252.409 127.758 254.461 128.1 256.505L129.121 262.635C129.854 266.714 130.553 270.797 131.362 274.863C131.762 276.895 132.124 278.937 132.569 280.962L133.868 287.041C135.684 295.127 137.704 303.174 140.13 311.1L140.472 311L138.884 304.999L138.483 303.501L138.122 301.994L137.403 298.976L136.678 295.959C136.434 294.954 136.228 293.939 136.001 292.932C135.561 290.909 135.107 288.892 134.679 286.87C133.025 278.761 131.481 270.634 130.104 262.474C129.446 258.388 128.753 254.31 128.125 250.219L127.643 247.153L127.189 244.081C126.884 242.035 126.581 239.988 126.297 237.939C125.696 233.844 125.122 229.746 124.582 225.643C124.02 221.542 123.5 217.434 122.989 213.329L122.638 213.358Z" fill="#BDD0FB"/>
<path d="M110.767 303.35C107.366 298.679 105.829 293.356 106.112 288.604C106.369 284.357 104.998 280.152 102.223 276.922C101.932 276.583 101.649 276.227 101.38 275.856C97.2905 270.238 97.4127 263.186 101.656 260.108C105.9 257.03 112.655 259.088 116.745 264.706C117.58 265.855 118.24 267.062 118.726 268.287C120.273 272.187 123.187 275.417 126.989 277.203C130.387 278.798 133.607 281.42 136.157 284.921C139.961 290.143 141.434 296.183 140.633 301.325C140.33 303.269 140.382 305.262 140.794 307.187C141.483 310.385 140.604 313.529 138.222 315.259C135.652 317.122 132.053 316.82 129.077 314.795C127.394 313.649 125.506 312.851 123.529 312.356C118.865 311.192 114.206 308.072 110.767 303.35Z" fill="#BDD0FB"/>
<path d="M104.524 267.162C106.674 271.278 108.954 275.322 111.275 279.342C111.854 280.347 112.45 281.342 113.044 282.34L113.933 283.835L114.834 285.323C115.44 286.314 116.031 287.311 116.647 288.297L118.496 291.248C119.755 293.2 120.996 295.161 122.288 297.091C122.933 298.057 123.561 299.032 124.225 299.984L126.207 302.847C128.887 306.641 131.665 310.365 134.626 313.946L134.782 313.822L132.669 311.061L132.139 310.37L131.626 309.668L130.604 308.26L129.581 306.855C129.239 306.387 128.914 305.909 128.579 305.436C127.917 304.484 127.245 303.54 126.59 302.584C123.989 298.747 121.438 294.876 118.968 290.951C117.749 288.98 116.51 287.019 115.303 285.04L114.395 283.557L113.498 282.067C112.899 281.074 112.301 280.081 111.712 279.081C110.517 277.093 109.34 275.098 108.177 273.09C107.004 271.09 105.849 269.08 104.7 267.065L104.524 267.162Z" fill="url(#paint18_linear)"/>
<path d="M395.151 277.798H391.775V314.261H395.151V277.798Z" fill="#7D97F4"/>
<path d="M408.251 314.964H378.672V313.371C378.672 313.039 378.941 312.771 379.276 312.771H407.601C407.96 312.771 408.251 313.061 408.251 313.42V314.964Z" fill="#7D97F4"/>
<path d="M413.846 276.454C413.846 278.574 412.109 280.308 409.985 280.308H378.184C376.061 280.308 374.324 278.574 374.324 276.454V272.97C374.324 270.851 376.061 269.116 378.184 269.116H409.985C412.109 269.116 413.846 270.851 413.846 272.97V276.454Z" fill="#7D97F4"/>
<path d="M363.528 303.189C363.528 303.189 352.61 307.885 353.235 312.797C353.235 312.797 364.52 310.636 366.54 307.416C368.561 304.196 367.447 302.33 367.447 302.33L363.528 303.189Z" fill="url(#paint19_linear)"/>
<path d="M366.201 297.823L366.755 302.606C366.838 303.328 366.438 304.04 365.753 304.287C365.411 304.411 364.959 304.494 364.371 304.496C363.538 304.501 362.8 303.955 362.578 303.152L361.503 299.284L366.201 297.823Z" fill="url(#paint20_linear)"/>
<path d="M390.05 261.135C390.05 261.135 369.97 260.208 359.978 266.026C349.986 271.844 360.484 299.767 360.484 299.767C360.484 299.767 363.093 300.328 366.853 298.322C366.853 298.322 361.49 277.881 370.806 274.324C381.279 270.326 392.114 271.3 392.114 271.3L390.106 261.767L390.05 261.135Z" fill="url(#paint21_linear)"/>
<path d="M355.429 310.641C357.711 310.141 364.483 307.341 365.512 307.377C366.54 307.414 367.996 308.953 367.996 308.953C367.996 308.953 368.248 309.795 367.513 311.002C365.768 312.361 362.011 314.854 357.64 315.127C354.425 315.327 352.493 314.051 351.386 312.812C352.356 311.87 353.91 310.973 355.429 310.641Z" fill="url(#paint22_linear)"/>
<path d="M357.64 315.127C362.008 314.854 365.768 312.361 367.512 311.002C367.017 311.817 366.069 312.8 364.288 313.805C359.873 316.295 352.576 315.932 351.127 315.371C349.966 314.922 350.325 313.841 351.386 312.812C352.492 314.051 354.427 315.327 357.64 315.127Z" fill="url(#paint23_linear)"/>
<path d="M370.395 306.45C370.246 307.014 368.646 308.712 367.723 309.656C367.283 310.104 366.645 310.297 366.032 310.163C365.643 310.078 365.201 309.946 364.82 309.738C364.248 309.429 364.051 308.704 364.363 308.136L366.701 303.889L370.395 306.45Z" fill="url(#paint24_linear)"/>
<path d="M409.951 259.454C409.951 259.454 411.703 271.871 406.636 274.407C401.569 276.944 390.453 278.606 386.625 285.045C382.796 291.485 375.919 304.123 369.662 307.755C369.662 307.755 366.088 306.594 365.045 304.84C365.045 304.84 372.472 285.345 375.572 280.606C378.255 276.503 382.178 270.59 387.753 268.033C389.349 267.302 389.473 265.611 389.192 263.879L388.682 260.728L409.951 259.454Z" fill="url(#paint25_linear)"/>
<path d="M362.981 245.379C370.085 247.404 373.266 227.438 373.237 226.953L384.13 239.669C384.13 239.669 377.639 251.073 367.837 252.287C365.358 252.595 363.249 252.165 361.478 251.356C362.783 249.226 363.081 247.121 362.981 245.379Z" fill="url(#paint26_linear)"/>
<path d="M349.822 238.844C352.92 237.574 355.546 240.11 355.546 240.11C358.615 243.247 361.048 244.831 362.981 245.379C363.081 247.121 362.785 249.226 361.481 251.358C357.652 249.607 355.422 246.067 354.501 244.301C354.171 243.665 353.394 243.396 352.747 243.708C352.089 244.026 351.413 244.509 351.371 245.165C351.288 246.46 349.744 246.536 349.734 246.058C349.724 245.579 350.929 243.021 350.929 243.021C350.929 243.021 347.372 245.299 345.987 246.172C344.601 247.043 343.421 245.606 343.421 245.606C343.421 245.606 346.727 240.115 349.822 238.844Z" fill="url(#paint27_linear)"/>
<path d="M407.213 218.739C407.213 218.739 397.665 212.236 374.605 223.999C374.605 223.999 372.23 227.004 373.342 230.392C374.453 233.78 388.144 252.119 388.677 260.728C388.677 260.728 398.036 266.228 410.186 260.774C410.188 260.774 414.263 238.042 407.213 218.739Z" fill="url(#paint28_linear)"/>
<path d="M384.995 208.553L391.105 217.805C391.479 218.537 391.401 219.425 390.888 220.069C389.85 221.369 387.68 223.116 383.979 221.989C382.877 221.654 382.034 220.759 381.77 219.64L379.813 211.399L384.995 208.553Z" fill="url(#paint29_linear)"/>
<path d="M414.283 244.518C414.93 240.03 403.052 231.334 403.052 231.334L407.213 218.742C407.213 218.742 429.874 234.89 425.108 248.077C424.424 249.968 423.405 251.346 422.164 252.322C419.765 247.404 416.511 245.362 414.283 244.518Z" fill="url(#paint30_linear)"/>
<path d="M397.714 245.762C397.714 245.762 411.148 249.509 413.936 245.426C414.124 245.148 414.236 244.843 414.283 244.518C416.508 245.362 419.765 247.404 422.164 252.319C415.785 257.33 403.487 251.714 400.145 250.029C399.595 249.751 398.962 249.697 398.376 249.88C397.189 250.251 395.129 250.826 393.981 250.763C392.302 250.67 390.499 256.727 387.643 255.195C387.643 255.195 388.941 244.845 397.714 245.762Z" fill="url(#paint31_linear)"/>
<path d="M371.05 202.696C371.04 202.855 373.823 212.461 375.242 217.356C375.677 218.852 377.317 219.632 378.753 219.032L379.855 218.571C381.36 217.942 383.991 216.003 384.138 214.38L383.637 202.774C383.637 202.774 371.248 199.147 371.05 202.696Z" fill="url(#paint32_linear)"/>
<path d="M383.551 199.557C383.837 198.471 383.857 196.849 381.8 196.134C379.708 195.41 378.299 196.612 377.566 197.554C377.268 197.934 376.747 198.034 376.317 197.812C376.073 197.686 375.77 197.664 375.428 197.92C374.969 198.264 374.307 198.115 374.011 197.622C373.442 196.676 372.367 195.705 370.427 196.215C366.985 197.117 366.926 201.02 368.048 203.206C369.169 205.391 372.846 204.201 374.627 202.894C375.983 201.901 377.918 202.647 378.77 203.064C379.039 203.196 379.232 203.442 379.298 203.735L380.261 208.048C381.331 208.153 382.381 208.345 383.434 208.55C383.417 208.231 383.41 207.955 383.415 207.753C383.454 206.323 385.12 205.323 385.85 204.952C386.09 204.83 386.266 204.618 386.344 204.362C386.617 203.455 386.923 201.386 384.292 200.779C383.74 200.654 383.407 200.103 383.551 199.557Z" fill="url(#paint33_linear)"/>
<path d="M383.952 210.285C383.952 210.285 382.164 206.392 383.554 205.279C384.944 204.167 387.174 204.486 386.95 207.438C386.669 211.112 383.952 210.285 383.952 210.285Z" fill="url(#paint34_linear)"/>
<path d="M380.561 254.303C380.537 254.305 380.512 254.305 380.488 254.305L349.101 254.271C348.325 254.271 347.697 253.641 347.699 252.866C347.699 252.09 348.332 251.451 349.106 251.466L380.493 251.5C381.27 251.5 381.897 252.129 381.895 252.905C381.895 253.654 381.304 254.266 380.561 254.303Z" fill="url(#paint35_linear)"/>
<path d="M320.889 225.85H347.027C348.955 225.85 350.711 226.96 351.532 228.702L363.616 254.285H331.133C329.889 254.285 328.773 253.527 328.316 252.373L318.944 228.699C318.404 227.333 319.416 225.85 320.889 225.85Z" fill="url(#paint36_linear)"/>
<path d="M325.125 321.516C324.952 321.516 324.776 321.481 324.605 321.411C323.935 321.133 323.627 320.384 323.913 319.735L351.574 257.576C351.862 256.929 352.636 256.632 353.306 256.907C353.975 257.186 354.283 257.934 353.997 258.583L326.337 320.742C326.124 321.228 325.636 321.516 325.125 321.516Z" fill="#91B3FA"/>
<path d="M356.286 321.516C355.776 321.516 355.29 321.228 355.075 320.745L327.414 258.586C327.126 257.939 327.436 257.188 328.106 256.91C328.775 256.632 329.549 256.929 329.838 257.578L357.498 319.737C357.787 320.384 357.476 321.135 356.807 321.413C356.638 321.484 356.46 321.516 356.286 321.516Z" fill="#91B3FA"/>
<path d="M410.748 321.516C410.574 321.516 410.398 321.481 410.227 321.411C409.558 321.133 409.25 320.384 409.536 319.735L437.196 257.576C437.485 256.929 438.259 256.632 438.929 256.907C439.598 257.186 439.906 257.934 439.62 258.583L411.959 320.742C411.744 321.228 411.258 321.516 410.748 321.516Z" fill="#91B3FA"/>
<path d="M441.909 321.516C441.399 321.516 440.912 321.228 440.697 320.745L413.037 258.586C412.749 257.939 413.059 257.188 413.728 256.91C414.398 256.632 415.172 256.929 415.46 257.578L443.121 319.737C443.409 320.384 443.099 321.135 442.43 321.413C442.261 321.484 442.083 321.516 441.909 321.516Z" fill="#91B3FA"/>
<path d="M445.154 255.661C445.224 255.254 445.129 254.832 444.892 254.512C444.655 254.193 444.303 254.007 443.932 254.007H318.094C317.605 254.007 317.151 254.285 316.887 254.746C316.623 255.207 316.589 255.785 316.794 256.281L318.157 259.579C318.47 260.335 319.147 260.818 319.889 260.818H443.067C443.759 260.818 444.355 260.269 444.487 259.508L445.154 255.661Z" fill="#91B3FA"/>
<path d="M103.513 41.6588L102.108 42.2857L102.101 42.2882C101.879 42.3882 101.617 42.2882 101.517 42.0662C101.417 41.8442 101.517 41.5832 101.739 41.4832H101.742L103.164 40.8538C103.386 40.7562 103.645 40.8563 103.743 41.0758C103.84 41.2978 103.74 41.5563 103.52 41.6539L103.513 41.6588Z" fill="white"/>
<path d="M98.8809 43.8493L97.5201 44.5616L97.5128 44.5665C97.2929 44.6811 97.0193 44.5957 96.902 44.3762C96.7872 44.1567 96.8727 43.8834 97.0926 43.7688H97.0951L98.4729 43.0565C98.6928 42.9419 98.964 43.0272 99.0788 43.2492C99.1936 43.4688 99.1081 43.7395 98.8858 43.8517L98.8809 43.8493Z" fill="white"/>
<path d="M94.3955 46.3131L93.0786 47.1034L93.0713 47.1083C92.8539 47.24 92.5705 47.1693 92.4385 46.9498C92.3066 46.7327 92.3775 46.4497 92.5973 46.318H92.5998L93.9337 45.5252C94.1512 45.3959 94.4321 45.4666 94.5616 45.6837C94.6911 45.9008 94.6202 46.1814 94.4028 46.3107L94.3955 46.3131Z" fill="white"/>
<path d="M90.0614 49.0377L88.7934 49.9037L88.7861 49.9085C88.5711 50.0549 88.2779 50.0012 88.1314 49.7866C87.9848 49.5719 88.0385 49.2792 88.2535 49.1328H88.256L89.541 48.262C89.756 48.1181 90.0467 48.1717 90.1909 48.3864C90.335 48.6011 90.2813 48.8914 90.0663 49.0353L90.0614 49.0377Z" fill="white"/>
<path d="M85.8984 52.0089L84.6817 52.9456L84.6744 52.9505C84.4643 53.1115 84.1613 53.0725 84.0001 52.8627C83.8389 52.6529 83.8755 52.3504 84.0881 52.1894H84.0905L85.3218 51.2479C85.5319 51.0869 85.8324 51.1283 85.9912 51.3357C86.15 51.543 86.111 51.8455 85.9033 52.0041L85.8984 52.0089Z" fill="white"/>
<path d="M81.9088 55.2092L80.7484 56.2142L80.741 56.2191C80.5358 56.3972 80.2255 56.3752 80.0496 56.1703C79.8737 55.9654 79.8933 55.6556 80.0985 55.48L80.1009 55.4776L81.2785 54.4677C81.4837 54.2921 81.7916 54.3164 81.9675 54.5189C82.1434 54.7238 82.1189 55.0312 81.9162 55.2068L81.9088 55.2092Z" fill="white"/>
<path d="M78.105 58.6316L77.0007 59.7001L76.9958 59.705C76.7979 59.8977 76.4803 59.8928 76.2873 59.6928C76.0943 59.4952 76.0992 59.1781 76.2996 58.9854L76.302 58.9829L77.4209 57.9072C77.6188 57.7169 77.934 57.7242 78.1246 57.9218C78.3151 58.1194 78.3078 58.4341 78.1099 58.6243L78.105 58.6316Z" fill="white"/>
<path d="M74.4965 62.2614L73.4533 63.3883L73.4485 63.3957C73.2579 63.603 72.9354 63.6152 72.7278 63.4249C72.5201 63.2347 72.5079 62.9127 72.6984 62.7053L72.7009 62.7029L73.7587 61.5662C73.9493 61.3613 74.2718 61.3491 74.477 61.5418C74.6822 61.732 74.6944 62.054 74.5039 62.2589L74.4965 62.2614Z" fill="white"/>
<path d="M71.0933 66.0863L70.1136 67.2694L70.1087 67.2767C69.9255 67.4987 69.5981 67.5279 69.3758 67.3474C69.1535 67.1645 69.1242 66.8376 69.305 66.6156L69.3074 66.6132L70.3017 65.4203C70.485 65.2008 70.8099 65.1715 71.0298 65.3545C71.2497 65.5374 71.279 65.8619 71.0958 66.0814L71.0933 66.0863Z" fill="white"/>
<path d="M67.9075 70.0892L66.9938 71.3235L66.9889 71.3308C66.8155 71.565 66.4832 71.6162 66.2487 71.443C66.0142 71.2699 65.9629 70.9381 66.1363 70.7039V70.7015L67.0647 69.455C67.2381 69.2208 67.568 69.1745 67.8025 69.3477C68.037 69.5209 68.0834 69.8502 67.91 70.0843L67.9075 70.0892Z" fill="white"/>
<path d="M64.949 74.2629L64.1061 75.546L64.1012 75.5533C63.9376 75.8021 63.6029 75.8728 63.3537 75.7094C63.1045 75.546 63.0336 75.2118 63.1973 74.963V74.9605L64.0548 73.6652C64.2185 73.4189 64.5508 73.3506 64.8 73.514C65.0467 73.6774 65.1151 74.0092 64.9514 74.258L64.949 74.2629Z" fill="white"/>
<path d="M62.2225 78.5927L61.4529 79.9197L61.448 79.927C61.2966 80.188 60.9594 80.2782 60.698 80.127C60.4341 79.9758 60.3462 79.6391 60.4977 79.3781V79.3757L61.2819 78.0365C61.4334 77.7755 61.7681 77.6877 62.0295 77.8413C62.2909 77.9926 62.3788 78.3268 62.2249 78.5878L62.2225 78.5927Z" fill="white"/>
<path d="M59.7427 83.0639L59.0489 84.4324L59.044 84.4422C58.9048 84.7178 58.5676 84.8276 58.2916 84.6885C58.0155 84.5495 57.9056 84.2129 58.0448 83.9372V83.9348L58.7533 82.5541C58.8926 82.2809 59.2297 82.1736 59.5033 82.3126C59.7769 82.4517 59.8844 82.7859 59.7452 83.0615L59.7427 83.0639Z" fill="white"/>
<path d="M57.5196 87.6669L56.9039 89.072L56.899 89.0817C56.772 89.3696 56.4373 89.5013 56.149 89.3744C55.8607 89.2476 55.7288 88.9134 55.8558 88.6256V88.6231L56.4837 87.2034C56.6107 86.918 56.9454 86.7887 57.2313 86.9156C57.5171 87.0424 57.6466 87.3766 57.5196 87.662V87.6669Z" fill="white"/>
<path d="M55.5627 92.3847L55.0301 93.8214L55.0276 93.8312C54.9153 94.1312 54.583 94.2825 54.2825 94.1727C53.982 94.0605 53.8305 93.7287 53.9405 93.4287V93.4263L54.4877 91.9749C54.6001 91.6773 54.9324 91.5261 55.2304 91.6383C55.5285 91.7505 55.6799 92.0822 55.5676 92.3798L55.5627 92.3847Z" fill="white"/>
<path d="M53.8818 97.2048L53.4323 98.6684L53.4299 98.6781C53.3346 98.9879 53.0048 99.1636 52.6945 99.0684C52.3842 98.9733 52.2083 98.644 52.3036 98.3342V98.3317L52.7629 96.8486C52.8582 96.5413 53.188 96.3681 53.4958 96.4632C53.8037 96.5584 53.9771 96.8877 53.8818 97.195V97.2048Z" fill="white"/>
<path d="M52.4893 102.115L52.1277 103.603L52.1252 103.613C52.0471 103.935 51.7246 104.13 51.4021 104.054C51.0796 103.976 50.8841 103.654 50.9599 103.332V103.33L51.3312 101.822C51.4094 101.503 51.7319 101.308 52.0519 101.386C52.372 101.464 52.5674 101.786 52.4868 102.105L52.4893 102.115Z" fill="white"/>
<path d="M51.3923 107.099L51.1236 108.606L51.1212 108.618C51.0625 108.948 50.7449 109.167 50.4151 109.109C50.0853 109.05 49.863 108.733 49.924 108.404V108.401L50.2026 106.874C50.2636 106.545 50.5788 106.328 50.9062 106.389C51.236 106.45 51.4534 106.764 51.3923 107.091V107.099Z" fill="white"/>
<path d="M50.6008 112.141L50.4224 113.663L50.42 113.675C50.3809 114.014 50.0731 114.256 49.7335 114.217C49.3939 114.178 49.152 113.87 49.1911 113.531V113.529L49.3768 111.987C49.4183 111.65 49.7237 111.409 50.0608 111.45C50.398 111.492 50.6398 111.797 50.5983 112.133L50.6008 112.141Z" fill="white"/>
<path d="M50.117 117.219L50.0315 118.746V118.759C50.012 119.105 49.7164 119.369 49.3695 119.349C49.0225 119.329 48.7587 119.034 48.7782 118.688V118.685L48.8711 117.137C48.8906 116.793 49.1887 116.529 49.5331 116.551C49.8776 116.571 50.1415 116.868 50.1195 117.212L50.117 117.219Z" fill="white"/>
<path d="M49.9338 122.318L49.9362 123.847V123.859C49.9362 124.208 49.6553 124.491 49.3059 124.491C48.9566 124.491 48.6732 124.21 48.6732 123.862V122.31C48.6732 121.961 48.9541 121.681 49.3035 121.681C49.6504 121.681 49.9338 121.961 49.9338 122.31V122.318Z" fill="white"/>
<path d="M50.0438 127.418L50.1341 128.945V128.955C50.1561 129.304 49.8874 129.604 49.538 129.626C49.1887 129.648 48.8882 129.379 48.8662 129.031L48.7758 127.482C48.7562 127.133 49.0225 126.833 49.3719 126.813C49.7213 126.794 50.0218 127.06 50.0413 127.408L50.0438 127.418Z" fill="white"/>
<path d="M50.4493 132.504L50.6277 134.024L50.6301 134.034C50.6716 134.382 50.42 134.7 50.0706 134.741C49.7213 134.783 49.4037 134.531 49.3621 134.182L49.1838 132.641C49.1423 132.292 49.3939 131.977 49.7433 131.936C50.0926 131.894 50.4078 132.146 50.4493 132.494V132.504Z" fill="white"/>
<path d="M51.1431 137.561L51.407 139.071L51.4094 139.081C51.4705 139.429 51.2359 139.761 50.8866 139.822C50.5372 139.883 50.205 139.649 50.1439 139.3L49.88 137.771C49.819 137.422 50.0535 137.093 50.4029 137.032C50.7522 136.971 51.082 137.205 51.1431 137.554V137.561Z" fill="white"/>
<path d="M52.1179 142.571L52.4648 144.064L52.4672 144.074C52.5479 144.42 52.3329 144.767 51.986 144.847C51.639 144.928 51.2921 144.713 51.2115 144.367L50.8621 142.852C50.7815 142.505 50.9989 142.161 51.3459 142.081C51.6928 142 52.0373 142.218 52.1179 142.564V142.571Z" fill="white"/>
<path d="M53.3687 147.526L53.7963 148.997L53.7987 149.006C53.8989 149.35 53.701 149.709 53.3565 149.809C53.012 149.909 52.6529 149.711 52.5527 149.367L52.1203 147.875C52.0201 147.531 52.218 147.174 52.5625 147.074C52.907 146.974 53.2637 147.172 53.3639 147.516L53.3687 147.526Z" fill="white"/>
<path d="M54.8908 152.399L55.399 153.846L55.4014 153.856C55.5211 154.195 55.3428 154.565 55.0032 154.685C54.6636 154.805 54.2923 154.626 54.1725 154.287L53.6571 152.821C53.5373 152.482 53.7181 152.112 54.0553 151.994C54.3949 151.875 54.7662 152.053 54.8835 152.392L54.8908 152.399Z" fill="white"/>
<path d="M56.6792 157.183L57.2679 158.598L57.2728 158.608C57.4121 158.942 57.2533 159.325 56.9186 159.461C56.5839 159.6 56.2003 159.442 56.0635 159.108L55.4698 157.671C55.333 157.337 55.4918 156.956 55.8241 156.819C56.1588 156.68 56.5399 156.841 56.6792 157.173V157.183Z" fill="white"/>
<path d="M58.7289 161.862L59.3934 163.242L59.3983 163.252C59.5571 163.579 59.4179 163.972 59.0905 164.13C58.7631 164.289 58.3698 164.15 58.211 163.823L57.5391 162.42C57.3828 162.093 57.5196 161.701 57.847 161.545C58.1743 161.388 58.5677 161.525 58.724 161.852L58.7289 161.862Z" fill="white"/>
<path d="M61.0352 166.418L61.7754 167.76L61.7803 167.77C61.9562 168.089 61.8414 168.492 61.5213 168.667C61.2013 168.843 60.7982 168.728 60.6223 168.409L59.8722 167.048C59.6963 166.728 59.8136 166.328 60.1337 166.152C60.4537 165.977 60.8544 166.094 61.0303 166.413L61.0352 166.418Z" fill="white"/>
<path d="M63.5906 170.838L64.4066 172.136L64.4115 172.146C64.6069 172.456 64.5117 172.865 64.2014 173.061C63.8911 173.256 63.4807 173.161 63.2852 172.851L62.4595 171.534C62.264 171.224 62.3593 170.814 62.6696 170.619C62.9799 170.424 63.3903 170.519 63.5857 170.829L63.5906 170.838Z" fill="white"/>
<path d="M66.3928 175.107L67.2797 176.356L67.287 176.366C67.4996 176.666 67.4312 177.083 67.1282 177.295C66.8277 177.507 66.4099 177.437 66.1974 177.137L65.2983 175.868C65.0858 175.568 65.1566 175.151 65.4571 174.939C65.7576 174.727 66.1754 174.797 66.388 175.097L66.3928 175.107Z" fill="white"/>
<path d="M69.432 179.205L70.3897 180.398L70.397 180.408C70.6291 180.698 70.5827 181.12 70.292 181.352C70.0013 181.584 69.5786 181.537 69.3465 181.247L68.3766 180.035C68.1445 179.744 68.1934 179.325 68.4817 179.093C68.7699 178.861 69.1926 178.91 69.4247 179.198L69.432 179.205Z" fill="white"/>
<path d="M72.7057 183.115L73.7318 184.25L73.7392 184.26C73.9883 184.535 73.9664 184.962 73.6903 185.211C73.4142 185.46 72.9867 185.438 72.7375 185.162L71.6968 184.008C71.4476 183.733 71.4695 183.306 71.7456 183.057C72.0217 182.808 72.4492 182.83 72.6984 183.106L72.7057 183.115Z" fill="white"/>
<path d="M76.2067 186.828L77.2988 187.899L77.3085 187.906C77.5748 188.167 77.5797 188.597 77.3183 188.865C77.0569 189.131 76.6269 189.136 76.3582 188.875L75.249 187.784C74.9827 187.523 74.9778 187.094 75.2417 186.828C75.5031 186.562 75.9331 186.557 76.1994 186.821L76.2067 186.828Z" fill="white"/>
<path d="M79.925 190.321L81.0806 191.326L81.0904 191.334C81.3738 191.58 81.4031 192.012 81.1564 192.295C80.9096 192.578 80.4772 192.607 80.1938 192.36L79.0236 191.338C78.7402 191.092 78.7108 190.663 78.9576 190.38C79.2043 190.097 79.6343 190.068 79.9177 190.314L79.925 190.321Z" fill="white"/>
<path d="M83.8438 193.592L85.0555 194.529L85.0653 194.536C85.3633 194.768 85.4195 195.197 85.1874 195.497C84.9553 195.795 84.5254 195.851 84.2249 195.619L82.996 194.666C82.698 194.434 82.6442 194.005 82.8763 193.707C83.1084 193.409 83.5384 193.356 83.8364 193.588L83.8438 193.592Z" fill="white"/>
<path d="M87.9432 196.639L89.2063 197.508L89.2161 197.515C89.5288 197.729 89.607 198.159 89.392 198.471C89.177 198.783 88.747 198.861 88.4343 198.647L87.1541 197.764C86.8414 197.549 86.7632 197.12 86.9807 196.807C87.1956 196.495 87.6256 196.417 87.9383 196.634L87.9432 196.639Z" fill="white"/>
<path d="M92.204 199.454L93.511 200.254L93.5208 200.259C93.8457 200.459 93.9483 200.884 93.748 201.208C93.5476 201.532 93.1226 201.635 92.7952 201.435L91.471 200.62C91.1461 200.42 91.0435 199.996 91.2438 199.671C91.4442 199.347 91.8693 199.244 92.1942 199.444L92.204 199.454Z" fill="white"/>
<path d="M96.6113 202.042L97.9599 202.774L97.9697 202.779C98.3068 202.962 98.4314 203.384 98.2482 203.72C98.065 204.057 97.6423 204.181 97.3052 203.999L95.9395 203.255C95.6023 203.072 95.4777 202.65 95.661 202.313C95.8442 201.976 96.2669 201.852 96.604 202.035L96.6113 202.042Z" fill="white"/>
<path d="M101.148 204.399L102.531 205.06L102.541 205.064C102.888 205.23 103.037 205.647 102.868 205.996C102.702 206.343 102.284 206.491 101.935 206.323L100.532 205.65C100.186 205.484 100.039 205.067 100.205 204.721C100.371 204.374 100.789 204.228 101.136 204.394L101.148 204.399Z" fill="white"/>
<path d="M105.795 206.526L107.209 207.118L107.219 207.123C107.576 207.275 107.744 207.684 107.595 208.041C107.444 208.397 107.034 208.565 106.677 208.414L105.245 207.811C104.889 207.66 104.722 207.25 104.871 206.894C105.023 206.538 105.433 206.372 105.79 206.521L105.795 206.526Z" fill="white"/>
<path d="M110.544 208.426L111.986 208.953L111.995 208.955C112.362 209.089 112.55 209.494 112.416 209.858C112.281 210.224 111.876 210.411 111.512 210.277L110.053 209.743C109.687 209.609 109.501 209.204 109.635 208.841C109.77 208.475 110.175 208.289 110.539 208.423L110.544 208.426Z" fill="white"/>
<path d="M115.377 210.104L116.84 210.563L116.85 210.565C117.224 210.682 117.431 211.08 117.314 211.453C117.197 211.826 116.799 212.034 116.425 211.917L114.944 211.451C114.57 211.334 114.365 210.936 114.482 210.563C114.6 210.19 114.998 209.985 115.372 210.102L115.377 210.104Z" fill="white"/>
<path d="M120.277 211.558L121.76 211.951L121.77 211.953C122.151 212.053 122.376 212.443 122.276 212.824C122.176 213.205 121.785 213.429 121.404 213.329L119.904 212.929C119.525 212.826 119.298 212.439 119.4 212.06C119.503 211.682 119.891 211.455 120.27 211.558H120.277Z" fill="white"/>
<path d="M125.244 212.795L126.744 213.124L126.754 213.126C127.14 213.212 127.384 213.592 127.299 213.978C127.213 214.363 126.832 214.607 126.446 214.522L124.927 214.188C124.541 214.102 124.299 213.722 124.382 213.336C124.467 212.951 124.848 212.709 125.234 212.792L125.244 212.795Z" fill="white"/>
<path d="M130.26 213.814L131.775 214.078L131.784 214.08C132.175 214.148 132.437 214.519 132.368 214.912C132.3 215.302 131.926 215.563 131.535 215.495L130.003 215.224C129.612 215.156 129.351 214.783 129.422 214.395C129.49 214.005 129.864 213.744 130.253 213.814H130.26Z" fill="white"/>
<path d="M135.317 214.619L136.842 214.819H136.851C137.247 214.871 137.526 215.234 137.474 215.629C137.423 216.024 137.059 216.302 136.663 216.249L135.122 216.044C134.726 215.993 134.45 215.629 134.501 215.234C134.555 214.839 134.916 214.563 135.312 214.614L135.317 214.619Z" fill="white"/>
<path d="M140.404 215.215L141.935 215.351H141.945C142.343 215.388 142.639 215.739 142.602 216.137C142.566 216.534 142.214 216.829 141.816 216.793L140.267 216.651C139.869 216.615 139.575 216.264 139.61 215.866C139.646 215.468 139.998 215.176 140.396 215.212L140.404 215.215Z" fill="white"/>
<path d="M145.512 215.6L147.046 215.673H147.056C147.459 215.693 147.769 216.034 147.75 216.437C147.73 216.839 147.388 217.149 146.985 217.129L145.434 217.051C145.033 217.032 144.723 216.69 144.743 216.288C144.762 215.888 145.104 215.578 145.507 215.598L145.512 215.6Z" fill="white"/>
<path d="M150.628 215.776L152.162 215.79H152.169C152.575 215.793 152.9 216.124 152.895 216.529C152.893 216.934 152.56 217.259 152.155 217.254L150.603 217.239C150.2 217.234 149.875 216.905 149.88 216.502C149.885 216.1 150.215 215.776 150.618 215.78H150.628V215.776Z" fill="white"/>
<path d="M155.746 215.754L157.283 215.71H157.29C157.696 215.697 158.035 216.017 158.047 216.424C158.06 216.829 157.74 217.168 157.332 217.181L155.78 217.222C155.375 217.234 155.038 216.915 155.025 216.507C155.016 216.102 155.333 215.766 155.741 215.754H155.746Z" fill="white"/>
<path d="M160.864 215.544L162.399 215.446H162.406C162.814 215.419 163.166 215.729 163.19 216.134C163.215 216.539 162.907 216.893 162.499 216.917L160.95 217.015C160.542 217.039 160.192 216.732 160.166 216.324C160.139 215.917 160.449 215.568 160.857 215.541L160.864 215.544Z" fill="white"/>
<path d="M165.973 215.151L167.502 215H167.51C167.918 214.958 168.282 215.256 168.323 215.663C168.365 216.071 168.067 216.434 167.659 216.476L166.115 216.627C165.707 216.666 165.345 216.368 165.303 215.963C165.264 215.556 165.562 215.195 165.968 215.153L165.973 215.151Z" fill="white"/>
<path d="M171.064 214.585L172.589 214.383H172.596C173.004 214.329 173.38 214.615 173.434 215.022C173.488 215.429 173.202 215.805 172.794 215.859L171.255 216.061C170.847 216.115 170.473 215.829 170.419 215.422C170.365 215.015 170.651 214.641 171.059 214.588L171.064 214.585Z" fill="white"/>
<path d="M176.136 213.851L177.653 213.6H177.661C178.069 213.531 178.455 213.807 178.523 214.214C178.591 214.622 178.315 215.007 177.907 215.076L176.376 215.327C175.968 215.393 175.581 215.117 175.516 214.71C175.45 214.302 175.726 213.917 176.134 213.851H176.136Z" fill="white"/>
<path d="M181.184 212.961L182.693 212.663L182.701 212.661C183.109 212.58 183.504 212.846 183.585 213.253C183.666 213.661 183.399 214.056 182.991 214.136L181.469 214.434C181.061 214.515 180.668 214.249 180.587 213.841C180.507 213.434 180.773 213.039 181.181 212.961H181.184Z" fill="white"/>
<path d="M186.202 211.917L187.699 211.575L187.707 211.573C188.115 211.48 188.52 211.734 188.613 212.141C188.706 212.548 188.452 212.953 188.044 213.046L186.534 213.388C186.128 213.48 185.723 213.224 185.63 212.819C185.537 212.414 185.794 212.009 186.199 211.917H186.202Z" fill="white"/>
<path d="M191.188 210.729L192.676 210.346L192.681 210.343C193.086 210.238 193.502 210.482 193.607 210.887C193.712 211.292 193.467 211.707 193.062 211.812L191.562 212.197C191.156 212.299 190.743 212.056 190.638 211.651C190.533 211.246 190.78 210.833 191.185 210.729H191.188Z" fill="white"/>
<path d="M196.138 209.404L197.616 208.982L197.621 208.98C198.026 208.863 198.449 209.097 198.564 209.502C198.678 209.907 198.446 210.329 198.041 210.443L196.55 210.868C196.145 210.982 195.725 210.748 195.61 210.346C195.495 209.941 195.73 209.521 196.133 209.406L196.138 209.404Z" fill="white"/>
<path d="M201.056 207.95L202.524 207.489L202.529 207.487C202.932 207.36 203.362 207.584 203.489 207.987C203.616 208.389 203.391 208.819 202.988 208.945L201.508 209.409C201.104 209.536 200.674 209.311 200.55 208.906C200.423 208.504 200.648 208.075 201.051 207.95H201.056Z" fill="white"/>
<path d="M205.939 206.372L207.398 205.874L207.403 205.872C207.806 205.735 208.243 205.95 208.38 206.35C208.517 206.753 208.302 207.189 207.901 207.326L206.433 207.823C206.03 207.96 205.595 207.745 205.458 207.343C205.321 206.94 205.536 206.506 205.939 206.37V206.372Z" fill="white"/>
<path d="M210.784 204.679L212.23 204.15L212.235 204.147C212.636 204.001 213.08 204.206 213.227 204.606C213.374 205.006 213.168 205.45 212.768 205.596L211.312 206.128C210.911 206.274 210.469 206.07 210.322 205.67C210.176 205.269 210.381 204.828 210.781 204.682L210.784 204.679Z" fill="white"/>
<path d="M215.587 202.874L217.021 202.313L217.026 202.31C217.424 202.154 217.876 202.35 218.032 202.75C218.189 203.147 217.993 203.598 217.593 203.755L216.149 204.318C215.751 204.474 215.301 204.277 215.145 203.879C214.989 203.481 215.186 203.033 215.585 202.876L215.587 202.874Z" fill="white"/>
<path d="M220.353 200.966L221.775 200.374L221.78 200.371C222.178 200.205 222.635 200.393 222.799 200.791C222.963 201.188 222.777 201.645 222.379 201.808L220.947 202.401C220.549 202.567 220.094 202.379 219.928 201.981C219.762 201.584 219.953 201.13 220.348 200.964L220.353 200.966Z" fill="white"/>
<path d="M225.078 198.961L226.488 198.342L226.493 198.339C226.889 198.166 227.35 198.344 227.526 198.739C227.7 199.135 227.521 199.596 227.126 199.771L225.706 200.391C225.31 200.564 224.849 200.384 224.675 199.988C224.502 199.593 224.682 199.132 225.078 198.959V198.961Z" fill="white"/>
<path d="M229.767 196.868L231.166 196.224L231.169 196.222C231.565 196.041 232.031 196.212 232.212 196.607C232.393 197.003 232.222 197.468 231.826 197.649L230.419 198.293C230.026 198.473 229.559 198.3 229.378 197.908C229.195 197.515 229.368 197.049 229.767 196.868Z" fill="white"/>
<path d="M234.423 194.702L235.816 194.039L235.818 194.036C236.211 193.848 236.683 194.017 236.871 194.409C237.059 194.802 236.891 195.273 236.497 195.461L235.1 196.124C234.706 196.312 234.235 196.144 234.049 195.751C233.859 195.358 234.027 194.89 234.423 194.702Z" fill="white"/>
<path d="M239.055 192.475L240.44 191.797C240.834 191.604 241.31 191.765 241.503 192.156C241.696 192.548 241.535 193.024 241.144 193.217L241.142 193.219L239.751 193.897C239.358 194.09 238.884 193.927 238.691 193.534C238.498 193.141 238.662 192.665 239.055 192.475Z" fill="white"/>
<path d="M243.668 190.199L245.048 189.509C245.441 189.311 245.92 189.47 246.118 189.863C246.316 190.255 246.157 190.733 245.764 190.931H245.761L244.376 191.621C243.983 191.816 243.504 191.658 243.309 191.265C243.113 190.872 243.274 190.394 243.668 190.199Z" fill="white"/>
<path d="M248.263 187.892L249.641 187.194C250.034 186.994 250.516 187.15 250.716 187.543C250.916 187.936 250.76 188.416 250.367 188.616H250.364L248.984 189.314C248.591 189.514 248.109 189.355 247.911 188.963C247.714 188.57 247.87 188.089 248.263 187.892Z" fill="white"/>
<path d="M252.851 185.562L254.229 184.86C254.625 184.657 255.109 184.813 255.309 185.208C255.512 185.604 255.353 186.087 254.96 186.287L253.582 186.987C253.186 187.187 252.705 187.031 252.502 186.635C252.302 186.243 252.458 185.762 252.851 185.562Z" fill="white"/>
<path d="M257.439 183.223L258.817 182.52C259.213 182.318 259.699 182.476 259.902 182.872C260.105 183.267 259.946 183.752 259.55 183.955H259.548L258.172 184.657C257.777 184.86 257.29 184.701 257.088 184.306C256.885 183.908 257.044 183.423 257.439 183.223Z" fill="white"/>
<path d="M262.03 180.888L263.41 180.191C263.809 179.988 264.297 180.149 264.5 180.547C264.703 180.945 264.541 181.432 264.143 181.635H264.141L262.76 182.33C262.362 182.533 261.876 182.372 261.673 181.974C261.473 181.576 261.632 181.088 262.03 180.888Z" fill="white"/>
<path d="M266.633 178.571L268.018 177.881C268.421 177.681 268.91 177.844 269.11 178.244C269.31 178.644 269.147 179.134 268.746 179.334L268.743 179.337L267.361 180.025C266.96 180.225 266.471 180.064 266.271 179.661C266.068 179.259 266.232 178.771 266.633 178.571Z" fill="white"/>
<path d="M271.253 176.283L272.643 175.605C273.048 175.407 273.537 175.575 273.735 175.98C273.933 176.385 273.764 176.873 273.358 177.071L273.356 177.073L271.968 177.749C271.563 177.947 271.074 177.781 270.876 177.378C270.681 176.971 270.849 176.48 271.253 176.283Z" fill="white"/>
<path d="M275.902 174.044L277.302 173.383C277.705 173.192 278.188 173.366 278.379 173.768C278.57 174.17 278.396 174.653 277.993 174.844L276.6 175.505L276.598 175.507C276.192 175.7 275.709 175.529 275.518 175.124C275.323 174.722 275.494 174.236 275.902 174.044Z" fill="white"/>
<path d="M280.578 171.865L281.987 171.224C282.391 171.041 282.865 171.219 283.048 171.621C283.231 172.024 283.053 172.497 282.65 172.68H282.647L281.247 173.322L281.245 173.324C280.842 173.509 280.365 173.331 280.18 172.929C279.996 172.526 280.172 172.051 280.578 171.865Z" fill="white"/>
<path d="M285.288 169.758L286.707 169.141C287.111 168.965 287.577 169.15 287.753 169.55C287.929 169.953 287.743 170.419 287.343 170.594H287.34L285.931 171.212L285.926 171.214C285.523 171.39 285.054 171.207 284.878 170.804C284.699 170.402 284.882 169.933 285.288 169.758Z" fill="white"/>
<path d="M290.035 167.731L291.467 167.143C291.867 166.977 292.327 167.17 292.493 167.57C292.659 167.97 292.466 168.428 292.065 168.594H292.063L290.641 169.184L290.636 169.187C290.233 169.353 289.774 169.162 289.605 168.762C289.439 168.36 289.629 167.899 290.035 167.731Z" fill="white"/>
<path d="M294.826 165.803L296.272 165.247C296.673 165.094 297.125 165.291 297.279 165.694C297.433 166.094 297.235 166.545 296.832 166.699L296.829 166.701L295.395 167.26L295.39 167.262C294.987 167.418 294.535 167.221 294.379 166.818C294.222 166.413 294.42 165.962 294.826 165.803Z" fill="white"/>
<path d="M299.663 163.989L301.124 163.472C301.525 163.33 301.967 163.54 302.109 163.94C302.25 164.34 302.04 164.781 301.64 164.923L301.635 164.925L300.186 165.442L300.179 165.445C299.776 165.589 299.333 165.379 299.189 164.979C299.05 164.577 299.26 164.135 299.663 163.989Z" fill="white"/>
<path d="M304.557 162.313L306.035 161.84C306.435 161.71 306.865 161.93 306.995 162.332C307.124 162.732 306.902 163.162 306.501 163.291L306.497 163.293L305.033 163.767L305.026 163.769C304.623 163.901 304.19 163.679 304.061 163.279C303.931 162.876 304.151 162.445 304.557 162.313Z" fill="white"/>
<path d="M309.497 160.786L310.989 160.359C311.39 160.244 311.81 160.476 311.925 160.876C312.04 161.276 311.808 161.696 311.407 161.81L311.402 161.813L309.927 162.24L309.919 162.242C309.516 162.359 309.096 162.127 308.979 161.725C308.861 161.322 309.091 160.903 309.497 160.786Z" fill="white"/>
<path d="M314.485 159.417L315.99 159.039C316.391 158.939 316.799 159.181 316.899 159.581C316.999 159.981 316.757 160.388 316.357 160.488L316.352 160.491L314.862 160.869L314.854 160.871C314.451 160.974 314.043 160.73 313.941 160.33C313.838 159.927 314.082 159.52 314.485 159.417Z" fill="white"/>
<path d="M319.518 158.22L321.035 157.895C321.436 157.81 321.829 158.064 321.915 158.464C322 158.864 321.746 159.256 321.346 159.342L321.341 159.344L319.838 159.669L319.831 159.671C319.43 159.759 319.034 159.503 318.946 159.103C318.861 158.703 319.115 158.307 319.518 158.22Z" fill="white"/>
<path d="M324.595 157.202L326.124 156.934C326.522 156.863 326.904 157.132 326.974 157.529C327.045 157.927 326.777 158.307 326.378 158.378H326.371L324.859 158.646L324.851 158.649C324.451 158.72 324.07 158.454 323.999 158.054C323.925 157.656 324.192 157.276 324.595 157.202Z" fill="white"/>
<path d="M329.706 156.383L331.245 156.178C331.643 156.124 332.007 156.405 332.061 156.8C332.115 157.198 331.834 157.561 331.438 157.615H331.431L329.908 157.822L329.899 157.825C329.501 157.878 329.132 157.6 329.078 157.203C329.027 156.805 329.305 156.437 329.706 156.383Z" fill="white"/>
<path d="M334.851 155.773L336.4 155.634C336.796 155.597 337.145 155.89 337.179 156.285C337.216 156.681 336.923 157.029 336.527 157.063H336.52L334.99 157.205H334.98C334.585 157.242 334.233 156.951 334.196 156.556C334.16 156.161 334.45 155.81 334.851 155.773Z" fill="white"/>
<path d="M340.018 155.39L341.572 155.322C341.965 155.305 342.297 155.61 342.315 156C342.332 156.393 342.029 156.724 341.635 156.741H341.628L340.096 156.812H340.086C339.693 156.832 339.358 156.527 339.341 156.134C339.317 155.744 339.622 155.41 340.018 155.39Z" fill="white"/>
<path d="M345.197 155.253L346.754 155.261C347.142 155.263 347.455 155.578 347.452 155.968C347.45 156.356 347.135 156.668 346.744 156.666H346.734L345.2 156.661H345.19C344.799 156.661 344.484 156.344 344.486 155.954C344.489 155.566 344.807 155.251 345.197 155.253Z" fill="white"/>
<path d="M350.382 155.375L351.935 155.466C352.319 155.488 352.612 155.817 352.59 156.2C352.568 156.583 352.238 156.876 351.855 156.854H351.845L350.313 156.768H350.301C349.915 156.746 349.622 156.417 349.641 156.034C349.666 155.649 349.996 155.353 350.382 155.375Z" fill="white"/>
<path d="M355.554 155.775L357.1 155.954C357.479 155.997 357.75 156.339 357.706 156.715C357.662 157.093 357.322 157.363 356.944 157.32H356.934L355.412 157.149L355.4 157.146C355.021 157.105 354.747 156.763 354.789 156.385C354.83 156.005 355.172 155.734 355.554 155.775Z" fill="white"/>
<path d="M360.696 156.471L362.231 156.739C362.602 156.805 362.849 157.156 362.783 157.527C362.717 157.898 362.365 158.144 361.994 158.078L361.984 158.076L360.474 157.815L360.462 157.812C360.09 157.749 359.841 157.395 359.905 157.024C359.968 156.656 360.323 156.407 360.696 156.471Z" fill="white"/>
<path d="M365.788 157.476L367.302 157.839C367.664 157.927 367.886 158.29 367.801 158.651C367.713 159.012 367.349 159.234 366.987 159.149L366.978 159.147L365.487 158.793L365.475 158.79C365.111 158.705 364.886 158.339 364.974 157.978C365.057 157.615 365.424 157.39 365.788 157.476Z" fill="white"/>
<path d="M370.806 158.803L372.294 159.264C372.645 159.373 372.841 159.744 372.731 160.096C372.621 160.447 372.247 160.642 371.898 160.532L371.888 160.53L370.425 160.081L370.412 160.076C370.061 159.969 369.863 159.593 369.97 159.242C370.078 158.89 370.452 158.693 370.806 158.803Z" fill="white"/>
<path d="M375.729 160.459L377.182 161.02C377.522 161.152 377.69 161.532 377.558 161.871C377.427 162.21 377.045 162.379 376.706 162.247L376.696 162.242L375.267 161.696L375.255 161.691C374.915 161.559 374.744 161.179 374.873 160.839C375.003 160.498 375.387 160.327 375.729 160.459Z" fill="white"/>
<path d="M380.524 162.459L381.932 163.135C382.256 163.291 382.393 163.679 382.237 164.003C382.081 164.328 381.692 164.464 381.367 164.308L381.355 164.301L379.975 163.645L379.96 163.638C379.635 163.481 379.496 163.094 379.652 162.767C379.806 162.44 380.197 162.303 380.524 162.459Z" fill="white"/>
<path d="M385.144 164.852L386.488 165.652C386.793 165.833 386.893 166.228 386.71 166.533C386.527 166.838 386.134 166.938 385.828 166.755L385.814 166.745L384.502 165.969L384.487 165.96C384.179 165.779 384.079 165.382 384.26 165.077C384.441 164.772 384.836 164.669 385.144 164.852Z" fill="white"/>
<path d="M389.525 167.672L390.78 168.606C391.061 168.816 391.12 169.214 390.91 169.494C390.7 169.775 390.302 169.833 390.021 169.624L390.006 169.611L388.782 168.706L388.765 168.694C388.481 168.484 388.423 168.084 388.633 167.801C388.841 167.521 389.241 167.462 389.525 167.672Z" fill="white"/>
<path d="M393.583 170.953L394.719 172.034C394.97 172.273 394.98 172.67 394.741 172.922C394.501 173.173 394.103 173.183 393.851 172.943L393.834 172.929L392.73 171.887L392.713 171.87C392.459 171.631 392.449 171.233 392.688 170.98C392.928 170.724 393.329 170.714 393.583 170.953Z" fill="white"/>
<path d="M397.193 174.734L398.168 175.966C398.376 176.229 398.332 176.61 398.068 176.82C397.807 177.027 397.426 176.983 397.218 176.724L397.201 176.702L396.25 175.522L396.233 175.5C396.021 175.236 396.062 174.849 396.329 174.636C396.592 174.424 396.981 174.466 397.193 174.731V174.734Z" fill="white"/>
<path d="M400.211 179.01L400.978 180.383C401.137 180.666 401.034 181.022 400.751 181.181C400.47 181.337 400.115 181.24 399.954 180.959L399.94 180.932L399.19 179.617L399.175 179.591C399.014 179.308 399.111 178.944 399.397 178.783C399.683 178.622 400.045 178.72 400.206 179.005L400.211 179.01Z" fill="white"/>
<path d="M402.483 183.735L402.979 185.233C403.076 185.528 402.915 185.848 402.62 185.945C402.326 186.043 402.009 185.884 401.909 185.591L401.896 185.557L401.41 184.13L401.398 184.096C401.295 183.798 401.457 183.474 401.755 183.372C402.053 183.269 402.378 183.43 402.48 183.728L402.483 183.735Z" fill="white"/>
<path d="M403.773 188.821L403.958 190.385C403.995 190.682 403.78 190.951 403.484 190.987C403.189 191.021 402.92 190.812 402.881 190.519L402.876 190.487L402.685 188.989L402.681 188.958C402.641 188.658 402.854 188.382 403.157 188.343C403.457 188.304 403.734 188.516 403.773 188.819V188.821Z" fill="white"/>
<path d="M404.039 194.051L403.922 195.62C403.9 195.907 403.651 196.12 403.362 196.1C403.076 196.078 402.861 195.832 402.881 195.546L402.883 195.515L402.984 194.007L402.986 193.975C403.006 193.685 403.257 193.466 403.548 193.485C403.839 193.505 404.059 193.756 404.039 194.046V194.051Z" fill="white"/>
<path d="M403.284 199.232L402.852 200.747C402.776 201.01 402.5 201.164 402.234 201.088C401.97 201.013 401.816 200.74 401.889 200.476L401.899 200.444L402.302 198.988L402.309 198.956C402.383 198.688 402.661 198.53 402.932 198.605C403.201 198.678 403.36 198.956 403.286 199.227L403.284 199.232Z" fill="white"/>
<path d="M401.459 204.147L400.694 205.528C400.567 205.757 400.277 205.843 400.045 205.713C399.815 205.587 399.732 205.299 399.856 205.069L399.874 205.038L400.592 203.713L400.609 203.681C400.736 203.447 401.029 203.359 401.266 203.486C401.501 203.613 401.589 203.906 401.462 204.143L401.459 204.147Z" fill="white"/>
<path d="M398.513 208.497L397.411 209.633C397.235 209.814 396.947 209.819 396.766 209.643C396.585 209.47 396.58 209.185 396.754 209.004L396.781 208.975L397.819 207.884L397.846 207.855C398.022 207.67 398.315 207.662 398.498 207.838C398.684 208.014 398.691 208.306 398.515 208.492L398.513 208.497Z" fill="white"/>
<path d="M394.489 211.885L394.096 212.121C393.888 212.246 393.619 212.18 393.492 211.973C393.368 211.765 393.434 211.499 393.639 211.373L393.649 211.368L394.02 211.141L394.03 211.136C394.237 211.009 394.508 211.075 394.636 211.28C394.763 211.487 394.699 211.758 394.491 211.885H394.489Z" fill="white"/>
<path d="M110.019 33.9163L110.273 41.1001L115.037 37.8411L110.019 33.9163Z" fill="#7D97F4"/>
<path d="M142.233 28.6523L123.4 46.3569C123.038 46.696 122.557 46.874 122.061 46.8496C121.567 46.8252 121.103 46.6008 120.778 46.2276L103.689 26.6788C103.493 26.4544 103.452 26.1349 103.586 25.869C103.721 25.6031 104.002 25.447 104.3 25.4714L142.233 28.6523Z" fill="#91B3FA"/>
<path d="M110.021 33.9163L142.233 28.6522L112.77 37.0801L112.755 39.0755L110.021 33.9163Z" fill="#7D97F4"/>
<path d="M114.414 38.9437L110.273 41.1001L112.77 37.0801L114.414 38.9437Z" fill="#7D97F4"/>
<path d="M70.9419 157.773C75.9844 161.13 80.6067 168.682 71.3621 180.849C63.0702 191.763 54.5537 198.891 55.8143 205.604C57.0749 212.317 47.244 229.241 27.24 218.191C7.49013 207.282 11.272 186.304 35.224 178.332C49.2448 173.666 52.4819 145.484 70.9419 157.773Z" fill="url(#paint37_linear)"/>
<path d="M86.9856 199.725C86.9856 199.725 79.1604 209.082 71.2814 201.484L68.2374 208.533C68.2374 208.533 79.7418 217.429 88.471 203.433L86.9856 199.725Z" fill="url(#paint38_linear)"/>
<path d="M67.6608 182.354C65.4889 181.703 59.1637 180.503 53.1489 186.048C52.1277 186.987 51.7123 188.416 52.0764 189.753C53.6912 195.693 57.9544 213.239 54.2165 220.83C54.2165 220.83 60.803 228.08 67.9882 222.237C67.9882 222.237 71.213 208.206 75.4347 202.047C78.3493 197.795 70.7855 186.079 68.8725 183.25C68.5843 182.82 68.1567 182.503 67.6608 182.354Z" fill="url(#paint39_linear)"/>
<path d="M64.2967 171.033C64.2967 171.033 59.9138 179.603 59.1442 183.537C59.1442 183.537 62.4497 185.604 66.1266 183.347C66.1266 183.347 67.673 174.412 68.3889 172.87L64.2967 171.033Z" fill="url(#paint40_linear)"/>
<path d="M74.1227 166.204C74.1227 166.204 74.9387 180.61 68.8701 180.81C62.7991 181.013 62.2103 170.77 62.2103 170.77C62.2103 170.77 64.001 164.298 66.8912 163.545C69.7814 162.789 74.1227 166.204 74.1227 166.204Z" fill="url(#paint41_linear)"/>
<path d="M72.3368 161.757C72.3368 161.757 75.1097 164.589 74.6333 166.35C74.1569 168.111 68.208 166.27 66.7421 165.438L61.8291 170.66C61.8291 170.66 61.9806 162.923 65.3691 160.542C68.7601 158.159 72.3368 161.757 72.3368 161.757Z" fill="url(#paint42_linear)"/>
<path d="M64.0475 170.909C64.0475 170.909 63.3072 165.967 60.8886 167.357C58.4699 168.748 61.0669 172.575 62.9554 172.336L64.0475 170.909Z" fill="url(#paint43_linear)"/>
<path d="M76.3778 251.695C76.3533 252.331 77.4722 257.383 78.083 260.079C78.3273 261.164 78.1563 262.298 77.6042 263.262L56.4935 298.737C56.237 299.167 56.0513 299.63 55.9389 300.118C55.5529 301.781 54.7491 305.862 55.1693 309.575L56.2614 311.839L51.5389 310.768L50.5104 298.103L51.8467 297.288C53.0023 296.586 53.9014 295.534 54.4169 294.285C56.3249 289.656 61.0669 277.871 62.2885 272.129C63.6762 265.601 70.937 260.301 70.937 260.301L69.6617 257.291L76.3778 251.695Z" fill="url(#paint44_linear)"/>
<path d="M46.2912 306.409C46.2912 306.409 48.8418 302.372 49.1423 300.801C49.4428 299.23 50.2783 296.454 51.8492 297.291C51.8492 297.291 52.5895 304.926 52.3354 307.909C52.0789 310.892 55.7117 310.797 55.7117 310.797C55.7117 310.797 56.7134 310.939 57.4463 311.67C57.952 312.175 57.5904 313.054 56.8771 313.1C55.6873 313.176 53.7988 313.197 51.8174 312.814C51.1236 312.68 50.6106 312.092 50.569 311.387L50.0462 302.601L46.8287 306.658L46.2912 306.409Z" fill="url(#paint45_linear)"/>
<path d="M63.769 257.344C63.769 257.344 63.0238 289.075 62.9237 293.583C62.8235 298.091 63.6371 308.077 68.1617 311.063L66.1925 312.519C66.1925 312.519 63.7323 310.431 61.3283 306.414C58.6287 301.899 57.8103 301.074 57.8103 301.074L58.7069 299.242C59.1003 298.44 59.2151 297.532 59.0343 296.659C58.0571 291.934 54.7955 276.217 53.9063 272.832C52.8557 268.836 52.7824 263.501 56.4349 259.035C60.0873 254.566 63.769 257.344 63.769 257.344Z" fill="url(#paint46_linear)"/>
<path d="M59.5888 313.949C59.4496 313.951 59.3299 313.849 59.3103 313.712C59.1589 312.654 58.5334 308.414 58.0204 307.314C57.4316 306.055 55.5138 300.762 58.0204 300.313C58.0204 300.313 64.2551 309.409 65.4522 310.634C66.6494 311.861 68.1592 311.063 68.1592 311.063C68.1592 311.063 69.3245 311.407 70.204 312.529C70.6218 313.063 70.2333 313.846 69.5542 313.854L65.3545 313.893C64.1354 313.905 63.0385 313.163 62.5841 312.034C61.8438 310.19 60.5759 307.487 59.0953 306.287L59.8649 313.639C59.882 313.803 59.755 313.946 59.5888 313.949Z" fill="url(#paint47_linear)"/>
<path d="M68.985 218.815C68.985 218.815 68.0395 221.828 69.4931 226.787L78.513 258.232C78.6547 258.727 78.3884 259.244 77.9022 259.418C75.2051 260.384 66.3367 263.116 54.2288 262.284C53.6204 262.242 53.1074 261.811 52.9755 261.215C52.1766 257.63 49.455 245.399 48.8955 242.886C46.7603 233.309 44.6934 224.203 55.1816 217.959C60.014 220.025 64.2063 220.025 68.985 218.815Z" fill="url(#paint48_linear)"/>
<path d="M58.1059 190.341C58.1059 190.341 56.2907 216.247 73.0527 203.235C73.0527 203.235 75.5275 200.901 77.3158 200.615C78.2784 200.462 79.3656 200.359 80.162 200.298C80.5261 200.269 80.6971 200.74 80.3966 200.949C79.82 201.354 79.0651 201.789 78.4128 201.857C77.1473 201.989 78.4959 202.913 77.1204 205.33C75.7425 207.748 73.7758 206.836 73.7758 206.836C73.7758 206.836 54.5683 226.475 50.7351 192.224C50.5959 185.85 56.7378 186.189 58.1059 190.341Z" fill="url(#paint49_linear)"/>
<path d="M92.1307 193.285L86.4285 192.534C85.7494 192.422 85.0457 192.819 84.6255 193.556L80.8754 201.835C80.1693 203.072 80.6726 204.713 81.8135 204.901L86.3919 205.487C86.8292 205.56 87.2812 205.284 87.5279 204.789L92.6022 194.678C92.8954 194.097 92.6486 193.37 92.1307 193.285Z" fill="url(#paint50_linear)"/>
<path d="M88.2389 204.452C88.2389 204.452 92.0721 198.881 91.6274 198.195C91.1828 197.51 87.8211 196.527 87.032 196.295C86.2429 196.061 84.7575 201.115 88.2389 204.452Z" fill="url(#paint51_linear)"/>
<path d="M29.8101 213.849C29.8932 213.849 29.9738 213.8 30.0056 213.717C30.0496 213.609 29.9958 213.488 29.8883 213.444C26.209 211.982 23.2236 208.884 21.8994 205.157C20.5777 201.43 20.9442 197.146 22.8815 193.697C25.608 188.843 30.8362 186.13 35.891 183.508L36.4993 183.191C41.9645 180.349 47.2928 176.963 49.2473 171.485C49.2864 171.375 49.2302 171.255 49.1202 171.216C49.0103 171.177 48.8906 171.233 48.8515 171.343C46.9459 176.685 41.6957 180.015 36.3063 182.818L35.698 183.135C30.587 185.786 25.3051 188.528 22.5151 193.492C20.5191 197.044 20.1404 201.457 21.5037 205.296C22.8669 209.136 25.9427 212.326 29.732 213.831C29.7588 213.844 29.7857 213.849 29.8101 213.849Z" fill="#91B3FA"/>
<path d="M35.4561 211.914C35.5489 211.914 35.6344 211.851 35.6588 211.756C35.6882 211.643 35.6198 211.529 35.5074 211.502C31.2564 210.429 27.7042 207.772 26.0087 204.401C24.0982 200.598 24.7041 195.861 27.4501 193.136C27.5332 193.056 27.5332 192.922 27.4501 192.839C27.367 192.756 27.2351 192.756 27.152 192.839C24.279 195.688 23.6413 200.63 25.63 204.589C27.3792 208.07 31.0317 210.807 35.3999 211.909C35.4219 211.912 35.439 211.914 35.4561 211.914Z" fill="#91B3FA"/>
</g>
<defs>
<linearGradient id="paint0_linear" x1="0.000363031" y1="160.758" x2="458.998" y2="160.758" gradientUnits="userSpaceOnUse">
<stop stop-color="#DAE3FE"/>
<stop offset="1" stop-color="#E9EFFD"/>
</linearGradient>
<linearGradient id="paint1_linear" x1="98.8885" y1="175.467" x2="386.715" y2="175.467" gradientUnits="userSpaceOnUse">
<stop stop-color="#1A0F91"/>
<stop offset="1" stop-color="#09005D"/>
</linearGradient>
<linearGradient id="paint2_linear" x1="335.725" y1="81.4969" x2="348.129" y2="94.472" gradientUnits="userSpaceOnUse">
<stop stop-color="#09005D"/>
<stop offset="1" stop-color="#1A0F91"/>
</linearGradient>
<linearGradient id="paint3_linear" x1="316.55" y1="68.6453" x2="329.449" y2="19.9855" gradientUnits="userSpaceOnUse">
<stop stop-color="#09005D"/>
<stop offset="1" stop-color="#1A0F91"/>
</linearGradient>
<linearGradient id="paint4_linear" x1="355.971" y1="110.96" x2="353.048" y2="126.898" gradientUnits="userSpaceOnUse">
<stop stop-color="#09005D"/>
<stop offset="1" stop-color="#1A0F91"/>
</linearGradient>
<linearGradient id="paint5_linear" x1="341.35" y1="91.674" x2="353.86" y2="117.058" gradientUnits="userSpaceOnUse">
<stop stop-color="#4042E2"/>
<stop offset="1" stop-color="#4F52FF"/>
</linearGradient>
<linearGradient id="paint6_linear" x1="360.949" y1="122.556" x2="387.931" y2="160.324" gradientUnits="userSpaceOnUse">
<stop stop-color="#4042E2"/>
<stop offset="1" stop-color="#4F52FF"/>
</linearGradient>
<linearGradient id="paint7_linear" x1="337.461" y1="54.9145" x2="331.611" y2="65.4925" gradientUnits="userSpaceOnUse">
<stop stop-color="#09005D"/>
<stop offset="1" stop-color="#1A0F91"/>
</linearGradient>
<linearGradient id="paint8_linear" x1="309.459" y1="54.1488" x2="293.536" y2="84.4167" gradientUnits="userSpaceOnUse">
<stop stop-color="#FF928E"/>
<stop offset="1" stop-color="#FEB3B1"/>
</linearGradient>
<linearGradient id="paint9_linear" x1="295.956" y1="29.932" x2="215.196" y2="135.704" gradientUnits="userSpaceOnUse">
<stop stop-color="#4042E2"/>
<stop offset="1" stop-color="#4F52FF"/>
</linearGradient>
<linearGradient id="paint10_linear" x1="308.213" y1="45.242" x2="302.526" y2="55.9823" gradientUnits="userSpaceOnUse">
<stop stop-color="#FF928E"/>
<stop offset="1" stop-color="#FEB3B1"/>
</linearGradient>
<linearGradient id="paint11_linear" x1="277.837" y1="22.148" x2="273.94" y2="40.5267" gradientUnits="userSpaceOnUse">
<stop stop-color="#FF928E"/>
<stop offset="1" stop-color="#FEB3B1"/>
</linearGradient>
<linearGradient id="paint12_linear" x1="279.677" y1="-3.17716" x2="280.488" y2="17.6386" gradientUnits="userSpaceOnUse">
<stop stop-color="#FF928E"/>
<stop offset="1" stop-color="#FEB3B1"/>
</linearGradient>
<linearGradient id="paint13_linear" x1="277.721" y1="-9.00602" x2="282.521" y2="18.4099" gradientUnits="userSpaceOnUse">
<stop stop-color="#09005D"/>
<stop offset="1" stop-color="#1A0F91"/>
</linearGradient>
<linearGradient id="paint14_linear" x1="273.578" y1="-2.93927" x2="274.39" y2="17.8764" gradientUnits="userSpaceOnUse">
<stop stop-color="#FF928E"/>
<stop offset="1" stop-color="#FEB3B1"/>
</linearGradient>
<linearGradient id="paint15_linear" x1="292.583" y1="9.31252" x2="291.446" y2="29.6405" gradientUnits="userSpaceOnUse">
<stop stop-color="#09005D"/>
<stop offset="1" stop-color="#1A0F91"/>
</linearGradient>
<linearGradient id="paint16_linear" x1="279.268" y1="8.56797" x2="278.131" y2="28.8959" gradientUnits="userSpaceOnUse">
<stop stop-color="#09005D"/>
<stop offset="1" stop-color="#1A0F91"/>
</linearGradient>
<linearGradient id="paint17_linear" x1="270.185" y1="8.06017" x2="269.048" y2="28.388" gradientUnits="userSpaceOnUse">
<stop stop-color="#09005D"/>
<stop offset="1" stop-color="#1A0F91"/>
</linearGradient>
<linearGradient id="paint18_linear" x1="104.524" y1="290.508" x2="134.782" y2="290.508" gradientUnits="userSpaceOnUse">
<stop stop-color="#DAE3FE"/>
<stop offset="1" stop-color="#E9EFFD"/>
</linearGradient>
<linearGradient id="paint19_linear" x1="357.016" y1="294.585" x2="360.293" y2="307.303" gradientUnits="userSpaceOnUse">
<stop stop-color="#09005D"/>
<stop offset="1" stop-color="#1A0F91"/>
</linearGradient>
<linearGradient id="paint20_linear" x1="367.076" y1="301.579" x2="361.279" y2="300.294" gradientUnits="userSpaceOnUse">
<stop stop-color="#FF928E"/>
<stop offset="1" stop-color="#FEB3B1"/>
</linearGradient>
<linearGradient id="paint21_linear" x1="378.496" y1="288.034" x2="361.544" y2="248.089" gradientUnits="userSpaceOnUse">
<stop stop-color="#2B3582"/>
<stop offset="0.2305" stop-color="#252A70"/>
<stop offset="0.7285" stop-color="#19164F"/>
<stop offset="1" stop-color="#150E42"/>
</linearGradient>
<linearGradient id="paint22_linear" x1="357.832" y1="306.887" x2="372.134" y2="337.709" gradientUnits="userSpaceOnUse">
<stop stop-color="#09005D"/>
<stop offset="1" stop-color="#1A0F91"/>
</linearGradient>
<linearGradient id="paint23_linear" x1="358.899" y1="318.698" x2="359.224" y2="287.636" gradientUnits="userSpaceOnUse">
<stop stop-color="#4042E2"/>
<stop offset="1" stop-color="#4F52FF"/>
</linearGradient>
<linearGradient id="paint24_linear" x1="370.084" y1="307.848" x2="364.643" y2="306.642" gradientUnits="userSpaceOnUse">
<stop stop-color="#FF928E"/>
<stop offset="1" stop-color="#FEB3B1"/>
</linearGradient>
<linearGradient id="paint25_linear" x1="383.568" y1="307.18" x2="392.403" y2="260.771" gradientUnits="userSpaceOnUse">
<stop stop-color="#09005D"/>
<stop offset="1" stop-color="#1A0F91"/>
</linearGradient>
<linearGradient id="paint26_linear" x1="375.237" y1="249.353" x2="364.554" y2="232.438" gradientUnits="userSpaceOnUse">
<stop stop-color="#4042E2"/>
<stop offset="1" stop-color="#4F52FF"/>
</linearGradient>
<linearGradient id="paint27_linear" x1="363.177" y1="246.331" x2="344.197" y2="242.123" gradientUnits="userSpaceOnUse">
<stop stop-color="#FF928E"/>
<stop offset="1" stop-color="#FEB3B1"/>
</linearGradient>
<linearGradient id="paint28_linear" x1="381.441" y1="210.489" x2="418.293" y2="275.984" gradientUnits="userSpaceOnUse">
<stop stop-color="#4042E2"/>
<stop offset="1" stop-color="#4F52FF"/>
</linearGradient>
<linearGradient id="paint29_linear" x1="376.954" y1="202.751" x2="392.229" y2="228.791" gradientUnits="userSpaceOnUse">
<stop stop-color="#FF928E"/>
<stop offset="1" stop-color="#FEB3B1"/>
</linearGradient>
<linearGradient id="paint30_linear" x1="395.635" y1="202.502" x2="432.487" y2="267.997" gradientUnits="userSpaceOnUse">
<stop stop-color="#4042E2"/>
<stop offset="1" stop-color="#4F52FF"/>
</linearGradient>
<linearGradient id="paint31_linear" x1="414.788" y1="231.723" x2="409.752" y2="242.625" gradientUnits="userSpaceOnUse">
<stop stop-color="#FF928E"/>
<stop offset="1" stop-color="#FEB3B1"/>
</linearGradient>
<linearGradient id="paint32_linear" x1="278.833" y1="754.266" x2="283.546" y2="728.14" gradientUnits="userSpaceOnUse">
<stop stop-color="#FF928E"/>
<stop offset="1" stop-color="#FEB3B1"/>
</linearGradient>
<linearGradient id="paint33_linear" x1="386.567" y1="202.487" x2="367.334" y2="201.409" gradientUnits="userSpaceOnUse">
<stop stop-color="#09005D"/>
<stop offset="1" stop-color="#1A0F91"/>
</linearGradient>
<linearGradient id="paint34_linear" x1="285.731" y1="755.514" x2="290.444" y2="729.388" gradientUnits="userSpaceOnUse">
<stop stop-color="#FF928E"/>
<stop offset="1" stop-color="#FEB3B1"/>
</linearGradient>
<linearGradient id="paint35_linear" x1="385.886" y1="245.977" x2="360.978" y2="254.159" gradientUnits="userSpaceOnUse">
<stop stop-color="#09005D"/>
<stop offset="1" stop-color="#1A0F91"/>
</linearGradient>
<linearGradient id="paint36_linear" x1="356.899" y1="251.221" x2="334.931" y2="237.205" gradientUnits="userSpaceOnUse">
<stop stop-color="#09005D"/>
<stop offset="1" stop-color="#1A0F91"/>
</linearGradient>
<linearGradient id="paint37_linear" x1="20.8741" y1="155.678" x2="47.2417" y2="187.057" gradientUnits="userSpaceOnUse">
<stop stop-color="#09005D"/>
<stop offset="1" stop-color="#1A0F91"/>
</linearGradient>
<linearGradient id="paint38_linear" x1="82.7002" y1="189.928" x2="75.7569" y2="215.658" gradientUnits="userSpaceOnUse">
<stop stop-color="#FF928E"/>
<stop offset="1" stop-color="#FEB3B1"/>
</linearGradient>
<linearGradient id="paint39_linear" x1="52.4382" y1="129.109" x2="31.8485" y2="-1.98707" gradientUnits="userSpaceOnUse">
<stop stop-color="#4042E2"/>
<stop offset="1" stop-color="#4F52FF"/>
</linearGradient>
<linearGradient id="paint40_linear" x1="67.1365" y1="170.293" x2="59.0964" y2="193.474" gradientUnits="userSpaceOnUse">
<stop stop-color="#FF928E"/>
<stop offset="1" stop-color="#FEB3B1"/>
</linearGradient>
<linearGradient id="paint41_linear" x1="98.1259" y1="108.107" x2="86.1453" y2="133.86" gradientUnits="userSpaceOnUse">
<stop stop-color="#FF928E"/>
<stop offset="1" stop-color="#FEB3B1"/>
</linearGradient>
<linearGradient id="paint42_linear" x1="53.5419" y1="134.995" x2="66.9847" y2="165.239" gradientUnits="userSpaceOnUse">
<stop stop-color="#09005D"/>
<stop offset="1" stop-color="#1A0F91"/>
</linearGradient>
<linearGradient id="paint43_linear" x1="92.0568" y1="105.283" x2="80.0761" y2="131.036" gradientUnits="userSpaceOnUse">
<stop stop-color="#FF928E"/>
<stop offset="1" stop-color="#FEB3B1"/>
</linearGradient>
<linearGradient id="paint44_linear" x1="38.0559" y1="329.45" x2="76.0959" y2="260.683" gradientUnits="userSpaceOnUse">
<stop stop-color="#FF928E"/>
<stop offset="1" stop-color="#FEB3B1"/>
</linearGradient>
<linearGradient id="paint45_linear" x1="46.2798" y1="305.204" x2="57.6152" y2="305.096" gradientUnits="userSpaceOnUse">
<stop stop-color="#09005D"/>
<stop offset="1" stop-color="#1A0F91"/>
</linearGradient>
<linearGradient id="paint46_linear" x1="105.428" y1="237.665" x2="83.4783" y2="261.847" gradientUnits="userSpaceOnUse">
<stop stop-color="#FF928E"/>
<stop offset="1" stop-color="#FEB3B1"/>
</linearGradient>
<linearGradient id="paint47_linear" x1="56.8087" y1="307.149" x2="70.3216" y2="307.02" gradientUnits="userSpaceOnUse">
<stop stop-color="#09005D"/>
<stop offset="1" stop-color="#1A0F91"/>
</linearGradient>
<linearGradient id="paint48_linear" x1="74.6647" y1="216.35" x2="43.0589" y2="288.747" gradientUnits="userSpaceOnUse">
<stop stop-color="#09005D"/>
<stop offset="1" stop-color="#1A0F91"/>
</linearGradient>
<linearGradient id="paint49_linear" x1="66.8245" y1="174.923" x2="66.0938" y2="188.095" gradientUnits="userSpaceOnUse">
<stop stop-color="#FF928E"/>
<stop offset="1" stop-color="#FEB3B1"/>
</linearGradient>
<linearGradient id="paint50_linear" x1="84.2478" y1="194.1" x2="89.6318" y2="200.31" gradientUnits="userSpaceOnUse">
<stop stop-color="#09005D"/>
<stop offset="1" stop-color="#1A0F91"/>
</linearGradient>
<linearGradient id="paint51_linear" x1="90.3943" y1="192.648" x2="86.7352" y2="206.208" gradientUnits="userSpaceOnUse">
<stop stop-color="#FF928E"/>
<stop offset="1" stop-color="#FEB3B1"/>
</linearGradient>
<clipPath id="clip0">
<rect width="430.627" height="321.516" fill="white" transform="translate(14.5482)"/>
</clipPath>
</defs>
</svg>
