<svg width="459" height="344" viewBox="0 0 459 344" fill="none" xmlns="http://www.w3.org/2000/svg">
<g clip-path="url(#clip0)">
<path d="M446.014 185.966C438.055 177.884 428.645 169.999 426.191 159.025C421.944 140.034 440.104 123.841 446.049 105.293C450.158 92.4692 448.038 77.8674 440.441 66.6765C432.844 55.4856 419.922 47.9358 406.271 46.7082C382.781 44.595 359.791 60.1154 336.652 55.6215C318.125 52.022 303.483 36.1443 284.675 34.4432C262.544 32.4418 244.18 50.356 223.046 57.1012C197.767 65.1683 170.359 56.7373 145.505 47.4843C120.651 38.2334 94.4999 27.9106 68.303 32.3387C39.1402 37.2667 14.6914 62.1848 10.79 90.9479C6.9237 119.454 39.3417 142.336 11.7473 176.564C3.12309 187.262 -2.61178 202.153 1.19978 215.266C4.90401 228.007 20.6672 236.066 20.7811 249.313C20.871 259.771 10.8163 268.093 10.0058 278.521C9.3114 287.471 15.8765 295.747 23.9443 299.988C32.0121 304.23 41.3745 305.267 50.4763 306.229L50.4741 306.232C49.9593 306.773 49.8169 307.538 50.1083 308.209C50.3974 308.88 51.0699 309.34 51.8476 309.404C96.3596 313.043 141.128 312.17 185.793 311.296C258.371 309.873 330.948 308.452 403.526 307.03C410.985 306.883 418.625 306.703 425.576 304.044C432.527 301.385 438.759 295.692 439.819 288.449C441.622 276.125 428.483 265.429 429.698 253.037C431.249 237.212 453.974 231.107 458.298 215.784C461.35 204.955 453.972 194.049 446.014 185.966Z" fill="url(#paint0_linear)"/>
</g>
<g clip-path="url(#clip1)">
<path d="M292.006 332.8C291.418 332.72 290.891 332.409 290.537 331.932C285.377 324.973 247.858 270.517 297.791 220.74C345.192 173.486 366.679 163.783 369.537 136.019C369.871 132.776 374.251 131.998 375.692 134.921C386.463 156.766 403.244 207.741 347.71 241.199C286.451 278.107 291.471 318.565 294.433 330.063C294.824 331.583 293.56 333.012 292.006 332.8Z" fill="#91B3FA"/>
<path d="M299.603 333.835C298.21 333.646 297.105 332.57 296.89 331.179C295.428 321.71 291.837 286.326 317.887 276.942C346.565 266.613 369.718 293.338 390.798 272.42C391.908 271.32 393.772 272.279 393.508 273.82C391.63 284.747 383.274 310.057 346.092 315.15C306.294 320.602 301.815 325.17 302.619 330.837C302.867 332.582 301.351 334.073 299.603 333.835Z" fill="#91B3FA"/>
<path opacity="0.47" d="M368.15 164.326C367.664 166.386 367.017 168.319 366.246 170.237C365.489 172.154 364.617 174.022 363.666 175.851C361.783 179.52 359.523 182.991 357.049 186.298C352.069 192.895 346.043 198.69 339.401 203.605C336.088 206.049 332.546 208.294 329.045 210.323C325.636 212.302 322.357 214.515 319.216 216.912C312.929 221.705 307.228 227.267 302.194 233.365C292.165 245.571 285.046 260.302 282.703 275.985C281.507 283.808 281.492 291.82 282.57 299.709C283.634 307.609 285.884 315.343 288.852 322.801C289.012 323.199 288.82 323.651 288.423 323.812C288.041 323.966 287.606 323.79 287.43 323.424C283.961 316.054 281.368 308.219 279.933 300.127C279.199 296.087 278.766 291.982 278.641 287.863C278.543 283.743 278.716 279.607 279.235 275.508C280.232 267.301 282.545 259.263 285.877 251.696C289.218 244.124 293.632 237.053 298.788 230.603C303.942 224.143 309.923 218.364 316.462 213.315C319.738 210.797 323.163 208.465 326.739 206.372C330.238 204.362 333.561 202.32 336.781 199.996C343.205 195.405 349.142 190.104 354.249 184.055C356.834 181.057 359.175 177.848 361.315 174.503C363.411 171.151 365.371 167.614 366.782 163.957L366.8 163.909C366.94 163.544 367.351 163.362 367.716 163.503C368.049 163.631 368.23 163.987 368.15 164.326Z" fill="white"/>
<path opacity="0.47" d="M297.952 327.413C298.073 327.07 298.035 326.751 298.024 326.424L297.993 325.448L297.971 323.496C297.974 322.197 298.002 320.896 298.058 319.597C298.174 316.999 298.395 314.404 298.743 311.822C299.451 306.666 300.618 301.526 302.699 296.683C304.756 291.875 307.87 287.28 312.391 284.277C314.642 282.803 317.183 281.754 319.815 281.22C322.445 280.666 325.148 280.583 327.792 280.816C338.151 282.018 348.306 284.005 358.487 285.62C363.558 286.376 368.701 287.053 373.68 286.371C374.918 286.189 376.137 285.92 377.32 285.539C378.493 285.129 379.644 284.65 380.719 284.019C382.885 282.782 384.788 281.091 386.49 279.215L386.495 279.208C386.73 278.95 387.129 278.93 387.387 279.165C387.641 279.397 387.664 279.789 387.44 280.048C385.716 282.034 383.746 283.87 381.444 285.253C380.301 285.957 379.068 286.504 377.811 286.971C376.541 287.41 375.236 287.729 373.92 287.95C368.618 288.727 363.361 288.067 358.231 287.362C353.087 286.629 348.007 285.675 342.91 284.85C337.829 284.023 332.687 283.222 327.627 282.628C325.129 282.386 322.603 282.445 320.168 282.937C317.729 283.408 315.396 284.351 313.31 285.688C309.103 288.368 306.052 292.633 303.979 297.249C301.883 301.889 300.637 306.912 299.846 311.981C299.457 314.52 299.191 317.08 299.031 319.649C298.951 320.933 298.899 322.219 298.873 323.505L298.86 325.434L298.872 326.398C298.881 326.717 298.866 327.045 299.023 327.348C299.172 327.636 299.06 327.99 298.772 328.138C298.485 328.287 298.131 328.175 297.982 327.888C297.905 327.738 297.899 327.57 297.95 327.423L297.952 327.413Z" fill="white"/>
<path d="M243.822 3.91036C228.213 3.78739 212.469 6.26395 198.54 12.0471C166.116 25.5096 138.599 61.1319 149.367 97.5179C152.865 109.338 151.027 122.378 162.795 127.515C169.161 130.294 186.5 131.949 193.093 129.757C210.615 123.936 222.132 108.003 212.602 90.3354C209.551 84.6777 205.6 79.5082 202.965 73.6451C200.331 67.782 199.129 60.8208 201.815 54.9799C207.089 43.5144 224.609 39.8697 235.97 40.214C249.379 40.6198 261.53 47.2563 268.746 58.6431C277.739 72.8335 280.018 90.0932 278.702 106.565C277.293 124.19 269.866 137.65 258.737 151.17C249.154 162.811 238.602 173.984 232.234 187.653C226.387 200.202 224.476 214.106 224.212 227.834C224.161 230.495 210.937 255.57 210.993 263.231C211.002 264.313 225.992 267.899 227.073 267.911C232.717 267.974 248.702 268.153 254.586 268.219C255.796 268.232 256.793 267.264 256.806 266.053C257.225 228.783 268.682 193.249 297.682 168.218C308.234 159.11 319.599 151.692 327.805 140.196C339.5 123.811 345.269 107.685 343.604 87.4629C342.083 68.9932 336.006 50.5149 323.976 36.1843C311.045 20.7827 292.119 11.1642 272.45 7.01405C263.28 5.07978 253.578 3.9866 243.822 3.91036Z" fill="#121B44"/>
<path d="M272.605 309.999C272.605 327.139 263.111 342.3 245.985 342.3C242.285 342.3 229.702 342.335 226.412 341.146C214.472 336.83 214.429 327.65 214.429 314.215C214.429 297.075 220.212 280.22 237.34 280.22C254.468 280.22 272.605 292.86 272.605 309.999Z" fill="#121B44"/>
<path d="M228.991 0.00496365C213.382 -0.118004 197.638 2.35856 183.709 8.14171C151.285 21.6042 123.766 57.2266 134.536 93.6126C138.035 105.432 146.123 120.311 157.89 125.448C164.257 128.227 171.669 128.042 178.262 125.852C195.784 120.031 207.301 104.098 197.771 86.4301C194.72 80.7723 190.769 75.6028 188.135 69.7397C185.5 63.8766 184.298 56.9155 186.984 51.0745C192.259 39.609 209.778 35.9643 221.139 36.3086C234.548 36.7144 246.699 43.3509 253.915 54.7377C262.909 68.9281 265.187 86.1878 263.871 102.659C262.463 120.284 255.035 133.744 243.906 147.264C234.323 158.906 223.771 170.079 217.403 183.748C211.556 196.296 209.646 210.2 209.381 223.928C209.33 226.589 210.226 254.375 210.282 262.036C210.291 263.118 211.161 263.992 212.242 264.005C217.886 264.067 233.871 264.247 239.755 264.312C240.965 264.326 241.962 263.358 241.975 262.147C242.394 224.877 253.851 189.343 282.852 164.311C293.404 155.203 304.768 147.786 312.974 136.29C324.669 119.904 330.439 103.778 328.773 83.5563C327.252 65.0866 321.176 46.6083 309.145 32.2777C296.214 16.8761 277.289 7.25758 257.62 3.10743C248.449 1.17438 238.747 0.0812034 228.991 0.00496365Z" fill="url(#paint1_linear)"/>
<path d="M230.61 341.341C247.737 341.341 261.621 327.448 261.621 310.309C261.621 293.171 247.737 279.277 230.61 279.277C213.483 279.277 199.599 293.171 199.599 310.309C199.599 327.448 213.483 341.341 230.61 341.341Z" fill="url(#paint2_linear)"/>
<path opacity="0.63" d="M144.801 90.0477C144.617 90.0477 144.453 89.921 144.412 89.7353C142.238 79.9164 141.92 64.5393 152.741 47.046C163.303 29.9732 178.119 18.5483 196.777 13.091C216.722 7.25748 240.401 8.50682 267.16 16.8034C267.371 16.8686 267.488 17.0912 267.423 17.3014C267.358 17.5117 267.133 17.6298 266.926 17.5646C215.518 1.62434 175.208 12.2438 153.418 47.4666C142.737 64.7312 143.048 79.8894 145.19 89.5644C145.238 89.7796 145.102 89.9911 144.888 90.0391C144.858 90.0452 144.83 90.0477 144.801 90.0477Z" fill="white"/>
<path opacity="0.63" d="M151.325 105.847C151.202 105.847 151.081 105.79 151.003 105.683C150.908 105.554 148.674 102.464 146.595 97.0225C146.516 96.8171 146.619 96.5872 146.824 96.5085C147.028 96.4298 147.259 96.5318 147.338 96.7384C149.376 102.073 151.622 105.183 151.644 105.213C151.773 105.39 151.735 105.64 151.557 105.769C151.488 105.822 151.406 105.847 151.325 105.847Z" fill="white"/>
<path opacity="0.63" d="M240.986 290.195C240.926 290.195 240.864 290.182 240.807 290.152C237.629 288.539 234.198 287.721 230.61 287.721C230.39 287.721 230.212 287.543 230.212 287.323C230.212 287.103 230.39 286.925 230.61 286.925C234.324 286.925 237.877 287.772 241.167 289.442C241.362 289.541 241.441 289.781 241.341 289.977C241.271 290.116 241.131 290.195 240.986 290.195Z" fill="white"/>
<path opacity="0.63" d="M217.767 329.766C217.691 329.766 217.613 329.744 217.545 329.698C211.093 325.336 207.242 318.088 207.242 310.308C207.242 301.683 211.963 293.785 219.561 289.697C219.754 289.593 219.996 289.665 220.101 289.86C220.205 290.054 220.133 290.295 219.938 290.4C212.597 294.348 208.037 301.976 208.037 310.308C208.037 317.823 211.758 324.826 217.989 329.039C218.171 329.161 218.219 329.409 218.096 329.592C218.02 329.705 217.895 329.766 217.767 329.766Z" fill="white"/>
<g opacity="0.3">
<path opacity="0.3" d="M127.45 58.0566C127.125 58.46 126.534 58.5215 126.131 58.1956C125.348 57.5611 124.526 56.9524 123.688 56.3843C123.264 56.0965 123.15 55.5235 123.427 55.0956C123.431 55.0907 123.433 55.0858 123.437 55.0808C123.727 54.6517 124.311 54.5398 124.741 54.83C125.623 55.4276 126.488 56.0695 127.312 56.7372C127.689 57.0422 127.768 57.5795 127.508 57.9779C127.49 58.005 127.471 58.0308 127.45 58.0566ZM119.419 53.8991C118.512 53.4503 117.577 53.0371 116.639 52.6694C116.157 52.4801 115.919 51.9353 116.108 51.4521C116.3 50.9676 116.842 50.7315 117.325 50.9208C118.312 51.3082 119.296 51.7435 120.251 52.2145C120.715 52.4444 120.906 53.0076 120.677 53.4724C120.66 53.5056 120.641 53.5388 120.622 53.5696C120.365 53.9631 119.849 54.1131 119.419 53.8991ZM111.929 51.1914C110.947 50.9577 109.944 50.7622 108.945 50.6134C108.433 50.5372 108.079 50.0588 108.155 49.5461C108.233 49.0333 108.709 48.6792 109.222 48.7554C110.274 48.9128 111.33 49.1169 112.364 49.3641C112.868 49.4846 113.179 49.9912 113.059 50.4954C113.034 50.6024 112.991 50.702 112.934 50.7893C112.723 51.1139 112.325 51.2861 111.929 51.1914ZM104.021 50.2285C103.011 50.2199 101.989 50.2544 100.982 50.3331C100.465 50.3724 100.014 49.9863 99.9747 49.4686C99.9354 48.9509 100.322 48.5009 100.839 48.4603C101.898 48.3791 102.974 48.3422 104.037 48.3508C104.556 48.3558 104.972 48.78 104.968 49.2977C104.966 49.4834 104.911 49.6555 104.816 49.8006C104.648 50.0601 104.354 50.231 104.021 50.2285ZM96.0965 51.0512C95.1122 51.2664 94.123 51.5271 93.1559 51.8259C92.6606 51.9784 92.1347 51.7017 91.9823 51.2061C91.8287 50.7106 92.1064 50.1843 92.6016 50.0318C93.6179 49.717 94.66 49.4428 95.6959 49.2165C96.2022 49.1058 96.7023 49.4268 96.8129 49.9334C96.8682 50.1892 96.8154 50.4425 96.6826 50.6454C96.5536 50.8458 96.3484 50.9971 96.0965 51.0512ZM88.5526 53.6089C87.6383 54.0381 86.7314 54.5103 85.8577 55.0157C85.4092 55.2751 84.8353 55.1202 84.5761 54.6714C84.3168 54.2225 84.4704 53.6483 84.9201 53.3888C85.8405 52.8576 86.7953 52.3596 87.7575 51.9083C88.227 51.6882 88.7861 51.8911 89.006 52.3608C89.1486 52.6658 89.113 53.0088 88.9421 53.272C88.8487 53.4134 88.7173 53.5314 88.5526 53.6089ZM67.4005 81.3245C66.888 81.2471 66.5354 80.7687 66.6128 80.2559C66.7713 79.2058 66.9778 78.1471 67.2272 77.1117C67.3489 76.6075 67.8551 76.2964 68.359 76.4181C68.8628 76.5386 69.1725 77.0465 69.052 77.5507C68.8161 78.5344 68.6195 79.539 68.4696 80.5363C68.4487 80.6728 68.3995 80.7982 68.3295 80.9077C68.1341 81.2065 67.7765 81.3811 67.4005 81.3245ZM81.7657 57.7738C80.9706 58.3948 80.1928 59.0576 79.453 59.745C79.0733 60.0979 78.4797 60.0758 78.1271 59.6958C77.7744 59.3158 77.7977 58.7231 78.1762 58.369C78.9541 57.6459 79.7737 56.9475 80.6118 56.2933C81.021 55.9748 81.6096 56.0474 81.9291 56.4568C82.1823 56.7815 82.1884 57.2192 81.9758 57.5463C81.9205 57.6299 81.8505 57.7074 81.7657 57.7738ZM69.3212 73.3685C68.8395 73.1779 68.6023 72.6332 68.7928 72.1499C69.1823 71.1613 69.6198 70.1775 70.0916 69.2233C70.3202 68.7573 70.8855 68.5691 71.35 68.7991C71.8145 69.029 72.0037 69.5934 71.7739 70.0583C71.3254 70.9645 70.9088 71.9003 70.5389 72.8398C70.5156 72.9 70.4861 72.9554 70.4517 73.007C70.2133 73.3747 69.7427 73.5358 69.3212 73.3685ZM76.0798 63.3504C75.4433 64.1337 74.8325 64.9539 74.2648 65.7901C73.9736 66.2192 73.3899 66.3299 72.961 66.0385C72.5383 65.7507 72.424 65.1777 72.7017 64.751C72.7054 64.7448 72.7091 64.7399 72.7128 64.735C73.3112 63.8546 73.9539 62.9901 74.6224 62.1662C74.9493 61.7641 75.5403 61.7026 75.9434 62.0297C76.3194 62.3347 76.3969 62.872 76.1388 63.2692C76.1216 63.2963 76.1019 63.3233 76.0798 63.3504Z" fill="#91B3FA"/>
<path opacity="0.3" d="M67.9387 87.4902C68.0395 87.3352 68.096 87.1483 68.0898 86.9503C68.0751 86.4659 68.069 85.974 68.0739 85.4871C68.0788 84.9681 67.6622 84.5439 67.1449 84.539C66.6263 84.5341 66.2023 84.9509 66.1974 85.4698C66.1925 85.9826 66.1987 86.5003 66.2146 87.0094C66.2306 87.5271 66.6644 87.9353 67.1817 87.9181C67.5 87.9083 67.7765 87.7398 67.9387 87.4902Z" fill="#91B3FA"/>
</g>
<g opacity="0.3">
<path opacity="0.3" d="M79.9335 113.484C80.1805 113.104 80.1215 112.59 79.775 112.277C79.4161 111.952 79.0573 111.614 78.7108 111.273C78.3409 110.909 77.7461 110.916 77.3836 111.286C77.0187 111.657 77.026 112.251 77.3959 112.614C77.7621 112.973 78.1381 113.328 78.5166 113.67C78.9013 114.018 79.4948 113.988 79.8425 113.604C79.8757 113.565 79.9065 113.526 79.9335 113.484Z" fill="#91B3FA"/>
<path opacity="0.3" d="M134.052 107.86C133.748 108.28 133.162 108.375 132.742 108.071C132.322 107.767 132.227 107.182 132.531 106.76C133.108 105.96 133.661 105.122 134.18 104.262C134.445 103.819 135.024 103.675 135.467 103.942C135.911 104.21 136.054 104.787 135.787 105.231C135.562 105.603 135.332 105.971 135.096 106.334C134.761 106.851 134.409 107.364 134.052 107.86ZM136.89 101.17C136.415 100.965 136.195 100.413 136.4 99.9368C136.793 99.022 137.153 98.0813 137.468 97.1406C137.631 96.6487 138.165 96.3831 138.656 96.5479C139.148 96.7126 139.412 97.2451 139.249 97.737C138.917 98.7281 138.538 99.7192 138.124 100.681C138.103 100.731 138.078 100.778 138.049 100.822C137.803 101.197 137.317 101.353 136.89 101.17ZM130.782 111.793C130.061 112.548 129.297 113.284 128.512 113.979C128.124 114.322 127.53 114.286 127.187 113.897C126.845 113.509 126.882 112.916 127.27 112.572C128.016 111.913 128.74 111.215 129.424 110.497C129.782 110.122 130.376 110.109 130.751 110.467C131.083 110.784 131.132 111.286 130.89 111.657C130.859 111.705 130.822 111.75 130.782 111.793ZM139.44 93.5302C138.932 93.4343 138.595 92.9437 138.691 92.4346C138.874 91.457 139.018 90.461 139.118 89.4723C139.17 88.9558 139.631 88.5808 140.147 88.6324C140.663 88.6841 141.038 89.1452 140.986 89.6617C140.881 90.702 140.729 91.7521 140.536 92.7814C140.513 92.9056 140.466 93.0199 140.401 93.1195C140.2 93.4282 139.825 93.6028 139.44 93.5302ZM124.459 117.093C123.591 117.671 122.685 118.22 121.767 118.725C121.312 118.975 120.742 118.809 120.493 118.355C120.243 117.9 120.409 117.329 120.863 117.08C121.734 116.6 122.595 116.079 123.42 115.53C123.851 115.244 124.434 115.361 124.721 115.792C124.935 116.114 124.924 116.52 124.726 116.824C124.66 116.928 124.57 117.021 124.459 117.093ZM117.129 120.878C116.152 121.253 115.148 121.591 114.146 121.883C113.648 122.028 113.127 121.741 112.982 121.243C112.837 120.744 113.123 120.224 113.621 120.08C114.575 119.802 115.528 119.481 116.456 119.126C116.94 118.94 117.483 119.182 117.669 119.667C117.781 119.958 117.738 120.272 117.579 120.515C117.476 120.674 117.322 120.804 117.129 120.878ZM109.149 122.974C108.113 123.127 107.06 123.238 106.018 123.304C105.501 123.338 105.055 122.944 105.022 122.426C104.988 121.909 105.382 121.462 105.899 121.43C106.889 121.368 107.89 121.262 108.874 121.117C109.386 121.041 109.864 121.396 109.939 121.909C109.974 122.145 109.919 122.372 109.798 122.558C109.658 122.774 109.427 122.933 109.149 122.974ZM100.902 123.279C99.8592 123.201 98.8061 123.079 97.7738 122.915C97.2626 122.833 96.9137 122.351 96.9948 121.839C97.0759 121.327 97.5576 120.978 98.07 121.059C99.0494 121.215 100.05 121.332 101.041 121.405C101.559 121.443 101.946 121.893 101.908 122.41C101.895 122.574 101.843 122.724 101.759 122.852C101.578 123.13 101.256 123.304 100.902 123.279ZM92.786 121.76C91.7869 121.455 90.7879 121.104 89.8158 120.715C89.3341 120.522 89.1007 119.976 89.2924 119.494C89.4841 119.014 90.0309 118.778 90.5114 118.97C91.4342 119.339 92.3829 119.673 93.3316 119.962C93.8268 120.113 94.107 120.638 93.9558 121.134C93.93 121.22 93.8919 121.3 93.8452 121.373C93.6253 121.717 93.1964 121.885 92.786 121.76ZM85.2089 118.5C84.5392 118.12 83.8731 117.715 83.2292 117.297C82.9957 117.146 82.7647 116.992 82.5362 116.836C82.1085 116.545 81.9856 115.96 82.2892 115.532C82.5804 115.102 83.1641 114.992 83.593 115.284C83.8105 115.432 84.0304 115.58 84.2516 115.723C84.8636 116.122 85.4964 116.507 86.133 116.867C86.584 117.123 86.7425 117.696 86.4869 118.147C86.4771 118.164 86.4672 118.18 86.4562 118.196C86.1895 118.608 85.6427 118.746 85.2089 118.5Z" fill="#91B3FA"/>
<path opacity="0.3" d="M140.999 85.0665C141.101 84.9103 141.156 84.7222 141.15 84.5217C141.131 84.0139 141.102 83.4962 141.061 82.9847C141.021 82.467 140.57 82.0809 140.052 82.1215C139.535 82.162 139.149 82.6133 139.19 83.131C139.228 83.6179 139.256 84.1086 139.273 84.5918C139.292 85.1095 139.727 85.5153 140.245 85.4956C140.563 85.4821 140.839 85.3136 140.999 85.0665Z" fill="#91B3FA"/>
</g>
<path d="M129.227 74.0915C129.17 73.9132 129.006 73.7902 128.819 73.7865L123.483 73.6697C122.201 71.5301 120.568 69.5798 118.615 67.9148L119.377 62.6309C119.404 62.4452 119.309 62.2633 119.144 62.1784L113.45 59.2456C113.284 59.1596 113.082 59.1891 112.946 59.3182L109.092 63.0097C106.603 62.3862 104.068 62.1907 101.583 62.3899L98.3858 58.1119C98.274 57.9619 98.0786 57.8991 97.9004 57.9569L91.8029 59.9121C91.6247 59.9687 91.5018 60.1335 91.4982 60.3204L91.3814 65.6608C89.2432 66.9434 87.2943 68.5776 85.6304 70.5316L80.3501 69.7692C80.1645 69.7421 79.9826 69.8356 79.8979 70.0028L76.9671 75.6999C76.881 75.8659 76.9105 76.0688 77.0408 76.2041L80.7298 80.0616C80.1068 82.5516 79.9114 85.0885 80.1104 87.5749L75.8353 90.7745C75.6854 90.8864 75.6227 91.0819 75.6805 91.2602L77.6343 97.3618C77.6908 97.5401 77.8555 97.6631 78.0423 97.6668L83.3792 97.7836C84.6609 99.9232 86.294 101.874 88.2466 103.538L87.4848 108.822C87.4577 109.008 87.5511 109.19 87.7182 109.275L93.4115 112.208C93.5774 112.294 93.7801 112.264 93.9153 112.134L97.7702 108.442C100.259 109.066 102.794 109.261 105.278 109.062L108.476 113.34C108.588 113.49 108.783 113.553 108.961 113.495L115.059 111.54C115.237 111.483 115.36 111.319 115.364 111.132L115.48 105.791C117.619 104.509 119.567 102.874 121.231 100.921L126.512 101.683C126.697 101.71 126.879 101.615 126.964 101.449L129.895 95.7522C129.981 95.5862 129.951 95.3833 129.822 95.248L126.133 91.3905C126.756 88.9004 126.952 86.3636 126.753 83.8772L131.028 80.6776C131.178 80.5657 131.24 80.3702 131.183 80.1919L129.227 74.0915Z" fill="#91B3FA"/>
<path d="M108.258 89.9875C105.911 92.651 101.836 92.908 99.1736 90.5593C97.8833 89.4218 97.114 87.8491 97.0059 86.1325C96.8977 84.4158 97.4642 82.7595 98.6021 81.4683C100.949 78.8049 105.024 78.5479 107.687 80.8965C110.109 83.0337 110.539 86.601 108.83 89.2337C108.66 89.4944 108.47 89.7465 108.258 89.9875ZM98.5051 86.0378C98.5874 87.3548 99.1785 88.5598 100.166 89.4317C102.208 91.2319 105.333 91.0352 107.132 88.9927C108.932 86.9502 108.734 83.8231 106.693 82.0229C104.652 80.2227 101.527 80.4194 99.7278 82.4619C99.5643 82.6476 99.4169 82.8419 99.2854 83.0448C98.7127 83.9277 98.4375 84.9667 98.5051 86.0378Z" fill="#BDD0FB"/>
<path d="M116.553 94.413C116.847 93.9605 117.12 93.4907 117.369 93.005C117.448 92.8525 117.524 92.6976 117.598 92.5427C117.961 91.7766 118.264 90.9822 118.5 90.1718C118.503 90.1608 118.506 90.1497 118.509 90.1386C118.518 90.1079 118.528 90.0759 118.537 90.044C118.554 89.9825 118.571 89.921 118.587 89.8607C118.63 89.6996 118.562 89.5349 118.43 89.4476C118.398 89.4267 118.361 89.4107 118.321 89.3996C118.121 89.3455 117.916 89.4648 117.862 89.6652C117.584 90.6957 117.195 91.704 116.702 92.6607C114.258 97.4146 109.622 100.318 104.662 100.778C101.902 101.034 99.0409 100.532 96.3988 99.1718C95.9356 98.9333 95.487 98.6726 95.0569 98.3922C92.1569 96.5059 90.0113 93.7022 88.941 90.3612C87.7121 86.5234 88.0501 82.4372 89.8933 78.8539C93.7003 71.455 102.806 68.537 110.198 72.344C110.653 72.5789 111.096 72.8359 111.522 73.1138C113.372 74.3177 114.938 75.9125 116.103 77.7903C116.134 77.8382 116.172 77.8776 116.218 77.9071C116.336 77.9833 116.493 77.9907 116.621 77.9108C116.796 77.8013 116.852 77.5701 116.741 77.3931C115.518 75.4219 113.874 73.7471 111.931 72.483C111.483 72.1916 111.02 71.9223 110.542 71.6751C102.781 67.6787 93.2186 70.7467 89.2261 78.5096C87.2919 82.2712 86.9367 86.5615 88.227 90.5899C89.3502 94.097 91.6027 97.0408 94.6477 99.0218C95.0999 99.3157 95.5706 99.5887 96.056 99.8395C99.815 101.775 104.102 102.13 108.128 100.839C111.633 99.7166 114.575 97.4613 116.553 94.413Z" fill="#BDD0FB"/>
<g opacity="0.3">
<path opacity="0.3" d="M165.696 44.5905C165.832 44.3802 165.821 44.0974 165.649 43.8969C165.328 43.5231 164.993 43.1542 164.65 42.8001C164.428 42.5701 164.062 42.564 163.831 42.7865C163.599 43.0091 163.595 43.3768 163.817 43.6067C164.144 43.9437 164.463 44.2966 164.769 44.6532C164.977 44.8967 165.343 44.9237 165.586 44.7159C165.631 44.6778 165.666 44.636 165.696 44.5905Z" fill="#91B3FA"/>
<path opacity="0.3" d="M162.46 41.5335C162.259 41.7831 161.895 41.8225 161.646 41.6208C161.016 41.1142 160.354 40.6334 159.676 40.1932C159.533 40.0997 159.388 40.0087 159.243 39.9177C158.972 39.7492 158.888 39.3914 159.056 39.1196C159.226 38.8688 159.582 38.7643 159.855 38.9327C160.008 39.0274 160.159 39.1233 160.309 39.2205C161.019 39.6816 161.713 40.1858 162.373 40.7182C162.607 40.9064 162.656 41.2384 162.496 41.4855C162.484 41.5015 162.473 41.5175 162.46 41.5335ZM156.652 38.5208C155.763 38.1089 154.84 37.7486 153.91 37.4497C153.605 37.3514 153.437 37.0255 153.535 36.7206C153.632 36.4168 153.959 36.2471 154.264 36.3455C155.238 36.6578 156.205 37.0354 157.138 37.4682C157.428 37.6022 157.555 37.9478 157.421 38.238C157.409 38.2638 157.395 38.2884 157.38 38.3105C157.225 38.5491 156.916 38.6425 156.652 38.5208ZM151.055 36.7267C150.094 36.5459 149.111 36.4242 148.134 36.3627C147.815 36.343 147.572 36.0676 147.591 35.7479C147.611 35.4269 147.885 35.1847 148.206 35.2044C149.231 35.2671 150.262 35.3962 151.269 35.5856C151.584 35.6446 151.791 35.9483 151.732 36.2631C151.718 36.3394 151.689 36.4107 151.649 36.4722C151.525 36.664 151.294 36.771 151.055 36.7267ZM145.19 36.3639C144.212 36.4242 143.229 36.5472 142.269 36.7267C141.955 36.7857 141.651 36.5779 141.592 36.2631C141.533 35.9495 141.74 35.6458 142.054 35.5856C143.061 35.3962 144.092 35.2683 145.116 35.2056C145.436 35.1859 145.711 35.4294 145.731 35.7491C145.738 35.8782 145.704 36 145.639 36.1008C145.544 36.2496 145.382 36.3529 145.19 36.3639ZM139.415 37.4448C138.482 37.7412 137.558 38.099 136.669 38.506C136.379 38.6401 136.034 38.5122 135.901 38.2208C135.767 37.9293 135.895 37.585 136.186 37.4522C137.118 37.0243 138.085 36.6505 139.063 36.3394C139.368 36.2422 139.695 36.4119 139.791 36.7169C139.846 36.889 139.815 37.0686 139.724 37.2087C139.655 37.3169 139.547 37.403 139.415 37.4448ZM134.076 39.8968C133.244 40.4108 132.437 40.9826 131.675 41.595C131.426 41.7954 131.061 41.7561 130.861 41.5064C130.66 41.2568 130.7 40.8928 130.949 40.6912C131.747 40.0493 132.594 39.4492 133.467 38.9106C133.74 38.7421 134.096 38.827 134.264 39.0987C134.386 39.2955 134.375 39.5377 134.257 39.7197C134.213 39.7886 134.153 39.8501 134.076 39.8968ZM129.501 43.5785C128.823 44.2794 128.179 45.0319 127.589 45.8165C127.396 46.0722 127.033 46.1226 126.777 45.9308C126.521 45.7378 126.474 45.3775 126.663 45.118C127.282 44.2966 127.957 43.5071 128.668 42.7718C128.891 42.5418 129.258 42.5357 129.488 42.7583C129.691 42.9538 129.719 43.2624 129.57 43.4899C129.551 43.5207 129.527 43.5502 129.501 43.5785ZM123.894 51.2184C123.599 51.093 123.462 50.7536 123.587 50.4585C123.932 49.642 124.328 48.8304 124.763 48.0483C124.828 47.929 124.896 47.811 124.963 47.6942C125.114 47.4138 125.478 47.3216 125.756 47.4827C126.034 47.6425 126.127 47.9979 125.967 48.2758C125.903 48.3852 125.841 48.4971 125.778 48.6103C125.363 49.3592 124.984 50.1326 124.655 50.9122C124.641 50.9442 124.625 50.9749 124.607 51.0032C124.456 51.2319 124.157 51.3303 123.894 51.2184Z" fill="#91B3FA"/>
</g>
<g opacity="0.3">
<path opacity="0.3" d="M167.446 74.1555C166.884 74.9953 166.266 75.8094 165.61 76.573C165.401 76.8153 165.035 76.8435 164.793 76.6345C164.549 76.4254 164.526 76.059 164.731 75.8168C165.358 75.0888 165.947 74.3129 166.482 73.5111C166.66 73.2443 167.021 73.173 167.286 73.3513C167.55 73.5283 167.623 73.8837 167.451 74.1493C167.449 74.1505 167.447 74.153 167.446 74.1555ZM168.199 71.7871C167.914 71.642 167.8 71.2928 167.945 71.0075C168.38 70.148 168.768 69.254 169.097 68.349C169.207 68.0501 169.54 67.8927 169.841 68.0022C170.142 68.1116 170.297 68.4436 170.187 68.7449C169.842 69.693 169.436 70.6312 168.979 71.5313C168.97 71.5498 168.96 71.5682 168.947 71.5855C168.788 71.8326 168.467 71.9236 168.199 71.7871ZM163.494 78.752C162.745 79.432 161.95 80.0727 161.128 80.6543C160.866 80.84 160.505 80.7773 160.32 80.5166C160.134 80.2546 160.197 79.8944 160.457 79.7074C161.241 79.1516 162.001 78.5417 162.715 77.8924C162.952 77.6772 163.318 77.6945 163.533 77.9318C163.714 78.131 163.731 78.4224 163.591 78.6376C163.564 78.6794 163.531 78.7176 163.494 78.752ZM170.353 66.2671C170.041 66.1958 169.847 65.8835 169.918 65.5711C170.134 64.6317 170.294 63.6713 170.395 62.7134C170.429 62.3949 170.714 62.1637 171.032 62.1969C171.35 62.2301 171.581 62.5154 171.548 62.8339C171.443 63.8385 171.275 64.8468 171.047 65.8318C171.032 65.8994 171.004 65.9622 170.969 66.0175C170.841 66.2167 170.596 66.3225 170.353 66.2671ZM158.55 82.2541C157.663 82.7337 156.736 83.1628 155.796 83.5317C155.498 83.6485 155.162 83.501 155.045 83.2034C154.929 82.9046 155.075 82.5689 155.374 82.4521C156.269 82.1016 157.153 81.6909 158 81.2335C158.281 81.081 158.632 81.1867 158.785 81.4696C158.889 81.6626 158.872 81.8889 158.76 82.061C158.709 82.1385 158.639 82.2061 158.55 82.2541ZM152.91 84.4675C151.932 84.7208 150.929 84.9163 149.931 85.0491C149.614 85.0909 149.323 84.8684 149.28 84.5511C149.237 84.2339 149.46 83.9424 149.777 83.8994C150.73 83.7727 151.686 83.5858 152.62 83.3448C152.929 83.2649 153.246 83.4518 153.326 83.7617C153.368 83.9252 153.336 84.0912 153.251 84.2228C153.174 84.3396 153.056 84.4306 152.91 84.4675ZM146.902 85.2668C145.891 85.2779 144.871 85.2274 143.869 85.1155C143.551 85.0799 143.321 84.7934 143.357 84.4749C143.392 84.1564 143.679 83.9277 143.997 83.9621C144.952 84.0691 145.925 84.117 146.888 84.106C147.209 84.1023 147.471 84.3593 147.475 84.6802C147.476 84.7995 147.441 84.9102 147.381 85.0024C147.279 85.1598 147.103 85.2643 146.902 85.2668Z" fill="#91B3FA"/>
<path opacity="0.3" d="M171.587 60.0979C171.648 60.0045 171.683 59.8913 171.68 59.7721C171.672 59.2753 171.647 58.7773 171.609 58.2903C171.584 57.9706 171.306 57.732 170.986 57.7566C170.668 57.7824 170.429 58.0604 170.453 58.3801C170.488 58.8437 170.512 59.3195 170.52 59.793C170.526 60.1127 170.791 60.3685 171.11 60.3623C171.31 60.3574 171.485 60.2541 171.587 60.0979Z" fill="#91B3FA"/>
</g>
<path d="M163.738 52.3363C163.7 52.217 163.591 52.1346 163.465 52.1321L159.894 52.0534C159.037 50.6221 157.944 49.3162 156.637 48.2033L157.147 44.668C157.165 44.5438 157.101 44.4221 156.991 44.3655L153.181 42.403C153.069 42.3452 152.934 42.3649 152.845 42.4522L150.265 44.9226C148.6 44.5057 146.903 44.3741 145.24 44.5082L143.101 41.6455C143.026 41.5447 142.896 41.5041 142.777 41.5422L138.696 42.8506C138.576 42.8887 138.494 42.9981 138.492 43.1236L138.413 46.697C136.983 47.5553 135.678 48.6485 134.566 49.9568L131.033 49.4465C130.908 49.4281 130.787 49.4908 130.73 49.6027L128.769 53.4147C128.711 53.5266 128.731 53.6618 128.818 53.7516L131.287 56.3327C130.87 57.9989 130.739 59.6971 130.873 61.3608L128.012 63.5017C127.911 63.5767 127.87 63.707 127.909 63.8263L129.216 67.9101C129.254 68.0293 129.364 68.1117 129.489 68.1142L133.06 68.1929C133.918 69.6242 135.01 70.9301 136.318 72.043L135.808 75.5783C135.789 75.7025 135.852 75.8242 135.964 75.8808L139.773 77.8434C139.885 77.9011 140.02 77.8815 140.11 77.7942L142.689 75.3238C144.355 75.7406 146.052 75.8722 147.714 75.7382L149.854 78.6008C149.929 78.7017 150.059 78.7422 150.178 78.7041L154.259 77.3958C154.378 77.3576 154.461 77.2482 154.463 77.1228L154.542 73.5493C155.972 72.691 157.277 71.5978 158.389 70.2895L161.922 70.7998C162.046 70.8182 162.168 70.7543 162.224 70.6436L164.186 66.8316C164.243 66.7197 164.224 66.5845 164.136 66.4947L161.668 63.9136C162.084 62.2474 162.216 60.5492 162.082 58.8855L164.943 56.7446C165.043 56.6696 165.084 56.5393 165.046 56.42L163.738 52.3363Z" fill="#91B3FA"/>
<path d="M149.764 63.0234C148.99 63.9027 147.919 64.4277 146.75 64.5015C145.581 64.5753 144.454 64.1892 143.575 63.4132C141.762 61.8134 141.588 59.0405 143.186 57.2206C144.786 55.4068 147.561 55.2322 149.374 56.8308C150.253 57.6055 150.778 58.6765 150.851 59.8459C150.912 60.7965 150.667 61.72 150.157 62.5045C150.04 62.6853 149.909 62.8587 149.764 63.0234ZM144.342 62.5426C144.989 63.1132 145.818 63.3973 146.678 63.3432C147.537 63.289 148.325 62.9029 148.895 62.2561C149.464 61.6093 149.749 60.7793 149.695 59.9185C149.641 59.059 149.255 58.2707 148.609 57.7002C147.275 56.5234 145.233 56.6512 144.057 57.9867C143.951 58.1072 143.856 58.2338 143.771 58.3642C142.913 59.6836 143.129 61.4728 144.342 62.5426Z" fill="#BDD0FB"/>
<path d="M155.538 66.1037C155.739 65.7963 155.924 65.4753 156.095 65.1421C156.435 64.4805 156.708 63.7845 156.908 63.0701C156.917 63.0381 156.926 63.0062 156.934 62.9742C157.002 62.7258 156.896 62.4713 156.691 62.3372C156.64 62.3052 156.585 62.2794 156.525 62.2634C156.215 62.1798 155.9 62.3643 155.815 62.6729C155.635 63.3419 155.382 63.9936 155.064 64.6121C155.047 64.6465 155.028 64.6797 155.011 64.7129C154.244 66.1689 153.144 67.3776 151.811 68.2667C151.087 68.7487 150.295 69.1361 149.448 69.4164C149.441 69.4189 149.435 69.4214 149.427 69.4238C149.406 69.43 149.385 69.4373 149.365 69.4447C146.882 70.2403 144.238 70.0214 141.92 68.8274C141.62 68.6737 141.33 68.5053 141.051 68.3233C139.174 67.1022 137.785 65.2872 137.092 63.1242C136.297 60.6403 136.516 57.994 137.709 55.6749C138.902 53.3569 140.926 51.6391 143.408 50.8435C145.891 50.0479 148.535 50.2668 150.853 51.4608C151.148 51.612 151.434 51.7793 151.71 51.9588C152.908 52.7384 153.922 53.7701 154.676 54.9862C154.722 55.0612 154.782 55.1215 154.853 55.167C155.034 55.285 155.276 55.2961 155.474 55.1731C155.746 55.0035 155.831 54.6468 155.661 54.3739C154.818 53.0138 153.683 51.8579 152.343 50.9861C152.034 50.7844 151.714 50.5988 151.384 50.4291C148.789 49.0936 145.832 48.8489 143.054 49.7392C140.277 50.6295 138.011 52.5466 136.678 55.1449C135.343 57.7395 135.098 60.6993 135.989 63.4796C136.763 65.8996 138.317 67.9298 140.419 69.2959C140.731 69.4988 141.055 69.687 141.391 69.8604C146.41 72.4427 152.525 70.7433 155.538 66.1037Z" fill="#BDD0FB"/>
<path d="M283.089 105.479L266.233 122.732L286.452 117.328L283.089 105.479Z" fill="#91B3FA"/>
<path d="M383.387 112.621L287.608 117.273C285.148 117.392 283.089 115.428 283.089 112.964V73.5332C283.089 69.2477 286.49 65.737 290.771 65.6042L377.093 62.9309C383.521 62.9309 388.733 68.146 388.733 74.5784V107.006C388.733 110.004 386.381 112.474 383.387 112.621Z" fill="#91B3FA"/>
<path opacity="0.85" d="M290.473 115.689C288.947 115.689 287.508 115.113 286.394 114.051C285.211 112.922 284.56 111.398 284.56 109.762V74.2242C284.56 70.036 287.916 66.6544 292.199 66.524L375.778 63.9983C382.113 63.9983 387.262 69.0289 387.262 75.2104V105.85C387.262 108.799 384.901 111.22 381.888 111.363L290.762 115.681C290.666 115.686 290.569 115.689 290.473 115.689ZM375.784 64.4139L292.212 66.9397C288.154 67.0626 284.975 70.2622 284.975 74.2242V109.762C284.975 111.283 285.581 112.699 286.681 113.75C287.78 114.8 289.222 115.34 290.742 115.266L381.868 110.947C384.659 110.816 386.846 108.576 386.846 105.85V75.2117C386.846 69.2576 381.884 64.4139 375.784 64.4139Z" fill="white"/>
<path d="M375.506 71.6038L298.92 74.4726C298.168 74.5009 297.576 75.0002 297.601 75.5842L297.63 76.2581C297.654 76.836 298.275 77.2812 299.018 77.2541L375.607 74.4554C376.36 74.4284 376.953 73.9291 376.929 73.3438L376.897 72.6011C376.871 72.0194 376.25 71.5755 375.506 71.6038Z" fill="url(#paint3_linear)"/>
<path d="M368.651 91.0056L292.064 93.8597C291.312 93.888 290.721 94.4032 290.747 95.0082L290.776 95.7054C290.802 96.3043 291.423 96.7654 292.167 96.7384L368.757 93.9568C369.51 93.9298 370.102 93.4133 370.075 92.8071L370.042 92.0373C370.018 91.4385 369.396 90.9773 368.651 91.0056Z" fill="url(#paint4_linear)"/>
<path d="M377.599 99.1214L292.222 102.347C291.383 102.379 290.722 102.903 290.748 103.514L290.779 104.218C290.805 104.823 291.494 105.286 292.325 105.256L377.705 102.103C378.544 102.073 379.207 101.549 379.181 100.936L379.148 100.159C379.121 99.5531 378.429 99.0907 377.599 99.1214Z" fill="url(#paint5_linear)"/>
<path d="M333.515 83.0423L291.772 84.2597C291.361 84.272 291.055 84.8352 291.089 85.5139L291.127 86.2972C291.16 86.9698 291.514 87.5023 291.919 87.4912L333.666 86.355C334.076 86.3439 334.383 85.7808 334.349 85.1008L334.306 84.2363C334.275 83.5637 333.921 83.03 333.515 83.0423Z" fill="url(#paint6_linear)"/>
<path d="M379.51 81.5986L340.055 82.7299C339.668 82.7409 339.38 83.3029 339.414 83.9829L339.453 84.7662C339.486 85.4389 339.823 85.9725 340.207 85.9627L379.666 84.9113C380.055 84.9015 380.342 84.3383 380.309 83.6583L380.266 82.7938C380.23 82.1212 379.894 81.5875 379.51 81.5986Z" fill="url(#paint7_linear)"/>
<path d="M137.66 330.1C137.66 330.1 136.871 334.572 136.484 338.999C136.333 340.729 137.666 342.232 139.4 342.304C145.291 342.55 157.894 343.027 162.416 342.825C163.096 342.795 163.54 342.099 163.289 341.465C163.077 340.935 162.67 340.506 162.153 340.268L141.336 330.694L137.66 330.1Z" fill="url(#paint8_linear)"/>
<path d="M137.013 327.472L137.647 332.821C137.647 332.821 141.293 334.519 143.784 332.607L142.274 326.646L137.013 327.472Z" fill="url(#paint9_linear)"/>
<path d="M137.49 226.899C137.216 228.296 136.019 296.613 143.317 327.228C143.437 327.728 143.183 328.243 142.708 328.437C141.588 328.895 139.395 329.557 136.765 329.646C135.95 329.673 135.221 329.144 134.991 328.361C132.905 321.258 122.909 285.669 121.605 251.672C120.147 213.684 121.605 250.379 121.605 250.379L122.459 226.897L137.49 226.899Z" fill="url(#paint10_linear)"/>
<path d="M113.713 332.432C113.713 332.432 112.456 334.69 111.24 340.69C111.02 341.773 111.777 342.809 112.876 342.918C114.822 343.109 117.816 343.355 120.216 343.338C121.322 343.331 122.185 342.367 122.052 341.269C121.787 339.079 120.959 335.486 118.401 332.686L113.713 332.432Z" fill="url(#paint11_linear)"/>
<path d="M112.61 325.552L114.092 333.642C114.092 333.642 115.558 334.733 118.457 333.942L117.749 325.239L112.61 325.552Z" fill="url(#paint12_linear)"/>
<path d="M108.606 228.996C102.638 265.04 109.901 318.082 112.35 328.464C112.5 329.1 113.013 329.587 113.657 329.694C114.75 329.875 116.551 330.023 118.325 329.507C118.937 329.329 119.366 328.778 119.39 328.141C119.719 319.747 119.128 268.221 124.689 247.858C124.971 246.826 125.601 245.926 126.472 245.306L137.267 237.627L138.094 225.215L108.606 228.996Z" fill="url(#paint13_linear)"/>
<path d="M146.636 160.699C128.751 160.404 109.014 165.399 109.014 165.399C103.682 196.529 108.081 232.435 108.081 232.435C121.928 236.069 137.549 230.213 137.549 230.213C139.851 217.201 150.588 180.583 150.588 180.583C159.328 179.497 166.526 176.975 172.456 173.639C167.933 168.393 165.801 161.718 164.876 157.773C158.553 159.74 152.154 160.79 146.636 160.699Z" fill="url(#paint14_linear)"/>
<path d="M199.469 134.334C197.712 132.211 195.488 133.215 195.488 133.215C192.856 144.342 179.055 153.362 164.876 157.772C165.803 161.718 167.934 168.393 172.456 173.637C195.988 160.399 199.469 134.334 199.469 134.334Z" fill="url(#paint15_linear)"/>
<path d="M199.043 134.874C199.227 135.46 197.098 136.35 195.844 133.958C195.8 132.812 195.103 127.901 195.788 126.966C199.434 121.992 206.502 115.757 206.502 115.757C207.697 116.936 206.712 118.095 206.712 118.095L203.283 121.67C204 122.967 204.875 124.062 205.284 125.631C205.595 126.819 205.405 128.089 204.805 129.17C204.203 130.254 203.382 131.666 202.605 132.769C201.139 134.86 199.043 134.874 199.043 134.874Z" fill="url(#paint16_linear)"/>
<path d="M201.785 123.989L198.66 126.64L197.679 129.279L200.465 132.372C200.465 132.372 201.401 127.135 202.098 126.002C202.795 124.87 202.434 124.321 201.785 123.989Z" fill="url(#paint17_linear)"/>
<path d="M115.876 182.728L109.015 165.397C109.015 165.397 92.3079 176.757 89.5615 191.159C92.7184 191.391 98.462 192.213 104.085 195.054C105.32 188.254 115.876 182.728 115.876 182.728Z" fill="url(#paint18_linear)"/>
<path d="M130.476 199.036C130.476 199.036 111.719 209.644 105.389 200.587C104.075 198.705 103.761 196.836 104.084 195.054C98.4608 192.214 92.7172 191.391 89.5603 191.159C88.732 195.501 89.1695 200.118 91.7193 204.786C102.806 225.079 132.957 203.665 132.957 203.665L130.476 199.036Z" fill="url(#paint19_linear)"/>
<path d="M128.221 212.457L138.458 176.682C138.575 176.276 138.921 175.98 139.34 175.931C141.194 175.714 146.569 175.107 152.775 174.581C160.25 173.947 168.929 173.436 174.116 173.871C174.853 173.932 175.299 174.713 174.971 175.377C172.022 181.349 159.888 205.639 153.813 213.597C153.611 213.86 153.3 214.015 152.969 214.011L129.216 213.79C128.526 213.785 128.032 213.122 128.221 212.457Z" fill="#91B3FA"/>
<path d="M153.837 171.479L161.26 170.242C161.655 170.176 161.979 170.554 161.853 170.934L161.118 173.163C161.054 173.357 160.885 173.497 160.683 173.524L153.541 174.478C153.171 174.528 152.867 174.192 152.953 173.829L153.407 171.884C153.455 171.675 153.625 171.515 153.837 171.479Z" fill="#BDD0FB"/>
<path d="M148.279 177.768L148.891 174.58C148.953 174.261 149.217 174.02 149.54 173.986L164.531 172.464C165.036 172.412 165.439 172.876 165.321 173.369L164.367 177.341C164.291 177.658 164.015 177.888 163.689 177.904L149.04 178.642C148.563 178.666 148.19 178.236 148.279 177.768Z" fill="#BDD0FB"/>
<path d="M130.695 203.813C130.695 203.813 129.269 197.946 129.844 195.864C130.419 193.782 131.534 191.105 135.249 191.7C138.964 192.295 143.346 193.861 143.346 193.861C143.346 193.861 143.124 196.572 140.301 195.698L142.052 197.053C142.052 197.053 141.801 199.224 139.417 198.064L141.045 199.861C141.045 199.861 140.022 201.644 138.267 200.501C136.512 199.358 135.671 204.52 130.695 203.813Z" fill="url(#paint20_linear)"/>
<path d="M128.52 146.168L122.829 162.637C122.734 162.91 122.846 163.212 123.099 163.351C124.65 164.209 130.24 166.691 136.975 162.417C137.677 161.971 138.155 161.246 138.261 160.421L140.104 146.166H128.52V146.168Z" fill="url(#paint21_linear)"/>
<path d="M140.903 130.916C140.903 130.916 147.153 142.687 146.351 147.442C145.55 152.198 137.805 151.856 131.041 147.995L126.315 135.283L140.903 130.916Z" fill="url(#paint22_linear)"/>
<path d="M131.34 141.753C131.615 141.631 131.716 141.294 131.551 141.043C131.05 140.278 130.112 138.717 129.812 137.349C129.812 137.349 128.689 136.629 132.672 135.676C136.655 134.722 142.595 133.241 143.843 129.848C145.061 126.541 141.862 118.223 136.76 124.851C136.566 125.103 136.186 125.109 135.992 124.856C135.155 123.766 132.957 121.505 129.903 122.876C127.046 124.159 126.724 126.254 126.764 127.31C126.775 127.621 126.497 127.862 126.192 127.805C124.748 127.529 121.282 127.292 119.663 130.851C118.33 133.782 119.196 135.441 119.985 136.253C120.241 136.516 120.129 136.948 119.779 137.055C118.829 137.347 117.604 138.152 117.727 140.378C117.896 143.455 121.335 143.184 122.313 143.044C122.474 143.021 122.635 143.076 122.743 143.196C123.582 144.126 127.363 148.072 131.455 148.548C131.809 148.589 132.084 148.239 131.968 147.901L130.197 142.749C130.115 142.509 130.229 142.247 130.46 142.145L131.34 141.753Z" fill="url(#paint23_linear)"/>
<path d="M132.053 142.483C132.053 142.483 127.603 139.429 127.277 142.001C126.952 144.574 131.284 145.727 133.43 144.768L132.053 142.483Z" fill="url(#paint24_linear)"/>
</g>
<defs>
<linearGradient id="paint0_linear" x1="-0.000644046" y1="171.672" x2="459" y2="171.672" gradientUnits="userSpaceOnUse">
<stop stop-color="#DAE3FE"/>
<stop offset="1" stop-color="#E9EFFD"/>
</linearGradient>
<linearGradient id="paint1_linear" x1="70.7951" y1="280.447" x2="620.64" y2="-301.424" gradientUnits="userSpaceOnUse">
<stop stop-color="#09005D"/>
<stop offset="1" stop-color="#1A0F91"/>
</linearGradient>
<linearGradient id="paint2_linear" x1="294.228" y1="239.963" x2="169.561" y2="377.627" gradientUnits="userSpaceOnUse">
<stop stop-color="#09005D"/>
<stop offset="1" stop-color="#1A0F91"/>
</linearGradient>
<linearGradient id="paint3_linear" x1="297.599" y1="74.4276" x2="376.928" y2="74.4276" gradientUnits="userSpaceOnUse">
<stop stop-color="#DAE3FE"/>
<stop offset="1" stop-color="#E9EFFD"/>
</linearGradient>
<linearGradient id="paint4_linear" x1="290.746" y1="93.872" x2="370.077" y2="93.872" gradientUnits="userSpaceOnUse">
<stop stop-color="#DAE3FE"/>
<stop offset="1" stop-color="#E9EFFD"/>
</linearGradient>
<linearGradient id="paint5_linear" x1="290.747" y1="102.189" x2="379.18" y2="102.189" gradientUnits="userSpaceOnUse">
<stop stop-color="#DAE3FE"/>
<stop offset="1" stop-color="#E9EFFD"/>
</linearGradient>
<linearGradient id="paint6_linear" x1="291.087" y1="85.267" x2="334.354" y2="85.267" gradientUnits="userSpaceOnUse">
<stop stop-color="#DAE3FE"/>
<stop offset="1" stop-color="#E9EFFD"/>
</linearGradient>
<linearGradient id="paint7_linear" x1="339.41" y1="83.7802" x2="380.309" y2="83.7802" gradientUnits="userSpaceOnUse">
<stop stop-color="#DAE3FE"/>
<stop offset="1" stop-color="#E9EFFD"/>
</linearGradient>
<linearGradient id="paint8_linear" x1="161.757" y1="323.919" x2="85.4694" y2="406.842" gradientUnits="userSpaceOnUse">
<stop stop-color="#09005D"/>
<stop offset="1" stop-color="#1A0F91"/>
</linearGradient>
<linearGradient id="paint9_linear" x1="137.013" y1="330.081" x2="143.784" y2="330.081" gradientUnits="userSpaceOnUse">
<stop stop-color="#FEBBBA"/>
<stop offset="1" stop-color="#FF928E"/>
</linearGradient>
<linearGradient id="paint10_linear" x1="167.759" y1="230.083" x2="102.837" y2="318.018" gradientUnits="userSpaceOnUse">
<stop stop-color="#09005D"/>
<stop offset="1" stop-color="#1A0F91"/>
</linearGradient>
<linearGradient id="paint11_linear" x1="144.655" y1="308.186" x2="68.3692" y2="391.11" gradientUnits="userSpaceOnUse">
<stop stop-color="#09005D"/>
<stop offset="1" stop-color="#1A0F91"/>
</linearGradient>
<linearGradient id="paint12_linear" x1="112.609" y1="329.734" x2="118.456" y2="329.734" gradientUnits="userSpaceOnUse">
<stop stop-color="#FEBBBA"/>
<stop offset="1" stop-color="#FF928E"/>
</linearGradient>
<linearGradient id="paint13_linear" x1="156.199" y1="221.548" x2="91.2762" y2="309.483" gradientUnits="userSpaceOnUse">
<stop stop-color="#09005D"/>
<stop offset="1" stop-color="#1A0F91"/>
</linearGradient>
<linearGradient id="paint14_linear" x1="133.262" y1="182.402" x2="236.779" y2="4.1753" gradientUnits="userSpaceOnUse">
<stop stop-color="#4F52FF"/>
<stop offset="1" stop-color="#4042E2"/>
</linearGradient>
<linearGradient id="paint15_linear" x1="194.136" y1="112.976" x2="182.174" y2="147.129" gradientUnits="userSpaceOnUse">
<stop stop-color="#FEBBBA"/>
<stop offset="1" stop-color="#FF928E"/>
</linearGradient>
<linearGradient id="paint16_linear" x1="204.347" y1="116.553" x2="192.386" y2="150.705" gradientUnits="userSpaceOnUse">
<stop stop-color="#FEBBBA"/>
<stop offset="1" stop-color="#FF928E"/>
</linearGradient>
<linearGradient id="paint17_linear" x1="195.169" y1="138.376" x2="204.178" y2="120.215" gradientUnits="userSpaceOnUse">
<stop stop-color="#FEBBBA"/>
<stop offset="1" stop-color="#FF928E"/>
</linearGradient>
<linearGradient id="paint18_linear" x1="111.752" y1="169.909" x2="215.268" y2="-8.31783" gradientUnits="userSpaceOnUse">
<stop stop-color="#4F52FF"/>
<stop offset="1" stop-color="#4042E2"/>
</linearGradient>
<linearGradient id="paint19_linear" x1="89.1796" y1="202.341" x2="132.958" y2="202.341" gradientUnits="userSpaceOnUse">
<stop stop-color="#FEBBBA"/>
<stop offset="1" stop-color="#FF928E"/>
</linearGradient>
<linearGradient id="paint20_linear" x1="129.707" y1="197.748" x2="143.346" y2="197.748" gradientUnits="userSpaceOnUse">
<stop stop-color="#FEBBBA"/>
<stop offset="1" stop-color="#FF928E"/>
</linearGradient>
<linearGradient id="paint21_linear" x1="122.795" y1="155.509" x2="140.104" y2="155.509" gradientUnits="userSpaceOnUse">
<stop stop-color="#FEBBBA"/>
<stop offset="1" stop-color="#FF928E"/>
</linearGradient>
<linearGradient id="paint22_linear" x1="144.22" y1="144.49" x2="125.183" y2="132.886" gradientUnits="userSpaceOnUse">
<stop stop-color="#FEBBBA"/>
<stop offset="1" stop-color="#FF928E"/>
</linearGradient>
<linearGradient id="paint23_linear" x1="115.116" y1="120.631" x2="139.714" y2="140.046" gradientUnits="userSpaceOnUse">
<stop stop-color="#09005D"/>
<stop offset="1" stop-color="#1A0F91"/>
</linearGradient>
<linearGradient id="paint24_linear" x1="139.222" y1="148.821" x2="122.093" y2="138.381" gradientUnits="userSpaceOnUse">
<stop stop-color="#FEBBBA"/>
<stop offset="1" stop-color="#FF928E"/>
</linearGradient>
<clipPath id="clip0">
<rect width="459" height="280.783" fill="white" transform="translate(0 31.2789)"/>
</clipPath>
<clipPath id="clip1">
<rect width="327.338" height="343.341" fill="white" transform="translate(66.1949)"/>
</clipPath>
</defs>
</svg>
