<svg width="264" height="136" viewBox="0 0 264 136" fill="none" xmlns="http://www.w3.org/2000/svg">
<path fill-rule="evenodd" clip-rule="evenodd" d="M0.938278 135.158C1.74636 132.95 2.67718 130.578 3.68984 128.063C4.70249 125.517 5.77652 122.93 6.88123 120.272C8.00641 117.573 9.14181 114.854 10.359 112.103C11.5456 109.384 12.7424 106.685 13.9289 104.078C14.5119 102.769 15.2075 101.849 15.9542 101.358C16.7111 100.837 17.6624 100.602 18.8285 100.602C19.2684 100.602 19.6673 100.632 20.0764 100.745C20.5163 100.837 20.8641 100.949 21.1812 101.062C21.4982 101.205 21.7642 101.327 21.9688 101.44C22.1733 101.552 22.3166 101.644 22.3472 101.675C22.8689 102.575 23.5338 103.935 24.3828 105.734C25.2215 107.533 26.1217 109.558 27.1036 111.786C28.0652 114.046 29.0471 116.397 30.0598 118.861C31.1031 121.295 32.0339 123.585 32.9034 125.762C33.7729 127.94 34.5605 129.883 35.1947 131.559C35.8595 133.246 36.3198 134.453 36.5858 135.179H30.0598C29.9166 134.77 29.6813 134.218 29.4256 133.502C29.1596 132.776 28.8732 131.999 28.5868 131.181C28.2697 130.343 27.9526 129.504 27.6253 128.625C27.2775 127.787 26.9911 127.03 26.7252 126.366H10.1851C9.4589 128.196 8.82471 129.842 8.24167 131.355C7.65863 132.888 7.19833 134.166 6.81986 135.179H0.938278V135.158ZM24.7408 121.213C24.2805 119.996 23.7588 118.667 23.1758 117.185C22.562 115.702 21.9892 114.281 21.4062 112.891C20.8538 111.5 20.3015 110.253 19.7798 109.098C19.2888 107.973 18.8797 107.094 18.5626 106.49C18.1227 107.421 17.6624 108.464 17.1101 109.619C16.5884 110.774 16.0667 112.001 15.4837 113.3C14.9313 114.608 14.379 115.907 13.8266 117.246C13.2436 118.636 12.7219 119.945 12.2309 121.213H24.7408Z" fill="#004279"/>
<path fill-rule="evenodd" clip-rule="evenodd" d="M43.7664 106.808H33.9058C31.9624 106.808 31.0111 105.939 31.0111 104.17C31.0111 103.536 31.0929 102.984 31.2975 102.462C31.5021 101.972 31.6453 101.624 31.7373 101.481H59.9178C61.8613 101.481 62.8228 102.35 62.8228 104.119C62.8228 104.722 62.7307 105.305 62.5568 105.795C62.3829 106.317 62.209 106.634 62.0965 106.808H49.648V135.179H43.7664V106.808Z" fill="#004279"/>
<path fill-rule="evenodd" clip-rule="evenodd" d="M58.3528 135.158C59.1608 132.95 60.0917 130.578 61.1043 128.063C62.117 125.517 63.191 122.93 64.2957 120.272C65.4209 117.573 66.5563 114.854 67.7735 112.103C68.9601 109.384 70.1466 106.685 71.3434 104.078C71.9264 102.769 72.622 101.849 73.3687 101.358C74.1256 100.837 75.0769 100.602 76.243 100.602C76.6828 100.602 77.0818 100.632 77.5216 100.745C77.9308 100.837 78.2785 100.949 78.5956 101.062C78.9127 101.205 79.1787 101.327 79.3832 101.44C79.5878 101.552 79.731 101.644 79.7617 101.675C80.2834 102.575 80.9483 103.935 81.787 105.734C82.6258 107.533 83.5259 109.558 84.5181 111.786C85.4694 114.046 86.4616 116.397 87.4743 118.861C88.5176 121.295 89.4484 123.585 90.3179 125.762C91.1873 127.94 91.9749 129.883 92.6091 131.559C93.274 133.246 93.7445 134.453 94.0003 135.179H87.4743C87.3311 134.77 87.0958 134.218 86.8401 133.502C86.5741 132.776 86.2877 131.999 86.0013 131.181C85.6842 130.343 85.3671 129.504 85.0398 128.625C84.692 127.787 84.4056 127.03 84.1397 126.366H67.5996C66.8734 128.196 66.2392 129.842 65.6561 131.355C65.0731 132.888 64.6128 134.166 64.2343 135.179H58.3528V135.158ZM82.1553 121.213C81.695 119.996 81.1733 118.667 80.5903 117.185C79.9765 115.702 79.4037 114.281 78.8207 112.891C78.2683 111.5 77.7159 110.253 77.1943 109.098C76.7033 107.973 76.2941 107.094 75.977 106.49C75.5372 107.421 75.0769 108.464 74.5245 109.619C74.0029 110.774 73.4812 112.001 72.8982 113.3C72.3458 114.608 71.7934 115.907 71.2411 117.246C70.658 118.636 70.1364 119.945 69.6454 121.213H82.1553Z" fill="#004279"/>
<path fill-rule="evenodd" clip-rule="evenodd" d="M97.5497 135.178C97.5803 134.34 97.6315 133.093 97.6929 131.498C97.7747 129.903 97.8974 128.103 98.01 126.11C98.1225 124.106 98.2452 122.051 98.3577 119.904C98.4702 117.757 98.5623 115.702 98.6748 113.729C98.7873 111.755 98.9101 109.966 99.0226 108.341C99.1044 106.776 99.1965 105.56 99.2579 104.691C99.3192 103.535 99.7182 102.687 100.444 102.196C101.171 101.705 101.979 101.47 102.91 101.47C103.922 101.47 104.761 101.613 105.405 101.9C106.07 102.186 106.541 102.482 106.797 102.738C107.206 103.525 107.778 104.711 108.597 106.337C109.405 107.962 110.274 109.7 111.205 111.612C112.136 113.493 113.057 115.354 114.018 117.174C114.949 119.025 115.726 120.538 116.371 121.754C116.954 120.65 117.649 119.26 118.488 117.614C119.327 115.957 120.145 114.281 120.984 112.604C121.823 110.927 122.61 109.302 123.357 107.819C124.083 106.316 124.666 105.181 125.035 104.343C125.495 103.413 126.078 102.697 126.773 102.196C127.469 101.705 128.338 101.47 129.443 101.47C130.374 101.47 131.182 101.583 131.847 101.818C132.512 102.084 132.921 102.278 133.064 102.431C133.146 103.362 133.207 104.691 133.32 106.429C133.412 108.136 133.524 110.109 133.637 112.226C133.75 114.311 133.872 116.54 134.015 118.83C134.128 121.151 134.281 123.349 134.394 125.466C134.537 127.582 134.629 129.524 134.711 131.232C134.793 132.939 134.885 134.278 134.946 135.168H129.177C129.147 134.647 129.085 133.747 129.034 132.448C128.973 131.17 128.891 129.668 128.799 127.96C128.686 126.253 128.594 124.453 128.482 122.572C128.4 120.691 128.308 118.892 128.195 117.215C128.113 115.538 128.021 114.056 127.929 112.757C127.847 111.479 127.786 110.58 127.755 110.089C127.469 110.672 127.06 111.449 126.569 112.44C126.078 113.422 125.556 114.495 124.973 115.661C124.39 116.816 123.787 118.033 123.173 119.311C122.539 120.589 121.956 121.805 121.373 122.961C120.79 124.116 120.268 125.22 119.808 126.202C119.317 127.214 118.938 128.032 118.652 128.604H113.783C113.404 127.735 112.832 126.488 112.075 124.924C111.318 123.359 110.51 121.703 109.64 119.934C108.771 118.166 107.901 116.428 107.032 114.69C106.162 112.952 105.385 111.449 104.679 110.171C104.648 110.948 104.597 112.021 104.505 113.33C104.423 114.639 104.331 116.08 104.239 117.675C104.178 119.301 104.096 120.947 103.984 122.664C103.892 124.372 103.81 126.059 103.718 127.674C103.626 129.269 103.544 130.751 103.482 132.05C103.421 133.358 103.37 134.401 103.339 135.178H97.5497Z" fill="#004279"/>
<path fill-rule="evenodd" clip-rule="evenodd" d="M140.286 104.814C140.286 102.585 141.472 101.481 143.876 101.481H162.81C164.784 101.481 165.766 102.35 165.766 104.119C165.766 104.722 165.653 105.305 165.479 105.795C165.275 106.317 165.132 106.634 165.019 106.808H146.229V115.273H162.114C164.058 115.273 165.009 116.173 165.009 117.941C165.009 118.545 164.927 119.127 164.743 119.618C164.569 120.139 164.395 120.456 164.283 120.63H146.218V129.821H165.469V135.179H140.276V104.814H140.286Z" fill="#004279"/>
<path fill-rule="evenodd" clip-rule="evenodd" d="M176.649 121.274V135.158H170.85V104.149C170.85 102.411 171.801 101.573 173.744 101.573C174.409 101.573 175.054 101.634 175.575 101.747C176.128 101.89 176.475 101.982 176.649 102.033V116.029H178.675C180.035 116.029 181.17 115.794 182.101 115.365C183.001 114.935 183.809 114.291 184.566 113.422C186.05 111.766 187.205 110.202 188.075 108.76C188.944 107.339 189.722 106.092 190.428 105.018C191.123 103.945 191.819 103.106 192.545 102.493C193.271 101.859 194.202 101.562 195.358 101.562C196.227 101.562 196.923 101.644 197.445 101.879C197.935 102.115 198.396 102.37 198.805 102.656C197.67 104.394 196.401 106.368 194.918 108.545C193.465 110.723 191.931 112.921 190.305 115.181C189.814 115.876 189.323 116.489 188.822 117.062C188.331 117.614 187.809 118.105 187.257 118.534C188.239 119.669 189.282 120.886 190.356 122.215C191.461 123.574 192.535 124.965 193.598 126.386C194.703 127.838 195.747 129.29 196.759 130.792C197.772 132.265 198.733 133.716 199.633 135.138H192.872C192.115 133.982 191.277 132.786 190.407 131.539C189.507 130.291 188.607 129.075 187.656 127.828C186.694 126.611 185.743 125.425 184.73 124.259C183.769 123.104 182.817 122 181.917 120.988C181.457 121.049 180.986 121.1 180.495 121.162C180.035 121.223 179.534 121.254 178.992 121.254H176.649V121.274Z" fill="#004279"/>
<path fill-rule="evenodd" clip-rule="evenodd" d="M203.786 104.814C203.786 102.585 204.973 101.481 207.377 101.481H226.31C228.284 101.481 229.266 102.35 229.266 104.119C229.266 104.722 229.154 105.305 228.98 105.795C228.775 106.317 228.632 106.634 228.52 106.808H209.729V115.273H225.615C227.558 115.273 228.509 116.173 228.509 117.941C228.509 118.545 228.428 119.127 228.244 119.618C228.07 120.139 227.896 120.456 227.783 120.63H209.719V129.821H228.97V135.179H203.776V104.814H203.786Z" fill="#004279"/>
<path fill-rule="evenodd" clip-rule="evenodd" d="M234.902 104.17C234.902 103.239 235.168 102.575 235.711 102.115C236.294 101.685 237.04 101.481 237.971 101.481C238.605 101.481 239.188 101.542 239.71 101.716C240.232 101.89 240.579 102.002 240.753 102.064V114.987H258.122V104.18C258.122 103.25 258.388 102.585 258.93 102.125C259.452 101.696 260.209 101.491 261.16 101.491C261.825 101.491 262.408 101.553 262.93 101.726C263.451 101.9 263.799 102.013 263.973 102.135V135.199H258.112V120.364H240.743V135.199H234.882V104.17H234.902Z" fill="#004279"/>
<path fill-rule="evenodd" clip-rule="evenodd" d="M202.457 85.5114V79.4589H194.222V85.5114H192.944V73.4575C192.944 73.253 192.975 73.0792 193.087 72.9668C193.179 72.8543 193.373 72.793 193.609 72.793C193.721 72.793 193.844 72.793 193.956 72.8236C194.069 72.8543 194.161 72.885 194.222 72.9361V78.3241H202.457V73.4575C202.457 73.253 202.518 73.0792 202.6 72.9668C202.712 72.8543 202.886 72.793 203.121 72.793C203.265 72.793 203.387 72.793 203.469 72.8236C203.582 72.885 203.674 72.9157 203.735 72.9361V85.5114H202.457Z" fill="#004279"/>
<path fill-rule="evenodd" clip-rule="evenodd" d="M207.817 85.5109H206.538V73.5081C206.538 73.273 206.599 73.0992 206.742 72.9867C206.855 72.8436 207.09 72.7822 207.356 72.7822H216.491C216.777 72.7822 216.982 72.8436 217.125 72.9867C217.268 73.0992 217.329 73.273 217.329 73.5081V85.5007H216.02V73.8864H207.817V85.5109Z" fill="#004279"/>
<path fill-rule="evenodd" clip-rule="evenodd" d="M221.441 85.5109H220.163V73.5081C220.163 73.273 220.224 73.0992 220.367 72.9867C220.48 72.8436 220.684 72.7822 220.981 72.7822H230.115C230.402 72.7822 230.606 72.8436 230.75 72.9867C230.893 73.0992 230.954 73.273 230.954 73.5081V85.5007H229.645V73.8864H221.441V85.5109Z" fill="#004279"/>
<path fill-rule="evenodd" clip-rule="evenodd" d="M248.527 76.6677C248.527 77.2197 248.415 77.7718 248.241 78.2626C248.036 78.7533 247.719 79.1929 247.259 79.5712C246.819 79.9802 246.216 80.2664 245.489 80.5016C244.732 80.7367 243.832 80.8185 242.707 80.8185C242.421 80.8185 242.093 80.8185 241.776 80.7879C241.459 80.7572 241.163 80.7265 240.876 80.7061C240.59 80.6754 240.354 80.6447 240.15 80.6141C239.945 80.5834 239.833 80.5834 239.802 80.5527V85.5113H238.554V73.4778C238.554 73.0689 238.789 72.8133 239.28 72.7519C239.424 72.7213 239.771 72.6906 240.354 72.6395C240.907 72.5781 241.664 72.5781 242.554 72.5781C243.423 72.5781 244.231 72.6395 244.957 72.8133C245.684 72.9564 246.318 73.1916 246.84 73.5085C247.361 73.8561 247.77 74.2651 248.087 74.7865C248.384 75.3079 248.527 75.9418 248.527 76.6677ZM247.167 76.6677C247.167 76.2587 247.106 75.86 246.962 75.4817C246.819 75.1341 246.553 74.8171 246.175 74.5309C245.827 74.2651 245.336 74.0708 244.753 73.897C244.139 73.7539 243.362 73.6618 242.462 73.6618C241.674 73.6618 241.07 73.6925 240.631 73.7232C240.201 73.7539 239.904 73.8152 239.792 73.8152V79.469C239.823 79.469 239.935 79.4997 240.109 79.5303C240.283 79.561 240.518 79.5917 240.774 79.6121C241.04 79.6735 241.357 79.7041 241.674 79.7041C242.022 79.7348 242.37 79.7655 242.748 79.7655C243.587 79.7655 244.282 79.6837 244.835 79.5303C245.387 79.3872 245.847 79.1827 246.195 78.9169C246.543 78.6511 246.809 78.3035 246.952 77.9661C247.106 77.5673 247.167 77.138 247.167 76.6677Z" fill="#004279"/>
<path fill-rule="evenodd" clip-rule="evenodd" d="M251.974 78.7022H253.079C253.427 78.7022 253.713 78.7022 253.949 78.6409C254.184 78.6102 254.409 78.5489 254.613 78.4364C254.818 78.3239 255.023 78.2013 255.197 78.0274C255.401 77.8536 255.606 77.6185 255.831 77.3322C256.097 77.0153 256.352 76.6677 256.618 76.3201C256.884 75.9725 257.14 75.6555 257.345 75.3386C257.58 75.0523 257.784 74.7865 257.958 74.5513C258.132 74.3162 258.245 74.1424 258.337 74.0299C258.592 73.6823 258.858 73.3654 259.063 73.1302C259.298 72.8644 259.554 72.752 259.871 72.752C260.076 72.752 260.219 72.7826 260.331 72.844C260.444 72.9053 260.536 72.9871 260.618 73.0484C260.035 73.805 259.462 74.6127 258.818 75.451C258.153 76.2894 257.508 77.1278 256.843 77.9457C256.639 78.2319 256.434 78.4671 256.209 78.6715C256.005 78.876 255.8 79.0498 255.595 79.2543C256.005 79.6939 256.434 80.154 256.905 80.6447C257.365 81.1355 257.836 81.6262 258.296 82.1783C258.818 82.6997 259.247 83.2518 259.718 83.8039C260.147 84.356 260.587 84.9388 260.966 85.5113H259.513C259.196 85.0205 258.818 84.5605 258.408 84.0391C257.948 83.5176 257.508 83.0269 257.079 82.5055C256.618 82.0147 256.178 81.524 255.718 81.0537C255.289 80.563 254.849 80.1233 254.47 79.7451C254.092 79.8064 253.693 79.8575 253.161 79.8575H251.974V85.5113H250.696V73.4267C250.696 73.2223 250.727 73.0791 250.839 72.9667C250.952 72.8235 251.125 72.7622 251.361 72.7622C251.504 72.7622 251.627 72.7928 251.708 72.8235C251.821 72.8542 251.913 72.8849 251.974 72.9155V78.7022Z" fill="#004279"/>
<path fill-rule="evenodd" clip-rule="evenodd" d="M17.2635 78.7221H18.3682C18.716 78.7221 19.0024 78.7221 19.2377 78.6608C19.4729 78.6301 19.698 78.5688 19.9026 78.4563C20.1071 78.3439 20.3117 78.2212 20.4856 78.0474C20.6902 77.8736 20.8948 77.6384 21.1198 77.3522C21.3755 77.0045 21.6415 76.6569 21.8972 76.3093C22.1529 75.9617 22.4189 75.6448 22.6234 75.3278C22.8587 75.0416 23.053 74.7758 23.2372 74.5406C23.411 74.3055 23.5236 74.1316 23.6156 74.0192C23.8509 73.6716 24.1066 73.3546 24.3419 73.1195C24.5771 72.8537 24.8329 72.7412 25.15 72.7412C25.3545 72.7412 25.4977 72.7719 25.6102 72.8332C25.7228 72.8946 25.8148 72.9764 25.8967 73.0377C25.3136 73.7943 24.7408 74.6019 24.0964 75.4403C23.4315 76.2787 22.7973 77.1477 22.1222 77.9656C21.9176 78.2314 21.7131 78.487 21.488 78.6915C21.2835 78.8959 21.0789 79.0698 20.8743 79.2436C21.5699 79.9694 22.3268 80.7771 23.1349 81.6462C23.9123 82.5152 24.6999 83.4149 25.4261 84.3657H25.8353C26.1217 84.3657 26.3263 84.427 26.4695 84.5702C26.6127 84.6826 26.674 84.9178 26.674 85.1223V88.8642H25.3954V85.5312H24.7817C24.4646 85.0405 24.0862 84.5497 23.6463 84.0283C23.2167 83.5069 22.7769 83.0161 22.3473 82.4947C21.887 82.004 21.4471 81.5132 20.9868 81.043C20.5572 80.5522 20.1174 80.1126 19.7389 79.7343C19.3604 79.7956 18.9308 79.8468 18.4398 79.8468H17.2533V85.5312H15.9747V73.4262C15.9747 73.2217 16.0054 73.0786 16.1179 72.9661C16.2304 72.823 16.4043 72.7617 16.6396 72.7617C16.7521 72.7617 16.8748 72.7923 16.9873 72.823C17.0999 72.8537 17.1919 72.8844 17.2533 72.915V78.7221H17.2635Z" fill="#004279"/>
<path fill-rule="evenodd" clip-rule="evenodd" d="M38.3144 76.6677C38.3144 77.2197 38.2019 77.7718 38.028 78.2626C37.8235 78.7533 37.5064 79.1929 37.0461 79.5917C36.6062 79.97 36.0027 80.2562 35.2765 80.4914C34.5195 80.7265 33.6194 80.8083 32.4942 80.8083C32.2078 80.8083 31.8805 80.8083 31.5634 80.7776C31.2463 80.747 30.9497 80.7163 30.6633 80.6959C30.3769 80.6652 30.1416 80.6345 29.937 80.6038C29.7324 80.5732 29.6199 80.5732 29.5892 80.5425V85.501H28.3413V73.5085C28.3413 73.0791 28.5766 72.8133 29.0676 72.7519C29.2108 72.7213 29.5586 72.6906 30.1416 72.6395C30.694 72.5781 31.4509 72.5781 32.351 72.5781C33.2205 72.5781 34.0286 72.6395 34.7548 72.8133C35.4811 72.9564 36.1152 73.1916 36.6369 73.5085C37.1586 73.8561 37.5677 74.2651 37.8848 74.7865C38.1712 75.3079 38.3144 75.9418 38.3144 76.6677ZM36.954 76.6677C36.954 76.2587 36.8926 75.86 36.7494 75.4817C36.6062 75.1341 36.3403 74.8171 35.972 74.5309C35.6243 74.2651 35.1333 74.0708 34.5502 73.897C33.9365 73.7539 33.1591 73.6618 32.259 73.6618C31.4713 73.6618 30.8678 73.6925 30.428 73.7232C29.9882 73.7539 29.7018 73.7845 29.5892 73.8152V79.469C29.6199 79.469 29.7324 79.4997 29.9063 79.5303C30.0802 79.561 30.3155 79.5917 30.5712 79.6428C30.8576 79.6735 31.1543 79.7041 31.4713 79.7041C31.8191 79.7348 32.1669 79.7655 32.5454 79.7655C33.3841 79.7655 34.0797 79.6837 34.6321 79.5303C35.1844 79.3872 35.6447 79.1827 35.9925 78.9169C36.3403 78.6511 36.6062 78.3035 36.7494 77.9661C36.8926 77.5674 36.954 77.138 36.954 76.6677Z" fill="#004279"/>
<path fill-rule="evenodd" clip-rule="evenodd" d="M44.5438 74.5203C44.3392 74.234 44.196 73.9989 44.0835 73.8251C43.971 73.6513 43.9403 73.4774 43.9403 73.3343C43.9403 73.2219 43.971 73.0685 44.0528 72.956C44.1142 72.8436 44.2881 72.7822 44.5131 72.7822C44.6563 72.7822 44.7484 72.7822 44.8302 72.8129C44.912 72.8436 44.9734 72.8742 45.0041 72.9049C45.2087 73.1707 45.4644 73.5695 45.8429 74.0909C46.2213 74.643 46.6305 75.2155 47.0908 75.8596C47.5306 76.4935 47.9909 77.1376 48.4512 77.7715C48.9422 78.436 49.382 78.9881 49.8117 79.4788C50.1901 78.9881 50.5891 78.4667 50.9982 77.9146C51.3767 77.3625 51.7756 76.8104 52.1234 76.2583C52.5018 75.6756 52.8496 75.1542 53.1974 74.6634C53.5145 74.1727 53.8111 73.7024 54.0669 73.3343C54.2101 73.1298 54.3328 73.0174 54.476 72.9049C54.5885 72.8129 54.742 72.7925 54.9363 72.7925C55.1716 72.7925 55.3148 72.8231 55.4273 72.8845C55.5398 72.9663 55.6319 73.0276 55.6626 73.0276C55.4273 73.4059 55.1409 73.8966 54.701 74.5305C54.2919 75.1439 53.8623 75.8392 53.3713 76.5548C52.8803 77.2807 52.3893 78.0066 51.837 78.7325C51.3153 79.4584 50.855 80.0616 50.4152 80.6137V82.0961H53.3713C53.5452 82.0961 53.6884 82.1268 53.8111 82.2393C53.9237 82.3211 53.985 82.4949 53.985 82.6993C53.985 82.8118 53.985 82.9345 53.9237 83.0469C53.893 83.139 53.8623 83.1901 53.8316 83.2514H50.4049V85.5416H49.0752V83.2514H46.252C46.0781 83.2514 45.9349 83.1901 45.8224 83.1083C45.7099 83.0163 45.6485 82.8731 45.6485 82.6789C45.6485 82.5358 45.6792 82.4131 45.7099 82.3006C45.7713 82.1881 45.802 82.1268 45.8224 82.0961H49.0956V80.6137C48.8092 80.2661 48.4615 79.8264 48.0216 79.2846C47.6125 78.7018 47.1828 78.1497 46.743 77.5465C46.3032 76.9638 45.9042 76.4117 45.4951 75.8392C45.0962 75.2768 44.7791 74.8474 44.5438 74.5203Z" fill="#004279"/>
<path fill-rule="evenodd" clip-rule="evenodd" d="M58.4653 78.7022H59.57C59.9178 78.7022 60.2042 78.7022 60.4394 78.6409C60.6747 78.6102 60.8997 78.5489 61.1043 78.4364C61.3089 78.3239 61.5134 78.2013 61.6873 78.0274C61.8919 77.8536 62.0965 77.6185 62.3215 77.3322C62.5772 76.9846 62.8432 76.6677 63.0989 76.3201C63.3546 75.9725 63.6206 75.6555 63.8252 75.3386C64.0604 75.0523 64.265 74.7865 64.4389 74.5513C64.6128 74.3162 64.7253 74.1424 64.8174 74.0299C65.0833 73.6823 65.3083 73.3654 65.5436 73.1302C65.7789 72.8644 66.0346 72.752 66.3517 72.752C66.5563 72.752 66.6995 72.7826 66.812 72.844C66.9245 72.9053 67.0166 72.9871 67.0984 73.0484C66.5154 73.805 65.9425 74.6127 65.2981 75.451C64.6332 76.2894 63.9888 77.1278 63.324 77.9457C63.1194 78.2115 62.9148 78.4671 62.6898 78.6715C62.4852 78.876 62.2806 79.0498 62.076 79.2543C62.4852 79.6939 62.9148 80.154 63.3853 80.6447C63.8456 81.1355 64.3162 81.6262 64.7764 82.1783C65.2674 82.6997 65.738 83.2518 66.1983 83.8039C66.6381 84.356 67.037 84.9388 67.4462 85.5113H65.9937C65.6766 85.0205 65.2981 84.5605 64.889 84.0391C64.4287 83.5176 63.9888 83.0269 63.5592 82.5055C63.0989 82.0147 62.6591 81.524 62.1988 81.0537C61.7589 80.563 61.3293 80.1233 60.9509 79.7451C60.5724 79.8064 60.1428 79.8575 59.6416 79.8575H58.455V85.5113H57.1764V73.4267C57.1764 73.2223 57.2071 73.0791 57.3196 72.9667C57.4321 72.8235 57.606 72.7622 57.8413 72.7622C57.9538 72.7622 58.0766 72.7928 58.1891 72.8235C58.3016 72.8542 58.3937 72.8849 58.455 72.9155V78.7022H58.4653Z" fill="#004279"/>
<path fill-rule="evenodd" clip-rule="evenodd" d="M70.3819 85.5109H69.1033V73.5081C69.1033 73.273 69.1646 73.0992 69.3078 72.9867C69.4204 72.8436 69.6249 72.7822 69.9216 72.7822H79.0559C79.3423 72.7822 79.5469 72.8436 79.6901 72.9867C79.8333 73.0992 79.8947 73.273 79.8947 73.5081V85.5007H78.5854V73.8864H70.3819V85.5109Z" fill="#004279"/>
<path fill-rule="evenodd" clip-rule="evenodd" d="M165.981 51.7211C160.559 50.0955 159.741 50.7396 158.156 55.0234C156.703 58.9596 157.317 61.0248 161.695 62.8139C163.638 63.591 165.316 64.143 166.686 64.1226C167.617 64.1226 168.456 63.7443 169.213 62.8139C171.739 59.6854 173.53 54.2975 174.491 50.4124H174.46C175.944 44.3599 175.125 40.3317 170.543 35.547C168.139 33.1751 166.073 32.4696 162.022 33.6351L165.704 28.1245L171.218 26.2944C174.726 30.1488 177.744 33.5431 179.513 37.3975C181.344 41.4257 181.866 45.8628 180.414 51.8336C179.227 56.7001 177.14 62.6708 173.949 66.6172C171.924 69.1425 169.54 70.1547 166.789 70.216C164.416 70.2467 162.002 69.5208 159.393 68.4473C156.662 67.3226 154.289 65.5539 152.816 63.2331C151.425 61.0043 150.903 58.3666 151.66 55.4426C151.896 54.6042 152.182 53.7659 152.468 52.9479C152.755 52.1607 153.082 51.353 153.368 50.5658C154.156 48.2757 155.977 46.1593 159.168 45.3516C162.738 44.4008 167.75 46.3638 166.645 49.7581C166.41 50.3818 166.185 51.0463 165.981 51.7211Z" fill="#FAB000"/>
<path fill-rule="evenodd" clip-rule="evenodd" d="M161.828 50.9339C162.462 50.9339 163.249 51.0157 164.231 51.2509C164.845 51.394 165.449 51.5678 166.032 51.7416C166.236 51.0771 166.41 50.4125 166.645 49.7684C167.75 46.3741 162.728 44.4316 159.168 45.3313C155.977 46.1696 154.125 48.2553 153.338 50.5761C153.051 51.3633 152.704 52.171 152.438 52.948C152.356 53.1218 151.568 55.3813 151.456 56.281C153.389 52.8458 156.908 50.6783 161.828 50.9339Z" fill="#FAB000"/>
<path fill-rule="evenodd" clip-rule="evenodd" d="M180.393 51.8339C181.846 45.8632 181.324 41.4261 179.493 37.3774C177.754 33.5844 174.767 30.2207 171.289 26.4175C170.706 27.2558 170.041 28.1249 169.285 28.9632C167.607 30.9364 165.541 32.5007 163.28 33.3083C166.523 32.6438 168.354 33.3901 170.532 35.5371C171.433 36.4675 172.159 37.3876 172.824 38.2873C174.706 41.1602 179.401 47.2434 179.033 56.4858C179.544 54.8806 180.015 53.3061 180.393 51.8339Z" fill="#FAB000"/>
<path fill-rule="evenodd" clip-rule="evenodd" d="M155.486 17.6042C152.213 22.2459 152.56 23.1967 156.181 26.0082C159.516 28.6153 161.695 28.6767 164.733 25.1085C166.093 23.483 167.136 22.0618 167.515 20.8145C167.801 19.9148 167.689 18.9845 167.024 18.003C164.825 14.6087 160.242 11.2246 156.846 9.13892V9.16959C151.517 5.92864 147.395 5.42767 141.421 8.2699C138.404 9.83414 137.125 11.5415 136.982 15.7435L132.86 10.5294L132.798 4.7938C137.555 2.67747 141.697 0.847401 145.932 0.387329C150.371 -0.0727435 154.78 0.76561 160.027 3.98611H159.997C164.293 6.59319 169.366 10.4169 172.118 14.6496C173.887 17.3998 174.123 19.9864 173.335 22.5935C172.64 24.8223 171.187 26.8875 169.387 29.0243C167.474 31.2837 165.04 32.9911 162.37 33.6557C159.792 34.2895 157.122 34.0033 154.565 32.3266C153.808 31.8665 153.062 31.3451 152.386 30.793C151.752 30.3022 151.057 29.7502 150.412 29.1981C148.438 27.777 147.047 25.405 147.221 22.1232C147.425 18.4426 150.842 14.302 153.747 16.3876C154.32 16.7966 154.903 17.2055 155.486 17.6042Z" fill="#FAB000"/>
<path fill-rule="evenodd" clip-rule="evenodd" d="M153.42 21.2846C153.593 20.6813 153.911 19.9555 154.432 19.1171C154.749 18.565 155.097 18.0436 155.476 17.5835C154.893 17.1746 154.32 16.7963 153.767 16.3976C150.873 14.3426 147.446 18.4219 147.241 22.1331C147.098 25.4048 148.459 27.7869 150.433 29.2285C151.098 29.7806 151.793 30.3326 152.438 30.8234C152.581 30.9358 154.463 32.3876 155.312 32.7966C152.642 29.893 151.63 25.8955 153.42 21.2846Z" fill="#FAB000"/>
<path fill-rule="evenodd" clip-rule="evenodd" d="M160.038 3.98611C154.79 0.76561 150.412 -0.0727435 145.973 0.387329C141.8 0.847401 137.647 2.61612 132.952 4.73245C133.586 5.54014 134.2 6.43983 134.783 7.45199C136.143 9.62967 136.982 12.0936 137.074 14.4962C137.422 11.1939 138.731 9.68079 141.452 8.29035C142.638 7.73826 143.743 7.30886 144.786 6.9817C148.121 6.05133 155.343 3.5056 164.068 6.69543C162.697 5.72417 161.337 4.7938 160.038 3.98611Z" fill="#FAB000"/>
<path fill-rule="evenodd" clip-rule="evenodd" d="M119.531 17.1138C122.948 21.6021 123.991 21.551 127.796 19.0257C131.305 16.6742 132.031 14.6499 129.535 10.6524C128.431 8.83254 127.387 7.41143 126.313 6.65486C125.556 6.13345 124.656 5.92897 123.5 6.24591C119.583 7.28874 114.918 10.6217 111.87 13.1981V13.2288C107.144 17.2263 105.436 20.9682 106.306 27.5421C106.858 30.8751 108.075 32.6132 112.044 34.0649L105.815 36.3551L100.301 34.6477C99.7489 29.4949 99.3397 24.9351 100.158 20.7944C101.058 16.4493 103.257 12.5642 107.932 8.56672C111.758 5.32577 116.974 1.69631 121.884 0.397881C125.045 -0.409801 127.571 0.132062 129.801 1.70653C131.745 3.03563 133.248 5.0395 134.731 7.42165C136.296 9.96738 137.166 12.8096 136.992 15.5394C136.818 18.1464 135.683 20.6104 133.34 22.5222C132.645 23.0743 131.919 23.5957 131.192 24.0865C130.527 24.5466 129.77 24.9862 129.075 25.4463C127.07 26.8674 124.38 27.5012 121.301 26.2846C117.854 24.9555 114.98 20.4264 117.854 18.3714C118.427 17.9522 118.979 17.5228 119.531 17.1138Z" fill="#FAB000"/>
<path fill-rule="evenodd" clip-rule="evenodd" d="M122.396 20.1604C121.874 19.8128 121.321 19.2914 120.657 18.5348C120.247 18.044 119.849 17.5533 119.501 17.083C118.948 17.492 118.396 17.9214 117.844 18.3303C115 20.3853 117.844 24.9349 121.291 26.2742C124.359 27.4602 127.091 26.857 129.065 25.4359C129.791 24.9758 130.517 24.5362 131.182 24.0761C131.356 23.9636 133.33 22.6243 133.964 21.9291C130.374 23.5751 126.282 23.3195 122.396 20.1604Z" fill="#FAB000"/>
<path fill-rule="evenodd" clip-rule="evenodd" d="M107.963 8.5665C103.237 12.5333 101.058 16.4491 100.168 20.7942C99.3601 24.9144 99.7284 29.372 100.281 34.4737C101.263 34.1261 102.306 33.8398 103.441 33.574C105.968 32.9401 108.576 32.9094 110.888 33.574C107.84 32.2449 106.827 30.5273 106.336 27.5419C106.162 26.2128 106.101 25.0473 106.132 23.9534C106.275 20.5284 106.07 12.881 111.809 5.61182C110.428 6.56263 109.118 7.57479 107.963 8.5665Z" fill="#FAB000"/>
<path fill-rule="evenodd" clip-rule="evenodd" d="M107.983 50.9341C113.343 49.0836 113.64 48.0612 112.392 43.6854C111.236 39.5959 109.517 38.2974 104.914 39.3914C102.858 39.9128 101.171 40.4649 100.127 41.2419C99.3704 41.794 98.9101 42.6017 98.8487 43.8183C98.6441 47.8158 100.383 53.2345 101.897 56.915H101.928C104.301 62.6506 107.318 65.4621 113.875 66.6481C117.209 67.1695 119.265 66.5357 121.874 63.2027L122.14 69.8379L118.805 74.5307C113.701 73.4572 109.241 72.4757 105.528 70.39C101.641 68.2124 98.6237 64.9407 96.2813 59.2358C94.3685 54.6249 92.5375 48.5724 92.7728 43.532C92.9467 40.2604 94.2764 38.0214 96.4859 36.406C98.3373 34.9849 100.721 34.1772 103.472 33.5127C106.346 32.8481 109.354 32.8788 111.88 33.8603C114.345 34.8418 116.34 36.6719 117.445 39.5141C117.731 40.3218 118.028 41.1703 118.253 42.0087C118.488 42.7959 118.693 43.665 118.887 44.4726C119.644 46.7934 119.378 49.513 117.291 52.0689C114.939 54.9112 109.783 56.2709 108.679 52.8766C108.484 52.2427 108.218 51.568 107.983 50.9341Z" fill="#FAB000"/>
<path fill-rule="evenodd" clip-rule="evenodd" d="M111.788 49.135C111.297 49.5133 110.602 49.8915 109.701 50.2698C109.118 50.5356 108.515 50.7299 107.963 50.9037C108.167 51.5682 108.423 52.2123 108.627 52.8769C109.732 56.2405 114.949 54.9012 117.271 52.0692C119.358 49.5235 119.623 46.763 118.867 44.4218C118.662 43.6141 118.457 42.7655 118.232 41.9885C118.171 41.8147 117.506 39.5552 117.076 38.7476C117.496 42.6122 115.992 46.4154 111.788 49.135Z" fill="#FAB000"/>
<path fill-rule="evenodd" clip-rule="evenodd" d="M96.2404 59.2254C98.593 64.9098 101.631 68.2121 105.518 70.3796C109.17 72.4346 113.548 73.4263 118.621 74.4998C118.59 73.4569 118.621 72.3528 118.713 71.2282C118.918 68.6824 119.664 66.1878 121.035 64.1533C118.836 66.6479 116.862 67.108 113.844 66.6479C112.566 66.4127 111.41 66.0958 110.397 65.7482H110.366C107.144 64.5009 99.7489 62.3334 94.6242 54.6758C95.1152 56.2707 95.6675 57.8349 96.2404 59.2254Z" fill="#FAB000"/>
<path fill-rule="evenodd" clip-rule="evenodd" d="M159.424 68.3761C156.928 67.3639 154.729 65.7997 153.246 63.7652C155.046 66.7505 154.923 68.8055 153.532 71.5659C150.341 77.4242 146.75 79.4178 140.541 79.9086C136.573 80.2255 130.855 80.1744 127.06 78.7533C125.924 78.3137 125.321 77.6184 125.024 76.7494C124.595 75.5021 124.595 73.7334 124.738 71.6171C125.086 66.955 126.886 65.7384 131.141 65.8815C135.693 66.0553 136.562 66.6074 136.675 72.2816C137.371 72.2509 138.066 72.2203 138.762 72.2203C142.301 72.2203 142.618 66.8834 140.644 63.7856C138.844 61.0354 136.327 59.9312 133.862 59.9312C133.023 59.8699 132.154 59.8188 131.336 59.7881C130.466 59.7881 129.597 59.7881 128.666 59.8188C125.618 59.9619 123.275 61.3012 121.557 63.3255C119.818 65.4112 118.856 68.2227 118.631 71.1774C118.457 73.989 118.519 76.5143 119.245 78.7124C120.145 81.2888 121.853 83.2313 124.871 84.3968C129.658 86.2269 136.01 86.3394 141.022 85.9304V85.9611C147.139 85.501 151.2 83.6403 154.535 80.6242C157.634 77.782 159.925 73.9276 162.482 69.47C161.511 69.194 160.498 68.8157 159.424 68.3761Z" fill="#FAB000"/>
<path fill-rule="evenodd" clip-rule="evenodd" d="M141.012 85.9712V86.0019C147.16 85.5111 151.22 83.6504 154.524 80.665C157.654 77.8228 159.946 73.9684 162.493 69.5108C161.511 69.2246 160.467 68.8463 159.424 68.4067C157.02 67.4456 154.841 65.9427 153.389 64.0615C155.046 66.9037 154.872 68.8974 153.501 71.5965C152.867 72.7518 152.223 73.7435 151.558 74.6125C149.41 77.3321 145.063 83.6299 136.133 86.145C137.821 86.145 139.478 86.0837 141.012 85.9712Z" fill="#FAB000"/>
<path fill-rule="evenodd" clip-rule="evenodd" d="M136.174 68.1513C136.409 68.734 136.522 69.5111 136.614 70.5028C136.675 71.1366 136.695 71.7807 136.695 72.3533C137.391 72.3533 138.087 72.3226 138.782 72.3226C142.321 72.3226 142.638 66.9653 140.664 63.8573C138.864 61.0764 136.348 59.9722 133.852 59.9722C133.013 59.9109 132.174 59.8598 131.325 59.8291C131.151 59.8291 128.778 59.7984 127.878 59.9211C131.704 60.7288 134.895 63.3665 136.174 68.1513Z" fill="#FAB000"/>
</svg>
