<svg width="238" height="83" viewBox="0 0 238 83" fill="none" xmlns="http://www.w3.org/2000/svg">
<g clip-path="url(#clip0)">
<path fill-rule="evenodd" clip-rule="evenodd" d="M151.223 35.6396C153.527 35.5627 155.822 35.9678 157.962 36.8289C160.101 37.69 162.039 38.9884 163.651 40.6414C165.251 42.2736 166.506 44.212 167.343 46.341C168.18 48.4701 168.581 50.7463 168.523 53.0341C168.576 55.3172 168.173 57.5879 167.336 59.7119C166.499 61.8359 165.246 63.7701 163.651 65.4C162.042 67.0587 160.106 68.3627 157.966 69.2285C155.826 70.0944 153.529 70.5032 151.223 70.4287C148.253 70.4507 145.331 69.6819 142.755 68.2007C140.265 66.8039 138.213 64.7367 136.831 62.2325L140.703 60.0313C141.654 61.8827 143.133 63.4088 144.95 64.4158C146.756 65.5105 148.806 66.134 150.914 66.2293C153.021 66.3246 155.119 65.8887 157.016 64.9614C158.912 64.0341 160.546 62.6449 161.769 60.9209C162.992 59.1968 163.765 57.1929 164.017 55.0921H146.779V50.9224H163.981C163.638 47.8123 162.129 44.9491 159.761 42.9124C157.392 40.8758 154.34 39.8177 151.223 39.9524C149.032 39.9342 146.876 40.5025 144.977 41.5988C143.15 42.6428 141.665 44.1973 140.703 46.0727L136.831 43.8179C138.218 41.3158 140.269 39.2472 142.755 37.8407C145.333 36.3756 148.251 35.6165 151.214 35.6396H151.223ZM196.958 65.5879H200.527V76.2269H196.066V69.7934H173.983V76.2179H169.522V65.5879H172.44C174.51 63.005 175.545 59.0739 175.545 53.7947V36.257H196.904V65.5879H196.958ZM177.507 65.5879H192.515V40.4266H180.023V53.8484C180.023 58.9307 179.179 62.829 177.49 65.5432L177.507 65.5879ZM232.959 65.3195C230.537 67.7642 227.445 69.4312 224.076 70.1084C220.707 70.7855 217.213 70.4422 214.039 69.1221C210.865 67.8021 208.154 65.5649 206.252 62.6953C204.349 59.8256 203.341 56.4533 203.355 53.0073C203.303 50.6928 203.712 48.3911 204.559 46.2374C205.406 44.0838 206.674 42.1215 208.287 40.466C209.901 38.8105 211.828 37.4951 213.956 36.597C216.084 35.699 218.369 35.2363 220.678 35.2363C222.986 35.2363 225.271 35.699 227.399 36.597C229.527 37.4951 231.454 38.8105 233.068 40.466C234.681 42.1215 235.949 44.0838 236.796 46.2374C237.643 48.3911 238.052 50.6928 238 53.0073C238.041 55.2958 237.615 57.5685 236.748 59.6859C235.881 61.8032 234.592 63.7203 232.959 65.3195ZM211.456 62.3041C213.915 64.7143 217.217 66.0637 220.655 66.0637C224.093 66.0637 227.395 64.7143 229.854 62.3041C231.065 61.0911 232.018 59.6439 232.654 58.0504C233.291 56.4569 233.598 54.7502 233.557 53.0341C233.601 51.3096 233.296 49.594 232.659 47.9913C232.023 46.3886 231.068 44.9323 229.854 43.7105C227.395 41.3003 224.093 39.9509 220.655 39.9509C217.217 39.9509 213.915 41.3003 211.456 43.7105C210.242 44.9323 209.288 46.3886 208.651 47.9913C208.015 49.594 207.709 51.3096 207.754 53.0341C207.713 54.7502 208.02 56.4569 208.656 58.0504C209.293 59.6439 210.245 61.0911 211.456 62.3041Z" fill="black"/>
<path fill-rule="evenodd" clip-rule="evenodd" d="M6.9504 23.7476H123.287V76.0565C123.287 77.9052 122.555 79.6781 121.251 80.9853C119.948 82.2925 118.18 83.0269 116.337 83.0269H6.9504C5.10704 83.0269 3.33918 82.2925 2.03573 80.9853C0.732273 79.6781 0 77.9052 0 76.0565L0 30.7179C0 28.8693 0.732273 27.0963 2.03573 25.7891C3.33918 24.4819 5.10704 23.7476 6.9504 23.7476Z" fill="#009EE3"/>
<path fill-rule="evenodd" clip-rule="evenodd" d="M137.741 17.4304C140.079 14.3165 141.203 8.94782 139.383 0C116.417 3.57913 121.342 16.0256 123.537 19.9179C126.919 14.6582 130.908 9.81688 135.421 5.49396C132.362 9.92658 129.716 14.6321 127.516 19.551C130.612 15.9719 134.244 15.784 137.741 17.4304ZM144.968 24.7318C134.904 36.1134 129.506 29.8141 127.498 26.3961C130.624 25.3534 133.915 24.8984 137.206 25.0539C133.884 24.0252 130.409 23.5862 126.936 23.7565C128.159 20.8126 133.191 12.1243 144.968 24.7318Z" fill="#85BC22"/>
<path fill-rule="evenodd" clip-rule="evenodd" d="M70.2714 36.7578H73.296V39.7911H70.2714V36.7578ZM26.954 55.763L34.4665 36.7578H39.463L27.9176 64.0397C26.2224 68.0394 24.0008 69.8111 19.8876 69.9721C17.7543 70.0046 15.6345 69.628 13.6421 68.8626V65.0419C17.5411 66.1872 18.0497 66.3214 19.4415 66.2946C21.342 66.2946 22.948 65.2745 24.7949 60.9975L13.6689 36.7578H18.4958L26.954 55.763ZM59.7075 69.9721H55.5408V61.1406C53.7092 61.6245 51.8228 61.8682 49.9287 61.8654C44.0847 61.8654 40.6139 58.841 40.5604 52.8639V45.634H44.7092V53.0339C44.7092 56.6667 46.4937 58.2505 49.9287 58.2505C51.8228 58.2532 53.7092 58.0096 55.5408 57.5257V45.634H59.7075V69.9721ZM76.3028 69.9721C68.5226 69.9721 64.7574 64.854 64.7574 57.7226C64.7574 51.4591 68.7814 45.6519 75.7674 45.6519C84.4755 45.6519 86.1261 52.0317 86.1261 58.9663H68.594C68.5896 59.988 68.7915 61 69.1875 61.9414C69.5835 62.8827 70.1654 63.7339 70.8982 64.4437C71.631 65.1535 72.4994 65.7072 73.4513 66.0714C74.4031 66.4357 75.4186 66.6029 76.4366 66.563C77.7173 66.6174 78.993 66.3716 80.1623 65.845C81.3317 65.3184 82.3625 64.5257 83.1729 63.5297L85.8495 65.4356C83.7082 68.4599 80.526 69.9721 76.3028 69.9721ZM75.7674 48.9358C71.7078 48.9358 69.2007 52.1302 68.7367 55.6825H82.2896C82.2896 52.0407 79.836 48.9358 75.7674 48.9358ZM109.609 49.0163H101.472V69.9721H97.3235V49.0163H89.2935V45.634H109.565V48.9984L109.609 49.0163ZM77.6233 36.7847H80.6479V39.818H77.6233V36.7847Z" fill="white"/>
</g>
<defs>
<clipPath id="clip0">
<rect width="238" height="83" fill="white"/>
</clipPath>
</defs>
</svg>
