<svg width="288" height="67" viewBox="0 0 288 67" fill="none" xmlns="http://www.w3.org/2000/svg">
<g clip-path="url(#clip0)">
<path d="M121.164 56.3317V59.1916H117.874V56.3317C114.234 56.0632 111.329 55.0758 109.159 53.3694C108.101 52.5383 107.254 51.4688 106.689 50.2481C106.123 49.0275 105.854 47.6903 105.903 46.3458C105.854 45.0024 106.124 43.6664 106.689 42.4469C107.255 41.2275 108.101 40.1591 109.159 39.3291C111.347 37.6181 114.252 36.6307 117.874 36.3668V33.5068H121.164V36.3668C124.831 36.6261 127.739 37.6136 129.886 39.3291C130.952 40.1537 131.806 41.2201 132.378 42.4402C132.95 43.6603 133.224 44.9991 133.176 46.3458C133.224 47.6935 132.95 49.0333 132.378 50.2545C131.806 51.4757 130.952 52.5434 129.886 53.3694C127.734 55.0758 124.827 56.0632 121.164 56.3317ZM111.472 41.4792C110.732 42.0494 110.139 42.789 109.744 43.6358C109.348 44.4826 109.162 45.412 109.2 46.3458C109.161 47.2768 109.347 48.2034 109.743 49.0471C110.139 49.8907 110.732 50.6265 111.472 51.192C112.965 52.3433 115.099 53.0258 117.874 53.2397V39.4383C115.103 39.6294 112.969 40.3097 111.472 41.4792ZM121.164 39.4315V53.2397C123.935 53.0418 126.071 52.366 127.566 51.192C128.302 50.6192 128.889 49.8785 129.28 49.0317C129.671 48.185 129.853 47.2569 129.811 46.3253C129.852 45.3938 129.67 44.466 129.279 43.6193C128.889 42.7727 128.301 42.0318 127.566 41.4587C126.073 40.3074 123.939 39.634 121.164 39.4383V39.4315Z" fill="#1A1A18"/>
<path d="M146.519 40.4489C147.733 40.4338 148.937 40.6739 150.053 41.1536C151.168 41.6333 152.171 42.342 152.996 43.2338C154.715 45.0597 155.672 47.473 155.672 49.9809C155.672 52.4888 154.715 54.9021 152.996 56.728C152.168 57.6126 151.164 58.3129 150.048 58.7833C148.932 59.2538 147.729 59.4837 146.519 59.4582C145.167 59.5171 143.823 59.2172 142.625 58.5891C141.426 57.9609 140.415 57.0268 139.694 55.8816V66.2429H136.547V40.954H139.694V44.0665C140.409 42.9127 141.417 41.9697 142.617 41.334C143.816 40.6984 145.163 40.3929 146.519 40.4489ZM146.123 56.4413C146.968 56.4615 147.809 56.3084 148.593 55.9915C149.377 55.6745 150.088 55.2004 150.682 54.5984C151.281 53.9867 151.752 53.2619 152.069 52.4662C152.385 51.6706 152.54 50.8199 152.525 49.9638C152.547 49.1129 152.395 48.2664 152.078 47.4764C151.761 46.6864 151.286 45.9696 150.682 45.3702C149.462 44.1676 147.818 43.4934 146.106 43.4934C144.393 43.4934 142.749 44.1676 141.53 45.3702C140.925 45.9696 140.45 46.6864 140.133 47.4764C139.816 48.2664 139.664 49.1129 139.687 49.9638C139.671 50.8199 139.826 51.6706 140.143 52.4662C140.459 53.2619 140.931 53.9867 141.53 54.5984C142.129 55.2027 142.846 55.678 143.636 55.9949C144.426 56.3118 145.272 56.4638 146.123 56.4413Z" fill="#1A1A18"/>
<path d="M174.412 44.032V40.9536H177.559V59.0415H174.412V55.9017C173.694 57.0499 172.684 57.9863 171.484 58.6149C170.285 59.2434 168.94 59.5414 167.587 59.4783C166.376 59.5038 165.174 59.2738 164.058 58.8034C162.942 58.333 161.938 57.6327 161.11 56.7481C159.391 54.9222 158.434 52.5089 158.434 50.001C158.434 47.4931 159.391 45.0798 161.11 43.2539C161.935 42.3628 162.938 41.6546 164.054 41.1749C165.169 40.6952 166.373 40.4548 167.587 40.469C168.939 40.4031 170.283 40.6984 171.483 41.3246C172.683 41.9508 173.694 42.8853 174.412 44.032ZM167.969 56.4409C168.82 56.4638 169.667 56.312 170.457 55.9951C171.247 55.6781 171.964 55.2027 172.563 54.598C173.164 53.9875 173.637 53.2631 173.955 52.4673C174.272 51.6714 174.428 50.8202 174.412 49.9634C174.427 49.1119 174.271 48.2662 173.952 47.4763C173.634 46.6864 173.16 45.9684 172.56 45.365C171.959 44.7615 171.243 44.2849 170.454 43.9633C169.666 43.6417 168.821 43.4817 167.969 43.4928C167.122 43.4747 166.28 43.6321 165.497 43.9551C164.714 44.2782 164.005 44.7598 163.417 45.3698C162.811 45.9679 162.334 46.6843 162.015 47.4745C161.697 48.2647 161.545 49.1119 161.568 49.9634C161.551 50.8213 161.706 51.6739 162.024 52.4709C162.341 53.268 162.815 53.9935 163.417 54.6048C164.01 55.2055 164.72 55.6782 165.503 55.994C166.286 56.3098 167.126 56.4619 167.969 56.4409Z" fill="#1A1A18"/>
<path d="M194.846 48.4623V40.9541H197.992V59.042H194.846V51.4519H185.482V59.0078H182.329V40.9541H185.482V48.4623H194.846Z" fill="#1A1A18"/>
<path d="M224.398 56.0046V40.9541H227.545V59.042H202.77V40.9541H205.916V56.0387H213.622V40.9541H216.768V56.0387L224.398 56.0046Z" fill="#1A1A18"/>
<path d="M235.461 53.6224L245.487 40.9541H248.019V59.042H244.907V46.3122L234.888 59.0078H232.356V40.9541H235.461V53.6224Z" fill="#1A1A18"/>
<path d="M262.564 49.752C264.566 50.5938 265.567 52.0272 265.567 54.0521C265.579 54.7993 265.418 55.5391 265.097 56.2139C264.776 56.8888 264.304 57.4804 263.717 57.9427C262.488 58.9666 260.789 59.4785 258.619 59.4785C255.001 59.4785 252.579 58.0315 251.35 55.1374L253.991 53.5811C254.66 55.5606 256.214 56.5503 258.653 56.5503C259.639 56.6059 260.616 56.3401 261.437 55.7926C261.763 55.5618 262.026 55.254 262.203 54.8967C262.381 54.5394 262.467 54.1437 262.454 53.745C262.463 53.4062 262.394 53.0699 262.252 52.7622C262.11 52.4545 261.899 52.1836 261.635 51.9703C261.013 51.4871 260.238 51.2447 259.451 51.2877H256.81V48.4619H258.762C259.534 48.5052 260.294 48.2622 260.898 47.7794C261.151 47.5489 261.35 47.2655 261.481 46.9493C261.612 46.6331 261.672 46.292 261.656 45.9501C261.669 45.5848 261.594 45.2216 261.437 44.8914C261.28 44.5611 261.046 44.2735 260.755 44.0526C260.047 43.5595 259.193 43.319 258.332 43.37C256.307 43.37 254.931 44.2278 254.203 45.9433L251.637 44.4553C252.915 41.807 255.147 40.4805 258.332 40.476C260.012 40.3968 261.664 40.9304 262.98 41.9776C263.535 42.4315 263.981 43.0047 264.285 43.6546C264.589 44.3045 264.742 45.0144 264.734 45.7317C264.775 46.5364 264.595 47.337 264.212 48.046C263.829 48.755 263.259 49.3452 262.564 49.752Z" fill="#1A1A18"/>
<path d="M283.919 44.0318V40.9535H287.065V59.0414H283.919V55.9016C283.201 57.0498 282.191 57.9862 280.991 58.6148C279.792 59.2433 278.447 59.5413 277.094 59.4782C275.883 59.5028 274.681 59.2725 273.565 58.8021C272.449 58.3317 271.445 57.6319 270.617 56.748C268.898 54.9221 267.941 52.5087 267.941 50.0008C267.941 47.493 268.898 45.0796 270.617 43.2537C271.44 42.3589 272.442 41.6469 273.558 41.1636C274.674 40.6804 275.878 40.4367 277.094 40.4484C278.448 40.3846 279.794 40.683 280.993 41.3129C282.193 41.9428 283.203 42.8814 283.919 44.0318ZM277.504 56.4408C278.354 56.4625 279.201 56.3102 279.99 55.9933C280.78 55.6764 281.497 55.2016 282.097 54.5979C282.692 53.9845 283.16 53.259 283.473 52.4634C283.785 51.6678 283.937 50.818 283.919 49.9633C283.935 49.1122 283.779 48.2665 283.462 47.4767C283.144 46.6868 282.671 45.9688 282.071 45.3652C281.471 44.7617 280.755 44.2849 279.967 43.9632C279.179 43.6415 278.334 43.4815 277.483 43.4926C276.635 43.4736 275.792 43.6305 275.007 43.9536C274.222 44.2767 273.513 44.7588 272.924 45.3697C272.319 45.9688 271.843 46.6854 271.525 47.4753C271.206 48.2653 271.053 49.112 271.074 49.9633C271.062 50.8224 271.221 51.6754 271.542 52.4723C271.863 53.2693 272.34 53.9942 272.945 54.6047C273.539 55.2055 274.25 55.6784 275.034 55.9941C275.818 56.3099 276.659 56.4619 277.504 56.4408Z" fill="#1A1A18"/>
<path fill-rule="evenodd" clip-rule="evenodd" d="M5.31666 18.1152H94.3075V58.0178C94.3075 59.428 93.7474 60.7804 92.7503 61.7776C91.7532 62.7747 90.4009 63.3349 88.9909 63.3349H5.31666C3.90659 63.3349 2.55428 62.7747 1.55721 61.7776C0.560146 60.7804 0 59.428 0 58.0178L0 23.4324C0 22.0222 0.560146 20.6698 1.55721 19.6726C2.55428 18.6754 3.90659 18.1152 5.31666 18.1152Z" fill="#76B2D0"/>
<path fill-rule="evenodd" clip-rule="evenodd" d="M105.364 13.2963C107.152 10.921 108.012 6.82562 106.62 0C89.0525 2.73025 92.8199 12.2247 94.4988 15.1938C97.0862 11.1817 100.138 7.48855 103.59 4.19093C101.249 7.57224 99.2253 11.1617 97.5427 14.914C99.911 12.1837 102.689 12.0404 105.364 13.2963ZM110.892 18.866C103.194 27.5482 99.0647 22.743 97.5291 20.1356C99.9202 19.3402 102.438 18.9931 104.955 19.1117C102.414 18.327 99.7553 17.9921 97.0991 18.122C98.0341 15.8764 101.883 9.24871 110.892 18.866Z" fill="#85BC22"/>
<path fill-rule="evenodd" clip-rule="evenodd" d="M53.7537 28.0396H56.0673V30.3534H53.7537V28.0396ZM20.6184 42.5372L26.365 28.0396H30.187L21.3555 48.8509C20.0588 51.9019 18.3593 53.2534 15.213 53.3762C13.5812 53.401 11.9596 53.1138 10.4355 52.5299V49.6153C13.4181 50.489 13.8071 50.5914 14.8718 50.5709C16.3255 50.5709 17.554 49.7928 18.9668 46.5301L10.456 28.0396H14.1483L20.6184 42.5372ZM45.6729 53.3762H42.4856V46.6394C41.0846 47.0085 39.6416 47.1943 38.1927 47.1922C33.7224 47.1922 31.0675 44.8852 31.0265 40.3257V34.8106H34.2001V40.4553C34.2001 43.2266 35.5651 44.4347 38.1927 44.4347C39.6416 44.4368 41.0846 44.2509 42.4856 43.8818V34.8106H45.6729V53.3762ZM58.3674 53.3762C52.416 53.3762 49.5358 49.472 49.5358 44.032C49.5358 39.254 52.6139 34.8242 57.9579 34.8242C64.619 34.8242 65.8817 39.6909 65.8817 44.9807H52.4706C52.4672 45.7601 52.6217 46.5321 52.9246 47.2502C53.2275 47.9683 53.6726 48.6176 54.2332 49.159C54.7937 49.7005 55.458 50.1229 56.1861 50.4007C56.9142 50.6785 57.691 50.8061 58.4697 50.7757C59.4494 50.8172 60.4252 50.6296 61.3197 50.228C62.2142 49.8263 63.0027 49.2216 63.6226 48.4618L65.6701 49.9157C64.0321 52.2227 61.5979 53.3762 58.3674 53.3762ZM57.9579 37.3292C54.8525 37.3292 52.9347 39.766 52.5798 42.4757H62.9469C62.9469 39.6977 61.0701 37.3292 57.9579 37.3292ZM83.845 37.3906H77.6206V53.3762H74.447V37.3906H68.3045V34.8106H83.8109V37.377L83.845 37.3906ZM59.3775 28.06H61.6911V30.3739H59.3775V28.06Z" fill="white"/>
</g>
<defs>
<clipPath id="clip0">
<rect width="287.086" height="66.2426" fill="white"/>
</clipPath>
</defs>
</svg>
