<svg width="273" height="55" viewBox="0 0 273 55" fill="none" xmlns="http://www.w3.org/2000/svg">
<path fill-rule="evenodd" clip-rule="evenodd" d="M100.174 32.6235C101.074 32.6045 101.97 32.7667 102.807 33.1004C103.643 33.4341 104.405 33.9325 105.045 34.5661C105.675 35.1937 106.175 35.9396 106.516 36.7608C106.857 37.5821 107.033 38.4626 107.033 39.3519C107.033 40.2412 106.857 41.1217 106.516 41.943C106.175 42.7643 105.675 43.5101 105.045 44.1377C104.402 44.7665 103.64 45.2602 102.803 45.5898C101.967 45.9194 101.073 46.0781 100.174 46.0567H91.8599V23.9258H105.14V26.7128H94.8004V32.6176L100.174 32.6235ZM100.174 43.311C100.697 43.3158 101.216 43.2158 101.7 43.0168C102.184 42.8179 102.624 42.524 102.992 42.1525C103.361 41.7811 103.652 41.3395 103.847 40.854C104.042 40.3684 104.139 39.8487 104.13 39.3253C104.139 38.8005 104.039 38.2794 103.836 37.7954C103.633 37.3115 103.33 36.8752 102.949 36.5147C102.584 36.1444 102.148 35.8523 101.667 35.6564C101.186 35.4604 100.67 35.3647 100.15 35.3751H94.7768V43.311H100.174ZM120.132 30.2498H123.084L116.618 47.0428C116.076 48.6502 115.089 50.071 113.772 51.1407C112.588 52.0681 111.097 52.5132 109.598 52.3866V49.8299C111.542 49.9795 112.965 48.9245 113.867 46.6649L114.121 46.0745L107.259 30.2498H110.17L115.579 42.6497L120.132 30.2498ZM139.104 46.0567H135.88L131.451 40.0811L126.993 46.0567H123.769L129.839 37.9318L124.117 30.2557H127.371L131.451 35.7589L135.531 30.2557H138.761L133.069 37.9318L139.104 46.0567ZM152.041 30.2439V32.901H144.418V46.0567H141.666V30.2498L152.041 30.2439ZM166.903 30.2439H169.655V46.0567H166.903V43.3406C166.272 44.3431 165.386 45.1606 164.337 45.7103C163.287 46.2599 162.111 46.5221 160.928 46.4701C159.867 46.4844 158.815 46.2764 157.84 45.8594C156.865 45.4425 155.987 44.8258 155.265 44.0491C153.759 42.4517 152.921 40.3395 152.921 38.1444C152.921 35.9493 153.759 33.8371 155.265 32.2397C155.988 31.4638 156.865 30.848 157.84 30.432C158.816 30.0161 159.867 29.8092 160.928 29.8246C162.111 29.7726 163.287 30.0348 164.337 30.5844C165.386 31.1341 166.272 31.9516 166.903 32.9541V30.2498V30.2439ZM161.276 43.8248C162.021 43.8439 162.763 43.709 163.454 43.4286C164.144 43.1482 164.77 42.7282 165.291 42.195C166.326 41.1073 166.903 39.6634 166.903 38.1621C166.903 36.6608 166.326 35.217 165.291 34.1292C164.22 33.0878 162.785 32.5052 161.291 32.5052C159.797 32.5052 158.362 33.0878 157.29 34.1292C156.256 35.217 155.679 36.6608 155.679 38.1621C155.679 39.6634 156.256 41.1073 157.29 42.195C157.807 42.7263 158.427 43.1452 159.113 43.4256C159.799 43.706 160.535 43.8419 161.276 43.8248ZM187.015 30.2439V46.0567H184.263V32.9069H178.034V39.3608C178.034 41.9549 177.512 43.7618 176.469 44.7813C175.424 45.8028 173.953 46.2339 172.058 46.0626V43.4705C172.488 43.5735 172.938 43.5624 173.363 43.4381C173.787 43.3138 174.172 43.0807 174.479 42.7619C175.016 42.136 175.282 40.9905 175.282 39.2958V30.2498L187.015 30.2439ZM202.958 30.2439V32.901H197.584V46.0567H194.856V32.9069H189.447V30.2498L202.958 30.2439ZM206.666 39.4257C206.874 40.7281 207.569 41.9032 208.608 42.7147C209.7 43.5208 211.031 43.9368 212.387 43.8956C214.478 43.8956 215.995 43.1221 216.946 41.5869L219.308 42.9154C217.765 45.2773 215.446 46.4583 212.352 46.4583C211.224 46.5035 210.099 46.3172 209.046 45.911C207.993 45.5048 207.034 44.8872 206.229 44.0964C205.449 43.3161 204.837 42.3844 204.431 41.3588C204.025 40.3331 203.833 39.2352 203.867 38.1326C203.835 37.0376 204.023 35.9473 204.42 34.9261C204.816 33.9049 205.413 32.9734 206.176 32.1865C206.954 31.4006 207.887 30.7849 208.915 30.3783C209.944 29.9718 211.046 29.7832 212.151 29.8246C213.22 29.7905 214.283 29.9924 215.265 30.4159C216.247 30.8395 217.123 31.4743 217.832 32.2751C219.291 33.8907 220.077 36.0033 220.028 38.1798C220.028 38.593 219.996 39.0055 219.934 39.4139L206.666 39.4257ZM212.133 32.4345C210.811 32.3677 209.513 32.8035 208.498 33.6545C207.484 34.5055 206.829 35.7087 206.666 37.0225H217.229C217.087 35.7015 216.455 34.4818 215.458 33.6036C214.526 32.8254 213.347 32.4064 212.133 32.4227V32.4345ZM231.903 29.8423C232.962 29.827 234.013 30.034 234.987 30.4499C235.961 30.8659 236.838 31.4817 237.559 32.2574C239.069 33.8528 239.91 35.9657 239.91 38.1621C239.91 40.3585 239.069 42.4714 237.559 44.0668C236.838 44.8433 235.962 45.46 234.988 45.877C234.013 46.294 232.962 46.502 231.903 46.4878C230.718 46.5396 229.541 46.2775 228.491 45.7279C227.44 45.1783 226.554 44.3608 225.921 43.3583V52.3866H223.175V30.2498H225.921V32.9718C226.554 31.9693 227.44 31.1518 228.491 30.6022C229.541 30.0527 230.718 29.7905 231.903 29.8423ZM231.554 43.8188C232.295 43.836 233.031 43.7001 233.717 43.4197C234.403 43.1393 235.023 42.7204 235.54 42.1891C236.575 41.1013 237.152 39.6575 237.152 38.1562C237.152 36.6549 236.575 35.2111 235.54 34.1233C234.469 33.0819 233.033 32.4993 231.539 32.4993C230.045 32.4993 228.61 33.0819 227.539 34.1233C226.5 35.209 225.92 36.6536 225.92 38.1562C225.92 39.6588 226.5 41.1034 227.539 42.1891C228.06 42.7226 228.685 43.1427 229.376 43.4232C230.067 43.7036 230.809 43.8383 231.554 43.8188ZM254.671 30.2379H256.856V46.0567H254.134V34.9617L245.395 46.0567H243.181V30.2498H245.897V41.333L254.659 30.232L254.671 30.2379ZM272.887 30.2379V46.0567H270.165V40.3705H267.856L263.416 46.0567H260.068L264.68 40.2051C263.555 39.9403 262.547 39.3189 261.804 38.4337C261.076 37.5661 260.685 36.466 260.7 35.3337C260.683 34.6521 260.812 33.9748 261.079 33.3473C261.346 32.7199 261.744 32.1569 262.247 31.6964C263.302 30.7177 264.7 30.1937 266.138 30.2379H272.887ZM266.244 37.9141H270.165V32.8124H266.244C265.518 32.7918 264.81 33.0399 264.255 33.5092C263.984 33.7369 263.769 34.0233 263.626 34.3466C263.482 34.67 263.415 35.0217 263.428 35.3751C263.417 35.7239 263.485 36.0707 263.629 36.389C263.772 36.7072 263.986 36.9885 264.255 37.2114C264.807 37.6758 265.511 37.9216 266.233 37.9023L266.244 37.9141Z" fill="#080200"/>
<path fill-rule="evenodd" clip-rule="evenodd" d="M4.59979 15.6719H81.5917V50.191C81.5917 51.4109 81.1071 52.5809 80.2444 53.4435C79.3818 54.3061 78.2118 54.7908 76.9919 54.7908H4.59979C3.37985 54.7908 2.20988 54.3061 1.34725 53.4435C0.484619 52.5809 0 51.4109 0 50.191L0 20.2717C0 19.0517 0.484619 17.8818 1.34725 17.0191C2.20988 16.1565 3.37985 15.6719 4.59979 15.6719Z" fill="#FBBA00"/>
<path fill-rule="evenodd" clip-rule="evenodd" d="M91.157 11.5024C92.7041 9.44758 93.4481 5.90474 92.2435 0C77.0447 2.3619 80.3041 10.5754 81.7567 13.1439C83.9952 9.6731 86.6352 6.47824 89.6218 3.62551C87.5971 6.55063 85.8459 9.65583 84.3902 12.9019C86.4391 10.54 88.8424 10.416 91.157 11.5024ZM95.9399 16.3207C89.2793 23.8315 85.7069 19.6746 84.3784 17.419C86.4471 16.7309 88.625 16.4307 90.8027 16.5333C88.6044 15.8544 86.3044 15.5647 84.0064 15.6771C84.8153 13.7344 88.1456 8.00092 95.9399 16.3207Z" fill="#85BC22"/>
<path fill-rule="evenodd" clip-rule="evenodd" d="M46.5052 24.2568H48.5069V26.2585H46.5052V24.2568ZM17.8377 36.7985L22.8095 24.2568H26.1161L18.4754 42.2604C17.3535 44.8998 15.8832 46.0689 13.1611 46.1752C11.7493 46.1967 10.3464 45.9482 9.02783 45.443V42.9217C11.6082 43.6775 11.9448 43.7661 12.8659 43.7484C14.1236 43.7484 15.1865 43.0752 16.4088 40.2528L9.04555 24.2568H12.24L17.8377 36.7985ZM39.514 46.1752H36.7565V40.3472C35.5443 40.6666 34.2959 40.8274 33.0424 40.8255C29.1748 40.8255 26.8779 38.8297 26.8424 34.8854V30.1143H29.5881V34.9976C29.5881 37.3949 30.7691 38.44 33.0424 38.44C34.2959 38.4418 35.5443 38.2811 36.7565 37.9617V30.1143H39.514V46.1752ZM50.4968 46.1752C45.3479 46.1752 42.8561 42.7977 42.8561 38.0916C42.8561 33.9583 45.5191 30.1261 50.1425 30.1261C55.9055 30.1261 56.9979 34.3362 56.9979 38.9124H45.3951C45.3922 39.5866 45.5258 40.2544 45.7879 40.8757C46.05 41.4969 46.4351 42.0586 46.92 42.527C47.405 42.9954 47.9797 43.3608 48.6097 43.6011C49.2396 43.8415 49.9117 43.9518 50.5854 43.9255C51.4329 43.9614 52.2772 43.7992 53.0511 43.4517C53.8249 43.1042 54.5071 42.5811 55.0435 41.9238L56.8149 43.1815C55.3977 45.1773 53.2917 46.1752 50.4968 46.1752ZM50.1425 32.2932C47.4559 32.2932 45.7966 34.4012 45.4896 36.7454H54.4589C54.4589 34.3421 52.8351 32.2932 50.1425 32.2932ZM72.5392 32.3463H67.1541V46.1752H64.4084V32.3463H59.0941V30.1143H72.5097V32.3345L72.5392 32.3463ZM51.3707 24.2745H53.3724V26.2763H51.3707V24.2745Z" fill="white"/>
</svg>
