<svg width="292" height="53" viewBox="0 0 292 53" fill="none" xmlns="http://www.w3.org/2000/svg">
<path fill-rule="evenodd" clip-rule="evenodd" d="M106.257 41.5308C104.714 43.088 102.742 44.1504 100.593 44.5825C98.4435 45.0147 96.2142 44.797 94.1892 43.9572C92.1641 43.1174 90.435 41.6935 89.2224 39.8672C88.0097 38.0408 87.3684 35.8947 87.3803 33.7024C87.3469 32.2308 87.6079 30.7674 88.148 29.398C88.6881 28.0287 89.4963 26.7811 90.5253 25.7285C91.5543 24.6759 92.7832 23.8395 94.14 23.2685C95.4967 22.6975 96.9539 22.4033 98.4259 22.4033C99.8979 22.4033 101.355 22.6975 102.712 23.2685C104.068 23.8395 105.297 24.6759 106.326 25.7285C107.355 26.7811 108.164 28.0287 108.704 29.398C109.244 30.7674 109.505 32.2308 109.471 33.7024C109.496 35.1573 109.224 36.602 108.671 37.948C108.119 39.2941 107.297 40.5132 106.257 41.5308ZM92.5461 39.5964C94.113 41.1285 96.2173 41.9863 98.4088 41.9863C100.6 41.9863 102.705 41.1285 104.271 39.5964C105.045 38.8255 105.653 37.9055 106.06 36.8923C106.467 35.8792 106.663 34.7939 106.638 33.7024C106.666 32.6055 106.47 31.5145 106.063 30.4954C105.656 29.4764 105.047 28.5506 104.271 27.7743C102.705 26.2422 100.6 25.3844 98.4088 25.3844C96.2173 25.3844 94.113 26.2422 92.5461 27.7743C91.7717 28.5511 91.1632 29.4771 90.7573 30.4961C90.3515 31.5151 90.1568 32.6059 90.1851 33.7024C90.1588 34.7936 90.3545 35.8787 90.7604 36.8918C91.1663 37.905 91.7738 38.8252 92.5461 39.5964ZM123.148 29.1283H125.799V44.3753H123.148V38.0148H115.257V44.3753H112.606V29.1454H115.257V35.4831H123.148V29.1454V29.1283ZM142.526 29.1283V44.3753H139.88V31.7055H133.872V37.9238C133.872 40.4233 133.37 42.1641 132.365 43.1465C131.363 44.1307 129.947 44.546 128.115 44.381V41.8835C128.529 41.9828 128.963 41.972 129.372 41.8523C129.781 41.7325 130.152 41.5079 130.447 41.2008C130.965 40.5977 131.227 39.494 131.227 37.8612V29.1454L142.526 29.1283ZM159.166 29.1283H161.818V44.3753H159.166V41.7583C158.557 42.7247 157.703 43.5126 156.691 44.0422C155.679 44.5718 154.545 44.8241 153.403 44.7736C152.382 44.787 151.37 44.5863 150.431 44.1846C149.492 43.7828 148.648 43.1889 147.953 42.441C146.499 40.9038 145.688 38.868 145.688 36.7518C145.688 34.6356 146.499 32.5998 147.953 31.0626C148.649 30.3155 149.493 29.7225 150.432 29.3217C151.37 28.9209 152.383 28.7213 153.403 28.7358C154.545 28.6852 155.679 28.9376 156.691 29.4671C157.703 29.9967 158.557 30.7847 159.166 31.751V29.1454V29.1283ZM153.739 42.2135C154.457 42.2322 155.172 42.1024 155.837 41.8322C156.503 41.562 157.106 41.1572 157.608 40.6432C158.388 39.8829 158.922 38.9061 159.142 37.8391C159.362 36.772 159.256 35.6636 158.84 34.6569C158.424 33.6502 157.715 32.7913 156.806 32.1912C155.897 31.5911 154.828 31.2773 153.739 31.2902C153.027 31.2744 152.319 31.4051 151.659 31.6743C151 31.9434 150.402 32.3452 149.904 32.8547C148.904 33.9008 148.345 35.2927 148.345 36.7405C148.345 38.1882 148.904 39.5801 149.904 40.6262C150.401 41.1376 150.998 41.541 151.658 41.8111C152.318 42.0813 153.026 42.2125 153.739 42.1964V42.2135ZM168.337 26.8526V24.5485H176.564V26.864L168.337 26.8526ZM176.9 29.1283H179.033V44.3753H176.41V33.6854L167.968 44.3753H165.84V29.1454H168.457V39.824L176.9 29.1283ZM193.597 29.1283H196.243V44.3753H193.597V38.0148H185.701V44.3753H183.05V29.1454H185.701V35.4831H193.597V29.1454V29.1283ZM223.671 44.3753H220.172L210.995 34.1348V44.3753H208.15V23.0523H210.995V32.6841L219.887 23.0523H223.363L213.948 33.4123L223.671 44.3753ZM237.165 29.1397H239.816V44.3753H237.165V41.7583C236.557 42.7246 235.704 43.5127 234.693 44.0423C233.682 44.572 232.548 44.8243 231.408 44.7736C230.386 44.7874 229.372 44.587 228.433 44.1852C227.493 43.7835 226.648 43.1893 225.952 42.441C224.501 40.9019 223.693 38.8668 223.693 36.7518C223.693 34.6369 224.501 32.6018 225.952 31.0626C226.648 30.3151 227.494 29.7218 228.433 29.321C229.373 28.9202 230.386 28.7209 231.408 28.7358C232.548 28.6851 233.682 28.9374 234.693 29.467C235.704 29.9967 236.557 30.7847 237.165 31.751V29.1454V29.1397ZM231.743 42.2248C232.462 42.2433 233.176 42.1133 233.842 41.8431C234.507 41.573 235.11 41.1683 235.612 40.6546C236.609 39.6065 237.165 38.2154 237.165 36.7689C237.165 35.3224 236.609 33.9313 235.612 32.8832C234.58 31.8798 233.197 31.3185 231.758 31.3185C230.318 31.3185 228.935 31.8798 227.903 32.8832C226.906 33.9313 226.35 35.3224 226.35 36.7689C226.35 38.2154 226.906 39.6065 227.903 40.6546C228.401 41.1664 228.999 41.5701 229.66 41.8403C230.32 42.1104 231.03 42.2414 231.743 42.2248ZM251.001 44.785C249.941 44.8099 248.887 44.6194 247.903 44.2251C246.919 43.8307 246.025 43.2406 245.276 42.4906C244.526 41.7406 243.937 40.8463 243.543 39.8618C243.149 38.8773 242.96 37.8232 242.985 36.7632C242.961 35.7042 243.152 34.6513 243.546 33.6681C243.941 32.685 244.531 31.792 245.28 31.0432C246.029 30.2945 246.922 29.7054 247.906 29.3117C248.889 28.9181 249.942 28.7279 251.001 28.7528C252.426 28.7311 253.828 29.1053 255.052 29.8338C256.208 30.5191 257.136 31.5304 257.72 32.741L255.496 34.021C255.115 33.2127 254.504 32.5355 253.738 32.0753C252.706 31.4785 251.506 31.2355 250.323 31.3834C249.14 31.5313 248.038 32.062 247.184 32.8946C246.198 33.9355 245.648 35.315 245.648 36.749C245.648 38.183 246.198 39.5625 247.184 40.6034C247.682 41.111 248.278 41.5108 248.937 41.778C249.596 42.0452 250.302 42.1741 251.013 42.1566C251.969 42.1669 252.91 41.9193 253.738 41.4397C254.528 40.985 255.172 40.3139 255.593 39.5054L257.868 40.8196C257.213 42.0171 256.243 43.0126 255.063 43.6983C253.836 44.4192 252.436 44.7928 251.013 44.7793L251.001 44.785ZM267.42 44.785C266.362 44.8076 265.31 44.6154 264.328 44.2199C263.346 43.8244 262.455 43.2339 261.708 42.4841C260.961 41.7342 260.373 40.8406 259.981 39.8573C259.589 38.874 259.401 37.8214 259.427 36.7632C259.402 35.7045 259.592 34.6517 259.986 33.6685C260.38 32.6854 260.969 31.7924 261.718 31.0435C262.467 30.2947 263.36 29.7055 264.343 29.3118C265.326 28.9181 266.379 28.7279 267.437 28.7528C268.864 28.7313 270.268 29.1054 271.494 29.8338C272.654 30.5173 273.587 31.5288 274.173 32.741L271.943 34.021C271.557 33.2095 270.937 32.532 270.163 32.0753C269.13 31.4785 267.931 31.2355 266.748 31.3834C265.565 31.5313 264.462 32.062 263.609 32.8946C262.622 33.9355 262.073 35.315 262.073 36.749C262.073 38.183 262.622 39.5625 263.609 40.6034C264.105 41.1114 264.7 41.5116 265.358 41.7788C266.016 42.046 266.722 42.1746 267.432 42.1566C268.394 42.1709 269.342 41.9231 270.174 41.4397C270.967 40.9869 271.613 40.3154 272.034 39.5054L274.31 40.8196C273.659 42.0179 272.69 43.0138 271.511 43.6983C270.282 44.4194 268.88 44.793 267.455 44.7793L267.42 44.785ZM289.301 29.1511H291.947V44.3753H289.301V41.7583C288.691 42.7243 287.837 43.5119 286.825 44.0414C285.813 44.5709 284.679 44.8235 283.538 44.7736C282.517 44.7873 281.504 44.5868 280.566 44.1851C279.627 43.7833 278.783 43.1892 278.088 42.441C276.633 40.9038 275.823 38.868 275.823 36.7518C275.823 34.6356 276.633 32.5998 278.088 31.0626C278.783 30.3152 279.627 29.722 280.566 29.3212C281.505 28.9204 282.517 28.721 283.538 28.7358C284.679 28.6858 285.813 28.9384 286.825 29.4679C287.837 29.9975 288.691 30.7851 289.301 31.751V29.1454V29.1511ZM283.874 42.2362C284.592 42.255 285.306 42.1252 285.972 41.855C286.638 41.5848 287.24 41.18 287.742 40.666C288.529 39.908 289.071 38.9309 289.295 37.8615C289.52 36.7921 289.418 35.6798 289.003 34.669C288.588 33.6581 287.878 32.7955 286.967 32.193C286.055 31.5905 284.983 31.2759 283.891 31.2902C283.178 31.2743 282.469 31.405 281.808 31.6741C281.148 31.9432 280.549 32.345 280.05 32.8547C279.053 33.9028 278.498 35.294 278.498 36.7405C278.498 38.1869 279.053 39.5781 280.05 40.6262C280.546 41.1418 281.143 41.5495 281.804 41.8236C282.465 42.0977 283.175 42.2324 283.891 42.2191L283.874 42.2362Z" fill="black"/>
<path fill-rule="evenodd" clip-rule="evenodd" d="M4.43188 15.0991H78.6132V48.3581C78.6132 49.5335 78.1463 50.6608 77.3152 51.4919C76.484 52.3231 75.3568 52.79 74.1814 52.79H4.43188C3.25647 52.79 2.12921 52.3231 1.29807 51.4919C0.466929 50.6608 0 49.5335 0 48.3581L0 19.531C0 18.3556 0.466929 17.2283 1.29807 16.3972C2.12921 15.566 3.25647 15.0991 4.43188 15.0991Z" fill="#AFCA05"/>
<path fill-rule="evenodd" clip-rule="evenodd" d="M87.8298 11.0825C89.3204 9.10271 90.0372 5.68919 88.8767 0C74.2327 2.27568 77.3731 10.1893 78.7727 12.6641C80.9295 9.31999 83.473 6.24175 86.3507 3.49316C84.3999 6.3115 82.7126 9.30335 81.31 12.4309C83.2842 10.1552 85.5997 10.0357 87.8298 11.0825ZM92.4381 15.7249C86.0207 22.9616 82.5787 18.9564 81.2986 16.7831C83.2918 16.1202 85.3903 15.8309 87.4885 15.9297C85.3704 15.2757 83.1544 14.9965 80.9402 15.1048C81.7197 13.2331 84.9284 7.70885 92.4381 15.7249Z" fill="#85BC22"/>
<path fill-rule="evenodd" clip-rule="evenodd" d="M44.808 23.3711H46.7367V25.2997H44.808V23.3711ZM17.187 35.4549L21.9773 23.3711H25.1632L17.8014 40.7174C16.7205 43.2605 15.3039 44.387 12.6812 44.4894C11.3209 44.51 9.96915 44.2706 8.69873 43.7839V41.3546C11.1849 42.0828 11.5092 42.1682 12.3967 42.1511C13.6085 42.1511 14.6326 41.5025 15.8102 38.7831L8.7158 23.3711H11.7936L17.187 35.4549ZM38.072 44.4894H35.4152V38.8741C34.2473 39.1818 33.0444 39.3367 31.8367 39.335C28.1102 39.335 25.8972 37.412 25.863 33.6116V29.0148H28.5085V33.7197C28.5085 36.0295 29.6463 37.0365 31.8367 37.0365C33.0444 37.0383 34.2473 36.8834 35.4152 36.5757V29.0148H38.072V44.4894ZM48.6539 44.4894C43.6929 44.4894 41.2921 41.2352 41.2921 36.7009C41.2921 32.7184 43.8579 29.0261 48.3126 29.0261C53.8652 29.0261 54.9177 33.0825 54.9177 37.4917H43.7385C43.7357 38.1413 43.8644 38.7847 44.1169 39.3833C44.3694 39.9818 44.7405 40.523 45.2077 40.9743C45.675 41.4256 46.2287 41.7777 46.8357 42.0092C47.4426 42.2408 48.0901 42.3471 48.7393 42.3218C49.5559 42.3564 50.3693 42.2001 51.1149 41.8653C51.8606 41.5305 52.5178 41.0264 53.0346 40.3932L54.7414 41.6049C53.3759 43.5279 51.3468 44.4894 48.6539 44.4894ZM48.3126 31.1141C45.724 31.1141 44.1253 33.1451 43.8295 35.4037H52.4714C52.4714 33.0882 50.9068 31.1141 48.3126 31.1141ZM69.8917 31.1653H64.7031V44.4894H62.0577V31.1653H56.9374V29.0148H69.8632V31.1539L69.8917 31.1653ZM49.4959 23.3882H51.4246V25.3168H49.4959V23.3882Z" fill="white"/>
</svg>
