<svg width="290" height="37" viewBox="0 0 290 37" fill="none" xmlns="http://www.w3.org/2000/svg">
<path fill-rule="evenodd" clip-rule="evenodd" d="M72.4697 16.0659V30.9262H70.4872V17.9373H63.6558V30.9262H61.6733V16.0659H72.4697ZM81.3232 20.0308C82.0351 20.0206 82.7412 20.1597 83.3961 20.439C84.0509 20.7183 84.6401 21.1316 85.1255 21.6524C86.1365 22.725 86.6995 24.1433 86.6995 25.6173C86.6995 27.0912 86.1365 28.5095 85.1255 29.5821C84.6403 30.1034 84.0513 30.5174 83.3964 30.7974C82.7416 31.0773 82.0353 31.2171 81.3232 31.2077C80.5291 31.2423 79.7399 31.0662 79.0359 30.6971C78.3318 30.328 77.738 29.7792 77.3147 29.1064V35.1766H75.4671V20.3123H77.3147V22.1401C77.7384 21.4667 78.3328 20.9175 79.0376 20.5483C79.7424 20.1792 80.5324 20.0034 81.3272 20.0387L81.3232 20.0308ZM81.0893 29.4156C81.5867 29.4271 82.0811 29.3359 82.5416 29.1476C83.0021 28.9593 83.4188 28.678 83.7656 28.3213C84.4603 27.5909 84.8478 26.6214 84.8478 25.6133C84.8478 24.6052 84.4603 23.6357 83.7656 22.9053C83.0462 22.2061 82.0826 21.8149 81.0794 21.8149C80.0762 21.8149 79.1125 22.2061 78.3932 22.9053C77.6984 23.6357 77.311 24.6052 77.311 25.6133C77.311 26.6214 77.6984 27.5909 78.3932 28.3213C78.7431 28.6793 79.1632 28.9613 79.6271 29.1496C80.091 29.3379 80.5888 29.4285 81.0893 29.4156ZM97.8646 29.5861C96.8042 30.6207 95.3813 31.1998 93.8998 31.1998C92.4182 31.1998 90.9954 30.6207 89.9349 29.5861C88.8965 28.5276 88.3149 27.104 88.3149 25.6212C88.3149 24.1385 88.8965 22.7149 89.9349 21.6564C90.7179 20.8709 91.7165 20.3357 92.8042 20.1187C93.8918 19.9016 95.0194 20.0125 96.0439 20.4373C97.0684 20.862 97.9436 21.5815 98.5586 22.5044C99.1736 23.4274 99.5006 24.5122 99.4981 25.6212C99.5132 26.3589 99.3759 27.0918 99.0948 27.774C98.8137 28.4562 98.3949 29.0731 97.8646 29.5861ZM93.8998 29.3958C94.3975 29.4034 94.8916 29.3105 95.3526 29.1228C95.8136 28.9351 96.2321 28.6564 96.5829 28.3033C96.9338 27.9502 97.2099 27.53 97.3947 27.0679C97.5794 26.6057 97.6692 26.111 97.6585 25.6133C97.6692 25.1158 97.5794 24.6213 97.3946 24.1594C97.2098 23.6974 96.9336 23.2774 96.5827 22.9247C96.2318 22.5719 95.8133 22.2936 95.3523 22.1063C94.8913 21.919 94.3973 21.8267 93.8998 21.8348C93.4072 21.8245 92.9177 21.9153 92.4615 22.1015C92.0053 22.2876 91.5921 22.5652 91.2473 22.9172C90.5523 23.6427 90.1643 24.6086 90.1643 25.6133C90.1643 26.618 90.5523 27.5839 91.2473 28.3094C91.5913 28.6627 92.0043 28.9414 92.4606 29.1283C92.9169 29.3152 93.4068 29.4062 93.8998 29.3958ZM108.764 25.4666C109.267 25.6443 109.698 25.9805 109.994 26.4245C110.289 26.8685 110.432 27.3964 110.402 27.9288C110.415 28.33 110.343 28.7296 110.192 29.1013C110.04 29.4729 109.812 29.8084 109.521 30.0857C108.822 30.6859 107.915 30.9878 106.996 30.9262H101.687V20.3123H106.571C107.463 20.2534 108.344 20.537 109.034 21.1053C109.322 21.3706 109.549 21.6951 109.699 22.0564C109.85 22.4178 109.92 22.8075 109.906 23.1987C109.933 23.6454 109.841 24.0912 109.639 24.4904C109.437 24.8897 109.132 25.228 108.756 25.4706L108.764 25.4666ZM106.492 21.9617H103.483V24.7371H106.476C107.555 24.7371 108.09 24.2613 108.09 23.3137C108.09 22.3661 107.555 21.9537 106.476 21.9537L106.492 21.9617ZM106.889 29.2451C107.337 29.2703 107.779 29.1291 108.13 28.8486C108.278 28.7117 108.394 28.5436 108.469 28.3564C108.545 28.1693 108.578 27.9677 108.566 27.7662C108.577 27.5725 108.543 27.3788 108.468 27.2001C108.392 27.0214 108.276 26.8624 108.13 26.7354C107.775 26.4647 107.334 26.3323 106.889 26.3627H103.483V29.2293L106.889 29.2451ZM113.684 26.4697C113.822 27.3445 114.285 28.1349 114.981 28.6821C115.714 29.2234 116.608 29.5027 117.518 29.4751C118.922 29.4751 119.941 28.9557 120.575 27.9248L122.161 28.8169C121.125 30.4029 119.568 31.1958 117.491 31.1958C116.733 31.2262 115.978 31.1011 115.271 30.8284C114.564 30.5556 113.92 30.1409 113.379 29.6099C112.856 29.0859 112.445 28.4604 112.172 27.7717C111.899 27.083 111.77 26.3458 111.793 25.6054C111.772 24.8701 111.898 24.138 112.165 23.4523C112.431 22.7666 112.832 22.1411 113.343 21.6128C113.866 21.0851 114.493 20.6716 115.183 20.3986C115.874 20.1256 116.614 19.999 117.356 20.0268C118.074 20.0039 118.787 20.1395 119.447 20.4239C120.106 20.7083 120.694 21.1345 121.17 21.6722C122.15 22.7571 122.678 24.1757 122.645 25.6371C122.645 25.9145 122.624 26.1916 122.582 26.4658L113.684 26.4697ZM117.36 21.7793C116.472 21.7344 115.6 22.0271 114.919 22.5985C114.238 23.1699 113.798 23.9778 113.688 24.86H120.782C120.686 23.973 120.262 23.154 119.592 22.5643C118.967 22.0417 118.175 21.7604 117.36 21.7714V21.7793ZM130.634 20.0387C131.346 20.0284 132.051 20.1674 132.705 20.4467C133.36 20.726 133.948 21.1395 134.433 21.6603C135.446 22.7316 136.011 24.1504 136.011 25.6252C136.011 27.1 135.446 28.5188 134.433 29.5901C133.948 30.1115 133.36 30.5255 132.706 30.8055C132.051 31.0855 131.346 31.2252 130.634 31.2157C129.839 31.2505 129.049 31.0744 128.343 30.7054C127.638 30.3364 127.043 29.7875 126.618 29.1143V35.1766H124.774V20.3123H126.618V22.1401C127.043 21.4669 127.638 20.918 128.343 20.549C129.049 20.1799 129.839 20.0039 130.634 20.0387ZM130.4 29.4235C130.898 29.4351 131.392 29.3438 131.853 29.1555C132.313 28.9672 132.73 28.6859 133.077 28.3292C133.771 27.5988 134.159 26.6293 134.159 25.6212C134.159 24.6132 133.771 23.6437 133.077 22.9132C132.357 22.214 131.394 21.8228 130.39 21.8228C129.387 21.8228 128.424 22.214 127.704 22.9132C127.007 23.6423 126.617 24.6123 126.617 25.6212C126.617 26.6302 127.007 27.6002 127.704 28.3292C128.054 28.6875 128.474 28.9696 128.938 29.1579C129.402 29.3462 129.9 29.4366 130.4 29.4235ZM147.192 30.9262H144.9L140.059 25.8988V30.9262H138.211V20.3123H140.059V25.0067L144.642 20.3123H147.021L141.946 25.4666L147.192 30.9262ZM156.727 20.3083H158.594V30.9262H156.747V29.1024C156.323 29.7755 155.728 30.3245 155.024 30.6936C154.319 31.0627 153.529 31.2387 152.734 31.2038C152.022 31.2134 151.316 31.0737 150.661 30.7937C150.006 30.5138 149.417 30.0997 148.932 29.5782C147.921 28.5055 147.358 27.0873 147.358 25.6133C147.358 24.1394 147.921 22.7211 148.932 21.6484C149.417 21.1275 150.006 20.714 150.661 20.4347C151.316 20.1554 152.022 20.0164 152.734 20.0268C153.529 19.9919 154.319 20.1679 155.024 20.537C155.728 20.9061 156.323 21.4551 156.747 22.1282V20.3123L156.727 20.3083ZM152.945 29.4275C153.446 29.4407 153.944 29.3503 154.409 29.162C154.873 28.9737 155.294 28.6915 155.645 28.3332C156.339 27.6028 156.727 26.6333 156.727 25.6252C156.727 24.6171 156.339 23.6476 155.645 22.9172C154.925 22.218 153.962 21.8268 152.958 21.8268C151.955 21.8268 150.992 22.218 150.272 22.9172C149.577 23.6476 149.19 24.6171 149.19 25.6252C149.19 26.6333 149.577 27.6028 150.272 28.3332C150.618 28.6896 151.034 28.9707 151.494 29.159C151.954 29.3473 152.448 29.4387 152.945 29.4275ZM175.667 30.9262H173.375L168.534 25.8988V30.9262H166.687V20.3123H168.534V25.0067L173.118 20.3123H175.497L170.422 25.4666L175.667 30.9262ZM185.373 29.5901C184.312 30.6237 182.89 31.2022 181.408 31.2022C179.927 31.2022 178.504 30.6237 177.443 29.5901C176.405 28.5316 175.823 27.108 175.823 25.6252C175.823 24.1424 176.405 22.7188 177.443 21.6603C178.227 20.8755 179.226 20.3408 180.313 20.1241C181.401 19.9073 182.529 20.0183 183.553 20.4429C184.578 20.8675 185.453 21.5866 186.069 22.5091C186.684 23.4317 187.012 24.5162 187.011 25.6252C187.025 26.3628 186.887 27.0954 186.606 27.7775C186.325 28.4597 185.907 29.0766 185.377 29.5901H185.373ZM181.408 29.3998C181.905 29.4062 182.398 29.3127 182.858 29.1248C183.318 28.9368 183.735 28.6583 184.085 28.3058C184.435 27.9532 184.71 27.5339 184.895 27.0727C185.079 26.6115 185.169 26.1179 185.159 25.6212C185.17 25.1238 185.08 24.6293 184.895 24.1673C184.71 23.7053 184.434 23.2854 184.083 22.9326C183.732 22.5798 183.314 22.3015 182.853 22.1142C182.392 21.9269 181.898 21.8346 181.4 21.8427C180.908 21.8325 180.418 21.9232 179.962 22.1094C179.506 22.2955 179.093 22.5732 178.748 22.9251C178.051 23.6497 177.662 24.616 177.662 25.6212C177.662 26.6265 178.051 27.5928 178.748 28.3173C179.092 28.6706 179.505 28.9493 179.961 29.1362C180.418 29.3231 180.907 29.4142 181.4 29.4037L181.408 29.3998ZM196.55 20.3083H198.398V30.9262H196.55V26.4935H191.039V30.9262H189.195V20.3123H191.039V24.7291H196.542V20.3123L196.55 20.3083ZM209.099 20.3083V22.0925H205.487V30.9262H203.639V22.0965H200.011V20.3123L209.099 20.3083ZM216.573 20.0347C217.285 20.0246 217.991 20.1637 218.646 20.443C219.3 20.7223 219.89 21.1356 220.375 21.6564C221.386 22.729 221.949 24.1473 221.949 25.6212C221.949 27.0952 221.386 28.5135 220.375 29.5861C219.89 30.1074 219.301 30.5214 218.646 30.8013C217.991 31.0813 217.285 31.2211 216.573 31.2117C215.778 31.247 214.988 31.0712 214.283 30.7021C213.578 30.333 212.984 29.7838 212.56 29.1103V35.1766H210.713V20.3123H212.56V22.1401C212.984 21.4667 213.578 20.9175 214.283 20.5483C214.988 20.1792 215.778 20.0034 216.573 20.0387V20.0347ZM216.339 29.4196C216.836 29.4311 217.331 29.3399 217.791 29.1516C218.252 28.9633 218.668 28.682 219.015 28.3253C219.71 27.5949 220.097 26.6254 220.097 25.6173C220.097 24.6092 219.71 23.6397 219.015 22.9093C218.296 22.21 217.332 21.8188 216.329 21.8188C215.326 21.8188 214.362 22.21 213.643 22.9093C212.948 23.6397 212.56 24.6092 212.56 25.6173C212.56 26.6254 212.948 27.5949 213.643 28.3253C213.993 28.6833 214.413 28.9653 214.877 29.1536C215.34 29.3419 215.838 29.4324 216.339 29.4196ZM232.944 20.3004H234.791V30.9262H232.936V29.1024C232.512 29.7758 231.918 30.325 231.213 30.6941C230.508 31.0633 229.718 31.2391 228.923 31.2038C228.211 31.2134 227.505 31.0737 226.85 30.7937C226.195 30.5138 225.606 30.0997 225.121 29.5782C224.11 28.5055 223.547 27.0873 223.547 25.6133C223.547 24.1394 224.11 22.7211 225.121 21.6484C225.606 21.1275 226.195 20.714 226.85 20.4347C227.505 20.1554 228.211 20.0164 228.923 20.0268C229.718 19.9915 230.508 20.1673 231.213 20.5364C231.918 20.9056 232.512 21.4548 232.936 22.1282V20.3123L232.944 20.3004ZM229.165 29.4196C229.666 29.4324 230.163 29.3419 230.627 29.1536C231.091 28.9653 231.511 28.6833 231.861 28.3253C232.556 27.5949 232.943 26.6254 232.943 25.6173C232.943 24.6092 232.556 23.6397 231.861 22.9093C231.142 22.21 230.178 21.8188 229.175 21.8188C228.172 21.8188 227.208 22.21 226.489 22.9093C225.794 23.6397 225.407 24.6092 225.407 25.6173C225.407 26.6254 225.794 27.5949 226.489 28.3253C226.836 28.6832 227.253 28.9655 227.714 29.1545C228.175 29.3435 228.671 29.4351 229.169 29.4235L229.165 29.4196ZM244.561 20.3004V22.0846H239.434V30.9262H237.586V20.3123L244.561 20.3004ZM247.043 26.4618C247.184 27.3368 247.652 28.1258 248.351 28.6702C249.084 29.2121 249.978 29.4914 250.889 29.4632C252.288 29.4632 253.307 28.9438 253.945 27.9129L255.531 28.805C254.501 30.391 252.944 31.1839 250.861 31.1839C250.104 31.2137 249.349 31.0884 248.643 30.8157C247.937 30.5429 247.294 30.1285 246.753 29.598C246.23 29.0741 245.819 28.4485 245.546 27.7598C245.273 27.0711 245.144 26.3339 245.167 25.5935C245.145 24.8581 245.271 24.1258 245.537 23.4399C245.804 22.7541 246.205 22.1287 246.718 21.6009C247.24 21.0728 247.866 20.6591 248.557 20.386C249.248 20.113 249.988 19.9866 250.73 20.0149C251.447 19.9921 252.16 20.1277 252.819 20.4121C253.477 20.6965 254.065 21.1227 254.54 21.6603C255.52 22.7452 256.048 24.1638 256.015 25.6252C256.015 25.9026 255.994 26.1797 255.952 26.4539L247.043 26.4618ZM250.718 21.7674C249.83 21.7234 248.958 22.0162 248.277 22.5874C247.595 23.1586 247.154 23.966 247.043 24.8481H254.148C254.056 23.9599 253.631 23.1396 252.958 22.5524C252.334 22.0298 251.544 21.7484 250.73 21.7595L250.718 21.7674ZM265.475 20.3004H267.323V30.9262H265.475V26.4935H259.968V30.9262H258.113V20.3123H259.96V24.7291H265.459V20.3123L265.475 20.3004ZM278.024 20.3004V22.0846H274.416V30.9262H272.568V22.0965H268.937V20.3123L278.024 20.3004ZM288.004 20.3004H289.831V30.9262H287.984V29.1024C287.56 29.7758 286.966 30.325 286.261 30.6941C285.556 31.0633 284.766 31.2391 283.971 31.2038C283.259 31.2132 282.553 31.0734 281.898 30.7934C281.243 30.5134 280.654 30.0995 280.169 29.5782C279.158 28.5055 278.595 27.0873 278.595 25.6133C278.595 24.1394 279.158 22.7211 280.169 21.6484C280.655 21.1277 281.244 20.7143 281.899 20.435C282.553 20.1557 283.26 20.0167 283.971 20.0268C284.766 19.9915 285.556 20.1673 286.261 20.5364C286.966 20.9056 287.56 21.4548 287.984 22.1282V20.3123L288.004 20.3004ZM284.225 29.4196C284.726 29.4324 285.223 29.3419 285.687 29.1536C286.151 28.9653 286.571 28.6833 286.921 28.3253C287.616 27.5949 288.004 26.6254 288.004 25.6173C288.004 24.6092 287.616 23.6397 286.921 22.9093C286.202 22.21 285.238 21.8188 284.235 21.8188C283.232 21.8188 282.268 22.21 281.549 22.9093C280.854 23.6397 280.467 24.6092 280.467 25.6173C280.467 26.6254 280.854 27.5949 281.549 28.3253C281.894 28.6817 282.31 28.9632 282.769 29.1521C283.228 29.3411 283.721 29.4335 284.217 29.4235L284.225 29.4196Z" fill="#080200"/>
<path fill-rule="evenodd" clip-rule="evenodd" d="M3.08863 10.5234H54.7865V33.702C54.7865 34.5212 54.4611 35.3068 53.8819 35.886C53.3026 36.4653 52.517 36.7907 51.6979 36.7907H3.08863C2.26947 36.7907 1.48387 36.4653 0.904639 35.886C0.325408 35.3068 0 34.5212 0 33.702L0 13.6121C0 12.7929 0.325408 12.0073 0.904639 11.4281C1.48387 10.8488 2.26947 10.5234 3.08863 10.5234Z" fill="#E31724"/>
<path fill-rule="evenodd" clip-rule="evenodd" d="M61.2096 7.72356C62.2484 6.34378 62.748 3.96487 61.9391 0C51.7336 1.58595 53.9222 7.10107 54.8976 8.82579C56.4007 6.49521 58.1733 4.34995 60.1787 2.43443C58.8192 4.39856 57.6433 6.48362 56.6659 8.66323C58.0417 7.07728 59.6554 6.99402 61.2096 7.72356ZM64.4212 10.9589C59.9488 16.0022 57.55 13.2109 56.6579 11.6964C58.047 11.2343 59.5095 11.0327 60.9717 11.1016C59.4956 10.6458 57.9512 10.4513 56.4082 10.5267C56.9514 9.22228 59.1875 5.37239 64.4212 10.9589Z" fill="#85BC22"/>
<path fill-rule="evenodd" clip-rule="evenodd" d="M31.227 16.2876H32.5711V17.6317H31.227V16.2876ZM11.9776 24.709L15.316 16.2876H17.5363L12.4058 28.3765C11.6525 30.1488 10.6652 30.9338 8.83742 31.0052C7.88941 31.0196 6.94738 30.8527 6.06201 30.5135V28.8205C7.79466 29.328 8.02066 29.3875 8.63917 29.3756C9.48369 29.3756 10.1974 28.9236 11.0181 27.0284L6.07391 16.2876H8.2189L11.9776 24.709ZM26.5326 31.0052H24.681V27.0919C23.8671 27.3063 23.0288 27.4142 22.1871 27.413C19.5901 27.413 18.0478 26.0729 18.024 23.4244V20.2207H19.8677V23.4997C19.8677 25.1094 20.6606 25.8112 22.1871 25.8112C23.0288 25.8124 23.8671 25.7045 24.681 25.49V20.2207H26.5326V31.0052ZM33.9073 31.0052C30.4499 31.0052 28.7767 28.7373 28.7767 25.5773C28.7767 22.8019 30.5649 20.2287 33.6694 20.2287C37.5391 20.2287 38.2726 23.0556 38.2726 26.1284H30.4816C30.4797 26.5811 30.5694 27.0295 30.7454 27.4467C30.9213 27.8638 31.1799 28.241 31.5056 28.5555C31.8312 28.87 32.2171 29.1154 32.6401 29.2767C33.0631 29.4381 33.5144 29.5122 33.9667 29.4946C34.5358 29.5187 35.1027 29.4097 35.6224 29.1764C36.142 28.9431 36.6001 28.5918 36.9602 28.1505L38.1497 28.995C37.1981 30.3351 35.784 31.0052 33.9073 31.0052ZM33.6694 21.6838C31.8654 21.6838 30.7512 23.0992 30.5451 24.6733H36.5677C36.5677 23.0596 35.4773 21.6838 33.6694 21.6838ZM48.7081 21.7195H45.0921V31.0052H43.2485V21.7195H39.6801V20.2207H48.6883V21.7115L48.7081 21.7195ZM34.4941 16.2995H35.8381V17.6436H34.4941V16.2995Z" fill="white"/>
</svg>
