<svg width="340" height="86" viewBox="0 0 340 86" fill="none" xmlns="http://www.w3.org/2000/svg">
<g clip-path="url(#clip0)">
<path fill-rule="evenodd" clip-rule="evenodd" d="M157.191 72.3268C154.855 72.3929 152.53 71.9792 150.356 71.1109C148.183 70.2425 146.207 68.9376 144.548 67.2751C142.889 65.6126 141.581 63.6271 140.704 61.439C139.826 59.2509 139.398 56.9056 139.444 54.5452C139.398 52.1849 139.826 49.8396 140.704 47.6515C141.581 45.4633 142.889 43.4779 144.548 41.8154C146.207 40.1529 148.183 38.8479 150.356 37.9796C152.53 37.1113 154.855 36.6976 157.191 36.7637C160.19 36.7354 163.142 37.5118 165.747 39.0138C168.282 40.4444 170.385 42.5436 171.832 45.0873L167.884 47.3924C166.905 45.4745 165.395 43.8856 163.538 42.8189C161.611 41.6974 159.423 41.1164 157.2 41.1359C155.429 41.0694 153.663 41.3739 152.015 42.0304C150.366 42.6868 148.87 43.6809 147.62 44.9501C146.398 46.2097 145.44 47.7055 144.804 49.348C144.167 50.9904 143.866 52.7457 143.917 54.5086C143.862 56.2811 144.169 58.046 144.819 59.6935C145.468 61.341 146.446 62.8358 147.692 64.085C148.938 65.3342 150.425 66.311 152.061 66.9547C153.696 67.5984 155.446 67.8952 157.2 67.8265C159.423 67.8461 161.611 67.265 163.538 66.1435C165.381 65.0997 166.889 63.5443 167.884 61.6615L171.804 63.9117C170.377 66.4678 168.282 68.5784 165.747 70.0126C163.137 71.5293 160.174 72.3155 157.163 72.2902L157.191 72.3268ZM179.347 61.4054C179.674 63.4224 180.741 65.2411 182.335 66.5002C184.008 67.7504 186.049 68.3948 188.13 68.3296C191.326 68.3296 193.653 67.1314 195.11 64.7532L198.732 66.8112C196.378 70.47 192.823 72.2994 188.066 72.2994C186.338 72.3681 184.615 72.079 183.001 71.4498C181.388 70.8206 179.92 69.8646 178.686 68.6406C177.49 67.4319 176.552 65.9887 175.929 64.3999C175.306 62.8111 175.012 61.1103 175.064 59.4022C175.014 57.7057 175.301 56.0162 175.909 54.434C176.517 52.8518 177.434 51.409 178.604 50.1913C179.797 48.973 181.228 48.0186 182.805 47.3887C184.382 46.7589 186.072 46.4673 187.767 46.5325C189.405 46.4798 191.034 46.7926 192.538 47.4488C194.042 48.1049 195.384 49.0882 196.469 50.3285C198.707 52.8313 199.915 56.1031 199.846 59.4754C199.843 60.1157 199.791 60.7547 199.692 61.3871L179.347 61.4054ZM187.74 50.5755C185.713 50.4782 183.724 51.1554 182.169 52.4723C180.614 53.7892 179.606 55.6494 179.347 57.6826H195.545C195.336 55.6337 194.365 53.7412 192.829 52.3866C191.404 51.1808 189.598 50.5317 187.74 50.5572V50.5755ZM218.045 46.56C219.672 46.5355 221.286 46.8567 222.781 47.5028C224.277 48.1488 225.622 49.1053 226.728 50.3102C229.039 52.7837 230.326 56.0561 230.326 59.4571C230.326 62.8581 229.039 66.1305 226.728 68.604C225.621 69.8071 224.276 70.7624 222.78 71.4083C221.285 72.0542 219.672 72.3765 218.045 72.3542C216.23 72.4348 214.427 72.0287 212.817 71.1773C211.208 70.3258 209.85 69.0593 208.882 67.5064V81.4828H204.663V47.1911H208.882V51.4078C209.85 49.8549 211.208 48.5884 212.817 47.737C214.427 46.8855 216.23 46.4795 218.045 46.56ZM217.511 68.2107C218.647 68.2373 219.776 68.0268 220.828 67.5924C221.879 67.158 222.831 66.509 223.623 65.6861C225.209 64.0011 226.094 61.7644 226.094 59.4388C226.094 57.1132 225.209 54.8766 223.623 53.1915C221.98 51.5783 219.779 50.6759 217.488 50.6759C215.197 50.6759 212.997 51.5783 211.354 53.1915C209.767 54.8766 208.883 57.1132 208.883 59.4388C208.883 61.7644 209.767 64.0011 211.354 65.6861C212.153 66.5121 213.113 67.1626 214.172 67.597C215.231 68.0314 216.368 68.2403 217.511 68.2107ZM251.51 59.0638C252.658 59.4741 253.642 60.25 254.315 61.2745C254.987 62.299 255.313 63.5167 255.241 64.744C255.271 65.6696 255.108 66.5914 254.762 67.4489C254.415 68.3063 253.894 69.0803 253.231 69.7199C251.642 71.1085 249.578 71.8114 247.481 71.6774H235.357V47.1911H246.512C248.549 47.0553 250.56 47.7096 252.135 49.0205C252.794 49.631 253.314 50.3794 253.658 51.2134C254.002 52.0475 254.162 52.9472 254.127 53.8501C254.189 54.8795 253.98 55.9071 253.52 56.8279C253.06 57.7487 252.367 58.5297 251.51 59.0912V59.0638ZM246.322 50.9779H239.477V57.3808H246.322C248.773 57.3808 250.001 56.2862 250.007 54.097C250.007 51.9993 248.779 50.9535 246.322 50.9596V50.9779ZM247.228 67.7808C248.254 67.8376 249.266 67.5121 250.071 66.8661C250.407 66.5486 250.669 66.1603 250.84 65.7287C251.01 65.2971 251.085 64.8329 251.058 64.369C251.082 63.923 251.006 63.4773 250.835 63.0654C250.664 62.6535 250.402 62.2861 250.071 61.9908C249.256 61.3681 248.247 61.0628 247.228 61.131H239.468V67.7442L247.228 67.7808ZM277.442 47.1911H280.828V71.6774H276.663V54.4903L263.191 71.6774H259.795V47.1911H263.969V64.3598L277.442 47.1911ZM298.629 72.3268C296.943 72.3669 295.267 72.0609 293.701 71.4274C292.135 70.7939 290.713 69.846 289.52 68.6412C288.327 67.4364 287.389 65.9996 286.762 64.4178C286.135 62.8361 285.832 61.1422 285.872 59.4388C285.833 57.7362 286.137 56.0433 286.765 54.4626C287.392 52.8819 288.331 51.4463 289.523 50.2424C290.716 49.0386 292.138 48.0915 293.703 47.4586C295.268 46.8257 296.944 46.52 298.629 46.56C300.896 46.5241 303.128 47.1258 305.076 48.2979C306.926 49.3955 308.413 51.0218 309.35 52.972L305.81 55.03C305.189 53.7263 304.199 52.6377 302.967 51.9018C301.325 50.9429 299.418 50.5527 297.537 50.7905C295.655 51.0283 293.902 51.8811 292.545 53.2189C290.969 54.8893 290.09 57.1084 290.09 59.416C290.09 61.7235 290.969 63.9426 292.545 65.613C293.334 66.4297 294.282 67.073 295.329 67.5027C296.376 67.9324 297.5 68.1392 298.629 68.1101C300.161 68.1317 301.669 67.7334 302.994 66.9576C304.256 66.2295 305.284 65.1499 305.954 63.8476L309.576 65.9606C308.537 67.8877 306.992 69.4889 305.112 70.5889C303.16 71.7491 300.931 72.3499 298.666 72.3268H298.629ZM323.982 56.0087C326.175 55.9501 328.31 56.731 329.958 58.1948C330.716 58.9244 331.32 59.8021 331.733 60.7746C332.145 61.7471 332.358 62.7941 332.358 63.8522C332.358 64.9103 332.145 65.9573 331.733 66.9298C331.32 67.9023 330.716 68.78 329.958 69.5095C328.301 70.9741 326.155 71.7489 323.955 71.6774H313.723V47.1911H317.943V56.0087H323.982ZM335.571 47.1911H339.791V71.6774H335.571V47.1911ZM323.982 67.7168C325.086 67.7518 326.165 67.3776 327.015 66.6649C327.421 66.3224 327.743 65.8901 327.956 65.4015C328.17 64.9129 328.269 64.3812 328.246 63.8476C328.266 63.3118 328.165 62.7785 327.952 62.2874C327.739 61.7964 327.418 61.3604 327.015 61.0121C326.172 60.2841 325.09 59.8993 323.982 59.9328H317.97V67.7168H323.982Z" fill="black"/>
<path fill-rule="evenodd" clip-rule="evenodd" d="M7.43082 24.6074H125.491V78.0801C125.491 79.9699 124.748 81.7823 123.425 83.1186C122.103 84.4549 120.309 85.2056 118.438 85.2056H7.43082C5.56015 85.2056 3.76609 84.4549 2.44333 83.1186C1.12056 81.7823 0.377441 79.9699 0.377441 78.0801L0.377441 31.7329C0.377441 29.8431 1.12056 28.0307 2.44333 26.6944C3.76609 25.3581 5.56015 24.6074 7.43082 24.6074Z" fill="#E31724"/>
<path fill-rule="evenodd" clip-rule="evenodd" d="M140.159 18.1497C142.532 14.9666 143.673 9.47843 141.825 0.331543C118.519 3.9903 123.517 16.7136 125.745 20.6925C129.177 15.3159 133.226 10.3668 137.805 5.94773C134.701 10.479 132.015 15.2892 129.783 20.3175C132.925 16.6587 136.61 16.4667 140.159 18.1497ZM147.493 25.6136C137.28 37.2484 131.802 30.809 129.765 27.3149C132.937 26.249 136.277 25.7839 139.616 25.9428C136.245 24.8913 132.718 24.4424 129.195 24.6165C130.435 21.6072 135.542 12.7256 147.493 25.6136Z" fill="#85BC22"/>
<path fill-rule="evenodd" clip-rule="evenodd" d="M71.69 37.9067H74.7594V41.0075H71.69V37.9067ZM27.7309 57.3347L35.3547 37.9067H40.4251L28.7087 65.7956C26.9884 69.8843 24.7338 71.6954 20.5598 71.86C18.3948 71.8932 16.2436 71.5083 14.2217 70.7258V66.8201C18.1785 67.9909 18.6946 68.1281 20.107 68.1006C22.0356 68.1006 23.6654 67.0579 25.5397 62.6857L14.2488 37.9067H19.1473L27.7309 57.3347ZM60.9696 71.86H56.7412V62.832C54.8825 63.3267 52.9681 63.5757 51.046 63.5729C45.1153 63.5729 41.5931 60.4813 41.5388 54.3711V46.9805H45.7491V54.5449C45.7491 58.2586 47.56 59.8776 51.046 59.8776C52.9681 59.8804 54.8825 59.6314 56.7412 59.1367V46.9805H60.9696V71.86ZM77.8108 71.86C69.9153 71.86 66.0944 66.628 66.0944 59.3379C66.0944 52.9351 70.1779 46.9987 77.2675 46.9987C86.1046 46.9987 87.7797 53.5205 87.7797 60.6093H69.9878C69.9833 61.6537 70.1882 62.6883 70.5901 63.6506C70.9919 64.6129 71.5825 65.483 72.3261 66.2086C73.0697 66.9342 73.9511 67.5002 74.917 67.8725C75.883 68.2449 76.9135 68.4158 77.9466 68.375C79.2462 68.4306 80.5408 68.1793 81.7275 67.6411C82.9142 67.1028 83.9603 66.2924 84.7827 65.2742L87.499 67.2225C85.3259 70.3142 82.0965 71.86 77.8108 71.86ZM77.2675 50.3557C73.1478 50.3557 70.6035 53.6211 70.1326 57.2524H83.8863C83.8863 53.5296 81.3963 50.3557 77.2675 50.3557ZM111.611 50.438H103.353V71.86H99.143V50.438H90.994V46.9805H111.566V50.4197L111.611 50.438ZM79.1508 37.9342H82.2203V41.035H79.1508V37.9342Z" fill="white"/>
</g>
<defs>
<clipPath id="clip0">
<rect width="339.386" height="84.8466" fill="white" transform="translate(0.377441 0.331543)"/>
</clipPath>
</defs>
</svg>
