<svg width="268" height="101" viewBox="0 0 268 101" fill="none" xmlns="http://www.w3.org/2000/svg">
<path d="M4.95074 63.2167C1.16862 62.3517 -0.23745 61.588 0.0321837 60.6235C0.19505 60.1367 0.575071 57.8674 0.951472 55.5421C1.49436 52.0296 1.76218 51.38 2.46432 51.7057C4.89645 52.6793 9.05858 53.5424 11.5975 53.5424C17.2725 53.5424 20.6239 50.571 20.1914 45.9221C19.9199 42.4639 18.4071 40.6272 12.7864 36.7908C7.05533 32.8476 3.97897 29.603 2.14039 25.658C0.951471 23.063 0.790416 22.0912 1.00576 17.9834C1.27539 10.5802 4.35718 5.71595 10.5714 2.85132C15.3271 0.636347 25.6492 0.527776 28.9463 2.68846C29.5399 3.06668 29.5399 3.87739 28.7835 7.93637C28.2967 10.5314 27.8117 12.7463 27.7574 12.8549C27.6488 12.9635 26.5142 12.6378 25.2239 12.2053C22.0897 11.1195 17.3883 11.1792 15.4429 12.3138C13.389 13.5571 12.0372 16.4217 12.4697 18.8538C12.8479 21.3384 15.2258 23.8248 20.6311 27.3373C28.7364 32.6341 31.925 37.7137 31.8707 45.1729C31.8707 52.9543 28.0343 58.8446 21.0129 62.0875C18.5265 63.2221 17.0137 63.4918 12.5276 63.6003C9.54537 63.7035 6.13966 63.5406 4.95074 63.2167Z" fill="#FF2728"/>
<path d="M41.438 60.5691V56.7852H207.35L233.732 64.3511H41.438V60.5691Z" fill="#006649"/>
<path d="M141.246 51.9226C134.436 50.1926 129.95 45.113 127.844 36.7905C126.924 33.0066 126.924 23.3866 127.898 19.4959C130.432 9.01281 137.031 2.90534 146.597 2.30454C151.135 2.03491 156.007 3.00849 156.007 4.19741C156.007 4.62991 155.735 6.62955 155.412 8.73595C154.818 12.1941 154.655 12.4656 153.629 12.0874C152.979 11.8159 150.764 11.6549 148.656 11.6549C145.307 11.6549 144.604 11.8159 142.766 13.222C139.416 15.8152 137.956 19.6534 137.741 26.8412C137.469 34.3529 138.388 38.0808 141.307 41.215C142.82 42.8437 143.841 43.4318 145.631 43.6472L147.9 43.9711V32.4655H143.577V23.8191H157.073V50.7825L155.082 51.3779C152.163 52.1922 143.682 52.5161 141.246 51.9226Z" fill="#006649"/>
<path d="M41.4381 31.9264V11.9301H32.7827V2.74268H60.3451V11.9301H51.6969V51.9228H41.4381V31.9264Z" fill="#006649"/>
<path d="M58.7236 51.3271C58.7236 50.9489 61.0472 40.0314 63.8575 27.0076C66.6679 13.9837 68.9914 3.16942 68.9914 3.01379C68.9914 2.85816 71.7475 2.79663 75.0446 2.85092L81.1503 3.01379L85.8553 27.0619C88.4503 40.3029 90.5603 51.2728 90.5603 51.5424C90.6146 51.7596 88.4539 51.9224 85.8046 51.9224C81.6425 51.9224 80.9422 51.7596 80.6707 51.0031C80.4011 50.0839 78.7254 41.2746 78.7254 40.7878C78.7254 40.6811 76.9429 40.5725 74.7261 40.5725C70.1333 40.5725 70.6201 39.9789 69.214 47.2192L68.2965 51.9242H63.5336C60.2908 51.9224 58.7236 51.7053 58.7236 51.3271ZM77.6306 32.5197C77.6306 32.25 77.037 28.1422 76.2806 23.4408C75.5242 18.7394 74.9288 14.6858 74.8745 14.3619C74.8202 13.7684 71.7402 31.3307 71.686 32.3586C71.686 32.7911 72.6595 33.0065 74.6592 33.0065C76.2878 33.0065 77.6306 32.7911 77.6306 32.5197Z" fill="#006649"/>
<path d="M95.4716 27.5993V3.33773L97.5255 2.95952C100.768 2.30987 111.199 2.47273 113.846 3.22916C119.999 4.95915 123.034 9.28234 123.034 16.1987C123.034 21.2258 121.948 23.819 118.765 26.6837C116.494 28.7376 116.44 28.7919 117.576 29.6026C119.467 30.8983 120.817 34.3076 122.223 41.3289C122.925 45.0043 123.79 48.6796 124.114 49.436C124.384 50.2467 124.657 51.1642 124.657 51.4357C124.657 51.7071 122.328 51.9207 119.521 51.9207C113.414 51.9207 113.846 52.4635 112.225 43.0535C111.682 39.7564 110.982 36.4068 110.658 35.6485C110.01 33.866 108.124 32.46 106.441 32.46H105.2V51.9207H95.4716V27.5993ZM110.928 22.5324C112.603 20.8567 112.766 20.3608 112.766 17.6681C112.766 16.0395 112.495 14.0489 112.116 13.2906C111.36 11.5607 109.091 10.3174 106.822 10.3174H105.193V24.3601H107.145C108.658 24.3601 109.523 23.9276 110.928 22.5324Z" fill="#006649"/>
<path d="M163.566 27.3318V2.74268H185.182V11.3909H173.834V22.1979H184.643V30.3141H173.834V43.2836H186.264V51.9318H163.566V27.3318Z" fill="#006649"/>
<path d="M197.608 31.9264V11.9301H188.962V2.74268H215.983V11.9301H207.337V51.9228H197.608V31.9264Z" fill="#006649"/>
<path d="M51.4742 92.9601C48.4486 92.9601 45.9314 91.9558 43.9227 89.9471C41.914 87.9384 40.9097 85.4477 40.9097 82.4751C40.9097 79.5013 41.914 77.0107 43.9227 75.0032C45.9314 72.9957 48.4486 71.9914 51.4742 71.9902C53.3324 71.9653 55.1634 72.4369 56.7782 73.3564C58.3062 74.2099 59.5178 75.5339 60.2328 77.1313L58.5861 78.0959C57.9969 76.8117 57.0205 75.7441 55.7938 75.043C54.4827 74.2829 52.9895 73.8938 51.4742 73.9174C50.3466 73.8964 49.2266 74.1066 48.1833 74.5352C47.14 74.9638 46.1956 75.6016 45.4084 76.4093C43.7749 78.0428 42.9582 80.0647 42.9582 82.4751C42.9582 84.9133 43.7749 86.9485 45.4084 88.5808C47.0419 90.2131 49.0638 91.0304 51.4742 91.0329C52.9896 91.0573 54.483 90.6681 55.7938 89.9073C57.036 89.1886 58.0464 88.1292 58.7055 86.8544L60.3939 87.8588C59.5822 89.4205 58.3326 90.7116 56.7982 91.5739C55.1799 92.5049 53.3411 92.9837 51.4742 92.9601Z" fill="#006649"/>
<path d="M73.8122 92.9601C70.8396 92.9601 68.3351 91.9557 66.2986 89.9471C64.2634 87.9131 63.2458 85.4224 63.2458 82.4752C63.2458 79.5279 64.2634 77.0505 66.2986 75.0431C68.3351 73.0078 70.8396 71.9902 73.8122 71.9902C76.7293 71.9902 79.2067 73.0078 81.2443 75.0431C83.3061 77.0517 84.337 79.5291 84.337 82.4752C84.3452 83.8577 84.0783 85.2281 83.5518 86.5065C83.0253 87.7849 82.2497 88.9458 81.2702 89.9216C80.2907 90.8974 79.1269 91.6685 77.8465 92.1902C76.5661 92.7118 75.1947 92.9736 73.8122 92.9601ZM67.7445 88.541C69.3523 90.137 71.5259 91.0327 73.7914 91.0327C76.0568 91.0327 78.2305 90.137 79.8382 88.541C81.4705 86.9087 82.2873 84.8868 82.2885 82.4752C82.2897 80.0635 81.4729 78.0416 79.8382 76.4093C78.2305 74.8133 76.0568 73.9176 73.7914 73.9176C71.5259 73.9176 69.3523 74.8133 67.7445 76.4093C66.111 78.0428 65.2943 80.0647 65.2943 82.4752C65.2943 84.8856 66.111 86.9075 67.7445 88.541Z" fill="#006649"/>
<path d="M98.3579 71.9905C99.4617 71.972 100.559 72.1629 101.592 72.5533C102.517 72.9122 103.353 73.4679 104.042 74.1819C104.737 74.9125 105.271 75.7813 105.609 76.7317C105.981 77.7899 106.165 78.9053 106.152 80.027V92.5134H104.102V80.027C104.102 78.1522 103.586 76.6659 102.554 75.5681C101.523 74.4703 100.07 73.9232 98.1968 73.9268C97.2213 73.9145 96.2526 74.0921 95.3449 74.4498C94.5035 74.7874 93.7485 75.3093 93.1353 75.9771C92.4841 76.7044 91.9911 77.5591 91.6876 78.487C91.3237 79.5961 91.1475 80.7582 91.1665 81.9253V92.5315H89.1578V72.4447H91.1665V76.2612C92.6129 73.4141 95.0101 71.9905 98.3579 71.9905Z" fill="#006649"/>
<path d="M113.181 77.694C113.168 78.1571 113.276 78.6156 113.495 79.0243C113.713 79.4329 114.034 79.7777 114.426 80.0248C115.359 80.6317 116.394 81.0668 117.48 81.3096C118.364 81.4978 119.268 81.712 120.195 81.952C121.079 82.1779 121.93 82.5154 122.728 82.9564C123.472 83.3678 124.116 83.9373 124.616 84.6248C125.112 85.3077 125.36 86.1847 125.36 87.256C125.368 88.0496 125.188 88.8339 124.837 89.5452C124.485 90.2477 123.985 90.8652 123.371 91.3548C122.695 91.8889 121.926 92.2909 121.101 92.5401C120.151 92.8314 119.162 92.9737 118.168 92.9617C116.238 92.9617 114.609 92.56 113.282 91.7566C112.015 91.023 111.041 89.8714 110.53 88.4992L112.258 87.4949C112.609 88.5924 113.353 89.522 114.346 90.1062C115.363 90.7227 116.635 91.0309 118.163 91.0309C119.69 91.0309 120.936 90.7027 121.9 90.0464C122.865 89.3902 123.347 88.4594 123.347 87.2542C123.357 86.786 123.248 86.323 123.03 85.9084C122.813 85.4938 122.493 85.1412 122.102 84.8836C121.18 84.2561 120.141 83.8193 119.048 83.5988C118.164 83.3828 117.26 83.1548 116.333 82.9148C115.449 82.6905 114.597 82.3529 113.8 81.9104C113.06 81.5026 112.417 80.9411 111.912 80.2637C111.416 79.5941 111.168 78.737 111.168 77.6922C111.168 76.0853 111.798 74.7329 113.058 73.635C114.37 72.536 116.017 71.9871 117.998 71.9883C119.605 71.9883 121.004 72.3502 122.196 73.0741C123.354 73.7588 124.272 74.7829 124.828 76.0074L123.141 76.972C122.759 76.0026 122.048 75.1987 121.132 74.7009C120.173 74.1736 119.093 73.9037 117.998 73.9173C116.631 73.9173 115.485 74.2593 114.56 74.9434C114.121 75.2527 113.766 75.6657 113.525 76.1456C113.284 76.6255 113.166 77.1574 113.181 77.694Z" fill="#006649"/>
<path d="M144.476 72.4321H146.485V92.5189H144.476V88.7024C143.028 91.5411 140.631 92.9605 137.285 92.9605C136.181 92.9792 135.084 92.7882 134.051 92.3977C133.125 92.0399 132.289 91.484 131.601 90.769C130.905 90.0384 130.371 89.1697 130.034 88.2193C129.66 87.1612 129.477 86.0457 129.491 84.9239V72.4376H131.539V84.9239C131.539 86.7987 132.054 88.285 133.085 89.3829C134.115 90.4807 135.568 91.0302 137.444 91.0314C138.42 91.0444 139.388 90.8668 140.296 90.5084C141.138 90.1721 141.893 89.65 142.505 88.9811C143.156 88.2536 143.649 87.3989 143.953 86.4712C144.317 85.3621 144.493 84.2 144.474 83.0329L144.476 72.4321Z" fill="#006649"/>
<path d="M152.672 92.5186V63.1919H154.681V92.5186H152.672Z" fill="#006649"/>
<path d="M171.152 74.3611H165.166V87.4465C165.166 88.3308 165.286 89.0154 165.528 89.5004C165.756 89.9717 166.149 90.3436 166.631 90.5464C167.226 90.7786 167.862 90.8881 168.501 90.8685C169.387 90.8601 170.272 90.8064 171.152 90.7074V92.517C168.419 92.9188 166.397 92.7378 165.086 91.9742C163.775 91.2105 163.118 89.7025 163.117 87.4501V74.3611H158.702V72.4321H163.121V67.4122L165.169 66.8096V72.4339H171.155L171.152 74.3611Z" fill="#006649"/>
<path d="M175.368 65.9644C175.343 65.4559 175.502 65.0795 175.851 64.8388C176.179 64.6036 176.572 64.4771 176.976 64.4771C177.379 64.4771 177.773 64.6036 178.101 64.8388C178.448 65.0795 178.609 65.4559 178.584 65.9644C178.609 66.5001 178.448 66.8952 178.101 67.1497C177.778 67.3973 177.383 67.5315 176.976 67.5315C176.569 67.5315 176.174 67.3973 175.851 67.1497C175.502 66.8946 175.35 66.5073 175.368 65.9644ZM175.971 92.5188V72.432H177.981V92.5188H175.971Z" fill="#006649"/>
<path d="M193.367 71.9905C194.471 71.9718 195.568 72.1628 196.601 72.5533C197.526 72.9118 198.362 73.4675 199.051 74.182C199.747 74.9121 200.281 75.7809 200.618 76.7317C200.991 77.7897 201.175 78.9052 201.161 80.027V92.5134H199.112V80.027C199.112 78.1523 198.597 76.6659 197.565 75.5681C196.534 74.4703 195.081 73.9208 193.206 73.9195C192.23 73.9073 191.262 74.0849 190.354 74.4425C189.513 74.7802 188.757 75.3021 188.144 75.9699C187.493 76.6971 187 77.5519 186.697 78.4798C186.331 79.5886 186.154 80.7508 186.174 81.9181V92.5243H184.165V72.4375H186.174V76.254C187.62 73.4117 190.018 71.9905 193.367 71.9905Z" fill="#006649"/>
<path d="M224.662 72.432H226.671V91.5543C226.671 94.4726 225.72 96.7763 223.817 98.4652C221.915 100.154 219.531 100.999 216.667 100.999C214.337 100.999 212.361 100.576 210.741 99.732C209.199 98.9672 207.951 97.7182 207.187 96.1761L208.955 95.1717C210.24 97.7704 212.81 99.0697 216.667 99.0697C219.185 99.0697 221.147 98.4001 222.552 97.061C223.958 95.7219 224.661 93.8869 224.662 91.5561V87.8609C223.877 89.4194 222.664 90.7223 221.166 91.6176C219.666 92.5152 217.953 92.9634 216.025 92.9622C213.129 92.9622 210.665 91.9579 208.633 89.9492C206.624 87.9152 205.62 85.4245 205.62 82.4772C205.62 79.53 206.624 77.0526 208.633 75.0451C209.591 74.0582 210.741 73.2782 212.013 72.7531C213.284 72.228 214.65 71.9691 216.025 71.9923C217.83 71.9599 219.609 72.4257 221.166 73.3387C222.664 74.2333 223.877 75.5356 224.662 77.0936V72.432ZM210.078 88.5377C211.277 89.7314 212.801 90.5433 214.461 90.871C216.12 91.1986 217.839 91.0273 219.401 90.3787C220.963 89.7301 222.297 88.6332 223.236 87.2266C224.175 85.82 224.676 84.1667 224.676 82.4754C224.676 80.7842 224.175 79.1309 223.236 77.7243C222.297 76.3176 220.963 75.2208 219.401 74.5721C217.839 73.9235 216.12 73.7522 214.461 74.0799C212.801 74.4076 211.277 75.2195 210.078 76.4132C208.445 78.0467 207.628 80.0686 207.628 82.4791C207.628 84.8895 208.445 86.9102 210.078 88.5413V88.5377Z" fill="#006649"/>
<path d="M226.72 42.942C218.395 30.1389 227.534 13.0054 243.138 13.0054C247.479 13.0005 251.693 14.4635 255.096 17.1566L254.13 13.5519L259.117 14.8874C251.792 6.04376 242.983 0.998535 242.983 0.998535C242.983 0.998535 219.161 13.9952 219.161 32.3973C219.155 37.3185 220.681 42.1194 223.528 46.1341L221.504 48.1573L231.148 50.7414C229.785 45.6618 230.172 47.1041 228.596 41.221L226.72 42.942Z" fill="#FF151F"/>
<path d="M232.677 32.689V47.8536C234.105 48.8006 235.656 49.5482 237.286 50.0758V32.689H232.677Z" fill="#57595B"/>
<path d="M248.989 21.4473V50.1696C250.615 49.6759 252.166 48.9624 253.598 48.0487V21.4473H248.989Z" fill="#57595B"/>
<path d="M262.755 19.1184L264.78 17.0934L255.138 14.5093L257.829 24.0442L259.715 22.3377C271.081 40.9913 248.28 61.7875 231.146 47.9439L232.154 51.7007L227.168 50.3633C234.492 59.2088 243.301 64.254 243.301 64.254C243.301 64.254 267.116 51.2555 267.116 32.848C267.124 27.9295 265.599 23.1308 262.755 19.1184Z" fill="#006649"/>
<path d="M240.833 27.0571V50.8717C242.363 51.0742 243.912 51.0845 245.444 50.9025V27.0571H240.833Z" fill="#57595B"/>
</svg>
