<svg width="214" height="101" viewBox="0 0 214 101" fill="none" xmlns="http://www.w3.org/2000/svg">
<path d="M186.759 95.3654C203.834 85.7343 211.614 67.4104 211.905 51.9134C212.058 43.4305 210.022 35.0554 206.001 27.6267C196.576 10.6769 179.704 5.83414 174.929 4.62344C171.301 3.73358 158.378 0.76736 144.006 7.04484C124.532 15.5924 117.875 34.3703 116.8 37.5969" fill="url(#paint0_linear)"/>
<path d="M186.76 95.3655C193.337 91.0498 198.829 85.2215 202.794 78.3491C204.74 74.9689 206.308 71.3769 207.468 67.6405C208.629 63.9341 209.389 60.11 209.737 56.2357L209.862 54.7889L209.897 53.3421L209.933 51.8953L209.891 50.4485C209.891 49.486 209.784 48.5296 209.731 47.5731C209.678 46.6167 209.547 45.6542 209.381 44.7098C208.812 40.9096 207.787 37.1952 206.328 33.6501C205.614 31.892 204.781 30.1868 203.834 28.547L202.337 26.1256C201.814 25.3386 201.227 24.594 200.68 23.8252C198.372 20.825 195.696 18.1394 192.716 15.8346C189.725 13.5075 186.478 11.543 183.042 9.98088C179.603 8.38505 176.002 7.18118 172.304 6.39116C168.614 5.60524 164.849 5.24781 161.08 5.32573C157.296 5.42016 153.536 5.95843 149.873 6.92991C148.965 7.20232 148.056 7.47473 147.147 7.7653C146.239 8.05586 145.366 8.41907 144.481 8.78228L141.886 9.99298L141.232 10.2957L140.609 10.6468L139.35 11.3369C135.994 13.2331 132.877 15.5383 130.067 18.2015C124.372 23.6769 119.854 30.298 116.8 37.6454C119.009 29.7805 122.986 22.5488 128.416 16.5247C134.002 10.4183 141.029 5.87277 148.828 3.32203C156.706 0.814117 165.07 0.32755 173.177 1.90551C181.317 3.45509 188.995 6.90488 195.608 11.9846C202.281 17.1224 207.436 24.034 210.509 31.9611C213.522 39.8144 214.526 48.32 213.425 56.6776C212.337 64.9181 209.374 72.7852 204.772 79.6506C200.203 86.3892 193.996 91.804 186.76 95.3655Z" fill="#FFE812"/>
<path d="M53.8831 67.3132H50.3198L47.6057 47.3911H51.0502L52.7903 62.089C52.8344 62.4667 52.8582 62.8467 52.8616 63.2271L52.8319 63.9232H52.9151C53.1231 63.277 53.3916 62.6526 53.7168 62.0587L61.4729 47.3911H65.2204L53.8831 67.3132Z" fill="black"/>
<path d="M83.2149 55.5694C83.2286 57.6654 82.7693 59.7366 81.8727 61.6229C81.0459 63.4164 79.762 64.9509 78.155 66.0662C76.4872 67.1818 74.5251 67.752 72.5309 67.7006C71.0551 67.7319 69.5976 67.362 68.3084 66.6291C67.0957 65.9221 66.1114 64.8703 65.4756 63.6024C64.7935 62.2301 64.449 60.7094 64.4719 59.1712C64.4543 57.5207 64.7279 55.8803 65.2796 54.3284C65.7943 52.8795 66.5878 51.5499 67.6136 50.4179C68.5692 49.3397 69.7422 48.4848 71.0521 47.9117C72.3694 47.3557 73.7836 47.0777 75.2093 47.0945C76.6726 47.0646 78.1182 47.4257 79.4021 48.1417C80.6149 48.8275 81.5992 49.8667 82.229 51.1261C82.9078 52.5033 83.2462 54.0286 83.2149 55.5694ZM79.6516 55.6905C79.7408 54.2035 79.2835 52.736 78.3688 51.5741C77.9268 51.0744 77.3819 50.6807 76.773 50.4212C76.1641 50.1616 75.5064 50.0427 74.8471 50.0728C73.5965 50.0828 72.3831 50.5078 71.3907 51.2835C70.2725 52.1412 69.4091 53.2978 68.8963 54.625C68.3045 56.0518 68.0015 57.5858 68.0055 59.1349C67.9293 60.5978 68.3814 62.0385 69.2764 63.1847C69.7147 63.691 70.2597 64.0897 70.8707 64.3507C71.4816 64.6117 72.1426 64.7284 72.8041 64.692C74.0667 64.7025 75.2985 64.2946 76.314 63.5297C77.4177 62.6633 78.2679 61.5057 78.7726 60.1822C79.3673 58.7539 79.6724 57.2178 79.6694 55.6662L79.6516 55.6905Z" fill="black"/>
<path d="M97.9195 51.1927C97.2831 50.7672 96.5859 50.4446 95.8527 50.2363C95.1137 50.004 94.3456 49.8816 93.5722 49.8731C92.9586 49.858 92.3496 49.9842 91.7906 50.2423C91.3375 50.4588 90.9498 50.7954 90.6681 51.217C90.4108 51.6089 90.2762 52.0711 90.2821 52.5427C90.282 53.1883 90.4908 53.816 90.876 54.3285C91.5057 55.071 92.2474 55.7065 93.0734 56.2111C94.2043 56.9102 95.1907 57.8272 95.9774 58.9109C96.5181 59.7567 96.8012 60.7467 96.7911 61.7561C96.8035 62.8626 96.5024 63.9493 95.924 64.8858C95.3469 65.8209 94.4977 66.5489 93.495 66.9682C92.317 67.4541 91.0537 67.689 89.7832 67.6583C88.8179 67.6542 87.8566 67.5302 86.9207 67.289C86.0347 67.0799 85.1786 66.7565 84.3729 66.3265L84.9668 63.1424C85.6908 63.6715 86.4927 64.0801 87.3424 64.3531C88.1685 64.6511 89.0376 64.8066 89.9139 64.8131C90.8064 64.8714 91.692 64.6196 92.426 64.0988C92.7206 63.8578 92.9546 63.5486 93.1084 63.197C93.2623 62.8454 93.3317 62.4614 93.3109 62.0769C93.299 61.4347 93.0535 60.8198 92.622 60.3517C91.9188 59.6175 91.1194 58.986 90.2465 58.4751C89.1792 57.8394 88.261 56.9738 87.5562 55.9387C87.0024 55.0529 86.7116 54.0228 86.7188 52.9725C86.7079 51.9018 87.0008 50.8507 87.5621 49.9457C88.1383 49.0219 88.9629 48.2864 89.9376 47.827C91.0913 47.2953 92.3481 47.0366 93.6138 47.0703C95.2882 47.087 96.9445 47.4258 98.4955 48.0691L97.9195 51.1927Z" fill="black"/>
<path d="M114.958 67.3132H111.579L113.361 58.7959H104.328L102.546 67.3132H99.1549L103.312 47.3911H106.715L104.933 55.7389H114.002L115.784 47.3911H119.163L114.958 67.3132Z" fill="black"/>
<path d="M139.296 55.5694C139.312 57.6657 138.853 59.7376 137.954 61.6229C137.129 63.416 135.847 64.9505 134.242 66.0662C132.572 67.1826 130.608 67.7529 128.612 67.7006C127.138 67.7308 125.683 67.361 124.395 66.6291C123.18 65.9252 122.195 64.8726 121.562 63.6024C120.877 62.2311 120.533 60.7097 120.559 59.1712C120.542 57.5213 120.814 55.8815 121.36 54.3284C121.88 52.8803 122.675 51.5512 123.7 50.4179C124.655 49.3411 125.826 48.4864 127.133 47.9117C128.451 47.3571 129.865 47.0792 131.29 47.0945C132.753 47.0646 134.199 47.4257 135.483 48.1417C136.693 48.831 137.676 49.8692 138.31 51.1261C138.989 52.5033 139.327 54.0286 139.296 55.5694ZM135.732 55.6905C135.811 54.2094 135.347 52.7513 134.432 51.5983C133.989 51.0979 133.443 50.7037 132.833 50.4441C132.223 50.1845 131.564 50.0659 130.904 50.097C129.655 50.1061 128.443 50.5313 127.454 51.3077C126.335 52.1654 125.472 53.322 124.959 54.6493C124.362 56.0746 124.057 57.6092 124.063 59.1591C123.988 60.6228 124.442 62.0635 125.339 63.2089C125.777 63.7144 126.321 64.1125 126.931 64.3736C127.541 64.6346 128.201 64.7517 128.861 64.7162C130.124 64.7289 131.357 64.3208 132.371 63.554C133.475 62.6875 134.325 61.5299 134.83 60.2064C135.438 58.7728 135.753 57.228 135.756 55.6662L135.732 55.6905Z" fill="black"/>
<path d="M159.731 55.4483C159.772 57.6345 159.265 59.7951 158.259 61.7258C157.323 63.5024 155.885 64.9513 154.131 65.8846C152.184 66.876 150.029 67.3665 147.854 67.3132H140.81L144.967 47.3911H151.126C153.763 47.3911 155.857 48.1075 157.409 49.5401C158.961 50.9728 159.735 52.9422 159.731 55.4483ZM156.204 55.7086C156.204 53.9289 155.699 52.585 154.689 51.6588C153.68 50.7327 152.219 50.2786 150.3 50.2786H147.735L144.765 64.4317H147.931C149.452 64.4669 150.955 64.0932 152.29 63.3482C153.534 62.6361 154.542 61.5609 155.182 60.2609C155.879 58.8497 156.234 57.2885 156.216 55.7086H156.204Z" fill="black"/>
<path d="M65.2263 88.8638C65.2399 90.9598 64.7807 93.031 63.8841 94.9173C63.0553 96.7096 61.7718 98.2436 60.1664 99.3606C58.4968 100.477 56.5325 101.047 54.5364 100.995C53.0625 101.025 51.6073 100.655 50.3198 99.9236C49.1048 99.2196 48.1196 98.1671 47.4869 96.8968C46.8021 95.5256 46.4575 94.0041 46.4833 92.4657C46.4669 90.8157 46.7384 89.176 47.285 87.6229C47.8042 86.1747 48.5995 84.8457 49.6249 83.7123C50.5795 82.6356 51.7502 81.7809 53.0576 81.2061C54.3753 80.6516 55.7892 80.3736 57.2148 80.3889C58.6781 80.3591 60.1236 80.7201 61.4076 81.4362C62.619 82.1237 63.6029 83.1624 64.2345 84.4206C64.9153 85.7972 65.2557 87.3225 65.2263 88.8638ZM61.663 88.9849C61.7412 87.5038 61.2778 86.0457 60.3624 84.8927C59.9198 84.3923 59.3738 83.9981 58.7638 83.7385C58.1539 83.4789 57.495 83.3604 56.8347 83.3915C55.5858 83.4006 54.374 83.8258 53.3842 84.6022C52.266 85.4599 51.4027 86.6165 50.8899 87.9437C50.296 89.3701 49.991 90.904 49.9931 92.4536C49.9186 93.9172 50.3729 95.358 51.27 96.5034C51.7076 97.0089 52.2517 97.407 52.8616 97.668C53.4714 97.929 54.1312 98.0462 54.7917 98.0107C56.0547 98.0234 57.2871 97.6153 58.3016 96.8484C59.4053 95.982 60.2556 94.8243 60.7603 93.5008C61.3663 92.0668 61.6795 90.5221 61.6808 88.9607L61.663 88.9849Z" fill="black"/>
<path d="M83.6368 100.608H80.3645L73.7011 86.2972C73.6477 86.1761 73.5527 85.946 73.422 85.601C73.3219 85.3623 73.2424 85.1152 73.1844 84.8625H73.1013L72.9766 85.8068L72.8162 86.8238L69.9418 100.608H66.7349L70.8921 80.6855H74.4554L80.9881 94.9234C81.1602 95.3038 81.3109 95.6938 81.4395 96.0917H81.4929C81.5339 95.4688 81.6192 94.8497 81.7483 94.2394L84.5871 80.6855H87.8178L83.6368 100.608Z" fill="black"/>
<path d="M101.56 84.4873C100.923 84.0629 100.226 83.7404 99.4934 83.5309C98.7543 83.2986 97.9862 83.1763 97.2129 83.1677C96.5993 83.1526 95.9903 83.2788 95.4312 83.537C94.9771 83.7519 94.5891 84.0888 94.3088 84.5116C94.0497 84.903 93.913 85.3652 93.9168 85.8373C93.9172 86.4828 94.1259 87.1103 94.5107 87.6231C95.1393 88.3643 95.8789 88.9997 96.7021 89.5057C97.8359 90.2032 98.8245 91.1204 99.6121 92.2056C100.153 93.0513 100.436 94.0413 100.426 95.0507C100.438 96.1572 100.137 97.2439 99.5587 98.1804C98.9791 99.1156 98.128 99.8435 97.1238 100.263C95.9415 100.758 94.6719 100.999 93.3942 100.971C92.4288 100.967 91.4676 100.843 90.5317 100.602C89.6457 100.393 88.7895 100.069 87.9839 99.6393L88.5778 96.4551C89.3028 96.9825 90.1044 97.391 90.9533 97.6658C91.7793 97.9644 92.6485 98.1199 93.5248 98.1259C94.4173 98.1836 95.3027 97.9319 96.037 97.4116C96.3315 97.1705 96.5655 96.8614 96.7194 96.5098C96.8733 96.1581 96.9427 95.7742 96.9218 95.3897C96.9293 94.7477 96.7053 94.1251 96.2923 93.6403C95.5892 92.9061 94.7897 92.2745 93.9168 91.7636C92.8495 91.128 91.9313 90.2623 91.2265 89.2272C90.6665 88.344 90.3733 87.3126 90.3832 86.261C90.3741 85.1898 90.669 84.1387 91.2324 83.2343C91.8086 82.3105 92.6332 81.575 93.608 81.1156C94.7617 80.5839 96.0184 80.3252 97.2841 80.3589C98.9585 80.3755 100.615 80.7144 102.166 81.3577L101.56 84.4873Z" fill="black"/>
<path d="M110.825 100.971C109.937 101.018 109.048 100.886 108.21 100.581C107.372 100.277 106.602 99.8065 105.943 99.1971C105.338 98.5775 104.867 97.8357 104.56 97.0193C104.254 96.203 104.118 95.3303 104.162 94.4572C104.165 93.4514 104.274 92.4488 104.488 91.4668L106.763 80.7037H110.154L107.879 91.4124C107.68 92.3079 107.557 93.2193 107.511 94.1364C107.484 94.6517 107.56 95.1671 107.734 95.6519C107.907 96.1366 108.175 96.5806 108.521 96.9573C108.883 97.3074 109.312 97.5786 109.781 97.7544C110.249 97.9303 110.748 98.0072 111.247 97.9804C111.84 98.0117 112.434 97.9165 112.989 97.7007C113.544 97.485 114.049 97.1534 114.471 96.7273C115.405 95.5865 116.021 94.2107 116.253 92.7441L118.753 80.6855H122.144L119.626 92.6473C119.32 94.3505 118.732 95.9881 117.886 97.4901C117.214 98.6108 116.242 99.512 115.083 100.087C113.747 100.705 112.292 101.007 110.825 100.971Z" fill="black"/>
<path d="M133.411 100.608H122.507L126.664 80.6855H130.037L126.474 97.6717H133.969L133.411 100.608Z" fill="black"/>
<path d="M150.271 83.5731H144.736L141.208 100.608H137.829L141.356 83.5731H135.726L136.32 80.6855H150.882L150.271 83.5731Z" fill="black"/>
<path d="M153.038 100.608H149.635L153.793 80.6855H157.196L153.038 100.608Z" fill="black"/>
<path d="M174.679 100.608H171.407L164.744 86.2972C164.69 86.1761 164.595 85.946 164.464 85.601C164.367 85.3613 164.288 85.1144 164.227 84.8625H164.144L164.019 85.8068L163.859 86.8238L160.984 100.608H157.777L161.935 80.6855H165.498L172.031 94.9234C172.203 95.3038 172.353 95.6938 172.482 96.0917H172.535C172.578 95.4686 172.666 94.8495 172.797 94.2394L175.63 80.6855H178.86L174.679 100.608Z" fill="black"/>
<path d="M197.146 84.8384C196.403 84.3316 195.585 83.9494 194.723 83.7064C193.774 83.4214 192.79 83.2786 191.801 83.2826C190.334 83.2518 188.886 83.624 187.608 84.3602C186.402 85.0659 185.427 86.1188 184.805 87.3869C184.113 88.7821 183.762 90.3274 183.784 91.8907C183.695 93.5382 184.235 95.1568 185.292 96.4066C185.822 96.9648 186.463 97.4009 187.172 97.686C187.88 97.971 188.641 98.0983 189.402 98.0592C190.335 98.0676 191.261 97.9077 192.14 97.587L193.149 92.6716H188.897L189.491 89.8386H197.146L195.127 99.4758C193.225 100.487 191.107 101.001 188.962 100.971C187.363 101.006 185.782 100.627 184.366 99.8692C183.068 99.1597 182.008 98.0695 181.325 96.7396C180.601 95.3138 180.237 93.7261 180.268 92.1207C180.232 89.9916 180.726 87.8881 181.705 86.0067C182.635 84.2302 184.061 82.7746 185.803 81.8237C187.716 80.807 189.851 80.3009 192.009 80.3527C193.988 80.356 195.945 80.7679 197.764 81.5634L197.146 84.8384Z" fill="black"/>
<path d="M40.651 55.3701C36.5948 53.9293 32.8533 51.859 28.9218 51.3566C21.8605 50.4667 16.9847 54.6981 13.3977 60.4369C9.68889 66.325 7.79995 73.2126 7.97549 80.2076C8.12396 89.9598 14.5082 95.1597 23.8679 92.7565C27.3421 91.8666 30.5906 90.0748 34.2015 88.5856C35.0804 92.0422 34.534 94.7784 31.4399 96.4976C24.6874 100.245 17.5014 101.098 10.2916 98.5013C4.44781 96.3946 1.25271 91.5095 0.427214 85.3712C-1.23566 73.0887 1.95349 62.0834 10.0363 52.8215C17.3589 44.4374 29.9077 42.0645 38.7625 46.9678C42.9197 49.256 43.371 51.9377 40.651 55.3701Z" fill="black"/>
<defs>
<linearGradient id="paint0_linear" x1="138.485" y1="69.7127" x2="204.463" y2="25.0763" gradientUnits="userSpaceOnUse">
<stop stop-color="white" stop-opacity="0.3"/>
<stop offset="1" stop-color="#FFFF00"/>
</linearGradient>
</defs>
</svg>
