<svg width="219" height="126" viewBox="0 0 219 126" fill="none" xmlns="http://www.w3.org/2000/svg">
<path d="M32.0985 0.23291C14.393 0.23291 0 14.6214 0 32.3213C0 33.284 0.783203 34.0669 1.74616 34.0669C2.70912 34.0669 3.49232 33.284 3.49232 32.3213C3.49232 16.5467 16.3317 3.72413 32.0985 3.72413C47.8654 3.72413 60.7048 16.5595 60.7048 32.3213C60.7048 48.0832 47.8782 60.9185 32.0985 60.9185C22.7643 60.9185 14.1362 56.4262 8.75648 48.8533L21.6344 31.9363L25.3835 36.0051C25.7045 36.3516 26.1539 36.557 26.629 36.5699C27.104 36.5827 27.5662 36.3902 27.9001 36.0564L31.6877 32.27L35.5138 36.0949C35.8605 36.4415 36.297 36.6084 36.7464 36.6084C37.1958 36.6084 37.6452 36.4415 37.979 36.0949L42.3829 31.6924L48.7384 40.0354C49.3162 40.8055 50.4204 40.9467 51.1779 40.3691C51.9483 39.7915 52.0895 38.6877 51.5117 37.9304L33.4852 14.2491C33.1514 13.8127 32.6378 13.556 32.0985 13.556C31.5593 13.556 31.0457 13.8127 30.7119 14.2491L5.22564 47.7495C5.22564 47.7623 5.2128 47.7623 5.2128 47.7751C5.18712 47.8136 5.16145 47.8521 5.13577 47.8778C5.12293 47.8906 5.12293 47.9035 5.11009 47.9163C5.08441 47.9548 5.07157 47.9933 5.04589 48.019C5.03305 48.0318 5.03305 48.0575 5.02021 48.0703C5.00737 48.1088 4.99453 48.1345 4.98169 48.173C4.96885 48.1859 4.96886 48.2115 4.95602 48.2244C4.94318 48.2629 4.93034 48.2885 4.93034 48.3271C4.93034 48.3399 4.9175 48.3656 4.9175 48.3912C4.90466 48.4297 4.90466 48.4682 4.89182 48.5067C4.89182 48.5196 4.89182 48.5452 4.87898 48.5581C4.87898 48.5966 4.86614 48.6351 4.86614 48.6864C4.86614 48.6993 4.86614 48.7121 4.86614 48.7249C4.86614 48.7763 4.86614 48.8148 4.86614 48.8661C4.86614 48.879 4.86614 48.879 4.86614 48.8918C4.86614 48.9432 4.87898 48.9945 4.87898 49.0458V49.0587C4.89182 49.11 4.89182 49.1613 4.90466 49.2127V49.2255C4.9175 49.2769 4.93034 49.3282 4.94318 49.3667C4.94318 49.3795 4.94318 49.3796 4.94318 49.3796C4.95602 49.4181 4.9817 49.4694 4.99453 49.5079C4.99453 49.5207 5.00737 49.5336 5.00737 49.5464C5.02021 49.5849 5.04589 49.6234 5.07157 49.6619C5.08441 49.6748 5.08441 49.6876 5.09725 49.7004C5.11009 49.7261 5.12293 49.7389 5.13577 49.7646C11.0933 58.9291 21.1722 64.4098 32.0985 64.4098C49.8041 64.4098 64.1971 50.0213 64.1971 32.3213C64.1971 14.6214 49.8041 0.23291 32.0985 0.23291ZM32.0985 18.1896L40.2516 28.8943L36.7464 32.3984L32.9203 28.5734C32.2398 27.8931 31.1356 27.8931 30.4551 28.5734L26.7188 32.3085L23.7786 29.1253L32.0985 18.1896Z" fill="#132651"/>
<path d="M125.32 42.5442V45.7856H113.189V42.5442L116.05 41.5145L115.135 38.7307H106.666L105.713 41.4764L108.688 42.5442V45.7856H97.168V42.5442L99.9526 41.4764L108.345 19.0153L114.448 18.9009L122.65 41.4764L125.32 42.5442ZM113.876 34.6503L111.015 25.6125L108.002 34.6503H113.876Z" fill="#132651"/>
<path d="M135.143 30.4561H138.882C141.679 30.4561 143.93 31.0662 145.634 32.2865C147.363 33.5068 148.228 35.3118 148.228 37.7016C148.228 40.371 147.35 42.3921 145.596 43.7649C143.841 45.1124 141.387 45.7861 138.233 45.7861H126.103V42.5446L129.231 41.4006V23.4775L126.37 22.3335V19.092L135.143 18.9014H146.702V26.757H143.154L142.201 23.4775H135.143V30.4561ZM135.143 41.2099H138.043C139.314 41.2099 140.306 40.8794 141.018 40.2185C141.755 39.532 142.124 38.6931 142.124 37.7016C142.124 35.5406 140.573 34.4602 137.47 34.4602H135.143V41.2099Z" fill="#132651"/>
<path d="M176.4 18.9014V22.3335L173.348 23.4775L167.435 37.3965C164.918 43.2946 161.879 46.2437 158.319 46.2437C156.462 46.2437 154.669 45.8623 152.94 45.0996L153.97 40.8286C155.521 41.2608 156.844 41.4769 157.937 41.4769C159.336 41.4769 160.531 40.8413 161.523 39.5702L152.597 23.4775L149.736 22.3335V19.092L161.523 18.9014V22.3335L158.471 23.4775L164.155 34.1932L168.656 23.4775L165.414 22.3335V19.092L176.4 18.9014Z" fill="#132651"/>
<path d="M104.639 91.1062L103.895 88.6634H100.152L99.4082 91.1062H97.063L100.686 80.8018H103.347L106.984 91.1062H104.639ZM103.375 86.8384C102.687 84.625 102.299 83.3732 102.21 83.083C102.126 82.7929 102.065 82.5636 102.027 82.3951C101.873 82.9941 101.43 84.4752 100.7 86.8384H103.375Z" fill="#132651"/>
<path d="M116.365 80.8428L113.192 88.1008C112.794 89.0133 112.419 89.6684 112.068 90.0662C111.722 90.464 111.31 90.7611 110.832 90.9577C110.355 91.1495 109.774 91.2455 109.091 91.2455C108.506 91.2455 107.961 91.1753 107.455 91.0349V89.1677C107.867 89.3362 108.38 89.4204 108.993 89.4204C109.381 89.4204 109.695 89.3315 109.934 89.1537C110.172 88.9712 110.371 88.6577 110.53 88.2131L106.978 80.8428H109.281L111.808 86.5635H111.879L112.005 86.2126L114.125 80.8428H116.365Z" fill="#132651"/>
<path d="M121.61 91.1051H119.434V82.6538H116.646V80.8428H124.398V82.6538H121.61V91.1051Z" fill="#132651"/>
<path d="M130.352 82.5063C129.533 82.5063 128.898 82.8152 128.449 83.4329C128 84.0459 127.775 84.9022 127.775 86.0019C127.775 88.2902 128.634 89.4344 130.352 89.4344C131.073 89.4344 131.946 89.2542 132.971 88.8939V90.7189C132.128 91.0699 131.188 91.2454 130.148 91.2454C128.655 91.2454 127.513 90.7938 126.722 89.8907C125.931 88.9828 125.535 87.6819 125.535 85.9879C125.535 84.921 125.729 83.9874 126.118 83.1872C126.506 82.3823 127.064 81.7669 127.789 81.3411C128.519 80.9106 129.374 80.6953 130.352 80.6953C131.349 80.6953 132.351 80.9363 133.357 81.4183L132.655 83.1872C132.271 83.0047 131.885 82.8456 131.496 82.7099C131.108 82.5742 130.726 82.5063 130.352 82.5063Z" fill="#132651"/>
<path d="M144.466 85.9602C144.466 87.6589 144.044 88.9645 143.202 89.877C142.359 90.7895 141.151 91.2458 139.579 91.2458C138.006 91.2458 136.798 90.7895 135.956 89.877C135.113 88.9645 134.692 87.6542 134.692 85.9461C134.692 84.2381 135.113 82.9349 135.956 82.0364C136.803 81.1332 138.015 80.6816 139.593 80.6816C141.17 80.6816 142.376 81.1356 143.209 82.0434C144.047 82.9512 144.466 84.2568 144.466 85.9602ZM136.974 85.9602C136.974 87.1067 137.191 87.9701 137.627 88.5503C138.062 89.1306 138.713 89.4207 139.579 89.4207C141.315 89.4207 142.184 88.2672 142.184 85.9602C142.184 83.6485 141.32 82.4926 139.593 82.4926C138.727 82.4926 138.074 82.7851 137.634 83.37C137.194 83.9503 136.974 84.8137 136.974 85.9602Z" fill="#132651"/>
<path d="M148.784 85.6721H149.5C150.169 85.6721 150.67 85.5411 151.002 85.279C151.335 85.0123 151.501 84.6262 151.501 84.1208C151.501 83.6107 151.361 83.234 151.08 82.9907C150.803 82.7474 150.368 82.6257 149.774 82.6257H148.784V85.6721ZM153.699 84.0436C153.699 85.148 153.352 85.9926 152.66 86.5776C151.971 87.1625 150.991 87.455 149.717 87.455H148.784V91.1051H146.607V80.8428H149.886C151.131 80.8428 152.077 81.1118 152.723 81.65C153.373 82.1835 153.699 82.9813 153.699 84.0436Z" fill="#132651"/>
<path d="M160.011 82.5063C159.192 82.5063 158.558 82.8152 158.108 83.4329C157.659 84.0459 157.434 84.9022 157.434 86.0019C157.434 88.2902 158.293 89.4344 160.011 89.4344C160.732 89.4344 161.605 89.2542 162.63 88.8939V90.7189C161.788 91.0699 160.847 91.2454 159.808 91.2454C158.314 91.2454 157.172 90.7938 156.381 89.8907C155.59 88.9828 155.194 87.6819 155.194 85.9879C155.194 84.921 155.389 83.9874 155.777 83.1872C156.166 82.3823 156.723 81.7669 157.448 81.3411C158.179 80.9106 159.033 80.6953 160.011 80.6953C161.008 80.6953 162.01 80.9363 163.016 81.4183L162.314 83.1872C161.93 83.0047 161.544 82.8456 161.156 82.7099C160.767 82.5742 160.386 82.5063 160.011 82.5063Z" fill="#132651"/>
<path d="M164.807 80.8428H166.766V85.7984L166.738 87.1251L166.668 88.6343H166.71L171.449 80.8428H174.054V91.1051H172.116V86.1775C172.116 85.5177 172.158 84.5396 172.243 83.2434H172.187L167.426 91.1051H164.807V80.8428Z" fill="#132651"/>
<path d="M185.071 91.1051H182.902V86.6758H178.836V91.1051H176.659V80.8428H178.836V84.8649H182.902V80.8428H185.071V91.1051Z" fill="#132651"/>
<path d="M194.157 80.8428V82.6397H189.846V91.1051H187.669V80.8428H194.157Z" fill="#132651"/>
<path d="M99.2446 102.069H100.101C101.44 102.069 102.474 102.341 103.205 102.883C103.935 103.426 104.3 104.194 104.3 105.186C104.3 107.324 102.886 108.394 100.059 108.394H97.0679V98.1313H103.556V99.9283H99.2446V102.069ZM99.2446 106.611H99.9748C100.71 106.611 101.248 106.494 101.59 106.26C101.931 106.021 102.102 105.663 102.102 105.186C102.102 104.713 101.929 104.374 101.583 104.168C101.236 103.957 100.642 103.852 99.7993 103.852H99.2446V106.611Z" fill="#132651"/>
<path d="M114.348 98.1313L111.174 105.389C110.776 106.302 110.402 106.957 110.051 107.355C109.704 107.753 109.292 108.05 108.815 108.246C108.337 108.438 107.757 108.534 107.073 108.534C106.488 108.534 105.943 108.464 105.437 108.323V106.456C105.849 106.625 106.362 106.709 106.975 106.709C107.364 106.709 107.677 106.62 107.916 106.442C108.155 106.26 108.354 105.946 108.513 105.502L104.96 98.1313H107.263L109.791 103.852H109.861L109.987 103.501L112.108 98.1313H114.348Z" fill="#132651"/>
<path d="M123.932 108.394H121.447L119.059 104.512L116.672 108.394H114.341L117.746 103.101L114.558 98.1313H116.96L119.172 101.824L121.341 98.1313H123.686L120.464 103.22L123.932 108.394Z" fill="#132651"/>
<path d="M131.726 98.1313V99.9283H127.415V108.394H125.238V98.1313H131.726Z" fill="#132651"/>
<path d="M139.584 108.393L138.839 105.951H135.097L134.353 108.393H132.007L135.63 98.0889H138.292L141.929 108.393H139.584ZM138.32 104.126C137.632 101.912 137.243 100.66 137.154 100.37C137.07 100.08 137.009 99.8507 136.972 99.6823C136.817 100.281 136.375 101.762 135.644 104.126H138.32Z" fill="#132651"/>
<path d="M151.338 108.394H149.168V99.9423H146.654L146.542 100.883C146.252 103.274 145.994 104.954 145.769 105.923C145.549 106.887 145.226 107.565 144.8 107.958C144.374 108.352 143.799 108.543 143.073 108.534C142.68 108.534 142.334 108.483 142.034 108.38V106.597C142.305 106.69 142.561 106.737 142.799 106.737C143.047 106.737 143.244 106.625 143.389 106.4C143.534 106.171 143.67 105.75 143.796 105.137C143.927 104.519 144.098 103.511 144.309 102.111C144.524 100.707 144.707 99.3808 144.857 98.1313H151.338V108.394Z" fill="#132651"/>
<path d="M157.902 108.394H155.726V99.9423H152.938V98.1313H160.69V99.9423H157.902V108.394Z" fill="#132651"/>
<path d="M168.196 108.394H162.284V98.1313H168.196V99.9143H164.461V102.167H167.936V103.95H164.461V106.597H168.196V108.394Z" fill="#132651"/>
<path d="M172.521 102.961H173.238C173.907 102.961 174.408 102.83 174.74 102.568C175.073 102.301 175.239 101.915 175.239 101.409C175.239 100.899 175.098 100.523 174.817 100.279C174.541 100.036 174.106 99.9143 173.511 99.9143H172.521V102.961ZM177.437 101.332C177.437 102.437 177.09 103.281 176.397 103.866C175.709 104.451 174.729 104.744 173.455 104.744H172.521V108.394H170.345V98.1313H173.624C174.869 98.1313 175.815 98.4004 176.461 98.9386C177.111 99.472 177.437 100.27 177.437 101.332Z" fill="#132651"/>
<path d="M183.749 99.7949C182.93 99.7949 182.295 100.104 181.846 100.721C181.397 101.334 181.172 102.191 181.172 103.291C181.172 105.579 182.031 106.723 183.749 106.723C184.47 106.723 185.343 106.543 186.368 106.182V108.008C185.525 108.358 184.584 108.534 183.545 108.534C182.052 108.534 180.91 108.082 180.119 107.179C179.328 106.271 178.932 104.97 178.932 103.276C178.932 102.21 179.126 101.276 179.515 100.476C179.903 99.6709 180.46 99.0555 181.186 98.6297C181.916 98.1992 182.771 97.9839 183.749 97.9839C184.746 97.9839 185.748 98.2249 186.754 98.7069L186.052 100.476C185.668 100.293 185.282 100.134 184.893 99.9984C184.505 99.8627 184.123 99.7949 183.749 99.7949Z" fill="#132651"/>
<path d="M196.914 108.394H194.443L190.721 103.192V108.394H188.545V98.1313H190.721V103.101L194.401 98.1313H196.718L192.975 103.059L196.914 108.394Z" fill="#132651"/>
<path d="M198.206 98.1313H200.165V103.087L200.137 104.414L200.067 105.923H200.109L204.849 98.1313H207.454V108.394H205.516V103.466C205.516 102.806 205.558 101.828 205.642 100.532H205.586L200.825 108.394H198.206V98.1313Z" fill="#132651"/>
<path d="M218.358 108.394H215.873L213.485 104.512L211.098 108.394H208.767L212.172 103.101L208.985 98.1313H211.386L213.598 101.824L215.767 98.1313H218.113L214.89 103.22L218.358 108.394Z" fill="#132651"/>
<path d="M106.451 115.417L103.277 122.675C102.879 123.588 102.505 124.243 102.154 124.64C101.807 125.038 101.395 125.335 100.918 125.532C100.44 125.724 99.8599 125.82 99.1765 125.82C98.5913 125.82 98.046 125.749 97.5404 125.609V123.742C97.9524 123.91 98.465 123.995 99.0782 123.995C99.4667 123.995 99.7803 123.906 100.019 123.728C100.258 123.545 100.457 123.232 100.616 122.787L97.063 115.417H99.3661L101.894 121.138H101.964L102.09 120.787L104.211 115.417H106.451Z" fill="#132651"/>
<path d="M112.096 117.081C111.277 117.081 110.643 117.389 110.193 118.007C109.744 118.62 109.519 119.476 109.519 120.576C109.519 122.864 110.378 124.009 112.096 124.009C112.817 124.009 113.69 123.828 114.715 123.468V125.293C113.873 125.644 112.932 125.82 111.892 125.82C110.399 125.82 109.257 125.368 108.466 124.465C107.675 123.557 107.279 122.256 107.279 120.562C107.279 119.495 107.474 118.562 107.862 117.761C108.251 116.957 108.808 116.341 109.533 115.915C110.263 115.485 111.118 115.27 112.096 115.27C113.093 115.27 114.095 115.511 115.101 115.993L114.399 117.761C114.015 117.579 113.629 117.42 113.241 117.284C112.852 117.148 112.471 117.081 112.096 117.081Z" fill="#132651"/>
<path d="M125.016 125.679H122.846V117.228H120.332L120.22 118.169C119.93 120.56 119.672 122.24 119.448 123.208C119.228 124.172 118.905 124.851 118.479 125.244C118.053 125.637 117.477 125.829 116.751 125.82C116.358 125.82 116.012 125.768 115.712 125.665V123.882C115.984 123.976 116.239 124.023 116.478 124.023C116.726 124.023 116.922 123.91 117.067 123.686C117.212 123.457 117.348 123.035 117.475 122.422C117.606 121.805 117.776 120.796 117.987 119.397C118.202 117.993 118.385 116.666 118.535 115.417H125.016V125.679Z" fill="#132651"/>
<path d="M135.717 115.417L132.543 122.675C132.145 123.588 131.771 124.243 131.419 124.64C131.073 125.038 130.661 125.335 130.184 125.532C129.706 125.724 129.126 125.82 128.442 125.82C127.857 125.82 127.312 125.749 126.806 125.609V123.742C127.218 123.91 127.731 123.995 128.344 123.995C128.733 123.995 129.046 123.906 129.285 123.728C129.524 123.545 129.723 123.232 129.882 122.787L126.329 115.417H128.632L131.16 121.138H131.23L131.356 120.787L133.477 115.417H135.717Z" fill="#132651"/>
<path d="M143.489 115.417V117.214H139.178V125.679H137.001V115.417H143.489Z" fill="#132651"/>
<path d="M96.7678 61.772H193.769V64.5692H96.7678V61.772Z" fill="#132651"/>
<path d="M96.7678 0H193.769V2.79722H96.7678V0Z" fill="#132651"/>
</svg>
