<svg width="140" height="153" viewBox="0 0 140 153" fill="none" xmlns="http://www.w3.org/2000/svg">
<path d="M0 118.557C0 115.773 0.576118 113.833 1.72835 112.735C2.88059 111.637 4.9281 111.088 7.8709 111.087H10.6248C13.5931 111.087 15.6459 111.629 16.783 112.712C17.9201 113.796 18.4887 115.744 18.4887 118.557V125.951C18.4887 128.742 17.9102 130.685 16.7533 131.78C15.5965 132.875 13.5536 133.422 10.6248 133.421H7.8709C4.93275 133.421 2.88757 132.874 1.73533 131.78C0.583096 130.686 0.00697769 128.743 0.00697769 125.951L0 118.557ZM9.89923 113.354H8.55282C7.01922 113.354 5.93558 113.437 5.30191 113.602C4.69864 113.752 4.13746 114.038 3.66076 114.437C3.21467 114.835 2.89868 115.359 2.75386 115.939C2.57829 116.569 2.48992 117.65 2.48876 119.183V125.362C2.48876 126.886 2.57713 127.958 2.75386 128.578C2.90146 129.153 3.21725 129.67 3.66076 130.064C4.13715 130.463 4.69849 130.748 5.30191 130.898C5.93558 131.065 7.01922 131.148 8.55282 131.147H9.89923C11.4328 131.147 12.5217 131.064 13.1658 130.898C13.7742 130.75 14.3405 130.465 14.8209 130.064C15.2543 129.68 15.5628 129.175 15.7069 128.615C15.8778 128.008 15.9633 126.923 15.9633 125.362V119.153C15.9633 117.621 15.8755 116.539 15.6999 115.909C15.5538 115.329 15.2373 114.806 14.7913 114.408C14.3188 114.016 13.7627 113.738 13.1658 113.595C12.531 113.434 11.4421 113.354 9.89923 113.354Z" fill="black"/>
<path d="M23.0444 133.158V111.357H32.8861C35.3371 111.357 37.023 111.721 37.9439 112.449C38.8647 113.177 39.3257 114.473 39.3269 116.337V119.633C39.3269 120.775 39.0943 121.67 38.6293 122.319C38.1642 122.968 37.459 123.375 36.5137 123.54C37.5485 123.784 38.2758 124.228 38.6955 124.872C39.1153 125.516 39.3251 126.531 39.3251 127.917V133.162H36.8032V128.662C36.8032 127.099 36.5568 126.042 36.0638 125.491C35.5708 124.94 34.6063 124.664 33.1704 124.663H25.439V133.158H23.0444ZM32.4013 113.665H25.439V122.394H32.3943C34.2116 122.394 35.4004 122.169 35.9609 121.719C36.5213 121.269 36.8021 120.464 36.8032 119.303V116.755C36.8032 115.575 36.5323 114.765 35.9905 114.324C35.4487 113.883 34.25 113.664 32.3943 113.665H32.4013Z" fill="black"/>
<path d="M41.7058 133.158L49.7598 111.357H53.7398L61.8391 133.158H59.3416L57.2627 127.577H46.2403L44.205 133.158H41.7058ZM47.0374 125.425H56.4831L52.1335 113.665H51.3574L47.0374 125.425Z" fill="black"/>
<path d="M63.5305 133.159V130.551L77.5457 113.519H64.1601V111.351H80.0938V113.899L66.1658 130.874H80.0938V133.159H63.5305Z" fill="black"/>
<path d="M84.311 133.158V111.357H94.4614C96.8031 111.357 98.3576 111.714 99.125 112.427C99.8924 113.139 100.275 114.593 100.274 116.787C100.274 118.475 100.087 119.659 99.711 120.338C99.3355 121.017 98.6739 121.482 97.7263 121.733C98.8785 122.026 99.6814 122.545 100.135 123.292C100.588 124.038 100.816 125.295 100.817 127.063C100.817 129.466 100.343 131.082 99.3953 131.911C98.4477 132.74 96.549 133.155 93.6993 133.156L84.311 133.158ZM86.6847 120.775H94.5504C95.8293 120.775 96.6886 120.543 97.1281 120.078C97.5676 119.613 97.7873 118.602 97.7873 117.047C97.7873 115.552 97.5548 114.615 97.0897 114.233C96.6246 113.852 95.4282 113.662 93.5004 113.663H86.6986L86.6847 120.775ZM86.6847 130.88H94.6358C96.081 130.88 97.0525 130.658 97.5501 130.214C98.0478 129.77 98.2972 128.615 98.2983 126.75C98.2983 125.177 98.0199 124.159 97.4629 123.697C96.906 123.234 95.4608 123.001 93.1272 122.999H86.6847V130.88Z" fill="black"/>
<path d="M102.985 133.158L111.039 111.357H115.008L123.107 133.158H120.617L118.538 127.577H107.509L105.473 133.158H102.985ZM108.314 125.425H117.762L113.412 113.665H112.636L108.314 125.425Z" fill="black"/>
<path d="M130.488 133.159H128.115V123.507L119.094 111.351H121.932L129.283 121.515L136.634 111.351H139.491L130.488 123.47V133.159Z" fill="black"/>
<path d="M0.350586 141.755C0.350586 139.737 0.737183 138.332 1.51038 137.541C2.28357 136.751 3.64742 136.355 5.60192 136.355H7.44363C9.38418 136.355 10.7463 136.696 11.5299 137.377C12.3136 138.059 12.7054 139.215 12.7054 140.845V141.542H10.9056V141.108C10.9056 139.915 10.662 139.101 10.1748 138.666C9.68765 138.231 8.73482 138.013 7.31632 138.011H6.09549C5.14324 138.011 4.44968 138.069 4.01483 138.185C3.6095 138.286 3.23635 138.489 2.93003 138.773C2.63174 139.057 2.42059 139.42 2.32136 139.819C2.20509 140.254 2.14696 141.046 2.14696 142.196V146.685C2.14696 147.828 2.20451 148.618 2.32136 149.05C2.42013 149.45 2.63135 149.813 2.93003 150.097C3.22559 150.375 3.58488 150.577 3.97646 150.685C4.39039 150.801 5.0944 150.859 6.08851 150.859H7.30934C8.76388 150.859 9.73125 150.629 10.2114 150.17C10.6916 149.711 10.9335 148.834 10.937 147.538C10.937 147.342 10.937 147.19 10.937 147.083C10.937 146.978 10.9282 146.879 10.9213 146.787H12.7107V147.833C12.7107 149.584 12.3316 150.805 11.5735 151.496C10.8155 152.186 9.44057 152.528 7.44887 152.521H5.60366C3.64916 152.521 2.28532 152.126 1.51212 151.335C0.738926 150.544 0.352329 149.141 0.352329 147.123L0.350586 141.755Z" fill="black"/>
<path d="M15.1609 141.755C15.1609 139.744 15.5777 138.341 16.4114 137.547C17.245 136.753 18.7234 136.355 20.8465 136.355H22.8365C24.9828 136.355 26.467 136.747 27.289 137.531C28.111 138.315 28.5221 139.723 28.5221 141.755V147.102C28.5221 149.121 28.1041 150.525 27.2681 151.314C26.4321 152.104 24.9549 152.499 22.8365 152.5H20.8465C18.7222 152.5 17.2439 152.105 16.4114 151.314C15.5789 150.524 15.1621 149.12 15.1609 147.102V141.755ZM22.3115 137.997H21.3366C20.2285 137.997 19.4454 138.055 18.9873 138.171C18.5513 138.279 18.1457 138.486 17.8014 138.774C17.4782 139.062 17.2496 139.441 17.1456 139.861C17.0183 140.314 16.9538 141.098 16.9538 142.205V146.673C16.9538 147.773 17.0177 148.548 17.1456 148.996C17.2519 149.412 17.4803 149.786 17.8014 150.071C18.1452 150.36 18.551 150.567 18.9873 150.674C19.4466 150.79 20.2297 150.849 21.3366 150.849H22.3115C23.4195 150.849 24.2067 150.79 24.6729 150.674C25.1128 150.568 25.5223 150.361 25.8694 150.071C26.1824 149.794 26.4054 149.429 26.5094 149.024C26.6327 148.587 26.6943 147.804 26.6943 146.675V142.189C26.6943 141.082 26.6309 140.301 26.5042 139.844C26.3984 139.424 26.1694 139.047 25.8467 138.759C25.5059 138.475 25.1042 138.274 24.6729 138.171C24.2195 138.055 23.4347 137.997 22.3185 137.997H22.3115Z" fill="black"/>
<path d="M31.8152 152.31V136.551H34.5045L43.0504 150.622V136.551H44.7944V152.315H42.0946L33.5488 138.225V152.315L31.8152 152.31Z" fill="black"/>
<path d="M48.1827 147.175H49.939V147.471C49.939 148.41 50.0099 149.102 50.1517 149.547C50.254 149.939 50.5039 150.277 50.8494 150.489C51.219 150.661 51.6177 150.764 52.0249 150.79C52.555 150.85 53.6457 150.88 55.2967 150.881C55.9986 150.9 56.7004 150.841 57.3896 150.707C57.8045 150.632 58.1877 150.435 58.49 150.142C58.653 149.933 58.7555 149.684 58.7865 149.421C58.8587 148.966 58.8908 148.506 58.8825 148.045C58.8825 146.873 58.7662 146.137 58.5336 145.837C58.3011 145.537 57.836 145.359 57.1384 145.304L52.2586 144.922C50.804 144.805 49.7983 144.442 49.2414 143.832C48.6844 143.221 48.4054 142.189 48.4042 140.736C48.3816 139.985 48.4751 139.236 48.6815 138.514C48.8479 137.978 49.1551 137.496 49.571 137.119C49.9558 136.806 50.4158 136.6 50.9052 136.521C51.4749 136.404 52.4841 136.346 53.9328 136.346H54.4927C56.11 136.346 57.2483 136.424 57.9075 136.58C58.5165 136.711 59.0849 136.986 59.5644 137.384C59.8897 137.672 60.1232 138.049 60.2358 138.469C60.3942 139.039 60.4676 139.63 60.4538 140.221C60.4538 140.425 60.4538 140.582 60.4538 140.692C60.4538 140.802 60.4451 140.898 60.4381 140.984H58.6732V140.591C58.6841 140.147 58.6508 139.702 58.5738 139.264C58.532 139.01 58.4196 138.773 58.2494 138.58C58.0314 138.362 57.6407 138.209 57.0809 138.12C56.521 138.031 55.4554 137.987 53.8875 137.987C52.2597 137.987 51.24 138.171 50.8284 138.538C50.4168 138.906 50.2087 139.64 50.2041 140.739C50.2041 141.643 50.3401 142.266 50.6122 142.609C50.8842 142.952 51.4075 143.155 52.1818 143.218L57.1367 143.629C58.4366 143.746 59.347 144.104 59.8679 144.705C60.3887 145.307 60.6498 146.314 60.6509 147.728C60.6509 148.758 60.5841 149.532 60.4504 150.051C60.3294 150.59 60.0575 151.083 59.6665 151.473C59.2755 151.863 58.7816 152.134 58.2424 152.254C57.5971 152.427 56.4204 152.513 54.7124 152.512H53.9311C52.4766 152.512 51.4476 152.438 50.8441 152.29C50.2842 152.164 49.7652 151.898 49.3355 151.518C48.9226 151.149 48.6206 150.672 48.4635 150.142C48.2588 149.426 48.1647 148.683 48.1845 147.939L48.1827 147.175Z" fill="black"/>
<path d="M63.9248 136.551H65.6828V146.895C65.6828 147.912 65.7374 148.621 65.8467 149.022C65.9379 149.395 66.1347 149.734 66.4136 149.997C66.7018 150.255 67.0484 150.438 67.4234 150.531C67.8164 150.635 68.4925 150.686 69.4517 150.685H71.1033C72.0695 150.685 72.7503 150.633 73.1456 150.531C73.5229 150.439 73.872 150.255 74.1624 149.997C74.4358 149.736 74.6273 149.401 74.7135 149.033C74.8181 148.632 74.871 147.919 74.8722 146.895V136.551H76.6285V147.102C76.6285 149.113 76.2314 150.515 75.4373 151.309C74.6431 152.103 73.2404 152.5 71.2289 152.5H69.3244C67.3117 152.5 65.9089 152.103 65.116 151.309C64.323 150.515 63.926 149.113 63.9248 147.102V136.551Z" fill="black"/>
<path d="M80.2927 152.31V136.551H82.0071V150.664H90.9419V152.315L80.2927 152.31Z" fill="black"/>
<path d="M87.5024 138.22V136.551H99.3062V138.225H94.2659V152.315H92.5218V138.22H87.5024Z" fill="black"/>
<path d="M100.969 152.31V136.551H102.725V152.315L100.969 152.31Z" fill="black"/>
<path d="M106.537 152.31V136.551H109.227L117.773 150.622V136.551H119.517V152.315H116.817L108.271 138.225V152.315L106.537 152.31Z" fill="black"/>
<path d="M122.734 141.755C122.734 139.744 123.151 138.341 123.985 137.547C124.818 136.753 126.293 136.355 128.409 136.355H130.41C132.351 136.355 133.783 136.686 134.704 137.346C135.624 138.007 136.085 139.035 136.085 140.431V141.099H134.285V140.911C134.285 139.824 134.009 139.068 133.458 138.644C132.907 138.219 131.856 138.004 130.303 137.997H128.908C127.829 137.997 127.053 138.055 126.58 138.171C126.136 138.276 125.723 138.483 125.373 138.774C125.059 139.051 124.836 139.416 124.733 139.821C124.61 140.264 124.548 141.053 124.548 142.189V146.679C124.548 147.806 124.61 148.589 124.735 149.028C124.838 149.433 125.061 149.798 125.375 150.074C125.718 150.364 126.124 150.57 126.561 150.678C127.02 150.794 127.803 150.852 128.91 150.852H130.305C131.306 150.852 132.015 150.799 132.433 150.692C132.829 150.597 133.198 150.413 133.512 150.154C133.807 149.894 134.016 149.55 134.111 149.169C134.227 148.754 134.285 148.041 134.285 147.031V146.058H129.913V144.458H136.085V147.102C136.085 149.121 135.669 150.525 134.836 151.314C134.004 152.104 132.528 152.499 130.41 152.5H128.409C126.292 152.5 124.817 152.105 123.985 151.314C123.152 150.524 122.735 149.12 122.734 147.102V141.755Z" fill="black"/>
<path d="M133.292 105.264L91.6533 30.8921L65.5833 77.4565L81.1524 105.264H133.292Z" fill="#0064AA"/>
<path d="M75.6726 105.264L62.8434 82.3506L50.0142 105.264H75.6726Z" fill="#0064AA"/>
<path d="M61.5267 0L2.99463 105.264H43.9554L82.0071 36.5797L61.5267 0Z" fill="#0064AA"/>
</svg>
