<svg width="123" height="50" viewBox="0 0 123 50" fill="none" xmlns="http://www.w3.org/2000/svg">
<g clip-path="url(#clip0)">
<path d="M26.6395 19.0743C27.9995 17.6928 28.8424 15.7732 28.8424 13.6537C28.8424 9.14194 25.0281 5.54272 20.5268 6.06988C17.2084 6.45889 14.4991 9.16739 14.0387 12.563C13.6845 15.1915 14.6337 17.6019 16.3194 19.2161C17.86 20.6958 18.8198 22.7063 18.8198 24.8731V25.3929H18.5506C18.1894 25.3929 17.899 25.6911 17.899 26.0619C17.899 26.4327 18.1894 26.7308 18.5506 26.7308H24.7058C25.0671 26.7308 25.3575 26.4327 25.3575 26.0619C25.3575 25.6911 25.0671 25.3929 24.7058 25.3929H24.3446V24.5349C24.3481 22.4663 25.2087 20.5249 26.6395 19.0743Z" fill="#242B5A"/>
<path d="M24.7094 27.258H18.5506C18.1894 27.258 17.899 27.5561 17.899 27.9269C17.899 28.2978 18.1894 28.5959 18.5506 28.5959H24.7058C25.0671 28.5959 25.3575 28.2978 25.3575 27.9269C25.361 27.5561 25.0706 27.258 24.7094 27.258Z" fill="#242B5A"/>
<path d="M18.5506 30.4609H24.7058C25.0671 30.4609 25.3575 30.1628 25.3575 29.792C25.3575 29.4211 25.0671 29.123 24.7058 29.123H18.5506C18.1894 29.123 17.899 29.4211 17.899 29.792C17.899 30.1628 18.1929 30.4609 18.5506 30.4609Z" fill="#242B5A"/>
<path d="M36.8046 14.7796C36.7267 10.835 35.0303 7.09034 32.151 4.51272C28.6165 1.34614 24.1506 -0.242603 19.5891 0.0300647C16.6921 0.204572 13.9581 1.13528 11.4542 2.79673C7.78515 5.22893 5.42294 9.44256 5.13253 14.0743L5.12191 14.2415C5.06524 15.1322 4.98733 16.0338 4.88816 16.9209C4.79254 17.7826 4.62255 18.5533 4.36756 19.2731C4.02049 20.262 3.56717 21.2073 3.02177 22.0907C2.32763 23.2105 1.47765 24.2212 0.503729 25.101L0.401024 25.2137C0.266446 25.3918 -0.151457 26.028 0.0610358 26.8279C0.23103 27.4677 0.705597 27.7876 0.861425 27.8931C1.16246 28.0967 1.56265 28.2203 2.04784 28.2566C2.39846 28.2821 2.75261 28.2603 3.10677 28.1912C3.09968 28.3912 3.03948 28.6856 2.98989 28.7947C2.91198 28.9474 2.79511 29.0419 2.71011 29.0928L2.45866 29.2491L2.36658 29.5364C2.20013 30.0453 2.29929 30.4198 2.40908 30.6452C2.53658 30.9033 2.74907 31.1069 3.02177 31.2414C2.98281 31.3541 2.95448 31.4741 2.93323 31.5941C2.80219 32.4194 3.30155 33.2228 4.11965 33.4991C4.24006 33.5391 4.34985 33.6046 4.44193 33.6918C4.54463 33.7863 4.59067 33.9245 4.56943 34.0554C4.53401 34.288 4.48089 34.5244 4.4136 34.7498C4.33214 35.0297 4.22589 35.3024 4.0984 35.5641C3.73362 36.324 3.79737 37.2438 4.28256 37.9709C5.31669 39.5233 7.2185 39.5451 7.56557 39.5342H10.0022C12.7752 39.5342 15.3499 40.9993 16.724 43.3624L16.7594 43.4206C18.2363 46.0019 18.2752 48.5649 18.169 49.8628L19.7485 50.001C19.8724 48.514 19.8229 45.5729 18.1265 42.6026L18.0804 42.5226C16.4265 39.676 13.3312 37.9091 10.0022 37.9091H7.54432C7.48766 37.9091 6.18437 37.9418 5.58585 37.0438C5.43356 36.8111 5.40877 36.5203 5.5221 36.284C5.68501 35.9422 5.82313 35.5859 5.93292 35.2224C6.02146 34.9279 6.08875 34.6225 6.13833 34.3171C6.24812 33.6373 6.01438 32.9538 5.50439 32.4775C5.2494 32.2412 4.95191 32.0631 4.61901 31.9504C4.54109 31.9249 4.50214 31.8704 4.50214 31.8486C4.53401 31.6595 4.65088 31.5214 4.74296 31.4414C5.04045 31.1796 5.13607 30.7543 4.98733 30.3834C4.85629 30.0635 4.56943 29.8454 4.24006 29.8127C4.29673 29.7327 4.34631 29.6454 4.39589 29.5509C4.54818 29.2528 4.88462 28.1403 4.55172 27.3841C4.4136 27.0714 4.19756 26.7988 3.92486 26.5952L3.59196 26.348L3.20239 26.4861C2.85532 26.6097 2.50824 26.657 2.16826 26.6315C1.84952 26.6061 1.73973 26.5334 1.73619 26.5334C1.69015 26.5007 1.60515 26.4461 1.59453 26.3989C1.5839 26.3625 1.60869 26.3007 1.63348 26.2534C2.68886 25.29 3.60612 24.1848 4.36402 22.9669C4.9767 21.9853 5.4796 20.9273 5.86563 19.8257C6.15604 18.9968 6.35791 18.0843 6.46769 17.11C6.5704 16.1974 6.65185 15.2667 6.70852 14.3469L6.7156 14.1797C6.97414 10.0606 9.06719 6.31597 12.3148 4.16371C14.5849 2.65858 17.064 1.81513 19.6847 1.65516C23.8319 1.40067 27.8905 2.8549 31.1133 5.74155C33.6562 8.02105 35.1542 11.3258 35.2215 14.8123L35.2251 15.0195C35.2605 17.7498 34.584 20.5783 33.2701 23.1996C32.6787 24.3775 32.1297 25.599 31.641 26.8242C30.7946 28.9474 30.0969 31.1542 29.5657 33.3864C29.1938 34.9534 27.9755 36.1531 26.5306 36.3676C25.9852 36.4512 25.4398 36.4112 24.9156 36.2476C23.2688 35.7423 22.1532 34.1354 22.1992 32.3467L21.4024 32.3248H23.1378C23.499 32.3248 23.7894 32.0267 23.7894 31.6559C23.7894 31.2851 23.499 30.987 23.1378 30.987H20.1699C19.8087 30.987 19.5183 31.2851 19.5183 31.6559C19.5183 32.0267 19.8087 32.3248 20.1699 32.3248H20.6162C20.5595 34.8407 22.1355 37.0911 24.4623 37.8073C25.2096 38.0363 25.9852 38.0945 26.7608 37.9782C28.8361 37.6691 30.5821 35.975 31.1062 33.7718C31.6162 31.6195 32.2891 29.4891 33.1072 27.4423C33.5782 26.2607 34.1095 25.0828 34.6797 23.9448C36.114 21.0873 36.8506 17.9934 36.8117 14.9941L36.8046 14.7796Z" fill="#242B5A"/>
<path d="M53.5942 6.62969L57.0791 16.0385H54.9719L54.253 13.9408H50.846L50.0987 16.0385H48.0411L51.526 6.62969H53.5942ZM53.7607 12.4357L52.553 8.93828L51.3312 12.4357H53.7607Z" fill="#E52722"/>
<path d="M65.3061 6.64066V7.40776H62.0939V16.0386H61.2192V7.40776H58.007V6.64066H65.3061Z" fill="#242C5A"/>
<path d="M70.8982 6.61521L74.5496 16.0386H73.5863L72.4813 13.0829H68.2917L67.1725 16.0386H66.234L69.9349 6.61521H70.8982ZM72.2086 12.3558L70.4095 7.45866L68.5573 12.3558H72.2086Z" fill="#242C5A"/>
<path d="M85.3725 6.64066V16.0386H84.5367V10.3635C84.5367 9.44732 84.5721 8.46208 84.6394 7.40776C84.4588 7.98945 84.2569 8.5566 84.0338 9.10921L81.3352 16.0386H80.5525L77.8149 9.18919C77.6272 8.72384 77.4253 8.14578 77.2093 7.45866C77.2766 8.48753 77.312 9.44732 77.312 10.3344V16.035H76.4762V6.64066H77.659L80.3187 13.3446C80.4037 13.5664 80.6162 14.1554 80.9491 15.1115C80.9916 14.9988 81.0837 14.7334 81.2183 14.319C81.3564 13.9045 81.4662 13.5882 81.5512 13.3701L84.1755 6.64066H85.3725Z" fill="#242C5A"/>
<path d="M94.6691 6.64066V7.40776H89.1939V10.7997H94.322V11.5523H89.1939V15.2715H94.7222V16.0386H88.3191V6.64066H94.6691Z" fill="#242C5A"/>
<path d="M104.398 6.64066L100.272 10.4798L104.603 16.035H103.484L99.6556 11.0906L97.9061 12.7266V16.0386H97.0455V6.64066H97.9061V11.6941L103.24 6.64066H104.398Z" fill="#242C5A"/>
<path d="M112.858 6.64066V7.40776H107.38V10.7997H112.508V11.5523H107.38V15.2715H112.908V16.0386H106.505V6.64066H112.858Z" fill="#242C5A"/>
<path d="M122.449 6.64066V16.0386H121.486L117.229 9.73089C116.662 8.88744 116.262 8.21849 116.021 7.72406C116.064 8.34937 116.085 9.0983 116.085 9.9672V16.0386H115.235V6.64066H116.198L120.48 13.0138C120.958 13.7264 121.358 14.3808 121.677 14.9807C121.634 13.5991 121.613 12.7739 121.613 12.5012V6.64066H122.449Z" fill="#242C5A"/>
<path d="M49.0292 20.205H53.3605C54.2175 20.205 54.9188 20.4013 55.4606 20.7939C56.006 21.1866 56.2787 21.7755 56.2787 22.5681C56.2787 23.008 56.1689 23.397 55.9458 23.7351C55.7227 24.0732 55.4181 24.3313 55.0321 24.5059C56.1477 24.8331 56.7037 25.5965 56.7037 26.8035C56.7037 27.6906 56.4133 28.3814 55.8289 28.8685C55.2446 29.3557 54.5044 29.5993 53.6049 29.5993H49.0292V20.205ZM50.9841 21.801V24.0041H52.808C53.8209 24.0041 54.3238 23.6406 54.3238 22.9098C54.3238 22.4772 54.1857 22.1864 53.913 22.0337C53.6403 21.881 53.2719 21.801 52.808 21.801H50.9841ZM50.9841 25.4038V27.9633H53.0028C53.5269 27.9633 53.9378 27.876 54.2423 27.6979C54.5469 27.5234 54.6992 27.1816 54.6992 26.6799C54.6992 26.1709 54.5398 25.8292 54.2175 25.6583C53.8953 25.4875 53.4561 25.4002 52.9001 25.4002H50.9841V25.4038Z" fill="#E52722"/>
<path d="M66.2942 20.205V26.0764C66.2942 27.2907 66.0003 28.2141 65.4124 28.8467C64.8245 29.4793 63.9462 29.7956 62.7704 29.7956C61.5698 29.7956 60.6667 29.4793 60.0646 28.8467C59.459 28.2141 59.158 27.2798 59.158 26.0473V20.205H60.0328V25.8256C60.0328 26.909 60.2311 27.7161 60.6313 28.2469C61.0315 28.7776 61.7469 29.0467 62.7845 29.0467C63.3158 29.0467 63.7585 28.9703 64.1091 28.8213C64.4597 28.6722 64.7288 28.4468 64.9201 28.1487C65.1078 27.8506 65.2388 27.5161 65.3132 27.1453C65.3876 26.7744 65.423 26.3309 65.423 25.811V20.205H66.2942Z" fill="#242C5A"/>
<path d="M75.5624 22.9098H74.7125C74.677 22.2154 74.4362 21.6847 73.9864 21.3211C73.5367 20.9575 72.9311 20.7721 72.1661 20.7721C71.4472 20.7721 70.884 20.9248 70.4803 21.2338C70.0766 21.5429 69.8747 21.9791 69.8747 22.539C69.8747 22.7426 69.8995 22.9207 69.9455 23.0734C69.9916 23.2261 70.0766 23.3607 70.2041 23.477C70.328 23.5933 70.4449 23.6879 70.5511 23.7606C70.6574 23.8369 70.8309 23.9096 71.0717 23.986C71.3126 24.0623 71.5038 24.1169 71.649 24.1568C71.7942 24.1968 72.0244 24.2514 72.3432 24.3204C72.6867 24.4004 72.9629 24.4659 73.179 24.5168C73.3915 24.5713 73.6358 24.6404 73.9121 24.7276C74.1848 24.8149 74.4079 24.9021 74.5743 24.993C74.7408 25.0803 74.9143 25.1893 75.0949 25.3239C75.2756 25.4547 75.4137 25.6002 75.5058 25.7601C75.5978 25.9201 75.6793 26.1055 75.743 26.32C75.8068 26.5345 75.8387 26.7745 75.8387 27.0399C75.8387 27.6833 75.6651 28.2178 75.3181 28.6504C74.971 29.083 74.5495 29.3812 74.0502 29.5484C73.5544 29.7156 73.0019 29.7992 72.3927 29.7992C71.2524 29.7992 70.3599 29.512 69.7118 28.9413C69.0637 28.3705 68.7414 27.5815 68.7414 26.5781V26.4981H69.5772C69.5772 27.3525 69.8322 27.9924 70.3422 28.425C70.8522 28.8576 71.5569 29.0721 72.4565 29.0721C73.2463 29.0721 73.866 28.9013 74.3193 28.5559C74.7727 28.2141 74.9993 27.7379 74.9993 27.1307C74.9993 26.5418 74.7833 26.1201 74.3512 25.8692C73.9192 25.6183 73.1011 25.3493 71.9005 25.0585C71.5144 24.9712 71.2311 24.8985 71.047 24.8476C70.8628 24.7931 70.6149 24.7022 70.3068 24.5713C69.9987 24.4404 69.7685 24.295 69.6197 24.1423C69.471 23.9896 69.3364 23.7787 69.216 23.517C69.0956 23.2516 69.0354 22.9462 69.0354 22.5935C69.0354 21.801 69.3187 21.1757 69.8889 20.714C70.4591 20.2522 71.2382 20.0196 72.2227 20.0196C73.2179 20.0196 74.0112 20.2631 74.6027 20.7503C75.2047 21.2411 75.5199 21.961 75.5624 22.9098Z" fill="#242C5A"/>
<path d="M79.3306 20.205V29.6029H78.4559V20.205H79.3306Z" fill="#242C5A"/>
<path d="M89.5622 20.205V29.6029H88.5989L84.3455 23.2952C83.7788 22.4518 83.3786 21.7828 83.1378 21.2884C83.1803 21.9137 83.2016 22.6626 83.2016 23.5315V29.6029H82.3516V20.205H83.3149L87.5966 26.5781C88.0747 27.2907 88.4749 27.9451 88.7937 28.545C88.7512 27.1635 88.7299 26.3382 88.7299 26.0655V20.205H89.5622Z" fill="#242C5A"/>
<path d="M98.8835 20.205V20.9721H93.4083V24.3641H98.5364V25.1166H93.4083V28.8395H98.9366V29.6066H92.5335V20.205H98.8835Z" fill="#242C5A"/>
<path d="M107.663 22.9098H106.813C106.778 22.2154 106.537 21.6847 106.087 21.3211C105.637 20.9575 105.032 20.7721 104.267 20.7721C103.548 20.7721 102.985 20.9248 102.581 21.2338C102.177 21.5429 101.975 21.9791 101.975 22.539C101.975 22.7426 102 22.9207 102.046 23.0734C102.092 23.2261 102.177 23.3607 102.305 23.477C102.429 23.5933 102.545 23.6879 102.652 23.7606C102.758 23.8369 102.931 23.9096 103.172 23.986C103.413 24.0623 103.604 24.1169 103.75 24.1568C103.895 24.1968 104.125 24.2514 104.444 24.3204C104.787 24.4004 105.064 24.4659 105.28 24.5168C105.492 24.5713 105.736 24.6404 106.013 24.7276C106.285 24.8149 106.508 24.9021 106.675 24.993C106.841 25.0803 107.015 25.1893 107.196 25.3239C107.376 25.4547 107.511 25.6002 107.606 25.7601C107.702 25.9201 107.78 26.1055 107.844 26.32C107.907 26.5345 107.939 26.7745 107.939 27.0399C107.939 27.6833 107.766 28.2178 107.419 28.6504C107.072 29.083 106.65 29.3812 106.151 29.5484C105.655 29.7156 105.102 29.7992 104.493 29.7992C103.353 29.7992 102.46 29.512 101.812 28.9413C101.164 28.3705 100.842 27.5815 100.842 26.5781V26.4981H101.678C101.678 27.3525 101.933 27.9924 102.443 28.425C102.953 28.8576 103.658 29.0721 104.557 29.0721C105.347 29.0721 105.967 28.9013 106.42 28.5559C106.873 28.2141 107.1 27.7379 107.1 27.1307C107.1 26.5418 106.884 26.1201 106.452 25.8692C106.02 25.6183 105.202 25.3493 104.005 25.0585C103.619 24.9712 103.335 24.8985 103.151 24.8476C102.967 24.7931 102.719 24.7022 102.411 24.5713C102.103 24.4404 101.873 24.295 101.724 24.1423C101.575 23.9896 101.441 23.7787 101.32 23.517C101.2 23.2516 101.139 22.9462 101.139 22.5935C101.139 21.801 101.423 21.1757 101.993 20.714C102.563 20.2522 103.342 20.0196 104.327 20.0196C105.322 20.0196 106.115 20.2631 106.707 20.7503C107.305 21.2411 107.621 21.961 107.663 22.9098Z" fill="#242C5A"/>
<path d="M116.882 22.9098H116.032C115.996 22.2154 115.755 21.6847 115.306 21.3211C114.856 20.9575 114.25 20.7721 113.485 20.7721C112.766 20.7721 112.203 20.9248 111.8 21.2338C111.396 21.5429 111.194 21.9791 111.194 22.539C111.194 22.7426 111.219 22.9207 111.265 23.0734C111.311 23.2261 111.399 23.3607 111.523 23.477C111.647 23.5933 111.764 23.6879 111.87 23.7606C111.977 23.8369 112.15 23.9096 112.391 23.986C112.632 24.0623 112.823 24.1169 112.968 24.1568C113.113 24.1968 113.344 24.2514 113.662 24.3204C114.006 24.4004 114.282 24.4659 114.498 24.5168C114.711 24.5713 114.955 24.6404 115.231 24.7276C115.504 24.8149 115.727 24.9021 115.894 24.993C116.06 25.0803 116.234 25.1893 116.414 25.3239C116.595 25.4547 116.729 25.6002 116.825 25.7601C116.921 25.9201 116.999 26.1055 117.062 26.32C117.126 26.5345 117.158 26.7745 117.158 27.0399C117.158 27.6833 116.984 28.2178 116.637 28.6504C116.29 29.083 115.869 29.3812 115.369 29.5484C114.874 29.7156 114.321 29.7992 113.712 29.7992C112.572 29.7992 111.679 29.512 111.031 28.9413C110.383 28.3705 110.061 27.5815 110.061 26.5781V26.4981H110.896C110.896 27.3525 111.151 27.9924 111.661 28.425C112.171 28.8576 112.876 29.0721 113.776 29.0721C114.565 29.0721 115.185 28.9013 115.639 28.5559C116.092 28.2141 116.319 27.7379 116.319 27.1307C116.319 26.5418 116.103 26.1201 115.67 25.8692C115.238 25.6183 114.42 25.3493 113.22 25.0585C112.834 24.9712 112.55 24.8985 112.366 24.8476C112.182 24.7931 111.934 24.7022 111.626 24.5713C111.318 24.4404 111.088 24.295 110.939 24.1423C110.79 23.9896 110.656 23.7787 110.535 23.517C110.415 23.2516 110.355 22.9462 110.355 22.5935C110.355 21.801 110.638 21.1757 111.208 20.714C111.778 20.2522 112.554 20.0196 113.542 20.0196C114.537 20.0196 115.33 20.2631 115.922 20.7503C116.52 21.2411 116.839 21.961 116.882 22.9098Z" fill="#242C5A"/>
<path d="M57.2208 39.5353C57.1181 40.7132 56.7143 41.6512 56.0131 42.3456C55.3119 43.04 54.345 43.389 53.1197 43.389C51.7916 43.389 50.722 42.9382 49.911 42.0366C49.1 41.135 48.6963 39.9389 48.6963 38.4519C48.6963 37.0449 49.1071 35.8743 49.9252 34.9399C50.7433 34.0092 51.8341 33.5402 53.1976 33.5402C54.2848 33.5402 55.1986 33.8565 55.9352 34.4891C56.6718 35.1217 57.0791 35.9288 57.157 36.9031H55.1915C55.0888 36.3833 54.8586 35.9833 54.5044 35.6961C54.1503 35.4089 53.7005 35.2671 53.1622 35.2671C52.6061 35.2671 52.1351 35.4271 51.7562 35.747C51.3737 36.067 51.1081 36.4632 50.9522 36.9286C50.7964 37.394 50.722 37.9066 50.722 38.4592C50.722 39.4262 50.9416 40.2006 51.3772 40.775C51.8128 41.3531 52.4007 41.6403 53.1374 41.6403C54.3627 41.6403 55.0604 40.935 55.234 39.528H57.2208V39.5353Z" fill="#E52722"/>
<path d="M65.7559 42.4001V43.1672H59.7388V33.7693H60.6136V42.4001H65.7559Z" fill="#242C5A"/>
<path d="M74.7939 33.7693V39.6407C74.7939 40.855 74.5 41.7784 73.9121 42.411C73.3242 43.0436 72.4459 43.3599 71.2701 43.3599C70.0695 43.3599 69.1664 43.0436 68.5644 42.411C67.9588 41.7784 67.6577 40.8441 67.6577 39.6116V33.7693H68.5325V39.3899C68.5325 40.4733 68.7308 41.2804 69.131 41.8112C69.5312 42.342 70.2466 42.611 71.2843 42.611C71.8155 42.611 72.2582 42.5346 72.6088 42.3856C72.9594 42.2365 73.2286 42.0111 73.4198 41.713C73.6075 41.4149 73.7385 41.0804 73.8129 40.7096C73.8873 40.3388 73.9227 39.8952 73.9227 39.3753V33.7693H74.7939Z" fill="#242C5A"/>
<path d="M77.6732 33.7693H81.5937C82.4153 33.7693 83.0988 33.962 83.6442 34.351C84.1896 34.7364 84.4623 35.3289 84.4623 36.1179C84.4623 36.6196 84.3101 37.0631 84.0055 37.4521C83.7009 37.8375 83.3255 38.0847 82.8793 38.1901C83.4459 38.3028 83.9099 38.5464 84.2746 38.9173C84.6394 39.2881 84.82 39.8043 84.82 40.4733C84.82 41.3458 84.5261 42.0111 83.9382 42.4728C83.3503 42.9346 82.6101 43.1672 81.7212 43.1672H77.6732V33.7693ZM78.5196 34.5364V37.9284H81.4237C82.0328 37.9284 82.5464 37.7975 82.9678 37.5321C83.3893 37.2667 83.5982 36.8377 83.5982 36.2378C83.5982 35.8852 83.5309 35.5907 83.3999 35.3544C83.2653 35.1181 83.0776 34.9399 82.8261 34.8272C82.5782 34.7145 82.3268 34.6346 82.0753 34.5946C81.8239 34.5546 81.5299 34.5364 81.1935 34.5364H78.5196ZM78.5196 38.6519V42.4001H81.2572C81.6256 42.4001 81.9478 42.3783 82.2276 42.3347C82.5074 42.2911 82.7836 42.2038 83.0634 42.0766C83.3432 41.9493 83.5592 41.753 83.7115 41.484C83.8674 41.2149 83.9417 40.8841 83.9417 40.4878C83.9417 40.1097 83.8638 39.7898 83.7045 39.5317C83.5451 39.2735 83.322 39.0845 83.028 38.9645C82.7376 38.8445 82.4507 38.7646 82.1674 38.7209C81.8841 38.6773 81.5618 38.6555 81.2041 38.6555H78.5196V38.6519Z" fill="#242C5A"/>
<path d="M122.449 47.6681H48.0411V50.0021H122.449V47.6681Z" fill="#242B5A"/>
<path d="M122.449 0.00210953H48.0411V2.33615H122.449V0.00210953Z" fill="#242B5A"/>
</g>
<defs>
<clipPath id="clip0">
<rect width="122.449" height="50" fill="white"/>
</clipPath>
</defs>
</svg>
