<svg width="294" height="121" viewBox="0 0 294 121" fill="none" xmlns="http://www.w3.org/2000/svg">
<g clip-path="url(#clip0)">
<path d="M63.9615 46.0347C67.2267 42.7005 69.2505 38.0678 69.2505 32.9524C69.2505 22.0636 60.0925 13.3771 49.2849 14.6494C41.3173 15.5882 34.8123 22.125 33.7069 30.3201C32.8566 36.6639 35.1355 42.4812 39.183 46.3769C42.8819 49.948 45.1863 54.8002 45.1863 60.0296V61.2843H44.5401C43.6727 61.2843 42.9755 62.0038 42.9755 62.8988C42.9755 63.7937 43.6727 64.5132 44.5401 64.5132H59.3187C60.186 64.5132 60.8833 63.7937 60.8833 62.8988C60.8833 62.0038 60.186 61.2843 59.3187 61.2843H58.4514V59.2136C58.4599 54.2211 60.5262 49.5356 63.9615 46.0347Z" fill="#242B5A"/>
<path d="M59.3272 65.7852H44.5401C43.6727 65.7852 42.9755 66.5046 42.9755 67.3996C42.9755 68.2946 43.6727 69.0141 44.5401 69.0141H59.3187C60.1861 69.0141 60.8833 68.2946 60.8833 67.3996C60.8918 66.5046 60.1945 65.7852 59.3272 65.7852Z" fill="#242B5A"/>
<path d="M44.5401 73.5155H59.3187C60.1861 73.5155 60.8833 72.796 60.8833 71.9011C60.8833 71.0061 60.1861 70.2866 59.3187 70.2866H44.5401C43.6727 70.2866 42.9755 71.0061 42.9755 71.9011C42.9755 72.796 43.6812 73.5155 44.5401 73.5155Z" fill="#242B5A"/>
<path d="M88.3673 35.6695C88.1802 26.1495 84.1071 17.1121 77.194 10.8912C68.7077 3.24883 57.9851 -0.585497 47.033 0.0725684C40.0773 0.49373 33.5128 2.73993 27.501 6.74974C18.6916 12.6197 13.0199 22.789 12.3227 33.9673L12.2972 34.3709C12.1611 36.5206 11.974 38.6966 11.7359 40.8375C11.5064 42.917 11.0982 44.7771 10.486 46.5144C9.65265 48.901 8.56423 51.1823 7.25473 53.3144C5.58809 56.0169 3.54731 58.4561 1.20891 60.5795L0.962319 60.8515C0.639195 61.2814 -0.364189 62.8169 0.146006 64.7472C0.554163 66.2915 1.6936 67.0636 2.06774 67.3181C2.79052 67.8094 3.75139 68.1078 4.91633 68.1955C5.75815 68.2569 6.60848 68.2043 7.45881 68.0376C7.4418 68.5201 7.29724 69.2309 7.1782 69.4941C6.99113 69.8626 6.71052 70.0907 6.50644 70.2136L5.90271 70.5909L5.68163 71.284C5.28197 72.5124 5.52006 73.4162 5.78366 73.9602C6.08978 74.5831 6.59998 75.0745 7.25473 75.3991C7.16119 75.6711 7.09316 75.9607 7.04215 76.2502C6.72753 78.242 7.92648 80.1811 9.89074 80.8479C10.1798 80.9444 10.4434 81.1023 10.6645 81.3129C10.9111 81.5411 11.0217 81.8745 10.9706 82.1904C10.8856 82.7519 10.7581 83.3222 10.5965 83.8662C10.4009 84.5418 10.1458 85.1999 9.83972 85.8316C8.96388 87.6655 9.11694 89.8853 10.2819 91.6402C12.7648 95.3868 17.3311 95.4394 18.1644 95.4131H24.0146C30.6727 95.4131 36.8546 98.9491 40.1538 104.652L40.2389 104.793C43.7847 111.022 43.8782 117.208 43.6231 120.341L47.4156 120.674C47.7132 117.085 47.5942 109.987 43.5211 102.819L43.4106 102.625C39.4395 95.7553 32.0077 91.491 24.0146 91.491H18.1134C17.9773 91.491 14.8481 91.57 13.4111 89.4027C13.0454 88.8412 12.9859 88.1393 13.258 87.5689C13.6492 86.7442 13.9808 85.8843 14.2444 85.0069C14.457 84.2962 14.6185 83.5591 14.7376 82.8221C15.0012 81.1813 14.44 79.5318 13.2155 78.3823C12.6033 77.812 11.889 77.3821 11.0897 77.1101C10.9026 77.0487 10.8091 76.9171 10.8091 76.8644C10.8856 76.4081 11.1662 76.0747 11.3873 75.8817C12.1016 75.25 12.3312 74.2234 11.974 73.3284C11.6594 72.5563 10.9706 72.0298 10.1798 71.9509C10.3159 71.7578 10.4349 71.5472 10.554 71.3191C10.9196 70.5996 11.7274 67.9147 10.9281 66.0897C10.5965 65.3351 10.0778 64.677 9.42306 64.1857L8.62375 63.589L7.68839 63.9225C6.85507 64.2208 6.02176 64.3348 5.20544 64.2734C4.44015 64.212 4.17655 64.0365 4.16805 64.0365C4.0575 63.9576 3.85343 63.8259 3.82792 63.7119C3.80241 63.6241 3.86193 63.475 3.92145 63.3609C6.45542 61.0357 8.65776 58.3684 10.4775 55.429C11.9485 53.06 13.156 50.5067 14.0828 47.8481C14.7801 45.8476 15.2648 43.6453 15.5284 41.2938C15.775 39.0915 15.9706 36.8453 16.1066 34.6254L16.1236 34.2218C16.7444 24.2806 21.7698 15.2432 29.5673 10.0488C35.0179 6.41632 40.9701 4.3807 47.2625 3.99464C57.2199 3.38044 66.9646 6.89013 74.7025 13.8568C80.8079 19.3583 84.4048 27.334 84.5663 35.7485L84.5748 36.2486C84.6599 42.838 83.0357 49.6644 79.881 55.9906C78.461 58.8334 77.143 61.7816 75.9695 64.7385C73.9372 69.8626 72.2621 75.1885 70.9866 80.5759C70.0938 84.3576 67.1687 87.2531 63.6993 87.7707C62.3898 87.9725 61.0803 87.876 59.8218 87.4812C55.8678 86.2616 53.1893 82.3834 53.2999 78.0665L51.3866 78.0138H55.5532C56.4205 78.0138 57.1178 77.2943 57.1178 76.3994C57.1178 75.5044 56.4205 74.7849 55.5532 74.7849H48.4275C47.5602 74.7849 46.8629 75.5044 46.8629 76.3994C46.8629 77.2943 47.5602 78.0138 48.4275 78.0138H49.4989C49.3628 84.0856 53.1468 89.5168 58.7334 91.2453C60.5276 91.7981 62.3898 91.9385 64.252 91.6577C69.2349 90.9119 73.4271 86.8231 74.6855 81.506C75.91 76.3116 77.5256 71.17 79.4899 66.2301C80.6208 63.3785 81.8963 60.5356 83.2653 57.7893C86.7091 50.8928 88.4778 43.4259 88.3843 36.1872L88.3673 35.6695Z" fill="#242B5A"/>
<path d="M128.68 16.001L137.047 38.7086H131.988L130.261 33.6459H122.081L120.287 38.7086H115.347L123.714 16.001H128.68ZM129.079 30.0134L126.18 21.5726L123.246 30.0134H129.079Z" fill="#E52722"/>
<path d="M156.8 16.0269V17.8782H149.088V38.7082H146.987V17.8782H139.275V16.0269H156.8Z" fill="#242C5A"/>
<path d="M170.227 15.9653L178.994 38.7081H176.681L174.028 31.5746H163.968L161.281 38.7081H159.028L167.914 15.9653H170.227ZM173.373 29.8198L169.053 18.0009L164.606 29.8198H173.373Z" fill="#242C5A"/>
<path d="M204.979 16.0269V38.7082H202.973V25.0116C202.973 22.8005 203.058 20.4227 203.219 17.8782C202.786 19.2821 202.301 20.6509 201.765 21.9845L195.286 38.7082H193.407L186.834 22.1776C186.383 21.0545 185.898 19.6594 185.379 18.0011C185.541 20.4842 185.626 22.8005 185.626 24.9415V38.6994H183.619V16.0269H186.459L192.845 32.2065C193.049 32.7417 193.56 34.1631 194.359 36.4708C194.461 36.1988 194.682 35.5582 195.005 34.558C195.337 33.5577 195.6 32.7944 195.804 32.2679L202.105 16.0269H204.979Z" fill="#242C5A"/>
<path d="M227.3 16.0269V17.8782H214.154V26.0645H226.467V27.8808H214.154V36.8568H227.428V38.7082H212.054V16.0269H227.3Z" fill="#242C5A"/>
<path d="M250.659 16.0269L240.753 25.2924L251.152 38.6994H248.465L239.273 26.7665L235.073 30.7149V38.7082H233.006V16.0269H235.073V28.223L247.878 16.0269H250.659Z" fill="#242C5A"/>
<path d="M270.973 16.0269V17.8782H257.819V26.0645H270.131V27.8808H257.819V36.8568H271.092V38.7082H255.718V16.0269H270.973Z" fill="#242C5A"/>
<path d="M294 16.0269V38.7082H291.687L281.466 23.4849C280.106 21.4493 279.145 19.8349 278.567 18.6416C278.669 20.1507 278.72 21.9582 278.72 24.0553V38.7082H276.679V16.0269H278.992L289.272 31.408C290.42 33.1278 291.381 34.7071 292.146 36.1549C292.044 32.8207 291.993 30.8289 291.993 30.1709V16.0269H294Z" fill="#242C5A"/>
<path d="M117.719 48.7632H128.119C130.176 48.7632 131.86 49.237 133.161 50.1846C134.47 51.1322 135.125 52.5536 135.125 54.4664C135.125 55.5281 134.862 56.4669 134.326 57.2829C133.79 58.0989 133.059 58.7219 132.132 59.1431C134.811 59.9328 136.146 61.7753 136.146 64.6884C136.146 66.8293 135.448 68.4964 134.045 69.6721C132.642 70.8479 130.865 71.4357 128.705 71.4357H117.719V48.7632ZM122.413 52.6151V57.9322H126.792C129.224 57.9322 130.431 57.0548 130.431 55.2912C130.431 54.2471 130.1 53.5451 129.445 53.1766C128.79 52.8081 127.906 52.6151 126.792 52.6151H122.413ZM122.413 61.3103V67.4873H127.26C128.518 67.4873 129.505 67.2768 130.236 66.8468C130.967 66.4257 131.333 65.6009 131.333 64.39C131.333 63.1617 130.95 62.3369 130.176 61.9245C129.403 61.5121 128.348 61.3015 127.013 61.3015H122.413V61.3103Z" fill="#E52722"/>
<path d="M159.172 48.7632V62.9335C159.172 65.8641 158.467 68.0927 157.055 69.6195C155.644 71.1462 153.535 71.9095 150.712 71.9095C147.829 71.9095 145.661 71.1462 144.215 69.6195C142.761 68.0927 142.038 65.8378 142.038 62.8633V48.7632H144.139V62.3281C144.139 64.9428 144.615 66.8907 145.576 68.1717C146.537 69.4528 148.254 70.102 150.746 70.102C152.021 70.102 153.084 69.9178 153.926 69.558C154.768 69.1983 155.414 68.6543 155.873 67.9348C156.324 67.2153 156.638 66.4081 156.817 65.5131C156.996 64.6182 157.081 63.5477 157.081 62.293V48.7632H159.172Z" fill="#242C5A"/>
<path d="M181.425 55.2914H179.385C179.3 53.6155 178.721 52.3345 177.641 51.4571C176.562 50.5797 175.107 50.1322 173.271 50.1322C171.545 50.1322 170.193 50.5007 169.223 51.2465C168.254 51.9923 167.769 53.0452 167.769 54.3964C167.769 54.8878 167.829 55.3177 167.939 55.6863C168.05 56.0548 168.254 56.3794 168.56 56.6602C168.858 56.941 169.138 57.1691 169.393 57.3446C169.648 57.5288 170.065 57.7043 170.643 57.8886C171.221 58.0728 171.681 58.2045 172.029 58.301C172.378 58.3975 172.931 58.5291 173.696 58.6958C174.521 58.8888 175.184 59.0468 175.703 59.1696C176.213 59.3012 176.8 59.4679 177.463 59.6785C178.118 59.8891 178.653 60.0997 179.053 60.319C179.453 60.5296 179.869 60.7928 180.303 61.1175C180.737 61.4334 181.068 61.7843 181.289 62.1704C181.51 62.5565 181.706 63.0039 181.859 63.5216C182.012 64.0393 182.089 64.6184 182.089 65.2589C182.089 66.812 181.672 68.1018 180.839 69.1459C180.005 70.19 178.993 70.9095 177.794 71.3131C176.604 71.7167 175.278 71.9185 173.815 71.9185C171.077 71.9185 168.934 71.2254 167.378 69.8478C165.822 68.4703 165.048 66.5663 165.048 64.1446V63.9516H167.055C167.055 66.0135 167.667 67.5578 168.892 68.6019C170.116 69.646 171.808 70.1637 173.968 70.1637C175.864 70.1637 177.352 69.7513 178.441 68.9178C179.529 68.093 180.073 66.9436 180.073 65.4783C180.073 64.0568 179.555 63.039 178.517 62.4336C177.48 61.8282 175.516 61.1789 172.633 60.477C171.706 60.2664 171.026 60.0909 170.584 59.9681C170.142 59.8364 169.546 59.6171 168.807 59.3012C168.067 58.9854 167.514 58.6344 167.157 58.2659C166.8 57.8974 166.477 57.3884 166.188 56.7567C165.898 56.1162 165.754 55.3792 165.754 54.5281C165.754 52.6153 166.434 51.1061 167.803 49.9918C169.172 48.8775 171.043 48.3159 173.407 48.3159C175.796 48.3159 177.701 48.9038 179.121 50.0795C180.567 51.2641 181.323 53.0013 181.425 55.2914Z" fill="#242C5A"/>
<path d="M190.473 48.7632V71.4445H188.373V48.7632H190.473Z" fill="#242C5A"/>
<path d="M215.039 48.7632V71.4445H212.726L202.514 56.2213C201.153 54.1856 200.192 52.5712 199.614 51.3779C199.716 52.8871 199.767 54.6945 199.767 56.7916V71.4445H197.726V48.7632H200.039L210.319 64.1444C211.467 65.8641 212.428 67.4435 213.194 68.8912C213.092 65.557 213.041 63.5653 213.041 62.9072V48.7632H215.039Z" fill="#242C5A"/>
<path d="M237.419 48.7632V50.6145H224.273V58.8009H236.586V60.6171H224.273V69.6019H237.547V71.4533H222.173V48.7632H237.419Z" fill="#242C5A"/>
<path d="M258.499 55.2914H256.458C256.373 53.6155 255.795 52.3345 254.715 51.4571C253.635 50.5797 252.181 50.1322 250.344 50.1322C248.618 50.1322 247.266 50.5007 246.297 51.2465C245.327 51.9923 244.843 53.0452 244.843 54.3964C244.843 54.8878 244.902 55.3177 245.013 55.6863C245.123 56.0548 245.327 56.3794 245.633 56.6602C245.931 56.941 246.212 57.1691 246.467 57.3446C246.722 57.5288 247.139 57.7043 247.717 57.8886C248.295 58.0728 248.754 58.2045 249.103 58.301C249.451 58.3975 250.004 58.5291 250.769 58.6958C251.594 58.8888 252.257 59.0468 252.776 59.1696C253.286 59.3012 253.873 59.4679 254.536 59.6785C255.191 59.8891 255.727 60.0997 256.126 60.319C256.526 60.5296 256.943 60.7928 257.376 61.1175C257.81 61.4334 258.133 61.7843 258.363 62.1704C258.592 62.5565 258.78 63.0039 258.933 63.5216C259.086 64.0393 259.162 64.6184 259.162 65.2589C259.162 66.812 258.745 68.1018 257.912 69.1459C257.079 70.19 256.067 70.9095 254.868 71.3131C253.678 71.7167 252.351 71.9185 250.888 71.9185C248.15 71.9185 246.008 71.2254 244.452 69.8478C242.895 68.4703 242.122 66.5663 242.122 64.1446V63.9516H244.128C244.128 66.0135 244.741 67.5578 245.965 68.6019C247.19 69.646 248.882 70.1637 251.042 70.1637C252.938 70.1637 254.426 69.7513 255.514 68.9178C256.603 68.093 257.147 66.9436 257.147 65.4783C257.147 64.0568 256.628 63.039 255.591 62.4336C254.553 61.8282 252.589 61.1789 249.715 60.477C248.788 60.2664 248.108 60.0909 247.666 59.9681C247.224 59.8364 246.628 59.6171 245.889 59.3012C245.149 58.9854 244.596 58.6344 244.239 58.2659C243.882 57.8974 243.559 57.3884 243.27 56.7567C242.98 56.1162 242.836 55.3792 242.836 54.5281C242.836 52.6153 243.516 51.1061 244.885 49.9918C246.254 48.8775 248.125 48.3159 250.489 48.3159C252.878 48.3159 254.783 48.9038 256.203 50.0795C257.64 51.2641 258.397 53.0013 258.499 55.2914Z" fill="#242C5A"/>
<path d="M280.633 55.2914H278.592C278.507 53.6155 277.929 52.3345 276.849 51.4571C275.769 50.5797 274.315 50.1322 272.478 50.1322C270.752 50.1322 269.4 50.5007 268.431 51.2465C267.461 51.9923 266.977 53.0452 266.977 54.3964C266.977 54.8878 267.036 55.3177 267.147 55.6863C267.257 56.0548 267.47 56.3794 267.767 56.6602C268.065 56.941 268.346 57.1691 268.601 57.3446C268.856 57.5288 269.273 57.7043 269.851 57.8886C270.429 58.0728 270.888 58.2045 271.237 58.301C271.585 58.3975 272.138 58.5291 272.903 58.6958C273.728 58.8888 274.391 59.0468 274.91 59.1696C275.42 59.3012 276.007 59.4679 276.67 59.6785C277.325 59.8891 277.861 60.0997 278.26 60.319C278.66 60.5296 279.077 60.7928 279.51 61.1175C279.944 61.4334 280.267 61.7843 280.497 62.1704C280.726 62.5565 280.913 63.0039 281.067 63.5216C281.22 64.0393 281.296 64.6184 281.296 65.2589C281.296 66.812 280.879 68.1018 280.046 69.1459C279.213 70.19 278.201 70.9095 277.002 71.3131C275.812 71.7167 274.485 71.9185 273.022 71.9185C270.284 71.9185 268.142 71.2254 266.586 69.8478C265.029 68.4703 264.256 66.5663 264.256 64.1446V63.9516H266.262C266.262 66.0135 266.875 67.5578 268.099 68.6019C269.324 69.646 271.016 70.1637 273.176 70.1637C275.072 70.1637 276.56 69.7513 277.648 68.9178C278.737 68.093 279.281 66.9436 279.281 65.4783C279.281 64.0568 278.762 63.039 277.725 62.4336C276.687 61.8282 274.723 61.1789 271.841 60.477C270.914 60.2664 270.233 60.0909 269.791 59.9681C269.349 59.8364 268.754 59.6171 268.014 59.3012C267.274 58.9854 266.722 58.6344 266.364 58.2659C266.007 57.8974 265.684 57.3884 265.395 56.7567C265.106 56.1162 264.961 55.3792 264.961 54.5281C264.961 52.6153 265.642 51.1061 267.011 49.9918C268.38 48.8775 270.242 48.3159 272.614 48.3159C275.004 48.3159 276.908 48.9038 278.328 50.0795C279.766 51.2641 280.531 53.0013 280.633 55.2914Z" fill="#242C5A"/>
<path d="M137.387 95.4154C137.14 98.2583 136.171 100.522 134.487 102.198C132.804 103.874 130.482 104.716 127.54 104.716C124.352 104.716 121.784 103.628 119.836 101.452C117.889 99.2761 116.92 96.3894 116.92 92.8007C116.92 89.4051 117.906 86.5798 119.87 84.3248C121.835 82.0786 124.454 80.9468 127.727 80.9468C130.338 80.9468 132.532 81.7101 134.3 83.2368C136.069 84.7636 137.047 86.7114 137.234 89.0629H132.515C132.268 87.8082 131.715 86.843 130.865 86.1499C130.015 85.4567 128.935 85.1145 127.642 85.1145C126.307 85.1145 125.176 85.5006 124.267 86.2727C123.348 87.0448 122.71 88.0012 122.336 89.1243C121.962 90.2474 121.784 91.4846 121.784 92.8183C121.784 95.1522 122.311 97.0211 123.357 98.4074C124.403 99.8025 125.814 100.496 127.583 100.496C130.525 100.496 132.2 98.7935 132.617 95.3979H137.387V95.4154Z" fill="#E52722"/>
<path d="M157.88 102.33V104.181H143.433V81.5H145.533V102.33H157.88Z" fill="#242C5A"/>
<path d="M179.58 81.5V95.6703C179.58 98.6009 178.874 100.83 177.463 102.356C176.051 103.883 173.943 104.646 171.119 104.646C168.237 104.646 166.069 103.883 164.623 102.356C163.169 100.83 162.446 98.5746 162.446 95.6001V81.5H164.546V95.0649C164.546 97.6796 165.023 99.6275 165.984 100.909C166.944 102.19 168.662 102.839 171.154 102.839C172.429 102.839 173.492 102.655 174.334 102.295C175.176 101.935 175.822 101.391 176.281 100.672C176.732 99.9522 177.046 99.1449 177.225 98.25C177.403 97.355 177.488 96.2845 177.488 95.0298V81.5H179.58Z" fill="#242C5A"/>
<path d="M186.493 81.5H195.906C197.879 81.5 199.52 81.965 200.83 82.9039C202.139 83.8339 202.794 85.2641 202.794 87.1681C202.794 88.379 202.428 89.4494 201.697 90.3883C200.966 91.3183 200.065 91.915 198.993 92.1694C200.354 92.4414 201.468 93.0293 202.343 93.9243C203.219 94.8192 203.653 96.0652 203.653 97.6796C203.653 99.7854 202.947 101.391 201.536 102.505C200.124 103.62 198.347 104.181 196.213 104.181H186.493V81.5ZM188.526 83.3514V91.5377H195.498C196.961 91.5377 198.194 91.2218 199.206 90.5813C200.218 89.9408 200.719 88.9054 200.719 87.4577C200.719 86.6066 200.558 85.8959 200.243 85.3256C199.92 84.7552 199.469 84.3253 198.866 84.0533C198.27 83.7813 197.667 83.5883 197.063 83.4917C196.459 83.3952 195.753 83.3514 194.946 83.3514H188.526ZM188.526 93.2838V102.33H195.099C195.983 102.33 196.757 102.277 197.429 102.172C198.1 102.067 198.764 101.856 199.435 101.549C200.107 101.242 200.626 100.768 200.991 100.119C201.366 99.4696 201.544 98.6711 201.544 97.7147C201.544 96.8022 201.357 96.0301 200.974 95.4071C200.592 94.7841 200.056 94.3279 199.35 94.0383C198.653 93.7488 197.964 93.5558 197.284 93.4505C196.604 93.3452 195.83 93.2925 194.971 93.2925H188.526V93.2838Z" fill="#242C5A"/>
<path d="M294 115.043H115.347V120.677H294V115.043Z" fill="#242B5A"/>
<path d="M294 0.00488281H115.347V5.63792H294V0.00488281Z" fill="#242B5A"/>
</g>
<defs>
<clipPath id="clip0">
<rect width="294" height="120.672" fill="white"/>
</clipPath>
</defs>
</svg>
