<svg width="67" height="66" viewBox="0 0 67 66" fill="none" xmlns="http://www.w3.org/2000/svg">
<path d="M33.12 0C14.904 0 0.119995 14.784 0.119995 33C0.119995 51.216 14.904 66 33.12 66C51.336 66 66.12 51.216 66.12 33C66.12 14.784 51.336 0 33.12 0ZM33.12 9.9C38.598 9.9 43.02 14.322 43.02 19.8C43.02 25.278 38.598 29.7 33.12 29.7C27.642 29.7 23.22 25.278 23.22 19.8C23.22 14.322 27.642 9.9 33.12 9.9ZM33.12 56.76C29.1991 56.76 25.3392 55.7897 21.8844 53.9357C18.4296 52.0816 15.4874 49.4014 13.32 46.134C13.419 39.567 26.52 35.97 33.12 35.97C39.687 35.97 52.821 39.567 52.92 46.134C50.7526 49.4014 47.8104 52.0816 44.3556 53.9357C40.9008 55.7897 37.0409 56.76 33.12 56.76Z" fill="#242B5A"/>
</svg>
